M48
; DRILL file {KiCad 6.0.6+dfsg-1~bpo11+1} date Wed Aug 23 20:54:15 2023
; FORMAT={-:-/ absolute / inch / decimal}
; #@! TF.CreationDate,2023-08-23T20:54:15+02:00
; #@! TF.GenerationSoftware,Kicad,Pcbnew,6.0.6+dfsg-1~bpo11+1
; #@! TF.FileFunction,MixedPlating,1,2
FMAT,2
INCH
; #@! TA.AperFunction,Plated,PTH,ViaDrill
T1C0.0236
; #@! TA.AperFunction,Plated,PTH,ComponentDrill
T2C0.0394
; #@! TA.AperFunction,Plated,PTH,ComponentDrill
T3C0.0480
; #@! TA.AperFunction,Plated,PTH,ComponentDrill
T4C0.0559
; #@! TA.AperFunction,Plated,PTH,ComponentDrill
T5C0.0563
%
G90
G05
T1
X4.7933Y-2.2121
X4.7933Y-3.3563
X4.813Y-3.9272
X4.8465Y-3.3622
X4.8578Y-2.091
X4.8819Y-3.2382
X4.8819Y-4.2618
X4.9016Y-2.6476
X4.9173Y-3.1181
X4.9296Y-2.0851
X5.0049Y-3.9419
X5.0138Y-2.8484
X5.0201Y-3.8154
X5.0394Y-4.124
X5.0689Y-3.5531
X5.1083Y-2.0177
X5.1153Y-2.5956
X5.1398Y-2.1831
X5.1453Y-2.7484
X5.1453Y-3.3291
X5.2657Y-3.5531
X5.2657Y-3.9961
X5.2953Y-2.0965
X5.2953Y-2.6575
X5.3346Y-4.0551
X5.3642Y-2.0428
X5.3661Y-2.7032
X5.374Y-3.1004
X5.3839Y-3.3465
X5.4094Y-2.1339
X5.4331Y-3.4744
X5.4331Y-3.8583
X5.4341Y-2.3829
X5.4375Y-1.811
X5.438Y-2.7062
X5.4528Y-4.439
X5.4626Y-4.2185
X5.4921Y-3.7106
X5.5315Y-3.6614
X5.5364Y-3.9124
X5.561Y-3.5433
X5.6791Y-3.0906
X5.7087Y-2.8543
X5.7087Y-2.9724
X5.7262Y-3.6319
T2
X5.2451Y-4.4085
X5.2451Y-4.5085
X5.2451Y-4.6085
X5.3451Y-4.4085
X5.3451Y-4.5085
X5.3451Y-4.6085
X5.8409Y-4.0764
X5.8409Y-4.1764
X5.8409Y-4.2764
X5.8409Y-4.3764
X5.8409Y-4.4764
X5.9409Y-4.0764
X5.9409Y-4.1764
X5.9409Y-4.2764
X5.9409Y-4.3764
X5.9409Y-4.4764
T3
X4.7236Y-4.8039
X4.7244Y-5.3709
X5.1181Y-4.8031
X5.1181Y-5.3709
X5.5118Y-4.8039
X5.5118Y-5.3709
X5.9055Y-4.8031
X5.9055Y-5.3709
T4
X4.7236Y-4.926
X4.7244Y-5.4929
X5.1181Y-4.9252
X5.1181Y-5.4929
X5.5118Y-4.926
X5.5118Y-5.4929
X5.9055Y-4.9252
X5.9055Y-5.4929
T5
X4.7236Y-5.2528
X4.7244Y-5.8197
X5.1181Y-5.252
X5.1181Y-5.8197
X5.5118Y-5.2528
X5.5118Y-5.8197
X5.9055Y-5.252
X5.9055Y-5.8197
T0
M30
