M48
; DRILL file {KiCad 6.0.6+dfsg-1~bpo11+1} date Thu May 18 16:33:30 2023
; FORMAT={-:-/ absolute / inch / decimal}
; #@! TF.CreationDate,2023-05-18T16:33:30+02:00
; #@! TF.GenerationSoftware,Kicad,Pcbnew,6.0.6+dfsg-1~bpo11+1
; #@! TF.FileFunction,MixedPlating,1,2
FMAT,2
INCH
; #@! TA.AperFunction,Plated,PTH,ViaDrill
T1C0.0157
; #@! TA.AperFunction,Plated,PTH,ComponentDrill
T2C0.2520
; #@! TA.AperFunction,NonPlated,NPTH,ComponentDrill
T3C0.1260
%
G90
G05
T1
X2.248Y-3.7815
X2.4717Y-4.3894
X2.6319Y-3.8317
X2.9547Y-4.2472
X3.022Y-4.702
X3.0335Y-3.7096
X3.0581Y-2.6939
X3.1407Y-4.748
X3.1799Y-2.6142
X3.2126Y-2.7638
X3.2245Y-3.9338
X3.2976Y-5.2752
X3.302Y-3.078
X3.3593Y-3.0059
X3.3819Y-5.3169
X3.5335Y-3.8654
X3.5433Y-5.9492
X3.5988Y-5.0752
X3.7996Y-3.8
X3.8248Y-4.3327
X3.8579Y-5.2158
X3.885Y-2.4173
X3.9035Y-3.9006
X3.9047Y-2.028
X3.9252Y-4.9606
X3.9382Y-6.089
X3.9469Y-2.75
X4.0583Y-5.678
X4.1486Y-4.3061
X4.2067Y-2.4366
X4.2469Y-1.8492
X4.2846Y-3.048
X4.3954Y-5.3329
X4.5323Y-3.763
X4.5436Y-1.95
X4.6299Y-3.0856
X4.7589Y-2.5472
X4.7776Y-3.137
X4.8122Y-3.9091
X4.8665Y-5.3311
X4.8697Y-2.5197
X4.8713Y-4.6937
X4.9075Y-5.1772
X4.9555Y-4.1003
X4.9744Y-2.6919
X4.9852Y-4.6211
X5.0246Y-3.7205
X5.4862Y-4.001
X5.6382Y-4.3906
X5.8374Y-3.7228
T2
X2.3406Y-2.1831
X2.3406Y-2.7736
X2.3406Y-5.065
X2.3406Y-5.6476
X2.7441Y-2.1921
X2.7441Y-2.7827
X2.7441Y-5.074
X2.7441Y-5.6567
X5.3268Y-2.1921
X5.3268Y-2.7827
X5.3268Y-5.074
X5.3268Y-5.6567
X5.7264Y-2.1831
X5.7264Y-2.7736
X5.7264Y-5.065
X5.7264Y-5.6476
T3
X2.3366Y-6.2953
X2.3406Y-1.4764
X5.7382Y-6.2933
X5.7402Y-1.4764
T0
M30
