M48
;DRILL file {KiCad (6.0.0-rc1-dev-209-g91e3d21d6)} date Tue Nov 19 18:22:51 2019
;FORMAT={-:-/ absolute / inch / decimal}
FMAT,2
INCH,TZ
T1C0.0250
T2C0.0394
T3C0.0480
T4C0.0559
T5C0.0563
T6C0.0984
%
G90
G05
M72
T1
X3.1744Y-3.1709
X3.1821Y-5.562
X3.2213Y-5.3169
X3.2252Y-4.9752
X3.2441Y-2.8559
X3.2539Y-4.0681
X3.2661Y-2.1161
X3.2681Y-5.4795
X3.2866Y-2.6461
X3.2882Y-4.5402
X3.3583Y-3.2386
X3.3701Y-6.0201
X3.3866Y-5.5496
X3.389Y-5.7004
X3.4465Y-3.1343
X3.448Y-2.8598
X3.4618Y-4.2953
X3.511Y-2.8193
X3.5417Y-2.8799
X3.5437Y-3.1291
X3.6051Y-5.015
X3.6142Y-5.2339
X3.6161Y-5.548
X3.6831Y-2.7575
X3.7161Y-4.8839
X3.748Y-4.6441
X3.7492Y-3.6571
X3.7583Y-4.4744
X3.7701Y-6.0299
X3.7972Y-3.5256
X3.8201Y-2.376
X3.822Y-3.3969
X3.9209Y-2.5972
X3.935Y-3.1122
X3.9661Y-5.2118
X3.978Y-3.8114
X3.9835Y-3.2024
X3.9898Y-3.1146
X3.9949Y-2.7146
X4.0031Y-3.7224
X4.0079Y-4.9969
X4.0457Y-3.0862
X4.0508Y-4.5161
X4.0522Y-5.5305
X4.0587Y-4.2205
X4.065Y-4.2654
X4.0665Y-3.6087
X4.098Y-3.6646
X4.1004Y-3.2382
X4.1193Y-2.9118
X4.1193Y-3.8024
X4.1295Y-4.5449
X4.1315Y-5.6953
X4.1319Y-3.3472
X4.1319Y-3.576
X4.1327Y-4.6343
X4.1441Y-4.1634
X4.1685Y-5.2079
X4.1819Y-5.4661
X4.1913Y-3.2386
X4.2039Y-5.1657
X4.2224Y-3.8087
X4.2224Y-4.65
X4.2264Y-4.9673
X4.2276Y-2.9614
X4.2339Y-2.4642
X4.2441Y-2.3039
X4.2441Y-3.348
X4.2496Y-4.2768
X4.2657Y-3.1343
X4.2665Y-5.2921
X4.2697Y-4.3484
X4.2701Y-6.0661
X4.2756Y-3.4882
X4.2787Y-4.6339
X4.2795Y-2.6287
X4.2846Y-3.211
X4.2894Y-3.087
X4.3264Y-4.7295
X4.3327Y-4.5551
X4.3413Y-3.4906
X4.3457Y-4.0862
X4.3563Y-3.3398
X4.3575Y-3.5972
X4.3575Y-3.6972
X4.3642Y-3.2579
X4.3689Y-4.0189
X4.3862Y-3.8921
X4.3937Y-4.1433
X4.402Y-2.5819
X4.4024Y-4.2465
X4.4061Y-3.8081
X4.435Y-4.1146
X4.4732Y-3.5335
X4.4846Y-4.0201
X4.5008Y-3.7921
X4.5035Y-3.6654
X4.5071Y-4.0606
X4.5071Y-4.2512
X4.5248Y-4.4465
X4.5327Y-3.1457
X4.5472Y-3.3815
X4.5488Y-4.1819
X4.5614Y-2.7559
X4.5815Y-3.9051
X4.6029Y-5.9956
X4.6033Y-4.2913
X4.6079Y-2.7701
X4.6307Y-4.737
X4.6335Y-2.3681
X4.6634Y-3.6319
X4.6689Y-5.3724
X4.6776Y-4.7417
X4.6882Y-5.4642
X4.6984Y-3.1921
X4.7102Y-4.1248
X4.722Y-5.6039
X4.7354Y-3.7201
X4.7425Y-3.7961
X4.7528Y-4.3768
X4.7535Y-3.8512
X4.7583Y-4.128
X4.7606Y-4.5154
X4.7622Y-4.6394
X4.7697Y-3.9677
X4.7709Y-5.0661
X4.7713Y-4.2094
X4.7961Y-3.3264
X4.8193Y-3.4669
X4.8252Y-2.05
X4.8319Y-2.5902
X4.8358Y-4.648
X4.8374Y-2.2752
X4.8376Y-2.8415
X4.8843Y-5.0362
X4.8929Y-3.402
X4.902Y-5.574
X4.913Y-4.0154
X4.9232Y-5.1232
X4.9291Y-2.9764
X4.9311Y-2.9163
X4.9539Y-5.976
X4.9681Y-3.7465
X4.9752Y-5.3587
X4.978Y-5.6941
X4.9921Y-2.478
X4.9984Y-4.0102
X5.0181Y-2.7098
X5.0224Y-3.2866
X5.0465Y-5.052
X5.0679Y-3.7913
X5.0685Y-3.5287
X5.0815Y-3.6606
X5.0882Y-4.9984
X5.0925Y-2.9537
X5.0961Y-2.7091
X5.1094Y-4.4287
X5.1169Y-3.0906
X5.1311Y-4.6736
X5.139Y-4.9205
X5.148Y-2.7799
X5.1539Y-5.5059
X5.1626Y-3.311
X5.187Y-3.9079
X5.1959Y-5.5945
X5.2059Y-5.9661
X5.2291Y-4.7811
X5.2402Y-3.7884
X5.248Y-3.5551
X5.2571Y-3.9157
X5.2608Y-5.5394
X5.2622Y-3.4567
X5.2673Y-4.0961
X5.2685Y-3.8236
X5.2689Y-5.8358
X5.2744Y-2.898
X5.2976Y-5.2327
X5.335Y-5.6602
X5.3587Y-5.0724
X5.3654Y-3.3181
X5.3791Y-5.1358
X5.3807Y-3.0783
X5.389Y-4.3854
X5.3937Y-5.4559
X5.4063Y-4.9449
X5.4118Y-5.7083
X5.4236Y-5.1476
X5.4287Y-3.524
X5.439Y-3.185
X5.4429Y-3.6323
X5.4496Y-2.4256
X5.4557Y-4.7963
X5.472Y-3.702
X5.4744Y-2.7677
X5.4799Y-5.3941
X5.4862Y-5.7077
X5.4949Y-4.6094
X5.5181Y-5.3142
X5.5366Y-4.2984
X5.5561Y-4.7982
X5.5606Y-2.6142
X5.5614Y-3.0906
X5.5614Y-3.9776
X5.563Y-3.7579
X5.5665Y-3.6114
X5.5697Y-3.8079
X5.572Y-5.098
X5.574Y-5.4118
X5.5807Y-3.9311
X5.5815Y-4.2276
X5.5835Y-2.8783
X5.5862Y-5.5028
X5.5945Y-4.3622
X5.6043Y-5.0069
X5.6209Y-2.9224
X5.6272Y-4.2752
X5.6319Y-5.4459
X5.6602Y-4.5748
X5.7Y-5.3319
X5.7303Y-4.0827
X5.7654Y-5.9331
X5.7701Y-2.3799
X5.7969Y-4.2929
X5.8Y-5.7142
X5.8079Y-3.7378
X5.8118Y-4.2087
X5.835Y-4.1488
X5.8472Y-3.2929
X5.8567Y-3.5161
X5.872Y-3.0394
X5.9016Y-4.0024
X5.9094Y-5.6299
X5.915Y-4.7618
X5.9201Y-4.1079
X5.9291Y-4.9165
X5.937Y-2.3346
X5.9567Y-3.8776
X5.9768Y-3.9831
X5.9799Y-3.5039
X5.9866Y-4.8217
X6.002Y-4.6146
X6.0165Y-5.0118
X6.0319Y-4.2169
X6.0697Y-4.3295
X6.0787Y-3.0783
X6.0941Y-2.8961
X6.1035Y-4.6228
X6.1102Y-3.6984
X6.1118Y-3.5799
X6.115Y-4.9299
X6.122Y-3.3622
X6.1425Y-2.4642
X6.1526Y-2.813
X6.1697Y-3.5476
X6.1713Y-3.1644
X6.172Y-4.2512
X6.1846Y-2.5618
X6.187Y-2.7136
X6.2114Y-2.9264
X6.2201Y-5.4118
X6.272Y-2.4642
X6.3114Y-4.1677
X6.3142Y-3.3358
X6.3142Y-3.9201
X6.3504Y-4.2094
X6.352Y-5.5756
X6.3533Y-3.8317
X6.3598Y-4.9098
X6.3831Y-3.0303
X6.4181Y-4.3161
X6.4319Y-4.4142
X6.4752Y-3.1173
X6.5287Y-5.3898
X6.5299Y-4.2083
X6.5362Y-4.4433
X6.5413Y-2.7791
X6.5449Y-2.9189
X6.5579Y-4.6421
X6.578Y-5.4976
X6.5803Y-2.3969
X6.587Y-3.6409
X6.5937Y-3.5933
X6.5945Y-5.0197
X6.6382Y-5.3882
X6.7Y-4.5098
X6.7008Y-4.013
X6.7057Y-3.9557
X6.7118Y-4.278
X6.7272Y-2.9433
X6.8079Y-5.6
X6.8205Y-3.4717
X6.8319Y-5.7201
X6.8819Y-4.1
X6.898Y-5.9079
X6.9262Y-5.4518
X6.9831Y-3.4488
X6.9882Y-3.4024
X6.9921Y-4.9661
X6.9921Y-5.7244
X7.002Y-5.322
X7.0535Y-3.4598
T2
X3.2874Y-5.0492
X3.3858Y-5.0492
X3.4843Y-5.0492
X3.8199Y-4.3376
X3.9183Y-4.3376
X4.0167Y-4.3376
X3.2913Y-3.5778
X3.3898Y-3.5778
X3.4882Y-3.5778
X6.6841Y-5.0492
X6.7825Y-5.0492
X6.8809Y-5.0492
X6.6841Y-3.5797
X6.7825Y-3.5797
X6.8809Y-3.5797
X4.9833Y-3.4616
X5.0817Y-3.4616
X5.1801Y-3.4616
X6.1417Y-5.6663
X6.1417Y-5.7663
X6.1417Y-5.8663
X6.1417Y-5.9663
X6.1417Y-6.0663
X6.2417Y-5.6663
X6.2417Y-5.7663
X6.2417Y-5.8663
X6.2417Y-5.9663
X6.2417Y-6.0663
X4.9833Y-5.2077
X5.0817Y-5.2077
X5.1801Y-5.2077
X6.1417Y-4.3474
X6.2402Y-4.3474
X6.3386Y-4.3474
X3.6575Y-4.3063
X3.6575Y-4.4063
X3.6575Y-4.5063
X3.6575Y-4.6063
T3
X6.3504Y-2.1742
X5.6299Y-2.6742
X4.8297Y-4.5758
X3.4774Y-2.2293
X5.3465Y-3.562
X5.7402Y-4.4232
X6.6762Y-2.2264
X4.4222Y-2.6703
X6.2461Y-4.4419
X3.9163Y-3.1821
X3.8494Y-2.5945
X5.7402Y-3.7224
X4.4439Y-3.7215
X4.438Y-4.4203
X6.2441Y-3.1841
X5.7963Y-2.6722
X3.8524Y-2.1742
X5.0856Y-5.5384
X4.8337Y-3.562
X6.3022Y-5.0177
X5.3484Y-4.5738
X3.4803Y-5.3937
X3.3819Y-3.814
X6.3012Y-2.5955
X3.8484Y-5.0138
X4.5699Y-2.6703
X5.7904Y-5.4537
X4.377Y-5.4587
X5.0876Y-2.0886
X3.9104Y-4.4419
X6.7953Y-3.814
X6.6762Y-5.9094
T4
X5.3484Y-4.4518
X3.4803Y-5.5157
X3.3819Y-3.936
X6.3012Y-2.7175
X3.8484Y-5.1358
X4.5699Y-2.5482
X5.7904Y-5.3317
X4.377Y-5.3366
X5.0876Y-2.2106
X3.9104Y-4.564
X6.7953Y-3.936
X6.6762Y-5.7874
X6.2283Y-2.1742
X5.6299Y-2.5522
X4.8297Y-4.4537
X3.4774Y-2.3514
X5.3465Y-3.6841
X5.7402Y-4.5453
X6.6762Y-2.3484
X4.4222Y-2.7923
X6.2461Y-4.564
X3.9163Y-3.3041
X3.8494Y-2.7165
X5.7402Y-3.6004
X4.4439Y-3.5994
X4.438Y-4.5423
X6.2441Y-3.3061
X5.7963Y-2.7943
X3.9744Y-2.1742
X5.0856Y-5.6604
X4.8337Y-3.6841
X6.3022Y-5.1398
T5
X5.9016Y-2.1742
X5.6299Y-2.2254
X4.8297Y-4.127
X3.4774Y-2.6781
X5.3465Y-4.0108
X5.7402Y-4.872
X6.6762Y-2.6752
X4.4222Y-3.1191
X6.2461Y-4.8907
X3.9163Y-3.6309
X3.8494Y-3.0433
X5.7402Y-3.2736
X4.4439Y-3.2726
X4.438Y-4.8691
X6.2441Y-3.6329
X5.7963Y-3.1211
X4.3012Y-2.1742
X5.0856Y-5.9872
X4.8337Y-4.0108
X6.3022Y-5.4665
X5.3484Y-4.125
X3.4803Y-5.8425
X3.3819Y-4.2628
X6.3012Y-3.0443
X3.8484Y-5.4626
X4.5699Y-2.2215
X5.7904Y-5.0049
X4.377Y-5.0098
X5.0876Y-2.5374
X3.9104Y-4.8907
X6.7953Y-4.2628
X6.6762Y-5.4606
T6
X4.9104Y-4.9321
X5.253Y-4.9321
X6.0689Y-4.0719
X6.4114Y-4.0719
X3.2146Y-4.7736
X3.5571Y-4.7736
X3.747Y-4.062
X4.0896Y-4.062
X3.2185Y-3.3022
X3.561Y-3.3022
X6.6112Y-4.7736
X6.9537Y-4.7736
X6.6112Y-3.3041
X6.9537Y-3.3041
X4.9104Y-3.186
X5.253Y-3.186
T0
M30
