%TF.GenerationSoftware,KiCad,Pcbnew,(2017-07-14 revision 22e95aa)-master*%
%TF.CreationDate,2017-07-26T18:39:18+02:00*%
%TF.ProjectId,allcolours,616C6C636F6C6F7572732E6B69636164,rev?*%
%TF.SameCoordinates,Original%
%TF.FileFunction,Legend,Top*%
%TF.FilePolarity,Positive*%
%FSLAX46Y46*%
G04 Gerber Fmt 4.6, Leading zero omitted, Abs format (unit mm)*
G04 Created by KiCad (PCBNEW (2017-07-14 revision 22e95aa)-master) date Wed Jul 26 18:39:18 2017*
%MOMM*%
%LPD*%
G01*
G04 APERTURE LIST*
%ADD10C,0.300000*%
%ADD11C,0.150000*%
%ADD12C,0.120000*%
%ADD13C,0.203200*%
G04 APERTURE END LIST*
D10*
X127392857Y-98750000D02*
X127250000Y-98678571D01*
X127035714Y-98678571D01*
X126821428Y-98750000D01*
X126678571Y-98892857D01*
X126607142Y-99035714D01*
X126535714Y-99321428D01*
X126535714Y-99535714D01*
X126607142Y-99821428D01*
X126678571Y-99964285D01*
X126821428Y-100107142D01*
X127035714Y-100178571D01*
X127178571Y-100178571D01*
X127392857Y-100107142D01*
X127464285Y-100035714D01*
X127464285Y-99535714D01*
X127178571Y-99535714D01*
X124428571Y-95978571D02*
X125428571Y-95978571D01*
X124785714Y-97478571D01*
X126642857Y-96478571D02*
X126642857Y-97478571D01*
X126285714Y-95907142D02*
X125928571Y-96978571D01*
X126857142Y-96978571D01*
X127428571Y-97478571D02*
X127428571Y-95978571D01*
X123635714Y-93628571D02*
X124635714Y-93628571D01*
X123992857Y-95128571D01*
X125849999Y-94128571D02*
X125849999Y-95128571D01*
X125492857Y-93557142D02*
X125135714Y-94628571D01*
X126064285Y-94628571D01*
X127492857Y-94985714D02*
X127421428Y-95057142D01*
X127207142Y-95128571D01*
X127064285Y-95128571D01*
X126849999Y-95057142D01*
X126707142Y-94914285D01*
X126635714Y-94771428D01*
X126564285Y-94485714D01*
X126564285Y-94271428D01*
X126635714Y-93985714D01*
X126707142Y-93842857D01*
X126849999Y-93700000D01*
X127064285Y-93628571D01*
X127207142Y-93628571D01*
X127421428Y-93700000D01*
X127492857Y-93771428D01*
X123599999Y-91128571D02*
X124599999Y-91128571D01*
X123957142Y-92628571D01*
X125814285Y-91628571D02*
X125814285Y-92628571D01*
X125457142Y-91057142D02*
X125099999Y-92128571D01*
X126028571Y-92128571D01*
X126885714Y-91128571D02*
X127171428Y-91128571D01*
X127314285Y-91200000D01*
X127457142Y-91342857D01*
X127528571Y-91628571D01*
X127528571Y-92128571D01*
X127457142Y-92414285D01*
X127314285Y-92557142D01*
X127171428Y-92628571D01*
X126885714Y-92628571D01*
X126742857Y-92557142D01*
X126599999Y-92414285D01*
X126528571Y-92128571D01*
X126528571Y-91628571D01*
X126599999Y-91342857D01*
X126742857Y-91200000D01*
X126885714Y-91128571D01*
X124078571Y-89364285D02*
X124078571Y-90078571D01*
X123578571Y-88578571D02*
X124078571Y-89364285D01*
X124578571Y-88578571D01*
X125078571Y-90078571D02*
X125078571Y-88578571D01*
X125935714Y-90078571D01*
X125935714Y-88578571D01*
X126935714Y-88578571D02*
X127221428Y-88578571D01*
X127364285Y-88650000D01*
X127507142Y-88792857D01*
X127578571Y-89078571D01*
X127578571Y-89578571D01*
X127507142Y-89864285D01*
X127364285Y-90007142D01*
X127221428Y-90078571D01*
X126935714Y-90078571D01*
X126792857Y-90007142D01*
X126649999Y-89864285D01*
X126578571Y-89578571D01*
X126578571Y-89078571D01*
X126649999Y-88792857D01*
X126792857Y-88650000D01*
X126935714Y-88578571D01*
X123600000Y-87378571D02*
X123600000Y-85878571D01*
X123600000Y-86592857D02*
X124457142Y-86592857D01*
X124457142Y-87378571D02*
X124457142Y-85878571D01*
X125171428Y-87378571D02*
X125171428Y-85878571D01*
X126028571Y-87378571D01*
X126028571Y-85878571D01*
X127028571Y-85878571D02*
X127314285Y-85878571D01*
X127457142Y-85950000D01*
X127600000Y-86092857D01*
X127671428Y-86378571D01*
X127671428Y-86878571D01*
X127600000Y-87164285D01*
X127457142Y-87307142D01*
X127314285Y-87378571D01*
X127028571Y-87378571D01*
X126885714Y-87307142D01*
X126742857Y-87164285D01*
X126671428Y-86878571D01*
X126671428Y-86378571D01*
X126742857Y-86092857D01*
X126885714Y-85950000D01*
X127028571Y-85878571D01*
X125271428Y-84585714D02*
X125199999Y-84657142D01*
X124985714Y-84728571D01*
X124842857Y-84728571D01*
X124628571Y-84657142D01*
X124485714Y-84514285D01*
X124414285Y-84371428D01*
X124342857Y-84085714D01*
X124342857Y-83871428D01*
X124414285Y-83585714D01*
X124485714Y-83442857D01*
X124628571Y-83300000D01*
X124842857Y-83228571D01*
X124985714Y-83228571D01*
X125199999Y-83300000D01*
X125271428Y-83371428D01*
X126199999Y-83228571D02*
X126485714Y-83228571D01*
X126628571Y-83300000D01*
X126771428Y-83442857D01*
X126842857Y-83728571D01*
X126842857Y-84228571D01*
X126771428Y-84514285D01*
X126628571Y-84657142D01*
X126485714Y-84728571D01*
X126199999Y-84728571D01*
X126057142Y-84657142D01*
X125914285Y-84514285D01*
X125842857Y-84228571D01*
X125842857Y-83728571D01*
X125914285Y-83442857D01*
X126057142Y-83300000D01*
X126199999Y-83228571D01*
X127485714Y-84728571D02*
X127485714Y-83228571D01*
X124828571Y-82035714D02*
X124757142Y-82107142D01*
X124542857Y-82178571D01*
X124400000Y-82178571D01*
X124185714Y-82107142D01*
X124042857Y-81964285D01*
X123971428Y-81821428D01*
X123900000Y-81535714D01*
X123900000Y-81321428D01*
X123971428Y-81035714D01*
X124042857Y-80892857D01*
X124185714Y-80750000D01*
X124400000Y-80678571D01*
X124542857Y-80678571D01*
X124757142Y-80750000D01*
X124828571Y-80821428D01*
X125757142Y-80678571D02*
X126042857Y-80678571D01*
X126185714Y-80750000D01*
X126328571Y-80892857D01*
X126400000Y-81178571D01*
X126400000Y-81678571D01*
X126328571Y-81964285D01*
X126185714Y-82107142D01*
X126042857Y-82178571D01*
X125757142Y-82178571D01*
X125614285Y-82107142D01*
X125471428Y-81964285D01*
X125400000Y-81678571D01*
X125400000Y-81178571D01*
X125471428Y-80892857D01*
X125614285Y-80750000D01*
X125757142Y-80678571D01*
X127900000Y-82035714D02*
X127828571Y-82107142D01*
X127614285Y-82178571D01*
X127471428Y-82178571D01*
X127257142Y-82107142D01*
X127114285Y-81964285D01*
X127042857Y-81821428D01*
X126971428Y-81535714D01*
X126971428Y-81321428D01*
X127042857Y-81035714D01*
X127114285Y-80892857D01*
X127257142Y-80750000D01*
X127471428Y-80678571D01*
X127614285Y-80678571D01*
X127828571Y-80750000D01*
X127900000Y-80821428D01*
X123535714Y-77807142D02*
X123750000Y-77878571D01*
X124107142Y-77878571D01*
X124250000Y-77807142D01*
X124321428Y-77735714D01*
X124392857Y-77592857D01*
X124392857Y-77450000D01*
X124321428Y-77307142D01*
X124250000Y-77235714D01*
X124107142Y-77164285D01*
X123821428Y-77092857D01*
X123678571Y-77021428D01*
X123607142Y-76950000D01*
X123535714Y-76807142D01*
X123535714Y-76664285D01*
X123607142Y-76521428D01*
X123678571Y-76450000D01*
X123821428Y-76378571D01*
X124178571Y-76378571D01*
X124392857Y-76450000D01*
X125035714Y-77878571D02*
X125035714Y-76378571D01*
X125035714Y-77092857D02*
X125892857Y-77092857D01*
X125892857Y-77878571D02*
X125892857Y-76378571D01*
X127464285Y-77735714D02*
X127392857Y-77807142D01*
X127178571Y-77878571D01*
X127035714Y-77878571D01*
X126821428Y-77807142D01*
X126678571Y-77664285D01*
X126607142Y-77521428D01*
X126535714Y-77235714D01*
X126535714Y-77021428D01*
X126607142Y-76735714D01*
X126678571Y-76592857D01*
X126821428Y-76450000D01*
X127035714Y-76378571D01*
X127178571Y-76378571D01*
X127392857Y-76450000D01*
X127464285Y-76521428D01*
X123500000Y-75157142D02*
X123714285Y-75228571D01*
X124071428Y-75228571D01*
X124214285Y-75157142D01*
X124285714Y-75085714D01*
X124357142Y-74942857D01*
X124357142Y-74800000D01*
X124285714Y-74657142D01*
X124214285Y-74585714D01*
X124071428Y-74514285D01*
X123785714Y-74442857D01*
X123642857Y-74371428D01*
X123571428Y-74300000D01*
X123500000Y-74157142D01*
X123500000Y-74014285D01*
X123571428Y-73871428D01*
X123642857Y-73800000D01*
X123785714Y-73728571D01*
X124142857Y-73728571D01*
X124357142Y-73800000D01*
X125000000Y-75228571D02*
X125000000Y-73728571D01*
X125000000Y-74442857D02*
X125857142Y-74442857D01*
X125857142Y-75228571D02*
X125857142Y-73728571D01*
X126857142Y-73728571D02*
X127142857Y-73728571D01*
X127285714Y-73800000D01*
X127428571Y-73942857D01*
X127500000Y-74228571D01*
X127500000Y-74728571D01*
X127428571Y-75014285D01*
X127285714Y-75157142D01*
X127142857Y-75228571D01*
X126857142Y-75228571D01*
X126714285Y-75157142D01*
X126571428Y-75014285D01*
X126500000Y-74728571D01*
X126500000Y-74228571D01*
X126571428Y-73942857D01*
X126714285Y-73800000D01*
X126857142Y-73728571D01*
X124378571Y-72457142D02*
X124592857Y-72528571D01*
X124950000Y-72528571D01*
X125092857Y-72457142D01*
X125164285Y-72385714D01*
X125235714Y-72242857D01*
X125235714Y-72100000D01*
X125164285Y-71957142D01*
X125092857Y-71885714D01*
X124950000Y-71814285D01*
X124664285Y-71742857D01*
X124521428Y-71671428D01*
X124450000Y-71600000D01*
X124378571Y-71457142D01*
X124378571Y-71314285D01*
X124450000Y-71171428D01*
X124521428Y-71100000D01*
X124664285Y-71028571D01*
X125021428Y-71028571D01*
X125235714Y-71100000D01*
X125878571Y-72528571D02*
X125878571Y-71028571D01*
X125878571Y-71742857D02*
X126735714Y-71742857D01*
X126735714Y-72528571D02*
X126735714Y-71028571D01*
X127450000Y-72528571D02*
X127450000Y-71028571D01*
X125521428Y-69292857D02*
X125735714Y-69364285D01*
X125807142Y-69435714D01*
X125878571Y-69578571D01*
X125878571Y-69792857D01*
X125807142Y-69935714D01*
X125735714Y-70007142D01*
X125592857Y-70078571D01*
X125021428Y-70078571D01*
X125021428Y-68578571D01*
X125521428Y-68578571D01*
X125664285Y-68650000D01*
X125735714Y-68721428D01*
X125807142Y-68864285D01*
X125807142Y-69007142D01*
X125735714Y-69150000D01*
X125664285Y-69221428D01*
X125521428Y-69292857D01*
X125021428Y-69292857D01*
X126807142Y-68578571D02*
X127092857Y-68578571D01*
X127235714Y-68650000D01*
X127378571Y-68792857D01*
X127450000Y-69078571D01*
X127450000Y-69578571D01*
X127378571Y-69864285D01*
X127235714Y-70007142D01*
X127092857Y-70078571D01*
X126807142Y-70078571D01*
X126664285Y-70007142D01*
X126521428Y-69864285D01*
X126450000Y-69578571D01*
X126450000Y-69078571D01*
X126521428Y-68792857D01*
X126664285Y-68650000D01*
X126807142Y-68578571D01*
X125600000Y-66792857D02*
X125814285Y-66864285D01*
X125885714Y-66935714D01*
X125957142Y-67078571D01*
X125957142Y-67292857D01*
X125885714Y-67435714D01*
X125814285Y-67507142D01*
X125671428Y-67578571D01*
X125100000Y-67578571D01*
X125100000Y-66078571D01*
X125600000Y-66078571D01*
X125742857Y-66150000D01*
X125814285Y-66221428D01*
X125885714Y-66364285D01*
X125885714Y-66507142D01*
X125814285Y-66650000D01*
X125742857Y-66721428D01*
X125600000Y-66792857D01*
X125100000Y-66792857D01*
X126600000Y-67578571D02*
X126600000Y-66078571D01*
X125471428Y-64142857D02*
X125685714Y-64214285D01*
X125757142Y-64285714D01*
X125828571Y-64428571D01*
X125828571Y-64642857D01*
X125757142Y-64785714D01*
X125685714Y-64857142D01*
X125542857Y-64928571D01*
X124971428Y-64928571D01*
X124971428Y-63428571D01*
X125471428Y-63428571D01*
X125614285Y-63500000D01*
X125685714Y-63571428D01*
X125757142Y-63714285D01*
X125757142Y-63857142D01*
X125685714Y-64000000D01*
X125614285Y-64071428D01*
X125471428Y-64142857D01*
X124971428Y-64142857D01*
X126757142Y-63428571D02*
X127042857Y-63428571D01*
X127185714Y-63500000D01*
X127328571Y-63642857D01*
X127400000Y-63928571D01*
X127400000Y-64428571D01*
X127328571Y-64714285D01*
X127185714Y-64857142D01*
X127042857Y-64928571D01*
X126757142Y-64928571D01*
X126614285Y-64857142D01*
X126471428Y-64714285D01*
X126400000Y-64428571D01*
X126400000Y-63928571D01*
X126471428Y-63642857D01*
X126614285Y-63500000D01*
X126757142Y-63428571D01*
X125850000Y-61392857D02*
X126064285Y-61464285D01*
X126135714Y-61535714D01*
X126207142Y-61678571D01*
X126207142Y-61892857D01*
X126135714Y-62035714D01*
X126064285Y-62107142D01*
X125921428Y-62178571D01*
X125350000Y-62178571D01*
X125350000Y-60678571D01*
X125850000Y-60678571D01*
X125992857Y-60750000D01*
X126064285Y-60821428D01*
X126135714Y-60964285D01*
X126135714Y-61107142D01*
X126064285Y-61250000D01*
X125992857Y-61321428D01*
X125850000Y-61392857D01*
X125350000Y-61392857D01*
X126850000Y-62178571D02*
X126850000Y-60678571D01*
X125878571Y-59085714D02*
X125807142Y-59157142D01*
X125592857Y-59228571D01*
X125450000Y-59228571D01*
X125235714Y-59157142D01*
X125092857Y-59014285D01*
X125021428Y-58871428D01*
X124950000Y-58585714D01*
X124950000Y-58371428D01*
X125021428Y-58085714D01*
X125092857Y-57942857D01*
X125235714Y-57800000D01*
X125450000Y-57728571D01*
X125592857Y-57728571D01*
X125807142Y-57800000D01*
X125878571Y-57871428D01*
X126807142Y-57728571D02*
X127092857Y-57728571D01*
X127235714Y-57800000D01*
X127378571Y-57942857D01*
X127450000Y-58228571D01*
X127450000Y-58728571D01*
X127378571Y-59014285D01*
X127235714Y-59157142D01*
X127092857Y-59228571D01*
X126807142Y-59228571D01*
X126664285Y-59157142D01*
X126521428Y-59014285D01*
X126450000Y-58728571D01*
X126450000Y-58228571D01*
X126521428Y-57942857D01*
X126664285Y-57800000D01*
X126807142Y-57728571D01*
D11*
%TO.C,C1*%
X149460000Y-85857000D02*
X149206000Y-85857000D01*
X149206000Y-85857000D02*
X149206000Y-88143000D01*
X149206000Y-88143000D02*
X149460000Y-88143000D01*
X149460000Y-85857000D02*
X149460000Y-88143000D01*
X149460000Y-88143000D02*
X151111000Y-88143000D01*
X152889000Y-85857000D02*
X154540000Y-85857000D01*
X154540000Y-85857000D02*
X154540000Y-88143000D01*
X154540000Y-88143000D02*
X152889000Y-88143000D01*
X151111000Y-85857000D02*
X149460000Y-85857000D01*
%TO.C,C2*%
X166570000Y-58817000D02*
X166316000Y-58817000D01*
X166316000Y-58817000D02*
X166316000Y-61103000D01*
X166316000Y-61103000D02*
X166570000Y-61103000D01*
X166570000Y-58817000D02*
X166570000Y-61103000D01*
X166570000Y-61103000D02*
X168221000Y-61103000D01*
X169999000Y-58817000D02*
X171650000Y-58817000D01*
X171650000Y-58817000D02*
X171650000Y-61103000D01*
X171650000Y-61103000D02*
X169999000Y-61103000D01*
X168221000Y-58817000D02*
X166570000Y-58817000D01*
D12*
%TO.C,C3*%
X204500000Y-105850000D02*
X205500000Y-105850000D01*
X205500000Y-104150000D02*
X204500000Y-104150000D01*
D11*
%TO.C,C4*%
X159289000Y-94133000D02*
X160940000Y-94133000D01*
X155860000Y-91847000D02*
X157511000Y-91847000D01*
X155860000Y-94133000D02*
X155860000Y-91847000D01*
X157511000Y-94133000D02*
X155860000Y-94133000D01*
X160940000Y-91847000D02*
X159289000Y-91847000D01*
X160940000Y-94133000D02*
X160940000Y-91847000D01*
X161194000Y-91847000D02*
X160940000Y-91847000D01*
X161194000Y-94133000D02*
X161194000Y-91847000D01*
X160940000Y-94133000D02*
X161194000Y-94133000D01*
%TO.C,C5*%
X143460000Y-88857000D02*
X143206000Y-88857000D01*
X143206000Y-88857000D02*
X143206000Y-91143000D01*
X143206000Y-91143000D02*
X143460000Y-91143000D01*
X143460000Y-88857000D02*
X143460000Y-91143000D01*
X143460000Y-91143000D02*
X145111000Y-91143000D01*
X146889000Y-88857000D02*
X148540000Y-88857000D01*
X148540000Y-88857000D02*
X148540000Y-91143000D01*
X148540000Y-91143000D02*
X146889000Y-91143000D01*
X145111000Y-88857000D02*
X143460000Y-88857000D01*
D12*
%TO.C,C6*%
X141500000Y-109850000D02*
X142500000Y-109850000D01*
X142500000Y-108150000D02*
X141500000Y-108150000D01*
%TO.C,C7*%
X189500000Y-103850000D02*
X190500000Y-103850000D01*
X190500000Y-102150000D02*
X189500000Y-102150000D01*
%TO.C,C8*%
X168440000Y-87020000D02*
X169440000Y-87020000D01*
X169440000Y-85320000D02*
X168440000Y-85320000D01*
%TO.C,C9*%
X167500000Y-98850000D02*
X168500000Y-98850000D01*
X168500000Y-97150000D02*
X167500000Y-97150000D01*
D11*
%TO.C,C10*%
X173111000Y-87857000D02*
X171460000Y-87857000D01*
X176540000Y-90143000D02*
X174889000Y-90143000D01*
X176540000Y-87857000D02*
X176540000Y-90143000D01*
X174889000Y-87857000D02*
X176540000Y-87857000D01*
X171460000Y-90143000D02*
X173111000Y-90143000D01*
X171460000Y-87857000D02*
X171460000Y-90143000D01*
X171206000Y-90143000D02*
X171460000Y-90143000D01*
X171206000Y-87857000D02*
X171206000Y-90143000D01*
X171460000Y-87857000D02*
X171206000Y-87857000D01*
D12*
%TO.C,C11*%
X181500000Y-87850000D02*
X182500000Y-87850000D01*
X182500000Y-86150000D02*
X181500000Y-86150000D01*
%TO.C,C12*%
X165050000Y-105100000D02*
X165050000Y-104100000D01*
X163350000Y-104100000D02*
X163350000Y-105100000D01*
D11*
%TO.C,C13*%
X162343000Y-103711000D02*
X162343000Y-102060000D01*
X160057000Y-107140000D02*
X160057000Y-105489000D01*
X162343000Y-107140000D02*
X160057000Y-107140000D01*
X162343000Y-105489000D02*
X162343000Y-107140000D01*
X160057000Y-102060000D02*
X160057000Y-103711000D01*
X162343000Y-102060000D02*
X160057000Y-102060000D01*
X160057000Y-101806000D02*
X160057000Y-102060000D01*
X162343000Y-101806000D02*
X160057000Y-101806000D01*
X162343000Y-102060000D02*
X162343000Y-101806000D01*
%TO.C,C14*%
X160057000Y-113140000D02*
X160057000Y-113394000D01*
X160057000Y-113394000D02*
X162343000Y-113394000D01*
X162343000Y-113394000D02*
X162343000Y-113140000D01*
X160057000Y-113140000D02*
X162343000Y-113140000D01*
X162343000Y-113140000D02*
X162343000Y-111489000D01*
X160057000Y-109711000D02*
X160057000Y-108060000D01*
X160057000Y-108060000D02*
X162343000Y-108060000D01*
X162343000Y-108060000D02*
X162343000Y-109711000D01*
X160057000Y-111489000D02*
X160057000Y-113140000D01*
D12*
%TO.C,C15*%
X165050000Y-111100000D02*
X165050000Y-110100000D01*
X163350000Y-110100000D02*
X163350000Y-111100000D01*
%TO.C,D1*%
X205043629Y-108040000D02*
X204870000Y-108040000D01*
X204913000Y-107060000D02*
X204913000Y-106171000D01*
X204913000Y-106615500D02*
X204320333Y-107060000D01*
X204320333Y-107060000D02*
X204320333Y-106171000D01*
X204320333Y-106171000D02*
X204913000Y-106615500D01*
X207576371Y-108040000D02*
G75*
G03X207576371Y-108040000I-1266371J0D01*
G01*
%TO.C,D2*%
X201876371Y-108170000D02*
G75*
G03X201876371Y-108170000I-1266371J0D01*
G01*
X198620333Y-106301000D02*
X199213000Y-106745500D01*
X198620333Y-107190000D02*
X198620333Y-106301000D01*
X199213000Y-106745500D02*
X198620333Y-107190000D01*
X199213000Y-107190000D02*
X199213000Y-106301000D01*
X199343629Y-108170000D02*
X199170000Y-108170000D01*
%TO.C,D3*%
X194266371Y-87000000D02*
G75*
G03X194266371Y-87000000I-1266371J0D01*
G01*
X191010333Y-85131000D02*
X191603000Y-85575500D01*
X191010333Y-86020000D02*
X191010333Y-85131000D01*
X191603000Y-85575500D02*
X191010333Y-86020000D01*
X191603000Y-86020000D02*
X191603000Y-85131000D01*
X191733629Y-87000000D02*
X191560000Y-87000000D01*
D13*
%TO.C,M1*%
X174874000Y-33531000D02*
X174874000Y-37341000D01*
X177668000Y-33531000D02*
X174874000Y-33531000D01*
X184653000Y-33531000D02*
X182113000Y-33531000D01*
X184653000Y-44580000D02*
X184653000Y-41278000D01*
X181351000Y-44580000D02*
X184653000Y-44580000D01*
X174701280Y-44498720D02*
X177701020Y-44498720D01*
X174701280Y-41498980D02*
X174701280Y-44498720D01*
%TO.C,M2*%
X189701280Y-41498980D02*
X189701280Y-44498720D01*
X189701280Y-44498720D02*
X192701020Y-44498720D01*
X196351000Y-44580000D02*
X199653000Y-44580000D01*
X199653000Y-44580000D02*
X199653000Y-41278000D01*
X199653000Y-33531000D02*
X197113000Y-33531000D01*
X192668000Y-33531000D02*
X189874000Y-33531000D01*
X189874000Y-33531000D02*
X189874000Y-37341000D01*
%TO.C,M3*%
X144874000Y-33531000D02*
X144874000Y-37341000D01*
X147668000Y-33531000D02*
X144874000Y-33531000D01*
X154653000Y-33531000D02*
X152113000Y-33531000D01*
X154653000Y-44580000D02*
X154653000Y-41278000D01*
X151351000Y-44580000D02*
X154653000Y-44580000D01*
X144701280Y-44498720D02*
X147701020Y-44498720D01*
X144701280Y-41498980D02*
X144701280Y-44498720D01*
%TO.C,M4*%
X159701280Y-41498980D02*
X159701280Y-44498720D01*
X159701280Y-44498720D02*
X162701020Y-44498720D01*
X166351000Y-44580000D02*
X169653000Y-44580000D01*
X169653000Y-44580000D02*
X169653000Y-41278000D01*
X169653000Y-33531000D02*
X167113000Y-33531000D01*
X162668000Y-33531000D02*
X159874000Y-33531000D01*
X159874000Y-33531000D02*
X159874000Y-37341000D01*
D12*
%TO.C,P1*%
X162370000Y-50830000D02*
X162370000Y-49500000D01*
X163700000Y-50830000D02*
X162370000Y-50830000D01*
X164970000Y-50830000D02*
X164970000Y-48170000D01*
X164970000Y-48170000D02*
X182810000Y-48170000D01*
X164970000Y-50830000D02*
X182810000Y-50830000D01*
X182810000Y-50830000D02*
X182810000Y-48170000D01*
%TO.C,P2*%
X130830000Y-80190000D02*
X128170000Y-80190000D01*
X130830000Y-98030000D02*
X130830000Y-80190000D01*
X128170000Y-98030000D02*
X128170000Y-80190000D01*
X130830000Y-98030000D02*
X128170000Y-98030000D01*
X130830000Y-99300000D02*
X130830000Y-100630000D01*
X130830000Y-100630000D02*
X129500000Y-100630000D01*
%TO.C,P3*%
X132170000Y-78310000D02*
X134830000Y-78310000D01*
X132170000Y-60470000D02*
X132170000Y-78310000D01*
X134830000Y-60470000D02*
X134830000Y-78310000D01*
X132170000Y-60470000D02*
X134830000Y-60470000D01*
X132170000Y-59200000D02*
X132170000Y-57870000D01*
X132170000Y-57870000D02*
X133500000Y-57870000D01*
%TO.C,P4*%
X175870000Y-113090000D02*
X181070000Y-113090000D01*
X175870000Y-102870000D02*
X175870000Y-113090000D01*
X181070000Y-100270000D02*
X181070000Y-113090000D01*
X175870000Y-102870000D02*
X178470000Y-102870000D01*
X178470000Y-102870000D02*
X178470000Y-100270000D01*
X178470000Y-100270000D02*
X181070000Y-100270000D01*
X175870000Y-101600000D02*
X175870000Y-100270000D01*
X175870000Y-100270000D02*
X177200000Y-100270000D01*
%TO.C,P5*%
X134830000Y-80190000D02*
X132170000Y-80190000D01*
X134830000Y-98030000D02*
X134830000Y-80190000D01*
X132170000Y-98030000D02*
X132170000Y-80190000D01*
X134830000Y-98030000D02*
X132170000Y-98030000D01*
X134830000Y-99300000D02*
X134830000Y-100630000D01*
X134830000Y-100630000D02*
X133500000Y-100630000D01*
%TO.C,P6*%
X128170000Y-57870000D02*
X129500000Y-57870000D01*
X128170000Y-59200000D02*
X128170000Y-57870000D01*
X128170000Y-60470000D02*
X130830000Y-60470000D01*
X130830000Y-60470000D02*
X130830000Y-78310000D01*
X128170000Y-60470000D02*
X128170000Y-78310000D01*
X128170000Y-78310000D02*
X130830000Y-78310000D01*
%TO.C,Q1*%
X149740000Y-105850000D02*
X153340000Y-105850000D01*
X149215816Y-105122795D02*
G75*
G03X149740000Y-105850000I2324184J1122795D01*
G01*
X149183600Y-102901193D02*
G75*
G02X151540000Y-101400000I2356400J-1098807D01*
G01*
X153896400Y-102901193D02*
G75*
G03X151540000Y-101400000I-2356400J-1098807D01*
G01*
X153864184Y-105122795D02*
G75*
G02X153340000Y-105850000I-2324184J1122795D01*
G01*
%TO.C,Q2*%
X162770000Y-71090000D02*
X166370000Y-71090000D01*
X162245816Y-70362795D02*
G75*
G03X162770000Y-71090000I2324184J1122795D01*
G01*
X162213600Y-68141193D02*
G75*
G02X164570000Y-66640000I2356400J-1098807D01*
G01*
X166926400Y-68141193D02*
G75*
G03X164570000Y-66640000I-2356400J-1098807D01*
G01*
X166894184Y-70362795D02*
G75*
G02X166370000Y-71090000I-2324184J1122795D01*
G01*
%TO.C,Q3*%
X153864184Y-97122795D02*
G75*
G02X153340000Y-97850000I-2324184J1122795D01*
G01*
X153896400Y-94901193D02*
G75*
G03X151540000Y-93400000I-2356400J-1098807D01*
G01*
X149183600Y-94901193D02*
G75*
G02X151540000Y-93400000I2356400J-1098807D01*
G01*
X149215816Y-97122795D02*
G75*
G03X149740000Y-97850000I2324184J1122795D01*
G01*
X149740000Y-97850000D02*
X153340000Y-97850000D01*
%TO.C,Q4*%
X175864184Y-70122795D02*
G75*
G02X175340000Y-70850000I-2324184J1122795D01*
G01*
X175896400Y-67901193D02*
G75*
G03X173540000Y-66400000I-2356400J-1098807D01*
G01*
X171183600Y-67901193D02*
G75*
G02X173540000Y-66400000I2356400J-1098807D01*
G01*
X171215816Y-70122795D02*
G75*
G03X171740000Y-70850000I2324184J1122795D01*
G01*
X171740000Y-70850000D02*
X175340000Y-70850000D01*
%TO.C,Q5*%
X180370000Y-70730000D02*
X183970000Y-70730000D01*
X179845816Y-70002795D02*
G75*
G03X180370000Y-70730000I2324184J1122795D01*
G01*
X179813600Y-67781193D02*
G75*
G02X182170000Y-66280000I2356400J-1098807D01*
G01*
X184526400Y-67781193D02*
G75*
G03X182170000Y-66280000I-2356400J-1098807D01*
G01*
X184494184Y-70002795D02*
G75*
G02X183970000Y-70730000I-2324184J1122795D01*
G01*
%TO.C,Q6*%
X201864184Y-85122795D02*
G75*
G02X201340000Y-85850000I-2324184J1122795D01*
G01*
X201896400Y-82901193D02*
G75*
G03X199540000Y-81400000I-2356400J-1098807D01*
G01*
X197183600Y-82901193D02*
G75*
G02X199540000Y-81400000I2356400J-1098807D01*
G01*
X197215816Y-85122795D02*
G75*
G03X197740000Y-85850000I2324184J1122795D01*
G01*
X197740000Y-85850000D02*
X201340000Y-85850000D01*
%TO.C,R1*%
X157750000Y-95400000D02*
X158950000Y-95400000D01*
X158950000Y-97160000D02*
X157750000Y-97160000D01*
%TO.C,R2*%
X153600000Y-90880000D02*
X152400000Y-90880000D01*
X152400000Y-89120000D02*
X153600000Y-89120000D01*
%TO.C,R3*%
X169600000Y-63880000D02*
X168400000Y-63880000D01*
X168400000Y-62120000D02*
X169600000Y-62120000D01*
%TO.C,R4*%
X175160000Y-63800000D02*
X173960000Y-63800000D01*
X173960000Y-62040000D02*
X175160000Y-62040000D01*
%TO.C,R5*%
X141290000Y-87890000D02*
X140090000Y-87890000D01*
X140090000Y-86130000D02*
X141290000Y-86130000D01*
%TO.C,R6*%
X145400000Y-86120000D02*
X146600000Y-86120000D01*
X146600000Y-87880000D02*
X145400000Y-87880000D01*
%TO.C,R7*%
X204230000Y-98940000D02*
X205430000Y-98940000D01*
X205430000Y-100700000D02*
X204230000Y-100700000D01*
%TO.C,R8*%
X197400000Y-100120000D02*
X198600000Y-100120000D01*
X198600000Y-101880000D02*
X197400000Y-101880000D01*
%TO.C,R9*%
X197360000Y-102800000D02*
X198560000Y-102800000D01*
X198560000Y-104560000D02*
X197360000Y-104560000D01*
%TO.C,R10*%
X180490000Y-60960000D02*
X179290000Y-60960000D01*
X179290000Y-59200000D02*
X180490000Y-59200000D01*
%TO.C,R11*%
X139400000Y-89120000D02*
X140600000Y-89120000D01*
X140600000Y-90880000D02*
X139400000Y-90880000D01*
%TO.C,R12*%
X184810000Y-59110000D02*
X186010000Y-59110000D01*
X186010000Y-60870000D02*
X184810000Y-60870000D01*
%TO.C,R13*%
X180580000Y-63710000D02*
X179380000Y-63710000D01*
X179380000Y-61950000D02*
X180580000Y-61950000D01*
%TO.C,R14*%
X190600000Y-98880000D02*
X189400000Y-98880000D01*
X189400000Y-97120000D02*
X190600000Y-97120000D01*
%TO.C,R15*%
X205490000Y-103100000D02*
X204290000Y-103100000D01*
X204290000Y-101340000D02*
X205490000Y-101340000D01*
%TO.C,R16*%
X185870000Y-73600000D02*
X187070000Y-73600000D01*
X187070000Y-75360000D02*
X185870000Y-75360000D01*
%TO.C,R17*%
X192230000Y-75270000D02*
X191030000Y-75270000D01*
X191030000Y-73510000D02*
X192230000Y-73510000D01*
%TO.C,R18*%
X193120000Y-60780000D02*
X191920000Y-60780000D01*
X191920000Y-59020000D02*
X193120000Y-59020000D01*
%TO.C,R19*%
X141400000Y-105120000D02*
X142600000Y-105120000D01*
X142600000Y-106880000D02*
X141400000Y-106880000D01*
%TO.C,R20*%
X191600000Y-93880000D02*
X190400000Y-93880000D01*
X190400000Y-92120000D02*
X191600000Y-92120000D01*
%TO.C,R21*%
X143600000Y-94880000D02*
X142400000Y-94880000D01*
X142400000Y-93120000D02*
X143600000Y-93120000D01*
%TO.C,R22*%
X193030000Y-63360000D02*
X191830000Y-63360000D01*
X191830000Y-61600000D02*
X193030000Y-61600000D01*
%TO.C,R23*%
X144170000Y-78040000D02*
X145370000Y-78040000D01*
X145370000Y-79800000D02*
X144170000Y-79800000D01*
%TO.C,R24*%
X154600000Y-75880000D02*
X153400000Y-75880000D01*
X153400000Y-74120000D02*
X154600000Y-74120000D01*
%TO.C,R25*%
X201700000Y-88170000D02*
X202900000Y-88170000D01*
X202900000Y-89930000D02*
X201700000Y-89930000D01*
%TO.C,R26*%
X149700000Y-77990000D02*
X150900000Y-77990000D01*
X150900000Y-79750000D02*
X149700000Y-79750000D01*
%TO.C,R27*%
X141430000Y-70050000D02*
X142630000Y-70050000D01*
X142630000Y-71810000D02*
X141430000Y-71810000D01*
%TO.C,R28*%
X145120000Y-65250000D02*
X146320000Y-65250000D01*
X146320000Y-67010000D02*
X145120000Y-67010000D01*
%TO.C,R29*%
X154650000Y-68570000D02*
X153450000Y-68570000D01*
X153450000Y-66810000D02*
X154650000Y-66810000D01*
%TO.C,R30*%
X173400000Y-95120000D02*
X174600000Y-95120000D01*
X174600000Y-96880000D02*
X173400000Y-96880000D01*
%TO.C,R31*%
X173400000Y-92120000D02*
X174600000Y-92120000D01*
X174600000Y-93880000D02*
X173400000Y-93880000D01*
%TO.C,R32*%
X181400000Y-83120000D02*
X182600000Y-83120000D01*
X182600000Y-84880000D02*
X181400000Y-84880000D01*
%TO.C,RV1*%
X187830000Y-52090000D02*
G75*
G03X187830000Y-52090000I-1155000J0D01*
G01*
X194995000Y-56980000D02*
X185345000Y-56980000D01*
X194995000Y-50760000D02*
X185345000Y-50760000D01*
X194995000Y-56980000D02*
X194995000Y-50760000D01*
X185345000Y-56980000D02*
X185345000Y-50760000D01*
X185799000Y-52824000D02*
X187410000Y-51214000D01*
X185939000Y-52965000D02*
X187551000Y-51355000D01*
%TO.C,RV2*%
X145737568Y-54328018D02*
G75*
G02X151262000Y-54327000I2762432J-1171982D01*
G01*
X150797753Y-57428295D02*
G75*
G02X146202000Y-57428000I-2297753J1928295D01*
G01*
X143539000Y-62060000D02*
X143539000Y-58194000D01*
X143539000Y-53805000D02*
X143539000Y-49940000D01*
X153460000Y-62060000D02*
X153460000Y-58194000D01*
X153460000Y-53805000D02*
X153460000Y-49940000D01*
X143539000Y-62060000D02*
X145175000Y-62060000D01*
X146825000Y-62060000D02*
X147675000Y-62060000D01*
X149325000Y-62060000D02*
X150175000Y-62060000D01*
X151825000Y-62060000D02*
X153460000Y-62060000D01*
X143539000Y-49940000D02*
X153460000Y-49940000D01*
D11*
%TO.C,U1*%
X194550000Y-97075000D02*
X194575000Y-97075000D01*
X194550000Y-92925000D02*
X194665000Y-92925000D01*
X203450000Y-92925000D02*
X203335000Y-92925000D01*
X203450000Y-97075000D02*
X203335000Y-97075000D01*
X194550000Y-97075000D02*
X194550000Y-92925000D01*
X203450000Y-97075000D02*
X203450000Y-92925000D01*
X194575000Y-97075000D02*
X194575000Y-98450000D01*
%TO.C,U2*%
X140925000Y-97425000D02*
X140925000Y-97475000D01*
X145075000Y-97425000D02*
X145075000Y-97570000D01*
X145075000Y-102575000D02*
X145075000Y-102430000D01*
X140925000Y-102575000D02*
X140925000Y-102430000D01*
X140925000Y-97425000D02*
X145075000Y-97425000D01*
X140925000Y-102575000D02*
X145075000Y-102575000D01*
X140925000Y-97475000D02*
X139525000Y-97475000D01*
%TO.C,U3*%
X187685000Y-70155000D02*
X187685000Y-71555000D01*
X192785000Y-70155000D02*
X192785000Y-66005000D01*
X187635000Y-70155000D02*
X187635000Y-66005000D01*
X192785000Y-70155000D02*
X192640000Y-70155000D01*
X192785000Y-66005000D02*
X192640000Y-66005000D01*
X187635000Y-66005000D02*
X187780000Y-66005000D01*
X187635000Y-70155000D02*
X187685000Y-70155000D01*
%TO.C,U4*%
X164460000Y-89714000D02*
X169540000Y-89714000D01*
X169540000Y-89714000D02*
X169540000Y-94286000D01*
X169540000Y-94286000D02*
X164460000Y-94286000D01*
X164460000Y-94286000D02*
X164460000Y-89714000D01*
X164460000Y-91238000D02*
X164968000Y-91238000D01*
X164968000Y-91238000D02*
X164968000Y-92508000D01*
X164968000Y-92508000D02*
X164460000Y-92508000D01*
%TO.C,U5*%
X145425000Y-74075000D02*
X145475000Y-74075000D01*
X145425000Y-69925000D02*
X145570000Y-69925000D01*
X150575000Y-69925000D02*
X150430000Y-69925000D01*
X150575000Y-74075000D02*
X150430000Y-74075000D01*
X145425000Y-74075000D02*
X145425000Y-69925000D01*
X150575000Y-74075000D02*
X150575000Y-69925000D01*
X145475000Y-74075000D02*
X145475000Y-75475000D01*
%TO.C,U6*%
X179475000Y-95075000D02*
X179475000Y-96475000D01*
X184575000Y-95075000D02*
X184575000Y-90925000D01*
X179425000Y-95075000D02*
X179425000Y-90925000D01*
X184575000Y-95075000D02*
X184430000Y-95075000D01*
X184575000Y-90925000D02*
X184430000Y-90925000D01*
X179425000Y-90925000D02*
X179570000Y-90925000D01*
X179425000Y-95075000D02*
X179475000Y-95075000D01*
%TO.C,U7*%
X131925000Y-47475000D02*
X130525000Y-47475000D01*
X131925000Y-52575000D02*
X136075000Y-52575000D01*
X131925000Y-47425000D02*
X136075000Y-47425000D01*
X131925000Y-52575000D02*
X131925000Y-52430000D01*
X136075000Y-52575000D02*
X136075000Y-52430000D01*
X136075000Y-47425000D02*
X136075000Y-47570000D01*
X131925000Y-47425000D02*
X131925000Y-47475000D01*
%TO.C,U8*%
X131925000Y-41225000D02*
X131925000Y-41275000D01*
X136075000Y-41225000D02*
X136075000Y-41370000D01*
X136075000Y-46375000D02*
X136075000Y-46230000D01*
X131925000Y-46375000D02*
X131925000Y-46230000D01*
X131925000Y-41225000D02*
X136075000Y-41225000D01*
X131925000Y-46375000D02*
X136075000Y-46375000D01*
X131925000Y-41275000D02*
X130525000Y-41275000D01*
D12*
%TO.C,U9*%
X171820000Y-102020000D02*
X171820000Y-112260000D01*
X167179000Y-102020000D02*
X167179000Y-112260000D01*
X171820000Y-102020000D02*
X167179000Y-102020000D01*
X171820000Y-112260000D02*
X167179000Y-112260000D01*
X170310000Y-102020000D02*
X170310000Y-112260000D01*
X171820000Y-105290000D02*
X170310000Y-105290000D01*
X171820000Y-108991000D02*
X170310000Y-108991000D01*
%TD*%
M02*
