M48
;DRILL file {KiCad (2017-07-14 revision 22e95aa)-master} date Wed Jul 26 18:14:43 2017
;FORMAT={-:-/ absolute / inch / decimal}
FMAT,2
INCH,TZ
T1C0.016
T2C0.031
T3C0.039
T4C0.059
T5C0.098
T6C0.079
T7C0.126
%
G90
G05
M72
T1
X5.0984Y-3.6094
X5.185Y-1.5394
X5.2362Y-1.9961
X5.2953Y-1.5945
X5.3465Y-2.4213
X5.378Y-3.3071
X5.3937Y-3.6496
X5.437Y-3.1654
X5.437Y-3.2677
X5.4409Y-3.2205
X5.4449Y-2.2087
X5.5236Y-3.1575
X5.5315Y-3.2087
X5.5315Y-3.2598
X5.5354Y-3.3031
X5.5394Y-2.8583
X5.5394Y-3.3465
X5.5512Y-1.8701
X5.5555Y-3.4846
X5.6335Y-3.4748
X5.7402Y-4.0906
X5.7677Y-3.4772
X5.802Y-3.872
X5.8661Y-2.5906
X5.9055Y-2.4016
X5.9488Y-2.8858
X6.0118Y-3.9016
X6.0157Y-2.5157
X6.063Y-4.4016
X6.0661Y-3.7795
X6.0748Y-3.0551
X6.1378Y-3.4252
X6.1693Y-2.4646
X6.2008Y-2.9488
X6.2638Y-4.0157
X6.2795Y-3.1457
X6.4488Y-2.8976
X6.4567Y-3.1378
X6.4685Y-3.3386
X6.4685Y-4.2362
X6.4843Y-3.9291
X6.5315Y-3.6244
X6.6126Y-3.5961
X6.6929Y-3.7559
X6.7087Y-3.7008
X6.7165Y-3.5866
X6.7402Y-3.1299
X6.7638Y-3.3268
X6.7638Y-3.9724
X6.7717Y-3.4213
X6.7992Y-4.2717
X6.8189Y-3.8898
X6.8228Y-2.8976
X7.0134Y-2.5453
X7.0276Y-3.6929
X7.1063Y-2.9094
X7.1457Y-3.8543
X7.2244Y-3.6811
X7.2323Y-3.9291
X7.2874Y-4.0315
X7.2953Y-3.6142
X7.3504Y-2.6339
X7.4173Y-4.1614
X7.4646Y-3.0906
X7.4799Y-2.7161
X7.4803Y-2.8622
X7.4854Y-3.9563
X7.5551Y-3.1496
X7.6142Y-2.6654
X7.6496Y-3.9764
X7.6571Y-2.2799
X7.6614Y-3.9295
X7.7008Y-2.9173
X7.7835Y-3.9134
X7.8008Y-4.0315
X7.8512Y-3.7835
X7.9165Y-3.9106
X7.9173Y-3.5748
X7.9449Y-4.0819
X7.9843Y-1.4803
X7.9843Y-3.748
X8.0315Y-3.252
X8.063Y-3.8622
X8.0669Y-4.189
X8.1142Y-3.7756
X8.122Y-3.8504
T2
X5.8661Y-4.0945
X5.9661Y-3.9945
X6.0661Y-4.0945
X7.387Y-2.1657
X7.798Y-4.2587
X7.898Y-4.2587
X7.4984Y-3.4252
X7.5984Y-3.4252
X7.487Y-2.1657
X7.587Y-2.1657
X7.072Y-2.7118
X7.172Y-2.6118
X7.272Y-2.7118
X6.7323Y-2.7165
X6.8323Y-2.6165
X6.9323Y-2.7165
X5.8661Y-3.7795
X5.9661Y-3.6795
X6.0661Y-3.7795
X7.7559Y-3.3071
X7.8559Y-3.2071
X7.9559Y-3.3071
X6.3791Y-2.726
X6.4791Y-2.626
X6.5791Y-2.726
X8.0224Y-4.2535
X8.1224Y-4.2535
T3
X5.2559Y-3.2094
X5.2559Y-3.3094
X5.2559Y-3.4094
X5.2559Y-3.5094
X6.4449Y-1.9488
X6.5449Y-1.9488
X6.6449Y-1.9488
X6.7449Y-1.9488
X6.8449Y-1.9488
X6.9449Y-1.9488
X7.0449Y-1.9488
X7.1449Y-1.9488
X5.2559Y-3.6094
X5.2559Y-3.7094
X5.2559Y-3.8094
X6.6614Y-4.3181
X5.2559Y-3.9094
X5.0984Y-2.3307
X6.6614Y-4.1181
X6.6614Y-4.2181
X5.0984Y-3.2094
X5.0984Y-3.3094
X5.0984Y-3.4094
X5.0984Y-3.5094
X5.0984Y-3.6094
X5.0984Y-3.7094
X5.0984Y-3.8094
X5.0984Y-3.9094
X5.748Y-2.4803
X5.2559Y-2.3307
X5.2559Y-2.4307
X5.2559Y-2.5307
X5.2559Y-2.6307
X5.2559Y-2.7307
X5.2559Y-2.8307
X5.2559Y-2.9307
X5.2559Y-3.0307
X6.9764Y-4.
X6.9764Y-4.1
X6.9764Y-4.2
X6.9764Y-4.3
X6.9764Y-4.4
X7.0764Y-4.
X7.0764Y-4.1
X7.0764Y-4.2
X7.0764Y-4.3
X7.0764Y-4.4
X5.0984Y-2.4307
X5.0984Y-2.5307
X5.0984Y-2.6307
X5.0984Y-2.7307
X5.0984Y-2.8307
X5.0984Y-2.9307
X5.0984Y-3.0307
X5.8465Y-2.4803
X5.9449Y-2.4803
T4
X7.2401Y-1.5551
X6.6496Y-1.5551
X7.8307Y-1.5551
X6.059Y-1.5551
T5
X6.9095Y-1.5551
X7.0748Y-1.3622
X7.0748Y-1.685
X6.319Y-1.5551
X6.4843Y-1.3622
X6.4843Y-1.685
X5.7284Y-1.5551
X5.8937Y-1.3622
X5.8937Y-1.685
X7.5001Y-1.5551
X7.6654Y-1.3622
X7.6654Y-1.685
T6
X5.6732Y-2.2047
X6.0197Y-2.2047
T7
X7.8701Y-2.0709
X7.6378Y-4.4882
X5.1969Y-4.4213
X5.4724Y-1.4567
T0
M30
