%TF.GenerationSoftware,KiCad,Pcbnew,(2017-07-14 revision 22e95aa)-master*%
%TF.CreationDate,2017-07-26T18:39:18+02:00*%
%TF.ProjectId,allcolours,616C6C636F6C6F7572732E6B69636164,rev?*%
%TF.SameCoordinates,Original%
%TF.FileFunction,Copper,L2,Bot,Signal*%
%TF.FilePolarity,Positive*%
%FSLAX46Y46*%
G04 Gerber Fmt 4.6, Leading zero omitted, Abs format (unit mm)*
G04 Created by KiCad (PCBNEW (2017-07-14 revision 22e95aa)-master) date Wed Jul 26 18:39:18 2017*
%MOMM*%
%LPD*%
G01*
G04 APERTURE LIST*
%TA.AperFunction,ComponentPad*%
%ADD10R,1.600000X1.600000*%
%TD*%
%TA.AperFunction,ComponentPad*%
%ADD11O,1.600000X1.600000*%
%TD*%
%TA.AperFunction,ComponentPad*%
%ADD12O,2.247900X2.247900*%
%TD*%
%TA.AperFunction,ComponentPad*%
%ADD13O,3.749040X3.749040*%
%TD*%
%TA.AperFunction,ComponentPad*%
%ADD14O,1.700000X1.700000*%
%TD*%
%TA.AperFunction,ComponentPad*%
%ADD15R,1.700000X1.700000*%
%TD*%
%TA.AperFunction,ComponentPad*%
%ADD16C,1.520000*%
%TD*%
%TA.AperFunction,ComponentPad*%
%ADD17R,1.520000X1.520000*%
%TD*%
%TA.AperFunction,ComponentPad*%
%ADD18C,1.440000*%
%TD*%
%TA.AperFunction,ComponentPad*%
%ADD19C,1.800000*%
%TD*%
%TA.AperFunction,WasherPad*%
%ADD20C,4.000000*%
%TD*%
%TA.AperFunction,ComponentPad*%
%ADD21R,1.800000X1.800000*%
%TD*%
%TA.AperFunction,ComponentPad*%
%ADD22O,1.800000X1.800000*%
%TD*%
%TA.AperFunction,ViaPad*%
%ADD23C,0.800000*%
%TD*%
%TA.AperFunction,Conductor*%
%ADD24C,0.500000*%
%TD*%
%TA.AperFunction,Conductor*%
%ADD25C,0.300000*%
%TD*%
%TA.AperFunction,Conductor*%
%ADD26C,0.254000*%
%TD*%
G04 APERTURE END LIST*
D10*
%TO.P,D1,1*%
%TO.N,Net-(C3-Pad2)*%
X206310000Y-108040000D03*
D11*
%TO.P,D1,2*%
%TO.N,/SH_CLOCK*%
X203770000Y-108040000D03*
%TD*%
%TO.P,D2,2*%
%TO.N,GND*%
X198070000Y-108170000D03*
D10*
%TO.P,D2,1*%
%TO.N,Net-(C3-Pad1)*%
X200610000Y-108170000D03*
%TD*%
D11*
%TO.P,D3,2*%
%TO.N,Net-(D3-Pad2)*%
X190460000Y-87000000D03*
D10*
%TO.P,D3,1*%
%TO.N,Net-(D3-Pad1)*%
X193000000Y-87000000D03*
%TD*%
D12*
%TO.P,M1,1@2*%
%TO.N,GND*%
X183898620Y-39500000D03*
D13*
%TO.P,M1,2*%
%TO.N,Net-(M1-Pad2)*%
X179700000Y-42799460D03*
%TO.P,M1,3*%
%TO.N,Net-(M1-Pad3)*%
X179700000Y-34600340D03*
%TO.P,M1,1@1*%
%TO.N,GND*%
X175501380Y-39500000D03*
%TD*%
%TO.P,M2,1@1*%
%TO.N,GND*%
X190501380Y-39500000D03*
%TO.P,M2,3*%
%TO.N,Net-(M2-Pad3)*%
X194700000Y-34600340D03*
%TO.P,M2,2*%
%TO.N,Net-(M2-Pad2)*%
X194700000Y-42799460D03*
D12*
%TO.P,M2,1@2*%
%TO.N,GND*%
X198898620Y-39500000D03*
%TD*%
%TO.P,M3,1@2*%
%TO.N,GND*%
X153898620Y-39500000D03*
D13*
%TO.P,M3,2*%
%TO.N,Net-(M3-Pad2)*%
X149700000Y-42799460D03*
%TO.P,M3,3*%
%TO.N,Net-(M3-Pad3)*%
X149700000Y-34600340D03*
%TO.P,M3,1@1*%
%TO.N,GND*%
X145501380Y-39500000D03*
%TD*%
%TO.P,M4,1@1*%
%TO.N,GND*%
X160501380Y-39500000D03*
%TO.P,M4,3*%
%TO.N,Net-(M4-Pad3)*%
X164700000Y-34600340D03*
%TO.P,M4,2*%
%TO.N,Net-(M4-Pad2)*%
X164700000Y-42799460D03*
D12*
%TO.P,M4,1@2*%
%TO.N,GND*%
X168898620Y-39500000D03*
%TD*%
D14*
%TO.P,P1,8*%
%TO.N,Net-(M1-Pad3)*%
X181480000Y-49500000D03*
%TO.P,P1,7*%
%TO.N,Net-(M2-Pad3)*%
X178940000Y-49500000D03*
%TO.P,P1,6*%
%TO.N,Net-(M3-Pad3)*%
X176400000Y-49500000D03*
%TO.P,P1,5*%
%TO.N,Net-(M4-Pad3)*%
X173860000Y-49500000D03*
%TO.P,P1,4*%
%TO.N,Net-(P1-Pad4)*%
X171320000Y-49500000D03*
%TO.P,P1,3*%
%TO.N,Net-(P1-Pad3)*%
X168780000Y-49500000D03*
%TO.P,P1,2*%
%TO.N,Net-(P1-Pad2)*%
X166240000Y-49500000D03*
D15*
%TO.P,P1,1*%
%TO.N,Net-(P1-Pad1)*%
X163700000Y-49500000D03*
%TD*%
%TO.P,P2,1*%
%TO.N,GND*%
X129500000Y-99300000D03*
D14*
%TO.P,P2,2*%
%TO.N,/7400_IN*%
X129500000Y-96760000D03*
%TO.P,P2,3*%
%TO.N,/7400_CLK_IN*%
X129500000Y-94220000D03*
%TO.P,P2,4*%
%TO.N,/7400_OUT*%
X129500000Y-91680000D03*
%TO.P,P2,5*%
%TO.N,/Y_NOISE_OUT*%
X129500000Y-89140000D03*
%TO.P,P2,6*%
%TO.N,/H_NOISE_OUT*%
X129500000Y-86600000D03*
%TO.P,P2,7*%
%TO.N,/COMP_IN0*%
X129500000Y-84060000D03*
%TO.P,P2,8*%
%TO.N,/COMP_CV0*%
X129500000Y-81520000D03*
%TD*%
D15*
%TO.P,P3,1*%
%TO.N,/COMP_OUT0*%
X133500000Y-59200000D03*
D14*
%TO.P,P3,2*%
%TO.N,/buffer_in*%
X133500000Y-61740000D03*
%TO.P,P3,3*%
%TO.N,/buffer_out*%
X133500000Y-64280000D03*
%TO.P,P3,4*%
%TO.N,/buffer_in1*%
X133500000Y-66820000D03*
%TO.P,P3,5*%
%TO.N,/buffer_out1*%
X133500000Y-69360000D03*
%TO.P,P3,6*%
%TO.N,/SH_IN*%
X133500000Y-71900000D03*
%TO.P,P3,7*%
%TO.N,/SH_OUT*%
X133500000Y-74440000D03*
%TO.P,P3,8*%
%TO.N,/SH_CLOCK*%
X133500000Y-76980000D03*
%TD*%
D15*
%TO.P,P4,1*%
%TO.N,+12V*%
X177200000Y-101600000D03*
D14*
%TO.P,P4,2*%
X179740000Y-101600000D03*
%TO.P,P4,3*%
%TO.N,GND*%
X177200000Y-104140000D03*
%TO.P,P4,4*%
X179740000Y-104140000D03*
%TO.P,P4,5*%
X177200000Y-106680000D03*
%TO.P,P4,6*%
X179740000Y-106680000D03*
%TO.P,P4,7*%
X177200000Y-109220000D03*
%TO.P,P4,8*%
X179740000Y-109220000D03*
%TO.P,P4,9*%
%TO.N,-12VA*%
X177200000Y-111760000D03*
%TO.P,P4,10*%
X179740000Y-111760000D03*
%TD*%
D15*
%TO.P,P5,1*%
%TO.N,GND*%
X133500000Y-99300000D03*
D14*
%TO.P,P5,2*%
%TO.N,/7400_IN*%
X133500000Y-96760000D03*
%TO.P,P5,3*%
%TO.N,/7400_CLK_IN*%
X133500000Y-94220000D03*
%TO.P,P5,4*%
%TO.N,/7400_OUT*%
X133500000Y-91680000D03*
%TO.P,P5,5*%
%TO.N,/Y_NOISE_OUT*%
X133500000Y-89140000D03*
%TO.P,P5,6*%
%TO.N,/H_NOISE_OUT*%
X133500000Y-86600000D03*
%TO.P,P5,7*%
%TO.N,/COMP_IN0*%
X133500000Y-84060000D03*
%TO.P,P5,8*%
%TO.N,/COMP_CV0*%
X133500000Y-81520000D03*
%TD*%
%TO.P,P6,8*%
%TO.N,/SH_CLOCK*%
X129500000Y-76980000D03*
%TO.P,P6,7*%
%TO.N,/SH_OUT*%
X129500000Y-74440000D03*
%TO.P,P6,6*%
%TO.N,/SH_IN*%
X129500000Y-71900000D03*
%TO.P,P6,5*%
%TO.N,/buffer_out1*%
X129500000Y-69360000D03*
%TO.P,P6,4*%
%TO.N,/buffer_in1*%
X129500000Y-66820000D03*
%TO.P,P6,3*%
%TO.N,/buffer_out*%
X129500000Y-64280000D03*
%TO.P,P6,2*%
%TO.N,/buffer_in*%
X129500000Y-61740000D03*
D15*
%TO.P,P6,1*%
%TO.N,/COMP_OUT0*%
X129500000Y-59200000D03*
%TD*%
D16*
%TO.P,Q1,2*%
%TO.N,GND*%
X151540000Y-101460000D03*
%TO.P,Q1,3*%
%TO.N,Net-(C4-Pad1)*%
X154080000Y-104000000D03*
D17*
%TO.P,Q1,1*%
%TO.N,Net-(Q1-Pad1)*%
X149000000Y-104000000D03*
%TD*%
D16*
%TO.P,Q2,2*%
%TO.N,Net-(Q2-Pad2)*%
X164570000Y-66700000D03*
%TO.P,Q2,3*%
%TO.N,Net-(Q2-Pad3)*%
X167110000Y-69240000D03*
D17*
%TO.P,Q2,1*%
%TO.N,Net-(C2-Pad1)*%
X162030000Y-69240000D03*
%TD*%
%TO.P,Q3,1*%
%TO.N,Net-(C5-Pad1)*%
X149000000Y-96000000D03*
D16*
%TO.P,Q3,3*%
%TO.N,GND*%
X154080000Y-96000000D03*
%TO.P,Q3,2*%
%TO.N,Net-(C4-Pad2)*%
X151540000Y-93460000D03*
%TD*%
D17*
%TO.P,Q4,1*%
%TO.N,-12VA*%
X171000000Y-69000000D03*
D16*
%TO.P,Q4,3*%
%TO.N,Net-(Q4-Pad3)*%
X176080000Y-69000000D03*
%TO.P,Q4,2*%
%TO.N,Net-(Q2-Pad2)*%
X173540000Y-66460000D03*
%TD*%
%TO.P,Q5,2*%
%TO.N,Net-(Q4-Pad3)*%
X182170000Y-66340000D03*
%TO.P,Q5,3*%
%TO.N,Net-(Q5-Pad3)*%
X184710000Y-68880000D03*
D17*
%TO.P,Q5,1*%
%TO.N,Net-(Q5-Pad1)*%
X179630000Y-68880000D03*
%TD*%
%TO.P,Q6,1*%
%TO.N,Net-(D3-Pad2)*%
X197000000Y-84000000D03*
D16*
%TO.P,Q6,3*%
%TO.N,Net-(C7-Pad2)*%
X202080000Y-84000000D03*
%TO.P,Q6,2*%
%TO.N,Net-(Q6-Pad2)*%
X199540000Y-81460000D03*
%TD*%
D18*
%TO.P,RV1,1*%
%TO.N,+12V*%
X187630000Y-55010000D03*
%TO.P,RV1,2*%
%TO.N,Net-(R17-Pad1)*%
X190170000Y-55010000D03*
%TO.P,RV1,3*%
%TO.N,GND*%
X192710000Y-55010000D03*
%TD*%
D19*
%TO.P,RV2,3*%
%TO.N,Net-(R28-Pad2)*%
X146000000Y-63000000D03*
%TO.P,RV2,2*%
%TO.N,Net-(R27-Pad1)*%
X148500000Y-63000000D03*
%TO.P,RV2,1*%
%TO.N,Net-(R29-Pad1)*%
X151000000Y-63000000D03*
D20*
%TO.P,RV2,0*%
%TO.N,*%
X144100000Y-56000000D03*
X152900000Y-56000000D03*
%TD*%
D21*
%TO.P,U9,1*%
%TO.N,+12V*%
X169200000Y-104600000D03*
D22*
%TO.P,U9,2*%
%TO.N,GND*%
X169200000Y-107140000D03*
%TO.P,U9,3*%
%TO.N,/5V*%
X169200000Y-109680000D03*
%TD*%
D23*
%TO.N,GND*%
X164300000Y-84800000D03*
X172000000Y-86900000D03*
X170400000Y-94000000D03*
X137000000Y-92700000D03*
X173200000Y-98800000D03*
X204000000Y-82600000D03*
X195600000Y-74100000D03*
X201800000Y-103680000D03*
X202800000Y-95200000D03*
X178500000Y-93800000D03*
X181500000Y-97900000D03*
X164300000Y-107600000D03*
X145800000Y-103900000D03*
X164700000Y-99800000D03*
X170600000Y-91100000D03*
X171800000Y-84500000D03*
X171200000Y-79500000D03*
X164000000Y-79700000D03*
X163800000Y-73600000D03*
X173300000Y-73600000D03*
X154300000Y-77600000D03*
X157500000Y-74900000D03*
X141000000Y-47500000D03*
X134500000Y-40500000D03*
X131700000Y-39100000D03*
X202800000Y-37600000D03*
X159500000Y-79900000D03*
X206300000Y-97800000D03*
X154080000Y-96000000D03*
X155900000Y-87000000D03*
X188400000Y-105700000D03*
X171800000Y-100900000D03*
X190000000Y-72700000D03*
%TO.N,-12VA*%
X185300000Y-91800000D03*
X183500000Y-93500000D03*
X183700000Y-99800000D03*
X185100000Y-102400000D03*
X178140000Y-64650000D03*
X186700000Y-66900000D03*
%TO.N,Net-(C3-Pad1)*%
X204800000Y-98100000D03*
X204900000Y-106400000D03*
X199420000Y-96100000D03*
X201080000Y-99330000D03*
%TO.N,Net-(C5-Pad2)*%
X146500000Y-88320000D03*
X143090000Y-88260000D03*
%TO.N,Net-(C7-Pad2)*%
X190130000Y-100490000D03*
%TO.N,Net-(C8-Pad2)*%
X165900000Y-92060000D03*
X167960000Y-91340000D03*
%TO.N,/5V*%
X170000000Y-95400000D03*
X172700000Y-108500000D03*
%TO.N,/7400_OUT*%
X140600000Y-83900000D03*
X136600000Y-84000000D03*
X129500000Y-91680000D03*
%TO.N,+12V*%
X197700000Y-99400000D03*
X194300000Y-101000000D03*
X152700000Y-99100000D03*
X149000000Y-65800000D03*
X156700000Y-62600000D03*
X141110000Y-88510000D03*
X147370000Y-98350000D03*
%TO.N,/COMP_CV0*%
X140300000Y-80200000D03*
X138100000Y-80400000D03*
%TO.N,/H_NOISE_OUT*%
X193400000Y-67700000D03*
X180500000Y-73900000D03*
X140500000Y-82800000D03*
X138100000Y-83000000D03*
%TO.N,/7400_CLK_IN*%
X140700000Y-85000000D03*
%TO.N,/7400_IN*%
X159100000Y-102000000D03*
X154000000Y-111800000D03*
%TO.N,/SH_OUT*%
X201100000Y-90800000D03*
X206100000Y-95900000D03*
%TO.N,/SH_IN*%
X140700000Y-72600000D03*
X151100000Y-73300000D03*
X189600000Y-78500000D03*
X191900000Y-80000000D03*
%TO.N,/buffer_out1*%
X138300000Y-56100000D03*
X135800000Y-61500000D03*
%TO.N,/buffer_in1*%
X133000000Y-50700000D03*
%TO.N,/COMP_OUT0*%
X150000000Y-61000000D03*
X152800000Y-63900000D03*
%TO.N,Net-(R14-Pad2)*%
X194600000Y-99810000D03*
X198140000Y-102400000D03*
%TO.N,Net-(R16-Pad1)*%
X189990000Y-68990000D03*
X194490000Y-57910000D03*
%TO.N,/COMP_IN0*%
X138200000Y-81800000D03*
X140500000Y-81500000D03*
%TD*%
D24*
%TO.N,GND*%
X201800000Y-103680000D02*
X201800000Y-103700000D01*
X192710000Y-55010000D02*
X192710000Y-49210000D01*
X190501380Y-47001380D02*
X190501380Y-39500000D01*
X192710000Y-49210000D02*
X190501380Y-47001380D01*
X159000000Y-86100000D02*
X155200000Y-89900000D01*
X159000000Y-80400000D02*
X159000000Y-86100000D01*
X159500000Y-79900000D02*
X159000000Y-80400000D01*
X194650000Y-70150000D02*
X195750000Y-70150000D01*
X207300000Y-96800000D02*
X206300000Y-97800000D01*
X207300000Y-81700000D02*
X207300000Y-96800000D01*
X195750000Y-70150000D02*
X207300000Y-81700000D01*
X154080000Y-96000000D02*
X155200000Y-94880000D01*
X155200000Y-87700000D02*
X155900000Y-87000000D01*
X155200000Y-94880000D02*
X155200000Y-89900000D01*
X155200000Y-89900000D02*
X155200000Y-87700000D01*
X179740000Y-104140000D02*
X186840000Y-104140000D01*
X186840000Y-104140000D02*
X188400000Y-105700000D01*
X177200000Y-104140000D02*
X175040000Y-104140000D01*
X175040000Y-104140000D02*
X171800000Y-100900000D01*
X192550000Y-72250000D02*
X190450000Y-72250000D01*
X190450000Y-72250000D02*
X190000000Y-72700000D01*
X192710000Y-55010000D02*
X193710000Y-55010000D01*
X196500000Y-68300000D02*
X194650000Y-70150000D01*
X194650000Y-70150000D02*
X192550000Y-72250000D01*
X192550000Y-72250000D02*
X192500000Y-72300000D01*
X196500000Y-57800000D02*
X196500000Y-68300000D01*
X193710000Y-55010000D02*
X196500000Y-57800000D01*
X133500000Y-99300000D02*
X146400000Y-99300000D01*
X148560000Y-101460000D02*
X151540000Y-101460000D01*
X146400000Y-99300000D02*
X148560000Y-101460000D01*
X145501380Y-39500000D02*
X153898620Y-39500000D01*
X153898620Y-39500000D02*
X160501380Y-39500000D01*
X160501380Y-39500000D02*
X168898620Y-39500000D01*
X168898620Y-39500000D02*
X175501380Y-39500000D01*
X175501380Y-39500000D02*
X183898620Y-39500000D01*
X183898620Y-39500000D02*
X190501380Y-39500000D01*
X190501380Y-39500000D02*
X198898620Y-39500000D01*
%TO.N,-12VA*%
X185200000Y-91800000D02*
X185300000Y-91800000D01*
X183500000Y-93500000D02*
X185200000Y-91800000D01*
X183700000Y-101000000D02*
X183700000Y-99800000D01*
X185100000Y-102400000D02*
X183700000Y-101000000D01*
X183550000Y-64650000D02*
X178140000Y-64650000D01*
X186700000Y-66900000D02*
X183550000Y-64650000D01*
D25*
%TO.N,Net-(C3-Pad1)*%
X204800000Y-106300000D02*
X204800000Y-98100000D01*
X204900000Y-106400000D02*
X204800000Y-106300000D01*
X199420000Y-97670000D02*
X199420000Y-96100000D01*
X201080000Y-99330000D02*
X199420000Y-97670000D01*
%TO.N,Net-(C5-Pad2)*%
X143150000Y-88320000D02*
X146500000Y-88320000D01*
X143090000Y-88260000D02*
X143150000Y-88320000D01*
%TO.N,Net-(C7-Pad2)*%
X202080000Y-88540000D02*
X202080000Y-84000000D01*
X190130000Y-100490000D02*
X202080000Y-88540000D01*
%TO.N,Net-(C8-Pad2)*%
X167240000Y-92060000D02*
X165900000Y-92060000D01*
X167960000Y-91340000D02*
X167240000Y-92060000D01*
D24*
%TO.N,/5V*%
X170000000Y-100900000D02*
X170000000Y-95400000D01*
X171300000Y-102200000D02*
X170000000Y-100900000D01*
X171300000Y-107100000D02*
X171300000Y-102200000D01*
X172700000Y-108500000D02*
X171300000Y-107100000D01*
D25*
%TO.N,/7400_OUT*%
X136700000Y-83900000D02*
X140600000Y-83900000D01*
X136600000Y-84000000D02*
X136700000Y-83900000D01*
D24*
%TO.N,+12V*%
X199300000Y-101000000D02*
X197700000Y-99400000D01*
X199300000Y-102500000D02*
X199300000Y-101000000D01*
X198200000Y-103600000D02*
X199300000Y-102500000D01*
X196900000Y-103600000D02*
X198200000Y-103600000D01*
X194300000Y-101000000D02*
X196900000Y-103600000D01*
X151000000Y-97400000D02*
X147370000Y-97400000D01*
X152700000Y-99100000D02*
X151000000Y-97400000D01*
X153500000Y-65800000D02*
X149000000Y-65800000D01*
X156700000Y-62600000D02*
X153500000Y-65800000D01*
X147370000Y-93380000D02*
X147370000Y-97400000D01*
X143850000Y-89860000D02*
X147370000Y-93380000D01*
X142460000Y-89860000D02*
X143850000Y-89860000D01*
X141110000Y-88510000D02*
X142460000Y-89860000D01*
X147370000Y-97400000D02*
X147370000Y-98350000D01*
D25*
%TO.N,/COMP_CV0*%
X138800000Y-80400000D02*
X140300000Y-80200000D01*
X138100000Y-80400000D02*
X138800000Y-80400000D01*
%TO.N,/H_NOISE_OUT*%
X190700000Y-70400000D02*
X193400000Y-67700000D01*
X184100000Y-70400000D02*
X190700000Y-70400000D01*
X180500000Y-73900000D02*
X184100000Y-70400000D01*
X138900000Y-82800000D02*
X140500000Y-82800000D01*
X138100000Y-83000000D02*
X138900000Y-82800000D01*
%TO.N,/7400_CLK_IN*%
X129500000Y-94220000D02*
X129500000Y-93800000D01*
X129500000Y-93800000D02*
X131300000Y-92000000D01*
X138100000Y-85000000D02*
X140700000Y-85000000D01*
X135300000Y-87800000D02*
X138100000Y-85000000D01*
X132400000Y-87800000D02*
X135300000Y-87800000D01*
X131300000Y-88900000D02*
X132400000Y-87800000D01*
X131300000Y-92000000D02*
X131300000Y-88900000D01*
%TO.N,/7400_IN*%
X159100000Y-106700000D02*
X159100000Y-102000000D01*
X154000000Y-111800000D02*
X159100000Y-106700000D01*
%TO.N,/SH_OUT*%
X201100000Y-90900000D02*
X201100000Y-90800000D01*
X206100000Y-95900000D02*
X201100000Y-90900000D01*
%TO.N,/SH_IN*%
X150400000Y-72600000D02*
X140700000Y-72600000D01*
X151100000Y-73300000D02*
X150400000Y-72600000D01*
X190400000Y-78500000D02*
X189600000Y-78500000D01*
X191900000Y-80000000D02*
X190400000Y-78500000D01*
%TO.N,/buffer_out1*%
X138300000Y-59000000D02*
X138300000Y-56100000D01*
X135800000Y-61500000D02*
X138300000Y-59000000D01*
%TO.N,/buffer_in1*%
X129500000Y-66820000D02*
X129500000Y-66500000D01*
X129500000Y-66500000D02*
X131400000Y-64600000D01*
X131400000Y-52300000D02*
X133000000Y-50700000D01*
X131400000Y-64600000D02*
X131400000Y-52300000D01*
%TO.N,/COMP_OUT0*%
X150900000Y-61000000D02*
X150000000Y-61000000D01*
X152500000Y-62600000D02*
X150900000Y-61000000D01*
X152500000Y-63600000D02*
X152500000Y-62600000D01*
X152800000Y-63900000D02*
X152500000Y-63600000D01*
%TO.N,Net-(Q2-Pad2)*%
X164570000Y-66700000D02*
X173300000Y-66700000D01*
X173300000Y-66700000D02*
X173540000Y-66460000D01*
%TO.N,Net-(R14-Pad2)*%
X195550000Y-99810000D02*
X194600000Y-99810000D01*
X198140000Y-102400000D02*
X195550000Y-99810000D01*
%TO.N,Net-(R16-Pad1)*%
X189990000Y-68990000D02*
X195060000Y-63920000D01*
X195060000Y-63920000D02*
X195060000Y-58480000D01*
X195060000Y-58480000D02*
X194490000Y-57910000D01*
%TO.N,/COMP_IN0*%
X138200000Y-81800000D02*
X139000000Y-81600000D01*
X139000000Y-81600000D02*
X140500000Y-81500000D01*
%TD*%
D26*
%TO.N,GND*%
G36*
X123228295Y-31955954D02*
X123500000Y-32010000D01*
X208590000Y-32010000D01*
X208590000Y-118990000D01*
X122910000Y-118990000D01*
X122910000Y-112742619D01*
X129764613Y-112742619D01*
X130104155Y-113564372D01*
X130732321Y-114193636D01*
X131553481Y-114534611D01*
X132442619Y-114535387D01*
X132667134Y-114442619D01*
X191764613Y-114442619D01*
X192104155Y-115264372D01*
X192732321Y-115893636D01*
X193553481Y-116234611D01*
X194442619Y-116235387D01*
X195264372Y-115895845D01*
X195893636Y-115267679D01*
X196234611Y-114446519D01*
X196235387Y-113557381D01*
X195895845Y-112735628D01*
X195267679Y-112106364D01*
X194446519Y-111765389D01*
X193557381Y-111764613D01*
X192735628Y-112104155D01*
X192106364Y-112732321D01*
X191765389Y-113553481D01*
X191764613Y-114442619D01*
X132667134Y-114442619D01*
X133264372Y-114195845D01*
X133893636Y-113567679D01*
X134234611Y-112746519D01*
X134235258Y-112004971D01*
X152964821Y-112004971D01*
X153122058Y-112385515D01*
X153412954Y-112676919D01*
X153793223Y-112834820D01*
X154204971Y-112835179D01*
X154585515Y-112677942D01*
X154876919Y-112387046D01*
X155034820Y-112006777D01*
X155034935Y-111875223D01*
X155150158Y-111760000D01*
X175685907Y-111760000D01*
X175798946Y-112328285D01*
X176120853Y-112810054D01*
X176602622Y-113131961D01*
X177170907Y-113245000D01*
X177229093Y-113245000D01*
X177797378Y-113131961D01*
X178279147Y-112810054D01*
X178470000Y-112524422D01*
X178660853Y-112810054D01*
X179142622Y-113131961D01*
X179710907Y-113245000D01*
X179769093Y-113245000D01*
X180337378Y-113131961D01*
X180819147Y-112810054D01*
X181141054Y-112328285D01*
X181254093Y-111760000D01*
X181141054Y-111191715D01*
X180819147Y-110709946D01*
X180478447Y-110482298D01*
X180621358Y-110415183D01*
X181011645Y-109986924D01*
X181181476Y-109576890D01*
X181060155Y-109347000D01*
X179867000Y-109347000D01*
X179867000Y-109367000D01*
X179613000Y-109367000D01*
X179613000Y-109347000D01*
X177327000Y-109347000D01*
X177327000Y-109367000D01*
X177073000Y-109367000D01*
X177073000Y-109347000D01*
X175879845Y-109347000D01*
X175758524Y-109576890D01*
X175928355Y-109986924D01*
X176318642Y-110415183D01*
X176461553Y-110482298D01*
X176120853Y-110709946D01*
X175798946Y-111191715D01*
X175685907Y-111760000D01*
X155150158Y-111760000D01*
X159655079Y-107255079D01*
X159825245Y-107000407D01*
X159885000Y-106700000D01*
X159885000Y-103700000D01*
X167652560Y-103700000D01*
X167652560Y-105500000D01*
X167701843Y-105747765D01*
X167842191Y-105957809D01*
X168052235Y-106098157D01*
X168098498Y-106107359D01*
X167962034Y-106232424D01*
X167708954Y-106775258D01*
X167829003Y-107013000D01*
X169073000Y-107013000D01*
X169073000Y-106993000D01*
X169327000Y-106993000D01*
X169327000Y-107013000D01*
X169347000Y-107013000D01*
X169347000Y-107267000D01*
X169327000Y-107267000D01*
X169327000Y-107287000D01*
X169073000Y-107287000D01*
X169073000Y-107267000D01*
X167829003Y-107267000D01*
X167708954Y-107504742D01*
X167962034Y-108047576D01*
X168352582Y-108405499D01*
X168114591Y-108564519D01*
X167781845Y-109062509D01*
X167665000Y-109649928D01*
X167665000Y-109710072D01*
X167781845Y-110297491D01*
X168114591Y-110795481D01*
X168612581Y-111128227D01*
X169200000Y-111245072D01*
X169787419Y-111128227D01*
X170285409Y-110795481D01*
X170618155Y-110297491D01*
X170735000Y-109710072D01*
X170735000Y-109649928D01*
X170618155Y-109062509D01*
X170285409Y-108564519D01*
X170047418Y-108405499D01*
X170437966Y-108047576D01*
X170623425Y-107649784D01*
X170674210Y-107725790D01*
X171672869Y-108724448D01*
X171822058Y-109085515D01*
X172112954Y-109376919D01*
X172493223Y-109534820D01*
X172904971Y-109535179D01*
X173285515Y-109377942D01*
X173576919Y-109087046D01*
X173734820Y-108706777D01*
X173735179Y-108295029D01*
X173577942Y-107914485D01*
X173287046Y-107623081D01*
X172923848Y-107472268D01*
X172488470Y-107036890D01*
X175758524Y-107036890D01*
X175928355Y-107446924D01*
X176318642Y-107875183D01*
X176477954Y-107950000D01*
X176318642Y-108024817D01*
X175928355Y-108453076D01*
X175758524Y-108863110D01*
X175879845Y-109093000D01*
X177073000Y-109093000D01*
X177073000Y-106807000D01*
X177327000Y-106807000D01*
X177327000Y-109093000D01*
X179613000Y-109093000D01*
X179613000Y-106807000D01*
X179867000Y-106807000D01*
X179867000Y-109093000D01*
X181060155Y-109093000D01*
X181181476Y-108863110D01*
X181038967Y-108519039D01*
X196678096Y-108519039D01*
X196838959Y-108907423D01*
X197214866Y-109322389D01*
X197720959Y-109561914D01*
X197943000Y-109440629D01*
X197943000Y-108297000D01*
X196800085Y-108297000D01*
X196678096Y-108519039D01*
X181038967Y-108519039D01*
X181011645Y-108453076D01*
X180621358Y-108024817D01*
X180462046Y-107950000D01*
X180621358Y-107875183D01*
X180670772Y-107820961D01*
X196678096Y-107820961D01*
X196800085Y-108043000D01*
X197943000Y-108043000D01*
X197943000Y-106899371D01*
X198197000Y-106899371D01*
X198197000Y-108043000D01*
X198217000Y-108043000D01*
X198217000Y-108297000D01*
X198197000Y-108297000D01*
X198197000Y-109440629D01*
X198419041Y-109561914D01*
X198925134Y-109322389D01*
X199177287Y-109044036D01*
X199211843Y-109217765D01*
X199352191Y-109427809D01*
X199562235Y-109568157D01*
X199810000Y-109617440D01*
X201410000Y-109617440D01*
X201657765Y-109568157D01*
X201867809Y-109427809D01*
X202008157Y-109217765D01*
X202057440Y-108970000D01*
X202057440Y-108040000D01*
X202306887Y-108040000D01*
X202416120Y-108589151D01*
X202727189Y-109054698D01*
X203192736Y-109365767D01*
X203741887Y-109475000D01*
X203798113Y-109475000D01*
X204347264Y-109365767D01*
X204812811Y-109054698D01*
X204884057Y-108948072D01*
X204911843Y-109087765D01*
X205052191Y-109297809D01*
X205262235Y-109438157D01*
X205510000Y-109487440D01*
X207110000Y-109487440D01*
X207357765Y-109438157D01*
X207567809Y-109297809D01*
X207708157Y-109087765D01*
X207757440Y-108840000D01*
X207757440Y-107240000D01*
X207708157Y-106992235D01*
X207567809Y-106782191D01*
X207357765Y-106641843D01*
X207110000Y-106592560D01*
X205934832Y-106592560D01*
X205935179Y-106195029D01*
X205777942Y-105814485D01*
X205585000Y-105621206D01*
X205585000Y-98778805D01*
X205676919Y-98687046D01*
X205834820Y-98306777D01*
X205835179Y-97895029D01*
X205677942Y-97514485D01*
X205387046Y-97223081D01*
X205006777Y-97065180D01*
X204595029Y-97064821D01*
X204214485Y-97222058D01*
X203923081Y-97512954D01*
X203765180Y-97893223D01*
X203764821Y-98304971D01*
X203922058Y-98685515D01*
X204015000Y-98778619D01*
X204015000Y-105832415D01*
X203865180Y-106193223D01*
X203864821Y-106604971D01*
X203870808Y-106619460D01*
X203798113Y-106605000D01*
X203741887Y-106605000D01*
X203192736Y-106714233D01*
X202727189Y-107025302D01*
X202416120Y-107490849D01*
X202306887Y-108040000D01*
X202057440Y-108040000D01*
X202057440Y-107370000D01*
X202008157Y-107122235D01*
X201867809Y-106912191D01*
X201657765Y-106771843D01*
X201410000Y-106722560D01*
X199810000Y-106722560D01*
X199562235Y-106771843D01*
X199352191Y-106912191D01*
X199211843Y-107122235D01*
X199177287Y-107295964D01*
X198925134Y-107017611D01*
X198419041Y-106778086D01*
X198197000Y-106899371D01*
X197943000Y-106899371D01*
X197720959Y-106778086D01*
X197214866Y-107017611D01*
X196838959Y-107432577D01*
X196678096Y-107820961D01*
X180670772Y-107820961D01*
X181011645Y-107446924D01*
X181181476Y-107036890D01*
X181060155Y-106807000D01*
X179867000Y-106807000D01*
X179613000Y-106807000D01*
X177327000Y-106807000D01*
X177073000Y-106807000D01*
X175879845Y-106807000D01*
X175758524Y-107036890D01*
X172488470Y-107036890D01*
X172185000Y-106733420D01*
X172185000Y-104496890D01*
X175758524Y-104496890D01*
X175928355Y-104906924D01*
X176318642Y-105335183D01*
X176477954Y-105410000D01*
X176318642Y-105484817D01*
X175928355Y-105913076D01*
X175758524Y-106323110D01*
X175879845Y-106553000D01*
X177073000Y-106553000D01*
X177073000Y-104267000D01*
X177327000Y-104267000D01*
X177327000Y-106553000D01*
X179613000Y-106553000D01*
X179613000Y-104267000D01*
X179867000Y-104267000D01*
X179867000Y-106553000D01*
X181060155Y-106553000D01*
X181181476Y-106323110D01*
X181011645Y-105913076D01*
X180621358Y-105484817D01*
X180462046Y-105410000D01*
X180621358Y-105335183D01*
X181011645Y-104906924D01*
X181181476Y-104496890D01*
X181060155Y-104267000D01*
X179867000Y-104267000D01*
X179613000Y-104267000D01*
X177327000Y-104267000D01*
X177073000Y-104267000D01*
X175879845Y-104267000D01*
X175758524Y-104496890D01*
X172185000Y-104496890D01*
X172185000Y-102200005D01*
X172185001Y-102200000D01*
X172117633Y-101861326D01*
X172117633Y-101861325D01*
X171925790Y-101574210D01*
X171925787Y-101574208D01*
X171101580Y-100750000D01*
X175702560Y-100750000D01*
X175702560Y-102450000D01*
X175751843Y-102697765D01*
X175892191Y-102907809D01*
X176102235Y-103048157D01*
X176205708Y-103068739D01*
X175928355Y-103373076D01*
X175758524Y-103783110D01*
X175879845Y-104013000D01*
X177073000Y-104013000D01*
X177073000Y-103993000D01*
X177327000Y-103993000D01*
X177327000Y-104013000D01*
X179613000Y-104013000D01*
X179613000Y-103993000D01*
X179867000Y-103993000D01*
X179867000Y-104013000D01*
X181060155Y-104013000D01*
X181181476Y-103783110D01*
X181011645Y-103373076D01*
X180621358Y-102944817D01*
X180478447Y-102877702D01*
X180819147Y-102650054D01*
X181141054Y-102168285D01*
X181254093Y-101600000D01*
X181141054Y-101031715D01*
X180819147Y-100549946D01*
X180337378Y-100228039D01*
X179769093Y-100115000D01*
X179710907Y-100115000D01*
X179142622Y-100228039D01*
X178660853Y-100549946D01*
X178658383Y-100553643D01*
X178648157Y-100502235D01*
X178507809Y-100292191D01*
X178297765Y-100151843D01*
X178050000Y-100102560D01*
X176350000Y-100102560D01*
X176102235Y-100151843D01*
X175892191Y-100292191D01*
X175751843Y-100502235D01*
X175702560Y-100750000D01*
X171101580Y-100750000D01*
X170885000Y-100533420D01*
X170885000Y-100004971D01*
X182664821Y-100004971D01*
X182815000Y-100368433D01*
X182815000Y-100999995D01*
X182814999Y-101000000D01*
X182857766Y-101215000D01*
X182882367Y-101338675D01*
X183007393Y-101525790D01*
X183074210Y-101625790D01*
X184072869Y-102624448D01*
X184222058Y-102985515D01*
X184512954Y-103276919D01*
X184893223Y-103434820D01*
X185304971Y-103435179D01*
X185685515Y-103277942D01*
X185976919Y-102987046D01*
X186134820Y-102606777D01*
X186135179Y-102195029D01*
X185977942Y-101814485D01*
X185687046Y-101523081D01*
X185323848Y-101372268D01*
X184646551Y-100694971D01*
X189094821Y-100694971D01*
X189252058Y-101075515D01*
X189542954Y-101366919D01*
X189923223Y-101524820D01*
X190334971Y-101525179D01*
X190715515Y-101367942D01*
X190878770Y-101204971D01*
X193264821Y-101204971D01*
X193422058Y-101585515D01*
X193712954Y-101876919D01*
X194076151Y-102027731D01*
X196274208Y-104225787D01*
X196274210Y-104225790D01*
X196561325Y-104417633D01*
X196900000Y-104485001D01*
X196900005Y-104485000D01*
X198199995Y-104485000D01*
X198200000Y-104485001D01*
X198482484Y-104428810D01*
X198538675Y-104417633D01*
X198825790Y-104225790D01*
X198825791Y-104225789D01*
X199925787Y-103125792D01*
X199925790Y-103125790D01*
X200117633Y-102838675D01*
X200149048Y-102680742D01*
X200185001Y-102500000D01*
X200185000Y-102499995D01*
X200185000Y-101000005D01*
X200185001Y-101000000D01*
X200117633Y-100661326D01*
X200117633Y-100661325D01*
X199925790Y-100374210D01*
X199925787Y-100374208D01*
X198727131Y-99175551D01*
X198577942Y-98814485D01*
X198287046Y-98523081D01*
X197906777Y-98365180D01*
X197495029Y-98364821D01*
X197114485Y-98522058D01*
X196823081Y-98812954D01*
X196665180Y-99193223D01*
X196664821Y-99604971D01*
X196812471Y-99962313D01*
X196105079Y-99254921D01*
X195850407Y-99084755D01*
X195550000Y-99025000D01*
X195278805Y-99025000D01*
X195187046Y-98933081D01*
X194806777Y-98775180D01*
X194395029Y-98774821D01*
X194014485Y-98932058D01*
X193723081Y-99222954D01*
X193565180Y-99603223D01*
X193564821Y-100014971D01*
X193639852Y-100196561D01*
X193423081Y-100412954D01*
X193265180Y-100793223D01*
X193264821Y-101204971D01*
X190878770Y-101204971D01*
X191006919Y-101077046D01*
X191164820Y-100696777D01*
X191164935Y-100565223D01*
X195425187Y-96304971D01*
X198384821Y-96304971D01*
X198542058Y-96685515D01*
X198635000Y-96778619D01*
X198635000Y-97670000D01*
X198694755Y-97970407D01*
X198864921Y-98225079D01*
X200044934Y-99405092D01*
X200044821Y-99534971D01*
X200202058Y-99915515D01*
X200492954Y-100206919D01*
X200873223Y-100364820D01*
X201284971Y-100365179D01*
X201665515Y-100207942D01*
X201956919Y-99917046D01*
X202114820Y-99536777D01*
X202115179Y-99125029D01*
X201957942Y-98744485D01*
X201667046Y-98453081D01*
X201286777Y-98295180D01*
X201155223Y-98295065D01*
X200205000Y-97344842D01*
X200205000Y-96778805D01*
X200296919Y-96687046D01*
X200454820Y-96306777D01*
X200455179Y-95895029D01*
X200297942Y-95514485D01*
X200007046Y-95223081D01*
X199626777Y-95065180D01*
X199215029Y-95064821D01*
X198834485Y-95222058D01*
X198543081Y-95512954D01*
X198385180Y-95893223D01*
X198384821Y-96304971D01*
X195425187Y-96304971D01*
X200283297Y-91446861D01*
X200512954Y-91676919D01*
X200893223Y-91834820D01*
X200924689Y-91834847D01*
X205064934Y-95975092D01*
X205064821Y-96104971D01*
X205222058Y-96485515D01*
X205512954Y-96776919D01*
X205893223Y-96934820D01*
X206304971Y-96935179D01*
X206685515Y-96777942D01*
X206976919Y-96487046D01*
X207134820Y-96106777D01*
X207135179Y-95695029D01*
X206977942Y-95314485D01*
X206687046Y-95023081D01*
X206306777Y-94865180D01*
X206175223Y-94865065D01*
X202134979Y-90824821D01*
X202135179Y-90595029D01*
X201977942Y-90214485D01*
X201747009Y-89983149D01*
X202635079Y-89095079D01*
X202805245Y-88840407D01*
X202865000Y-88540000D01*
X202865000Y-85185037D01*
X202869172Y-85183313D01*
X203261934Y-84791236D01*
X203474758Y-84278700D01*
X203475242Y-83723735D01*
X203263313Y-83210828D01*
X202871236Y-82818066D01*
X202358700Y-82605242D01*
X201803735Y-82604758D01*
X201290828Y-82816687D01*
X200898066Y-83208764D01*
X200685242Y-83721300D01*
X200684758Y-84276265D01*
X200896687Y-84789172D01*
X201288764Y-85181934D01*
X201295000Y-85184523D01*
X201295000Y-88214842D01*
X190054908Y-99454934D01*
X189925029Y-99454821D01*
X189544485Y-99612058D01*
X189253081Y-99902954D01*
X189095180Y-100283223D01*
X189094821Y-100694971D01*
X184646551Y-100694971D01*
X184585000Y-100633420D01*
X184585000Y-100367585D01*
X184734820Y-100006777D01*
X184735179Y-99595029D01*
X184577942Y-99214485D01*
X184287046Y-98923081D01*
X183906777Y-98765180D01*
X183495029Y-98764821D01*
X183114485Y-98922058D01*
X182823081Y-99212954D01*
X182665180Y-99593223D01*
X182664821Y-100004971D01*
X170885000Y-100004971D01*
X170885000Y-95967585D01*
X171034820Y-95606777D01*
X171035179Y-95195029D01*
X170877942Y-94814485D01*
X170587046Y-94523081D01*
X170206777Y-94365180D01*
X169795029Y-94364821D01*
X169414485Y-94522058D01*
X169123081Y-94812954D01*
X168965180Y-95193223D01*
X168964821Y-95604971D01*
X169115000Y-95968433D01*
X169115000Y-100899995D01*
X169114999Y-100900000D01*
X169157359Y-101112951D01*
X169182367Y-101238675D01*
X169330251Y-101460000D01*
X169374210Y-101525790D01*
X170415000Y-102566579D01*
X170415000Y-103146768D01*
X170347765Y-103101843D01*
X170100000Y-103052560D01*
X168300000Y-103052560D01*
X168052235Y-103101843D01*
X167842191Y-103242191D01*
X167701843Y-103452235D01*
X167652560Y-103700000D01*
X159885000Y-103700000D01*
X159885000Y-102678805D01*
X159976919Y-102587046D01*
X160134820Y-102206777D01*
X160135179Y-101795029D01*
X159977942Y-101414485D01*
X159687046Y-101123081D01*
X159306777Y-100965180D01*
X158895029Y-100964821D01*
X158514485Y-101122058D01*
X158223081Y-101412954D01*
X158065180Y-101793223D01*
X158064821Y-102204971D01*
X158222058Y-102585515D01*
X158315000Y-102678619D01*
X158315000Y-106374842D01*
X153924908Y-110764934D01*
X153795029Y-110764821D01*
X153414485Y-110922058D01*
X153123081Y-111212954D01*
X152965180Y-111593223D01*
X152964821Y-112004971D01*
X134235258Y-112004971D01*
X134235387Y-111857381D01*
X133895845Y-111035628D01*
X133267679Y-110406364D01*
X132446519Y-110065389D01*
X131557381Y-110064613D01*
X130735628Y-110404155D01*
X130106364Y-111032321D01*
X129765389Y-111853481D01*
X129764613Y-112742619D01*
X122910000Y-112742619D01*
X122910000Y-103240000D01*
X147592560Y-103240000D01*
X147592560Y-104760000D01*
X147641843Y-105007765D01*
X147782191Y-105217809D01*
X147992235Y-105358157D01*
X148240000Y-105407440D01*
X149760000Y-105407440D01*
X150007765Y-105358157D01*
X150217809Y-105217809D01*
X150358157Y-105007765D01*
X150407440Y-104760000D01*
X150407440Y-104276265D01*
X152684758Y-104276265D01*
X152896687Y-104789172D01*
X153288764Y-105181934D01*
X153801300Y-105394758D01*
X154356265Y-105395242D01*
X154869172Y-105183313D01*
X155261934Y-104791236D01*
X155474758Y-104278700D01*
X155475242Y-103723735D01*
X155263313Y-103210828D01*
X154871236Y-102818066D01*
X154358700Y-102605242D01*
X153803735Y-102604758D01*
X153290828Y-102816687D01*
X152898066Y-103208764D01*
X152685242Y-103721300D01*
X152684758Y-104276265D01*
X150407440Y-104276265D01*
X150407440Y-103240000D01*
X150358157Y-102992235D01*
X150217809Y-102782191D01*
X150007765Y-102641843D01*
X149760000Y-102592560D01*
X148240000Y-102592560D01*
X147992235Y-102641843D01*
X147782191Y-102782191D01*
X147641843Y-102992235D01*
X147592560Y-103240000D01*
X122910000Y-103240000D01*
X122910000Y-102438764D01*
X150740841Y-102438764D01*
X150810059Y-102680742D01*
X151332780Y-102867155D01*
X151887049Y-102839341D01*
X152269941Y-102680742D01*
X152339159Y-102438764D01*
X151540000Y-101639605D01*
X150740841Y-102438764D01*
X122910000Y-102438764D01*
X122910000Y-101252780D01*
X150132845Y-101252780D01*
X150160659Y-101807049D01*
X150319258Y-102189941D01*
X150561236Y-102259159D01*
X151360395Y-101460000D01*
X151719605Y-101460000D01*
X152518764Y-102259159D01*
X152760742Y-102189941D01*
X152947155Y-101667220D01*
X152919341Y-101112951D01*
X152760742Y-100730059D01*
X152518764Y-100660841D01*
X151719605Y-101460000D01*
X151360395Y-101460000D01*
X150561236Y-100660841D01*
X150319258Y-100730059D01*
X150132845Y-101252780D01*
X122910000Y-101252780D01*
X122910000Y-99585750D01*
X128015000Y-99585750D01*
X128015000Y-100276310D01*
X128111673Y-100509699D01*
X128290302Y-100688327D01*
X128523691Y-100785000D01*
X129214250Y-100785000D01*
X129373000Y-100626250D01*
X129373000Y-99427000D01*
X129627000Y-99427000D01*
X129627000Y-100626250D01*
X129785750Y-100785000D01*
X130476309Y-100785000D01*
X130709698Y-100688327D01*
X130888327Y-100509699D01*
X130985000Y-100276310D01*
X130985000Y-99585750D01*
X132015000Y-99585750D01*
X132015000Y-100276310D01*
X132111673Y-100509699D01*
X132290302Y-100688327D01*
X132523691Y-100785000D01*
X133214250Y-100785000D01*
X133373000Y-100626250D01*
X133373000Y-99427000D01*
X133627000Y-99427000D01*
X133627000Y-100626250D01*
X133785750Y-100785000D01*
X134476309Y-100785000D01*
X134709698Y-100688327D01*
X134888327Y-100509699D01*
X134900116Y-100481236D01*
X150740841Y-100481236D01*
X151540000Y-101280395D01*
X152339159Y-100481236D01*
X152269941Y-100239258D01*
X151747220Y-100052845D01*
X151192951Y-100080659D01*
X150810059Y-100239258D01*
X150740841Y-100481236D01*
X134900116Y-100481236D01*
X134985000Y-100276310D01*
X134985000Y-99585750D01*
X134826250Y-99427000D01*
X133627000Y-99427000D01*
X133373000Y-99427000D01*
X132173750Y-99427000D01*
X132015000Y-99585750D01*
X130985000Y-99585750D01*
X130826250Y-99427000D01*
X129627000Y-99427000D01*
X129373000Y-99427000D01*
X128173750Y-99427000D01*
X128015000Y-99585750D01*
X122910000Y-99585750D01*
X122910000Y-81520000D01*
X127985907Y-81520000D01*
X128098946Y-82088285D01*
X128420853Y-82570054D01*
X128750026Y-82790000D01*
X128420853Y-83009946D01*
X128098946Y-83491715D01*
X127985907Y-84060000D01*
X128098946Y-84628285D01*
X128420853Y-85110054D01*
X128750026Y-85330000D01*
X128420853Y-85549946D01*
X128098946Y-86031715D01*
X127985907Y-86600000D01*
X128098946Y-87168285D01*
X128420853Y-87650054D01*
X128750026Y-87870000D01*
X128420853Y-88089946D01*
X128098946Y-88571715D01*
X127985907Y-89140000D01*
X128098946Y-89708285D01*
X128420853Y-90190054D01*
X128750026Y-90410000D01*
X128420853Y-90629946D01*
X128098946Y-91111715D01*
X127985907Y-91680000D01*
X128098946Y-92248285D01*
X128420853Y-92730054D01*
X128750026Y-92950000D01*
X128420853Y-93169946D01*
X128098946Y-93651715D01*
X127985907Y-94220000D01*
X128098946Y-94788285D01*
X128420853Y-95270054D01*
X128750026Y-95490000D01*
X128420853Y-95709946D01*
X128098946Y-96191715D01*
X127985907Y-96760000D01*
X128098946Y-97328285D01*
X128420853Y-97810054D01*
X128464777Y-97839403D01*
X128290302Y-97911673D01*
X128111673Y-98090301D01*
X128015000Y-98323690D01*
X128015000Y-99014250D01*
X128173750Y-99173000D01*
X129373000Y-99173000D01*
X129373000Y-99153000D01*
X129627000Y-99153000D01*
X129627000Y-99173000D01*
X130826250Y-99173000D01*
X130985000Y-99014250D01*
X130985000Y-98323690D01*
X130888327Y-98090301D01*
X130709698Y-97911673D01*
X130535223Y-97839403D01*
X130579147Y-97810054D01*
X130901054Y-97328285D01*
X131014093Y-96760000D01*
X130901054Y-96191715D01*
X130579147Y-95709946D01*
X130249974Y-95490000D01*
X130579147Y-95270054D01*
X130901054Y-94788285D01*
X131014093Y-94220000D01*
X130901054Y-93651715D01*
X130843932Y-93566226D01*
X131855079Y-92555079D01*
X131915387Y-92464821D01*
X132025245Y-92300406D01*
X132067279Y-92089087D01*
X132098946Y-92248285D01*
X132420853Y-92730054D01*
X132750026Y-92950000D01*
X132420853Y-93169946D01*
X132098946Y-93651715D01*
X131985907Y-94220000D01*
X132098946Y-94788285D01*
X132420853Y-95270054D01*
X132750026Y-95490000D01*
X132420853Y-95709946D01*
X132098946Y-96191715D01*
X131985907Y-96760000D01*
X132098946Y-97328285D01*
X132420853Y-97810054D01*
X132464777Y-97839403D01*
X132290302Y-97911673D01*
X132111673Y-98090301D01*
X132015000Y-98323690D01*
X132015000Y-99014250D01*
X132173750Y-99173000D01*
X133373000Y-99173000D01*
X133373000Y-99153000D01*
X133627000Y-99153000D01*
X133627000Y-99173000D01*
X134826250Y-99173000D01*
X134985000Y-99014250D01*
X134985000Y-98323690D01*
X134888327Y-98090301D01*
X134709698Y-97911673D01*
X134535223Y-97839403D01*
X134579147Y-97810054D01*
X134901054Y-97328285D01*
X135014093Y-96760000D01*
X134901054Y-96191715D01*
X134579147Y-95709946D01*
X134249974Y-95490000D01*
X134579147Y-95270054D01*
X134901054Y-94788285D01*
X135014093Y-94220000D01*
X134901054Y-93651715D01*
X134579147Y-93169946D01*
X134249974Y-92950000D01*
X134579147Y-92730054D01*
X134901054Y-92248285D01*
X135014093Y-91680000D01*
X134901054Y-91111715D01*
X134579147Y-90629946D01*
X134249974Y-90410000D01*
X134579147Y-90190054D01*
X134901054Y-89708285D01*
X135014093Y-89140000D01*
X134929550Y-88714971D01*
X140074821Y-88714971D01*
X140232058Y-89095515D01*
X140522954Y-89386919D01*
X140886152Y-89537731D01*
X141834208Y-90485787D01*
X141834210Y-90485790D01*
X142121325Y-90677633D01*
X142460000Y-90745000D01*
X143483420Y-90745000D01*
X146485000Y-93746579D01*
X146485000Y-97782415D01*
X146335180Y-98143223D01*
X146334821Y-98554971D01*
X146492058Y-98935515D01*
X146782954Y-99226919D01*
X147163223Y-99384820D01*
X147574971Y-99385179D01*
X147955515Y-99227942D01*
X148246919Y-98937046D01*
X148404820Y-98556777D01*
X148405057Y-98285000D01*
X150633420Y-98285000D01*
X151672869Y-99324448D01*
X151822058Y-99685515D01*
X152112954Y-99976919D01*
X152493223Y-100134820D01*
X152904971Y-100135179D01*
X153285515Y-99977942D01*
X153576919Y-99687046D01*
X153734820Y-99306777D01*
X153735179Y-98895029D01*
X153577942Y-98514485D01*
X153287046Y-98223081D01*
X152923848Y-98072268D01*
X151830344Y-96978764D01*
X153280841Y-96978764D01*
X153350059Y-97220742D01*
X153872780Y-97407155D01*
X154427049Y-97379341D01*
X154809941Y-97220742D01*
X154879159Y-96978764D01*
X154080000Y-96179605D01*
X153280841Y-96978764D01*
X151830344Y-96978764D01*
X151625790Y-96774210D01*
X151495339Y-96687046D01*
X151338675Y-96582367D01*
X151282484Y-96571190D01*
X151000000Y-96514999D01*
X150999995Y-96515000D01*
X150407440Y-96515000D01*
X150407440Y-95792780D01*
X152672845Y-95792780D01*
X152700659Y-96347049D01*
X152859258Y-96729941D01*
X153101236Y-96799159D01*
X153900395Y-96000000D01*
X154259605Y-96000000D01*
X155058764Y-96799159D01*
X155300742Y-96729941D01*
X155487155Y-96207220D01*
X155459341Y-95652951D01*
X155300742Y-95270059D01*
X155058764Y-95200841D01*
X154259605Y-96000000D01*
X153900395Y-96000000D01*
X153101236Y-95200841D01*
X152859258Y-95270059D01*
X152672845Y-95792780D01*
X150407440Y-95792780D01*
X150407440Y-95240000D01*
X150363926Y-95021236D01*
X153280841Y-95021236D01*
X154080000Y-95820395D01*
X154879159Y-95021236D01*
X154809941Y-94779258D01*
X154287220Y-94592845D01*
X153732951Y-94620659D01*
X153350059Y-94779258D01*
X153280841Y-95021236D01*
X150363926Y-95021236D01*
X150358157Y-94992235D01*
X150217809Y-94782191D01*
X150007765Y-94641843D01*
X149760000Y-94592560D01*
X148255000Y-94592560D01*
X148255000Y-93736265D01*
X150144758Y-93736265D01*
X150356687Y-94249172D01*
X150748764Y-94641934D01*
X151261300Y-94854758D01*
X151816265Y-94855242D01*
X152329172Y-94643313D01*
X152721934Y-94251236D01*
X152934758Y-93738700D01*
X152934787Y-93704971D01*
X182464821Y-93704971D01*
X182622058Y-94085515D01*
X182912954Y-94376919D01*
X183293223Y-94534820D01*
X183704971Y-94535179D01*
X184085515Y-94377942D01*
X184376919Y-94087046D01*
X184527731Y-93723848D01*
X185416477Y-92835102D01*
X185504971Y-92835179D01*
X185885515Y-92677942D01*
X186176919Y-92387046D01*
X186334820Y-92006777D01*
X186335179Y-91595029D01*
X186177942Y-91214485D01*
X185887046Y-90923081D01*
X185506777Y-90765180D01*
X185095029Y-90764821D01*
X184714485Y-90922058D01*
X184423081Y-91212954D01*
X184343277Y-91405144D01*
X183275551Y-92472869D01*
X182914485Y-92622058D01*
X182623081Y-92912954D01*
X182465180Y-93293223D01*
X182464821Y-93704971D01*
X152934787Y-93704971D01*
X152935242Y-93183735D01*
X152723313Y-92670828D01*
X152331236Y-92278066D01*
X152299700Y-92264971D01*
X164864821Y-92264971D01*
X165022058Y-92645515D01*
X165312954Y-92936919D01*
X165693223Y-93094820D01*
X166104971Y-93095179D01*
X166485515Y-92937942D01*
X166578619Y-92845000D01*
X167240000Y-92845000D01*
X167540407Y-92785245D01*
X167795079Y-92615079D01*
X168035092Y-92375066D01*
X168164971Y-92375179D01*
X168545515Y-92217942D01*
X168836919Y-91927046D01*
X168994820Y-91546777D01*
X168995179Y-91135029D01*
X168837942Y-90754485D01*
X168547046Y-90463081D01*
X168166777Y-90305180D01*
X167755029Y-90304821D01*
X167374485Y-90462058D01*
X167083081Y-90752954D01*
X166925180Y-91133223D01*
X166925065Y-91264777D01*
X166914842Y-91275000D01*
X166578805Y-91275000D01*
X166487046Y-91183081D01*
X166106777Y-91025180D01*
X165695029Y-91024821D01*
X165314485Y-91182058D01*
X165023081Y-91472954D01*
X164865180Y-91853223D01*
X164864821Y-92264971D01*
X152299700Y-92264971D01*
X151818700Y-92065242D01*
X151263735Y-92064758D01*
X150750828Y-92276687D01*
X150358066Y-92668764D01*
X150145242Y-93181300D01*
X150144758Y-93736265D01*
X148255000Y-93736265D01*
X148255000Y-93380005D01*
X148255001Y-93380000D01*
X148194283Y-93074755D01*
X148187633Y-93041325D01*
X147995790Y-92754210D01*
X147995787Y-92754208D01*
X144475790Y-89234210D01*
X144419980Y-89196919D01*
X144282412Y-89105000D01*
X145821195Y-89105000D01*
X145912954Y-89196919D01*
X146293223Y-89354820D01*
X146704971Y-89355179D01*
X147085515Y-89197942D01*
X147376919Y-88907046D01*
X147534820Y-88526777D01*
X147535179Y-88115029D01*
X147377942Y-87734485D01*
X147087046Y-87443081D01*
X146706777Y-87285180D01*
X146295029Y-87284821D01*
X145914485Y-87442058D01*
X145821381Y-87535000D01*
X143828700Y-87535000D01*
X143677046Y-87383081D01*
X143296777Y-87225180D01*
X142885029Y-87224821D01*
X142504485Y-87382058D01*
X142213081Y-87672954D01*
X142055180Y-88053223D01*
X142055150Y-88087142D01*
X141987942Y-87924485D01*
X141697046Y-87633081D01*
X141316777Y-87475180D01*
X140905029Y-87474821D01*
X140524485Y-87632058D01*
X140233081Y-87922954D01*
X140075180Y-88303223D01*
X140074821Y-88714971D01*
X134929550Y-88714971D01*
X134903697Y-88585000D01*
X135300000Y-88585000D01*
X135600407Y-88525245D01*
X135855079Y-88355079D01*
X137210158Y-87000000D01*
X188996887Y-87000000D01*
X189106120Y-87549151D01*
X189417189Y-88014698D01*
X189882736Y-88325767D01*
X190431887Y-88435000D01*
X190488113Y-88435000D01*
X191037264Y-88325767D01*
X191502811Y-88014698D01*
X191574057Y-87908072D01*
X191601843Y-88047765D01*
X191742191Y-88257809D01*
X191952235Y-88398157D01*
X192200000Y-88447440D01*
X193800000Y-88447440D01*
X194047765Y-88398157D01*
X194257809Y-88257809D01*
X194398157Y-88047765D01*
X194447440Y-87800000D01*
X194447440Y-86200000D01*
X194398157Y-85952235D01*
X194257809Y-85742191D01*
X194047765Y-85601843D01*
X193800000Y-85552560D01*
X192200000Y-85552560D01*
X191952235Y-85601843D01*
X191742191Y-85742191D01*
X191601843Y-85952235D01*
X191574057Y-86091928D01*
X191502811Y-85985302D01*
X191037264Y-85674233D01*
X190488113Y-85565000D01*
X190431887Y-85565000D01*
X189882736Y-85674233D01*
X189417189Y-85985302D01*
X189106120Y-86450849D01*
X188996887Y-87000000D01*
X137210158Y-87000000D01*
X138425158Y-85785000D01*
X140021195Y-85785000D01*
X140112954Y-85876919D01*
X140493223Y-86034820D01*
X140904971Y-86035179D01*
X141285515Y-85877942D01*
X141576919Y-85587046D01*
X141734820Y-85206777D01*
X141735179Y-84795029D01*
X141577942Y-84414485D01*
X141527875Y-84364330D01*
X141634820Y-84106777D01*
X141635179Y-83695029D01*
X141477942Y-83314485D01*
X141427875Y-83264330D01*
X141437977Y-83240000D01*
X195592560Y-83240000D01*
X195592560Y-84760000D01*
X195641843Y-85007765D01*
X195782191Y-85217809D01*
X195992235Y-85358157D01*
X196240000Y-85407440D01*
X197760000Y-85407440D01*
X198007765Y-85358157D01*
X198217809Y-85217809D01*
X198358157Y-85007765D01*
X198407440Y-84760000D01*
X198407440Y-83240000D01*
X198358157Y-82992235D01*
X198217809Y-82782191D01*
X198007765Y-82641843D01*
X197760000Y-82592560D01*
X196240000Y-82592560D01*
X195992235Y-82641843D01*
X195782191Y-82782191D01*
X195641843Y-82992235D01*
X195592560Y-83240000D01*
X141437977Y-83240000D01*
X141534820Y-83006777D01*
X141535179Y-82595029D01*
X141377942Y-82214485D01*
X141313712Y-82150143D01*
X141376919Y-82087046D01*
X141522575Y-81736265D01*
X198144758Y-81736265D01*
X198356687Y-82249172D01*
X198748764Y-82641934D01*
X199261300Y-82854758D01*
X199816265Y-82855242D01*
X200329172Y-82643313D01*
X200721934Y-82251236D01*
X200934758Y-81738700D01*
X200935242Y-81183735D01*
X200723313Y-80670828D01*
X200331236Y-80278066D01*
X199818700Y-80065242D01*
X199263735Y-80064758D01*
X198750828Y-80276687D01*
X198358066Y-80668764D01*
X198145242Y-81181300D01*
X198144758Y-81736265D01*
X141522575Y-81736265D01*
X141534820Y-81706777D01*
X141535179Y-81295029D01*
X141377942Y-80914485D01*
X141198601Y-80734831D01*
X141334820Y-80406777D01*
X141335179Y-79995029D01*
X141177942Y-79614485D01*
X140887046Y-79323081D01*
X140506777Y-79165180D01*
X140095029Y-79164821D01*
X139714485Y-79322058D01*
X139524799Y-79511413D01*
X138775174Y-79611363D01*
X138687046Y-79523081D01*
X138306777Y-79365180D01*
X137895029Y-79364821D01*
X137514485Y-79522058D01*
X137223081Y-79812954D01*
X137065180Y-80193223D01*
X137064821Y-80604971D01*
X137222058Y-80985515D01*
X137386201Y-81149944D01*
X137323081Y-81212954D01*
X137165180Y-81593223D01*
X137164821Y-82004971D01*
X137301181Y-82334990D01*
X137223081Y-82412954D01*
X137065180Y-82793223D01*
X137064937Y-83072377D01*
X136806777Y-82965180D01*
X136395029Y-82964821D01*
X136014485Y-83122058D01*
X135723081Y-83412954D01*
X135565180Y-83793223D01*
X135564821Y-84204971D01*
X135722058Y-84585515D01*
X136012954Y-84876919D01*
X136393223Y-85034820D01*
X136804971Y-85035179D01*
X137060066Y-84929776D01*
X134974842Y-87015000D01*
X134931544Y-87015000D01*
X135014093Y-86600000D01*
X134901054Y-86031715D01*
X134579147Y-85549946D01*
X134249974Y-85330000D01*
X134579147Y-85110054D01*
X134901054Y-84628285D01*
X135014093Y-84060000D01*
X134901054Y-83491715D01*
X134579147Y-83009946D01*
X134249974Y-82790000D01*
X134579147Y-82570054D01*
X134901054Y-82088285D01*
X135014093Y-81520000D01*
X134901054Y-80951715D01*
X134579147Y-80469946D01*
X134097378Y-80148039D01*
X133529093Y-80035000D01*
X133470907Y-80035000D01*
X132902622Y-80148039D01*
X132420853Y-80469946D01*
X132098946Y-80951715D01*
X131985907Y-81520000D01*
X132098946Y-82088285D01*
X132420853Y-82570054D01*
X132750026Y-82790000D01*
X132420853Y-83009946D01*
X132098946Y-83491715D01*
X131985907Y-84060000D01*
X132098946Y-84628285D01*
X132420853Y-85110054D01*
X132750026Y-85330000D01*
X132420853Y-85549946D01*
X132098946Y-86031715D01*
X131985907Y-86600000D01*
X132082600Y-87086110D01*
X131844921Y-87244921D01*
X130747675Y-88342167D01*
X130579147Y-88089946D01*
X130249974Y-87870000D01*
X130579147Y-87650054D01*
X130901054Y-87168285D01*
X131014093Y-86600000D01*
X130901054Y-86031715D01*
X130579147Y-85549946D01*
X130249974Y-85330000D01*
X130579147Y-85110054D01*
X130901054Y-84628285D01*
X131014093Y-84060000D01*
X130901054Y-83491715D01*
X130579147Y-83009946D01*
X130249974Y-82790000D01*
X130579147Y-82570054D01*
X130901054Y-82088285D01*
X131014093Y-81520000D01*
X130901054Y-80951715D01*
X130579147Y-80469946D01*
X130097378Y-80148039D01*
X129529093Y-80035000D01*
X129470907Y-80035000D01*
X128902622Y-80148039D01*
X128420853Y-80469946D01*
X128098946Y-80951715D01*
X127985907Y-81520000D01*
X122910000Y-81520000D01*
X122910000Y-78704971D01*
X188564821Y-78704971D01*
X188722058Y-79085515D01*
X189012954Y-79376919D01*
X189393223Y-79534820D01*
X189804971Y-79535179D01*
X190172968Y-79383126D01*
X190864934Y-80075092D01*
X190864821Y-80204971D01*
X191022058Y-80585515D01*
X191312954Y-80876919D01*
X191693223Y-81034820D01*
X192104971Y-81035179D01*
X192485515Y-80877942D01*
X192776919Y-80587046D01*
X192934820Y-80206777D01*
X192935179Y-79795029D01*
X192777942Y-79414485D01*
X192487046Y-79123081D01*
X192106777Y-78965180D01*
X191975223Y-78965065D01*
X190955079Y-77944921D01*
X190700407Y-77774755D01*
X190400000Y-77715000D01*
X190278805Y-77715000D01*
X190187046Y-77623081D01*
X189806777Y-77465180D01*
X189395029Y-77464821D01*
X189014485Y-77622058D01*
X188723081Y-77912954D01*
X188565180Y-78293223D01*
X188564821Y-78704971D01*
X122910000Y-78704971D01*
X122910000Y-61740000D01*
X127985907Y-61740000D01*
X128098946Y-62308285D01*
X128420853Y-62790054D01*
X128750026Y-63010000D01*
X128420853Y-63229946D01*
X128098946Y-63711715D01*
X127985907Y-64280000D01*
X128098946Y-64848285D01*
X128420853Y-65330054D01*
X128750026Y-65550000D01*
X128420853Y-65769946D01*
X128098946Y-66251715D01*
X127985907Y-66820000D01*
X128098946Y-67388285D01*
X128420853Y-67870054D01*
X128750026Y-68090000D01*
X128420853Y-68309946D01*
X128098946Y-68791715D01*
X127985907Y-69360000D01*
X128098946Y-69928285D01*
X128420853Y-70410054D01*
X128750026Y-70630000D01*
X128420853Y-70849946D01*
X128098946Y-71331715D01*
X127985907Y-71900000D01*
X128098946Y-72468285D01*
X128420853Y-72950054D01*
X128750026Y-73170000D01*
X128420853Y-73389946D01*
X128098946Y-73871715D01*
X127985907Y-74440000D01*
X128098946Y-75008285D01*
X128420853Y-75490054D01*
X128750026Y-75710000D01*
X128420853Y-75929946D01*
X128098946Y-76411715D01*
X127985907Y-76980000D01*
X128098946Y-77548285D01*
X128420853Y-78030054D01*
X128902622Y-78351961D01*
X129470907Y-78465000D01*
X129529093Y-78465000D01*
X130097378Y-78351961D01*
X130579147Y-78030054D01*
X130901054Y-77548285D01*
X131014093Y-76980000D01*
X130901054Y-76411715D01*
X130579147Y-75929946D01*
X130249974Y-75710000D01*
X130579147Y-75490054D01*
X130901054Y-75008285D01*
X131014093Y-74440000D01*
X130901054Y-73871715D01*
X130579147Y-73389946D01*
X130249974Y-73170000D01*
X130579147Y-72950054D01*
X130901054Y-72468285D01*
X131014093Y-71900000D01*
X130901054Y-71331715D01*
X130579147Y-70849946D01*
X130249974Y-70630000D01*
X130579147Y-70410054D01*
X130901054Y-69928285D01*
X131014093Y-69360000D01*
X130901054Y-68791715D01*
X130579147Y-68309946D01*
X130249974Y-68090000D01*
X130579147Y-67870054D01*
X130901054Y-67388285D01*
X131014093Y-66820000D01*
X130901054Y-66251715D01*
X130883986Y-66226172D01*
X131955079Y-65155079D01*
X132125245Y-64900406D01*
X132127201Y-64890572D01*
X132420853Y-65330054D01*
X132750026Y-65550000D01*
X132420853Y-65769946D01*
X132098946Y-66251715D01*
X131985907Y-66820000D01*
X132098946Y-67388285D01*
X132420853Y-67870054D01*
X132750026Y-68090000D01*
X132420853Y-68309946D01*
X132098946Y-68791715D01*
X131985907Y-69360000D01*
X132098946Y-69928285D01*
X132420853Y-70410054D01*
X132750026Y-70630000D01*
X132420853Y-70849946D01*
X132098946Y-71331715D01*
X131985907Y-71900000D01*
X132098946Y-72468285D01*
X132420853Y-72950054D01*
X132750026Y-73170000D01*
X132420853Y-73389946D01*
X132098946Y-73871715D01*
X131985907Y-74440000D01*
X132098946Y-75008285D01*
X132420853Y-75490054D01*
X132750026Y-75710000D01*
X132420853Y-75929946D01*
X132098946Y-76411715D01*
X131985907Y-76980000D01*
X132098946Y-77548285D01*
X132420853Y-78030054D01*
X132902622Y-78351961D01*
X133470907Y-78465000D01*
X133529093Y-78465000D01*
X134097378Y-78351961D01*
X134579147Y-78030054D01*
X134901054Y-77548285D01*
X135014093Y-76980000D01*
X134901054Y-76411715D01*
X134579147Y-75929946D01*
X134249974Y-75710000D01*
X134579147Y-75490054D01*
X134901054Y-75008285D01*
X135014093Y-74440000D01*
X134901054Y-73871715D01*
X134579147Y-73389946D01*
X134249974Y-73170000D01*
X134579147Y-72950054D01*
X134676088Y-72804971D01*
X139664821Y-72804971D01*
X139822058Y-73185515D01*
X140112954Y-73476919D01*
X140493223Y-73634820D01*
X140904971Y-73635179D01*
X141285515Y-73477942D01*
X141378619Y-73385000D01*
X150064926Y-73385000D01*
X150064821Y-73504971D01*
X150222058Y-73885515D01*
X150512954Y-74176919D01*
X150893223Y-74334820D01*
X151304971Y-74335179D01*
X151685515Y-74177942D01*
X151758613Y-74104971D01*
X179464821Y-74104971D01*
X179622058Y-74485515D01*
X179912954Y-74776919D01*
X180293223Y-74934820D01*
X180704971Y-74935179D01*
X181085515Y-74777942D01*
X181376919Y-74487046D01*
X181534820Y-74106777D01*
X181534923Y-73988673D01*
X184418700Y-71185000D01*
X190700000Y-71185000D01*
X191000407Y-71125245D01*
X191255079Y-70955079D01*
X193475092Y-68735066D01*
X193604971Y-68735179D01*
X193985515Y-68577942D01*
X194276919Y-68287046D01*
X194434820Y-67906777D01*
X194435179Y-67495029D01*
X194277942Y-67114485D01*
X193987046Y-66823081D01*
X193606777Y-66665180D01*
X193425136Y-66665022D01*
X195615079Y-64475079D01*
X195785245Y-64220406D01*
X195845000Y-63920000D01*
X195845000Y-58480000D01*
X195785245Y-58179594D01*
X195615079Y-57924921D01*
X195525066Y-57834908D01*
X195525179Y-57705029D01*
X195367942Y-57324485D01*
X195077046Y-57033081D01*
X194696777Y-56875180D01*
X194285029Y-56874821D01*
X193904485Y-57032058D01*
X193613081Y-57322954D01*
X193455180Y-57703223D01*
X193454821Y-58114971D01*
X193612058Y-58495515D01*
X193902954Y-58786919D01*
X194275000Y-58941406D01*
X194275000Y-63594842D01*
X189914908Y-67954934D01*
X189785029Y-67954821D01*
X189404485Y-68112058D01*
X189113081Y-68402954D01*
X188955180Y-68783223D01*
X188954821Y-69194971D01*
X189112058Y-69575515D01*
X189151474Y-69615000D01*
X185915285Y-69615000D01*
X186104758Y-69158700D01*
X186105242Y-68603735D01*
X185893313Y-68090828D01*
X185501236Y-67698066D01*
X184988700Y-67485242D01*
X184433735Y-67484758D01*
X183920828Y-67696687D01*
X183528066Y-68088764D01*
X183315242Y-68601300D01*
X183314758Y-69156265D01*
X183526687Y-69669172D01*
X183638768Y-69781448D01*
X183552793Y-69837159D01*
X180438498Y-72864946D01*
X180295029Y-72864821D01*
X179914485Y-73022058D01*
X179623081Y-73312954D01*
X179465180Y-73693223D01*
X179464821Y-74104971D01*
X151758613Y-74104971D01*
X151976919Y-73887046D01*
X152134820Y-73506777D01*
X152135179Y-73095029D01*
X151977942Y-72714485D01*
X151687046Y-72423081D01*
X151306777Y-72265180D01*
X151175223Y-72265065D01*
X150955079Y-72044921D01*
X150700407Y-71874755D01*
X150400000Y-71815000D01*
X141378805Y-71815000D01*
X141287046Y-71723081D01*
X140906777Y-71565180D01*
X140495029Y-71564821D01*
X140114485Y-71722058D01*
X139823081Y-72012954D01*
X139665180Y-72393223D01*
X139664821Y-72804971D01*
X134676088Y-72804971D01*
X134901054Y-72468285D01*
X135014093Y-71900000D01*
X134901054Y-71331715D01*
X134579147Y-70849946D01*
X134249974Y-70630000D01*
X134579147Y-70410054D01*
X134901054Y-69928285D01*
X135014093Y-69360000D01*
X134901054Y-68791715D01*
X134692774Y-68480000D01*
X160622560Y-68480000D01*
X160622560Y-70000000D01*
X160671843Y-70247765D01*
X160812191Y-70457809D01*
X161022235Y-70598157D01*
X161270000Y-70647440D01*
X162790000Y-70647440D01*
X163037765Y-70598157D01*
X163247809Y-70457809D01*
X163388157Y-70247765D01*
X163437440Y-70000000D01*
X163437440Y-69516265D01*
X165714758Y-69516265D01*
X165926687Y-70029172D01*
X166318764Y-70421934D01*
X166831300Y-70634758D01*
X167386265Y-70635242D01*
X167899172Y-70423313D01*
X168291934Y-70031236D01*
X168504758Y-69518700D01*
X168505242Y-68963735D01*
X168293313Y-68450828D01*
X168082853Y-68240000D01*
X169592560Y-68240000D01*
X169592560Y-69760000D01*
X169641843Y-70007765D01*
X169782191Y-70217809D01*
X169992235Y-70358157D01*
X170240000Y-70407440D01*
X171760000Y-70407440D01*
X172007765Y-70358157D01*
X172217809Y-70217809D01*
X172358157Y-70007765D01*
X172407440Y-69760000D01*
X172407440Y-69276265D01*
X174684758Y-69276265D01*
X174896687Y-69789172D01*
X175288764Y-70181934D01*
X175801300Y-70394758D01*
X176356265Y-70395242D01*
X176869172Y-70183313D01*
X177261934Y-69791236D01*
X177474758Y-69278700D01*
X177475242Y-68723735D01*
X177263313Y-68210828D01*
X177172644Y-68120000D01*
X178222560Y-68120000D01*
X178222560Y-69640000D01*
X178271843Y-69887765D01*
X178412191Y-70097809D01*
X178622235Y-70238157D01*
X178870000Y-70287440D01*
X180390000Y-70287440D01*
X180637765Y-70238157D01*
X180847809Y-70097809D01*
X180988157Y-69887765D01*
X181037440Y-69640000D01*
X181037440Y-68120000D01*
X180988157Y-67872235D01*
X180847809Y-67662191D01*
X180637765Y-67521843D01*
X180390000Y-67472560D01*
X178870000Y-67472560D01*
X178622235Y-67521843D01*
X178412191Y-67662191D01*
X178271843Y-67872235D01*
X178222560Y-68120000D01*
X177172644Y-68120000D01*
X176871236Y-67818066D01*
X176358700Y-67605242D01*
X175803735Y-67604758D01*
X175290828Y-67816687D01*
X174898066Y-68208764D01*
X174685242Y-68721300D01*
X174684758Y-69276265D01*
X172407440Y-69276265D01*
X172407440Y-68240000D01*
X172358157Y-67992235D01*
X172217809Y-67782191D01*
X172007765Y-67641843D01*
X171760000Y-67592560D01*
X170240000Y-67592560D01*
X169992235Y-67641843D01*
X169782191Y-67782191D01*
X169641843Y-67992235D01*
X169592560Y-68240000D01*
X168082853Y-68240000D01*
X167901236Y-68058066D01*
X167388700Y-67845242D01*
X166833735Y-67844758D01*
X166320828Y-68056687D01*
X165928066Y-68448764D01*
X165715242Y-68961300D01*
X165714758Y-69516265D01*
X163437440Y-69516265D01*
X163437440Y-68480000D01*
X163388157Y-68232235D01*
X163247809Y-68022191D01*
X163037765Y-67881843D01*
X162790000Y-67832560D01*
X161270000Y-67832560D01*
X161022235Y-67881843D01*
X160812191Y-68022191D01*
X160671843Y-68232235D01*
X160622560Y-68480000D01*
X134692774Y-68480000D01*
X134579147Y-68309946D01*
X134249974Y-68090000D01*
X134579147Y-67870054D01*
X134901054Y-67388285D01*
X134983009Y-66976265D01*
X163174758Y-66976265D01*
X163386687Y-67489172D01*
X163778764Y-67881934D01*
X164291300Y-68094758D01*
X164846265Y-68095242D01*
X165359172Y-67883313D01*
X165751934Y-67491236D01*
X165754523Y-67485000D01*
X172592104Y-67485000D01*
X172748764Y-67641934D01*
X173261300Y-67854758D01*
X173816265Y-67855242D01*
X174329172Y-67643313D01*
X174721934Y-67251236D01*
X174934758Y-66738700D01*
X174935242Y-66183735D01*
X174723313Y-65670828D01*
X174331236Y-65278066D01*
X173818700Y-65065242D01*
X173263735Y-65064758D01*
X172750828Y-65276687D01*
X172358066Y-65668764D01*
X172255820Y-65915000D01*
X165755037Y-65915000D01*
X165753313Y-65910828D01*
X165361236Y-65518066D01*
X164848700Y-65305242D01*
X164293735Y-65304758D01*
X163780828Y-65516687D01*
X163388066Y-65908764D01*
X163175242Y-66421300D01*
X163174758Y-66976265D01*
X134983009Y-66976265D01*
X135014093Y-66820000D01*
X134901054Y-66251715D01*
X134579147Y-65769946D01*
X134249974Y-65550000D01*
X134579147Y-65330054D01*
X134901054Y-64848285D01*
X135014093Y-64280000D01*
X134901054Y-63711715D01*
X134628623Y-63303991D01*
X144464735Y-63303991D01*
X144697932Y-63868371D01*
X145129357Y-64300551D01*
X145693330Y-64534733D01*
X146303991Y-64535265D01*
X146868371Y-64302068D01*
X147250288Y-63920818D01*
X147629357Y-64300551D01*
X148193330Y-64534733D01*
X148803991Y-64535265D01*
X149368371Y-64302068D01*
X149750288Y-63920818D01*
X150129357Y-64300551D01*
X150693330Y-64534733D01*
X151303991Y-64535265D01*
X151849484Y-64309872D01*
X151922058Y-64485515D01*
X152212954Y-64776919D01*
X152545491Y-64915000D01*
X149567585Y-64915000D01*
X149206777Y-64765180D01*
X148795029Y-64764821D01*
X148414485Y-64922058D01*
X148123081Y-65212954D01*
X147965180Y-65593223D01*
X147964821Y-66004971D01*
X148122058Y-66385515D01*
X148412954Y-66676919D01*
X148793223Y-66834820D01*
X149204971Y-66835179D01*
X149568433Y-66685000D01*
X153499995Y-66685000D01*
X153500000Y-66685001D01*
X153782484Y-66628810D01*
X153838675Y-66617633D01*
X154125790Y-66425790D01*
X155696608Y-64854971D01*
X177104821Y-64854971D01*
X177262058Y-65235515D01*
X177552954Y-65526919D01*
X177933223Y-65684820D01*
X178344971Y-65685179D01*
X178708433Y-65535000D01*
X181001854Y-65535000D01*
X180988066Y-65548764D01*
X180775242Y-66061300D01*
X180774758Y-66616265D01*
X180986687Y-67129172D01*
X181378764Y-67521934D01*
X181891300Y-67734758D01*
X182446265Y-67735242D01*
X182959172Y-67523313D01*
X183351934Y-67131236D01*
X183564758Y-66618700D01*
X183565242Y-66063735D01*
X183380431Y-65616459D01*
X185748762Y-67308124D01*
X185822058Y-67485515D01*
X186112954Y-67776919D01*
X186493223Y-67934820D01*
X186904971Y-67935179D01*
X187285515Y-67777942D01*
X187576919Y-67487046D01*
X187734820Y-67106777D01*
X187735179Y-66695029D01*
X187577942Y-66314485D01*
X187287046Y-66023081D01*
X186906777Y-65865180D01*
X186773701Y-65865064D01*
X184064396Y-63929846D01*
X183972503Y-63888379D01*
X183888675Y-63832367D01*
X183816615Y-63818033D01*
X183749648Y-63787814D01*
X183648881Y-63784669D01*
X183550000Y-63765000D01*
X178707585Y-63765000D01*
X178346777Y-63615180D01*
X177935029Y-63614821D01*
X177554485Y-63772058D01*
X177263081Y-64062954D01*
X177105180Y-64443223D01*
X177104821Y-64854971D01*
X155696608Y-64854971D01*
X156924448Y-63627131D01*
X157285515Y-63477942D01*
X157576919Y-63187046D01*
X157734820Y-62806777D01*
X157735179Y-62395029D01*
X157577942Y-62014485D01*
X157287046Y-61723081D01*
X156906777Y-61565180D01*
X156495029Y-61564821D01*
X156114485Y-61722058D01*
X155823081Y-62012954D01*
X155672268Y-62376153D01*
X153758966Y-64289454D01*
X153834820Y-64106777D01*
X153835179Y-63695029D01*
X153677942Y-63314485D01*
X153387046Y-63023081D01*
X153285000Y-62980708D01*
X153285000Y-62600000D01*
X153225245Y-62299594D01*
X153055079Y-62044921D01*
X151455079Y-60444921D01*
X151200407Y-60274755D01*
X150900000Y-60215000D01*
X150678805Y-60215000D01*
X150587046Y-60123081D01*
X150206777Y-59965180D01*
X149795029Y-59964821D01*
X149414485Y-60122058D01*
X149123081Y-60412954D01*
X148965180Y-60793223D01*
X148964821Y-61204971D01*
X149122058Y-61585515D01*
X149140323Y-61603812D01*
X148806670Y-61465267D01*
X148196009Y-61464735D01*
X147631629Y-61697932D01*
X147249712Y-62079182D01*
X146870643Y-61699449D01*
X146306670Y-61465267D01*
X145696009Y-61464735D01*
X145131629Y-61697932D01*
X144699449Y-62129357D01*
X144465267Y-62693330D01*
X144464735Y-63303991D01*
X134628623Y-63303991D01*
X134579147Y-63229946D01*
X134249974Y-63010000D01*
X134579147Y-62790054D01*
X134901054Y-62308285D01*
X134941493Y-62104984D01*
X135212954Y-62376919D01*
X135593223Y-62534820D01*
X136004971Y-62535179D01*
X136385515Y-62377942D01*
X136676919Y-62087046D01*
X136834820Y-61706777D01*
X136834935Y-61575223D01*
X138855079Y-59555079D01*
X139025245Y-59300406D01*
X139085000Y-59000000D01*
X139085000Y-56778805D01*
X139176919Y-56687046D01*
X139245520Y-56521834D01*
X141464543Y-56521834D01*
X141864853Y-57490658D01*
X142605443Y-58232542D01*
X143573567Y-58634542D01*
X144621834Y-58635457D01*
X145590658Y-58235147D01*
X146332542Y-57494557D01*
X146734542Y-56526433D01*
X146734546Y-56521834D01*
X150264543Y-56521834D01*
X150664853Y-57490658D01*
X151405443Y-58232542D01*
X152373567Y-58634542D01*
X153421834Y-58635457D01*
X154390658Y-58235147D01*
X155132542Y-57494557D01*
X155534542Y-56526433D01*
X155535457Y-55478166D01*
X155452893Y-55278344D01*
X186274765Y-55278344D01*
X186480617Y-55776543D01*
X186861452Y-56158043D01*
X187359291Y-56364764D01*
X187898344Y-56365235D01*
X188396543Y-56159383D01*
X188778043Y-55778548D01*
X188900045Y-55484736D01*
X189020617Y-55776543D01*
X189401452Y-56158043D01*
X189899291Y-56364764D01*
X190438344Y-56365235D01*
X190936543Y-56159383D01*
X191136500Y-55959774D01*
X191939831Y-55959774D01*
X192004131Y-56197611D01*
X192512342Y-56377333D01*
X193050644Y-56348892D01*
X193415869Y-56197611D01*
X193480169Y-55959774D01*
X192710000Y-55189605D01*
X191939831Y-55959774D01*
X191136500Y-55959774D01*
X191318043Y-55778548D01*
X191433339Y-55500884D01*
X191522389Y-55715869D01*
X191760226Y-55780169D01*
X192530395Y-55010000D01*
X192889605Y-55010000D01*
X193659774Y-55780169D01*
X193897611Y-55715869D01*
X194077333Y-55207658D01*
X194048892Y-54669356D01*
X193897611Y-54304131D01*
X193659774Y-54239831D01*
X192889605Y-55010000D01*
X192530395Y-55010000D01*
X191760226Y-54239831D01*
X191522389Y-54304131D01*
X191440331Y-54536172D01*
X191319383Y-54243457D01*
X191136472Y-54060226D01*
X191939831Y-54060226D01*
X192710000Y-54830395D01*
X193480169Y-54060226D01*
X193415869Y-53822389D01*
X192907658Y-53642667D01*
X192369356Y-53671108D01*
X192004131Y-53822389D01*
X191939831Y-54060226D01*
X191136472Y-54060226D01*
X190938548Y-53861957D01*
X190440709Y-53655236D01*
X189901656Y-53654765D01*
X189403457Y-53860617D01*
X189021957Y-54241452D01*
X188899955Y-54535264D01*
X188779383Y-54243457D01*
X188398548Y-53861957D01*
X187900709Y-53655236D01*
X187361656Y-53654765D01*
X186863457Y-53860617D01*
X186481957Y-54241452D01*
X186275236Y-54739291D01*
X186274765Y-55278344D01*
X155452893Y-55278344D01*
X155135147Y-54509342D01*
X154394557Y-53767458D01*
X153426433Y-53365458D01*
X152378166Y-53364543D01*
X151409342Y-53764853D01*
X150667458Y-54505443D01*
X150265458Y-55473567D01*
X150264543Y-56521834D01*
X146734546Y-56521834D01*
X146735457Y-55478166D01*
X146335147Y-54509342D01*
X145594557Y-53767458D01*
X144626433Y-53365458D01*
X143578166Y-53364543D01*
X142609342Y-53764853D01*
X141867458Y-54505443D01*
X141465458Y-55473567D01*
X141464543Y-56521834D01*
X139245520Y-56521834D01*
X139334820Y-56306777D01*
X139335179Y-55895029D01*
X139177942Y-55514485D01*
X138887046Y-55223081D01*
X138506777Y-55065180D01*
X138095029Y-55064821D01*
X137714485Y-55222058D01*
X137423081Y-55512954D01*
X137265180Y-55893223D01*
X137264821Y-56304971D01*
X137422058Y-56685515D01*
X137515000Y-56778619D01*
X137515000Y-58674842D01*
X135724908Y-60464934D01*
X135595029Y-60464821D01*
X135214485Y-60622058D01*
X134923081Y-60912954D01*
X134848373Y-61092872D01*
X134579147Y-60689946D01*
X134535223Y-60660597D01*
X134597765Y-60648157D01*
X134807809Y-60507809D01*
X134948157Y-60297765D01*
X134997440Y-60050000D01*
X134997440Y-58350000D01*
X134948157Y-58102235D01*
X134807809Y-57892191D01*
X134597765Y-57751843D01*
X134350000Y-57702560D01*
X132650000Y-57702560D01*
X132402235Y-57751843D01*
X132192191Y-57892191D01*
X132185000Y-57902953D01*
X132185000Y-53042619D01*
X197664613Y-53042619D01*
X198004155Y-53864372D01*
X198632321Y-54493636D01*
X199453481Y-54834611D01*
X200342619Y-54835387D01*
X201164372Y-54495845D01*
X201793636Y-53867679D01*
X202134611Y-53046519D01*
X202135387Y-52157381D01*
X201795845Y-51335628D01*
X201167679Y-50706364D01*
X200346519Y-50365389D01*
X199457381Y-50364613D01*
X198635628Y-50704155D01*
X198006364Y-51332321D01*
X197665389Y-52153481D01*
X197664613Y-53042619D01*
X132185000Y-53042619D01*
X132185000Y-52625158D01*
X133075092Y-51735066D01*
X133204971Y-51735179D01*
X133585515Y-51577942D01*
X133876919Y-51287046D01*
X134034820Y-50906777D01*
X134035179Y-50495029D01*
X133877942Y-50114485D01*
X133587046Y-49823081D01*
X133206777Y-49665180D01*
X132795029Y-49664821D01*
X132414485Y-49822058D01*
X132123081Y-50112954D01*
X131965180Y-50493223D01*
X131965065Y-50624777D01*
X130844921Y-51744921D01*
X130674755Y-51999593D01*
X130674755Y-51999594D01*
X130615000Y-52300000D01*
X130615000Y-57763359D01*
X130597765Y-57751843D01*
X130350000Y-57702560D01*
X128650000Y-57702560D01*
X128402235Y-57751843D01*
X128192191Y-57892191D01*
X128051843Y-58102235D01*
X128002560Y-58350000D01*
X128002560Y-60050000D01*
X128051843Y-60297765D01*
X128192191Y-60507809D01*
X128402235Y-60648157D01*
X128464777Y-60660597D01*
X128420853Y-60689946D01*
X128098946Y-61171715D01*
X127985907Y-61740000D01*
X122910000Y-61740000D01*
X122910000Y-48650000D01*
X162202560Y-48650000D01*
X162202560Y-50350000D01*
X162251843Y-50597765D01*
X162392191Y-50807809D01*
X162602235Y-50948157D01*
X162850000Y-50997440D01*
X164550000Y-50997440D01*
X164797765Y-50948157D01*
X165007809Y-50807809D01*
X165148157Y-50597765D01*
X165160597Y-50535223D01*
X165189946Y-50579147D01*
X165671715Y-50901054D01*
X166240000Y-51014093D01*
X166808285Y-50901054D01*
X167290054Y-50579147D01*
X167510000Y-50249974D01*
X167729946Y-50579147D01*
X168211715Y-50901054D01*
X168780000Y-51014093D01*
X169348285Y-50901054D01*
X169830054Y-50579147D01*
X170050000Y-50249974D01*
X170269946Y-50579147D01*
X170751715Y-50901054D01*
X171320000Y-51014093D01*
X171888285Y-50901054D01*
X172370054Y-50579147D01*
X172590000Y-50249974D01*
X172809946Y-50579147D01*
X173291715Y-50901054D01*
X173860000Y-51014093D01*
X174428285Y-50901054D01*
X174910054Y-50579147D01*
X175130000Y-50249974D01*
X175349946Y-50579147D01*
X175831715Y-50901054D01*
X176400000Y-51014093D01*
X176968285Y-50901054D01*
X177450054Y-50579147D01*
X177670000Y-50249974D01*
X177889946Y-50579147D01*
X178371715Y-50901054D01*
X178940000Y-51014093D01*
X179508285Y-50901054D01*
X179990054Y-50579147D01*
X180210000Y-50249974D01*
X180429946Y-50579147D01*
X180911715Y-50901054D01*
X181480000Y-51014093D01*
X182048285Y-50901054D01*
X182530054Y-50579147D01*
X182851961Y-50097378D01*
X182965000Y-49529093D01*
X182965000Y-49470907D01*
X182851961Y-48902622D01*
X182530054Y-48420853D01*
X182048285Y-48098946D01*
X181480000Y-47985907D01*
X180911715Y-48098946D01*
X180429946Y-48420853D01*
X180210000Y-48750026D01*
X179990054Y-48420853D01*
X179508285Y-48098946D01*
X178940000Y-47985907D01*
X178371715Y-48098946D01*
X177889946Y-48420853D01*
X177670000Y-48750026D01*
X177450054Y-48420853D01*
X176968285Y-48098946D01*
X176400000Y-47985907D01*
X175831715Y-48098946D01*
X175349946Y-48420853D01*
X175130000Y-48750026D01*
X174910054Y-48420853D01*
X174428285Y-48098946D01*
X173860000Y-47985907D01*
X173291715Y-48098946D01*
X172809946Y-48420853D01*
X172590000Y-48750026D01*
X172370054Y-48420853D01*
X171888285Y-48098946D01*
X171320000Y-47985907D01*
X170751715Y-48098946D01*
X170269946Y-48420853D01*
X170050000Y-48750026D01*
X169830054Y-48420853D01*
X169348285Y-48098946D01*
X168780000Y-47985907D01*
X168211715Y-48098946D01*
X167729946Y-48420853D01*
X167510000Y-48750026D01*
X167290054Y-48420853D01*
X166808285Y-48098946D01*
X166240000Y-47985907D01*
X165671715Y-48098946D01*
X165189946Y-48420853D01*
X165160597Y-48464777D01*
X165148157Y-48402235D01*
X165007809Y-48192191D01*
X164797765Y-48051843D01*
X164550000Y-48002560D01*
X162850000Y-48002560D01*
X162602235Y-48051843D01*
X162392191Y-48192191D01*
X162251843Y-48402235D01*
X162202560Y-48650000D01*
X122910000Y-48650000D01*
X122910000Y-42750296D01*
X147190480Y-42750296D01*
X147190480Y-42848624D01*
X147381506Y-43808976D01*
X147925501Y-44623123D01*
X148739648Y-45167118D01*
X149700000Y-45358144D01*
X150660352Y-45167118D01*
X151474499Y-44623123D01*
X152018494Y-43808976D01*
X152209520Y-42848624D01*
X152209520Y-42750296D01*
X162190480Y-42750296D01*
X162190480Y-42848624D01*
X162381506Y-43808976D01*
X162925501Y-44623123D01*
X163739648Y-45167118D01*
X164700000Y-45358144D01*
X165660352Y-45167118D01*
X166474499Y-44623123D01*
X167018494Y-43808976D01*
X167209520Y-42848624D01*
X167209520Y-42750296D01*
X177190480Y-42750296D01*
X177190480Y-42848624D01*
X177381506Y-43808976D01*
X177925501Y-44623123D01*
X178739648Y-45167118D01*
X179700000Y-45358144D01*
X180660352Y-45167118D01*
X181474499Y-44623123D01*
X182018494Y-43808976D01*
X182209520Y-42848624D01*
X182209520Y-42750296D01*
X192190480Y-42750296D01*
X192190480Y-42848624D01*
X192381506Y-43808976D01*
X192925501Y-44623123D01*
X193739648Y-45167118D01*
X194700000Y-45358144D01*
X195660352Y-45167118D01*
X196474499Y-44623123D01*
X197018494Y-43808976D01*
X197209520Y-42848624D01*
X197209520Y-42750296D01*
X197018494Y-41789944D01*
X196474499Y-40975797D01*
X195660352Y-40431802D01*
X194700000Y-40240776D01*
X193739648Y-40431802D01*
X192925501Y-40975797D01*
X192381506Y-41789944D01*
X192190480Y-42750296D01*
X182209520Y-42750296D01*
X182018494Y-41789944D01*
X181474499Y-40975797D01*
X180660352Y-40431802D01*
X179700000Y-40240776D01*
X178739648Y-40431802D01*
X177925501Y-40975797D01*
X177381506Y-41789944D01*
X177190480Y-42750296D01*
X167209520Y-42750296D01*
X167018494Y-41789944D01*
X166474499Y-40975797D01*
X165660352Y-40431802D01*
X164700000Y-40240776D01*
X163739648Y-40431802D01*
X162925501Y-40975797D01*
X162381506Y-41789944D01*
X162190480Y-42750296D01*
X152209520Y-42750296D01*
X152018494Y-41789944D01*
X151474499Y-40975797D01*
X150660352Y-40431802D01*
X149700000Y-40240776D01*
X148739648Y-40431802D01*
X147925501Y-40975797D01*
X147381506Y-41789944D01*
X147190480Y-42750296D01*
X122910000Y-42750296D01*
X122910000Y-40017510D01*
X143045794Y-40017510D01*
X143430757Y-40917829D01*
X144130953Y-41602296D01*
X144983871Y-41955580D01*
X145374380Y-41847337D01*
X145374380Y-39627000D01*
X145628380Y-39627000D01*
X145628380Y-41847337D01*
X146018889Y-41955580D01*
X146871807Y-41602296D01*
X147572003Y-40917829D01*
X147956966Y-40017510D01*
X147924427Y-39899880D01*
X152185719Y-39899880D01*
X152469133Y-40524940D01*
X152970174Y-40993962D01*
X153498741Y-41212893D01*
X153771620Y-41095152D01*
X153771620Y-39627000D01*
X154025620Y-39627000D01*
X154025620Y-41095152D01*
X154298499Y-41212893D01*
X154827066Y-40993962D01*
X155328107Y-40524940D01*
X155558185Y-40017510D01*
X158045794Y-40017510D01*
X158430757Y-40917829D01*
X159130953Y-41602296D01*
X159983871Y-41955580D01*
X160374380Y-41847337D01*
X160374380Y-39627000D01*
X160628380Y-39627000D01*
X160628380Y-41847337D01*
X161018889Y-41955580D01*
X161871807Y-41602296D01*
X162572003Y-40917829D01*
X162956966Y-40017510D01*
X162924427Y-39899880D01*
X167185719Y-39899880D01*
X167469133Y-40524940D01*
X167970174Y-40993962D01*
X168498741Y-41212893D01*
X168771620Y-41095152D01*
X168771620Y-39627000D01*
X169025620Y-39627000D01*
X169025620Y-41095152D01*
X169298499Y-41212893D01*
X169827066Y-40993962D01*
X170328107Y-40524940D01*
X170558185Y-40017510D01*
X173045794Y-40017510D01*
X173430757Y-40917829D01*
X174130953Y-41602296D01*
X174983871Y-41955580D01*
X175374380Y-41847337D01*
X175374380Y-39627000D01*
X175628380Y-39627000D01*
X175628380Y-41847337D01*
X176018889Y-41955580D01*
X176871807Y-41602296D01*
X177572003Y-40917829D01*
X177956966Y-40017510D01*
X177924427Y-39899880D01*
X182185719Y-39899880D01*
X182469133Y-40524940D01*
X182970174Y-40993962D01*
X183498741Y-41212893D01*
X183771620Y-41095152D01*
X183771620Y-39627000D01*
X184025620Y-39627000D01*
X184025620Y-41095152D01*
X184298499Y-41212893D01*
X184827066Y-40993962D01*
X185328107Y-40524940D01*
X185558185Y-40017510D01*
X188045794Y-40017510D01*
X188430757Y-40917829D01*
X189130953Y-41602296D01*
X189983871Y-41955580D01*
X190374380Y-41847337D01*
X190374380Y-39627000D01*
X190628380Y-39627000D01*
X190628380Y-41847337D01*
X191018889Y-41955580D01*
X191871807Y-41602296D01*
X192572003Y-40917829D01*
X192956966Y-40017510D01*
X192924427Y-39899880D01*
X197185719Y-39899880D01*
X197469133Y-40524940D01*
X197970174Y-40993962D01*
X198498741Y-41212893D01*
X198771620Y-41095152D01*
X198771620Y-39627000D01*
X199025620Y-39627000D01*
X199025620Y-41095152D01*
X199298499Y-41212893D01*
X199827066Y-40993962D01*
X200328107Y-40524940D01*
X200611521Y-39899880D01*
X200494237Y-39627000D01*
X199025620Y-39627000D01*
X198771620Y-39627000D01*
X197303003Y-39627000D01*
X197185719Y-39899880D01*
X192924427Y-39899880D01*
X192848940Y-39627000D01*
X190628380Y-39627000D01*
X190374380Y-39627000D01*
X188153820Y-39627000D01*
X188045794Y-40017510D01*
X185558185Y-40017510D01*
X185611521Y-39899880D01*
X185494237Y-39627000D01*
X184025620Y-39627000D01*
X183771620Y-39627000D01*
X182303003Y-39627000D01*
X182185719Y-39899880D01*
X177924427Y-39899880D01*
X177848940Y-39627000D01*
X175628380Y-39627000D01*
X175374380Y-39627000D01*
X173153820Y-39627000D01*
X173045794Y-40017510D01*
X170558185Y-40017510D01*
X170611521Y-39899880D01*
X170494237Y-39627000D01*
X169025620Y-39627000D01*
X168771620Y-39627000D01*
X167303003Y-39627000D01*
X167185719Y-39899880D01*
X162924427Y-39899880D01*
X162848940Y-39627000D01*
X160628380Y-39627000D01*
X160374380Y-39627000D01*
X158153820Y-39627000D01*
X158045794Y-40017510D01*
X155558185Y-40017510D01*
X155611521Y-39899880D01*
X155494237Y-39627000D01*
X154025620Y-39627000D01*
X153771620Y-39627000D01*
X152303003Y-39627000D01*
X152185719Y-39899880D01*
X147924427Y-39899880D01*
X147848940Y-39627000D01*
X145628380Y-39627000D01*
X145374380Y-39627000D01*
X143153820Y-39627000D01*
X143045794Y-40017510D01*
X122910000Y-40017510D01*
X122910000Y-37442619D01*
X136764613Y-37442619D01*
X137104155Y-38264372D01*
X137732321Y-38893636D01*
X138553481Y-39234611D01*
X139442619Y-39235387D01*
X140054675Y-38982490D01*
X143045794Y-38982490D01*
X143153820Y-39373000D01*
X145374380Y-39373000D01*
X145374380Y-37152663D01*
X145628380Y-37152663D01*
X145628380Y-39373000D01*
X147848940Y-39373000D01*
X147924426Y-39100120D01*
X152185719Y-39100120D01*
X152303003Y-39373000D01*
X153771620Y-39373000D01*
X153771620Y-37904848D01*
X154025620Y-37904848D01*
X154025620Y-39373000D01*
X155494237Y-39373000D01*
X155611521Y-39100120D01*
X155558186Y-38982490D01*
X158045794Y-38982490D01*
X158153820Y-39373000D01*
X160374380Y-39373000D01*
X160374380Y-37152663D01*
X160628380Y-37152663D01*
X160628380Y-39373000D01*
X162848940Y-39373000D01*
X162924426Y-39100120D01*
X167185719Y-39100120D01*
X167303003Y-39373000D01*
X168771620Y-39373000D01*
X168771620Y-37904848D01*
X169025620Y-37904848D01*
X169025620Y-39373000D01*
X170494237Y-39373000D01*
X170611521Y-39100120D01*
X170558186Y-38982490D01*
X173045794Y-38982490D01*
X173153820Y-39373000D01*
X175374380Y-39373000D01*
X175374380Y-37152663D01*
X175628380Y-37152663D01*
X175628380Y-39373000D01*
X177848940Y-39373000D01*
X177924426Y-39100120D01*
X182185719Y-39100120D01*
X182303003Y-39373000D01*
X183771620Y-39373000D01*
X183771620Y-37904848D01*
X184025620Y-37904848D01*
X184025620Y-39373000D01*
X185494237Y-39373000D01*
X185611521Y-39100120D01*
X185558186Y-38982490D01*
X188045794Y-38982490D01*
X188153820Y-39373000D01*
X190374380Y-39373000D01*
X190374380Y-37152663D01*
X190628380Y-37152663D01*
X190628380Y-39373000D01*
X192848940Y-39373000D01*
X192924426Y-39100120D01*
X197185719Y-39100120D01*
X197303003Y-39373000D01*
X198771620Y-39373000D01*
X198771620Y-37904848D01*
X199025620Y-37904848D01*
X199025620Y-39373000D01*
X200494237Y-39373000D01*
X200611521Y-39100120D01*
X200328107Y-38475060D01*
X199827066Y-38006038D01*
X199298499Y-37787107D01*
X199025620Y-37904848D01*
X198771620Y-37904848D01*
X198498741Y-37787107D01*
X197970174Y-38006038D01*
X197469133Y-38475060D01*
X197185719Y-39100120D01*
X192924426Y-39100120D01*
X192956966Y-38982490D01*
X192572003Y-38082171D01*
X191871807Y-37397704D01*
X191018889Y-37044420D01*
X190628380Y-37152663D01*
X190374380Y-37152663D01*
X189983871Y-37044420D01*
X189130953Y-37397704D01*
X188430757Y-38082171D01*
X188045794Y-38982490D01*
X185558186Y-38982490D01*
X185328107Y-38475060D01*
X184827066Y-38006038D01*
X184298499Y-37787107D01*
X184025620Y-37904848D01*
X183771620Y-37904848D01*
X183498741Y-37787107D01*
X182970174Y-38006038D01*
X182469133Y-38475060D01*
X182185719Y-39100120D01*
X177924426Y-39100120D01*
X177956966Y-38982490D01*
X177572003Y-38082171D01*
X176871807Y-37397704D01*
X176018889Y-37044420D01*
X175628380Y-37152663D01*
X175374380Y-37152663D01*
X174983871Y-37044420D01*
X174130953Y-37397704D01*
X173430757Y-38082171D01*
X173045794Y-38982490D01*
X170558186Y-38982490D01*
X170328107Y-38475060D01*
X169827066Y-38006038D01*
X169298499Y-37787107D01*
X169025620Y-37904848D01*
X168771620Y-37904848D01*
X168498741Y-37787107D01*
X167970174Y-38006038D01*
X167469133Y-38475060D01*
X167185719Y-39100120D01*
X162924426Y-39100120D01*
X162956966Y-38982490D01*
X162572003Y-38082171D01*
X161871807Y-37397704D01*
X161018889Y-37044420D01*
X160628380Y-37152663D01*
X160374380Y-37152663D01*
X159983871Y-37044420D01*
X159130953Y-37397704D01*
X158430757Y-38082171D01*
X158045794Y-38982490D01*
X155558186Y-38982490D01*
X155328107Y-38475060D01*
X154827066Y-38006038D01*
X154298499Y-37787107D01*
X154025620Y-37904848D01*
X153771620Y-37904848D01*
X153498741Y-37787107D01*
X152970174Y-38006038D01*
X152469133Y-38475060D01*
X152185719Y-39100120D01*
X147924426Y-39100120D01*
X147956966Y-38982490D01*
X147572003Y-38082171D01*
X146871807Y-37397704D01*
X146018889Y-37044420D01*
X145628380Y-37152663D01*
X145374380Y-37152663D01*
X144983871Y-37044420D01*
X144130953Y-37397704D01*
X143430757Y-38082171D01*
X143045794Y-38982490D01*
X140054675Y-38982490D01*
X140264372Y-38895845D01*
X140893636Y-38267679D01*
X141234611Y-37446519D01*
X141235387Y-36557381D01*
X140895845Y-35735628D01*
X140267679Y-35106364D01*
X139446519Y-34765389D01*
X138557381Y-34764613D01*
X137735628Y-35104155D01*
X137106364Y-35732321D01*
X136765389Y-36553481D01*
X136764613Y-37442619D01*
X122910000Y-37442619D01*
X122910000Y-34551176D01*
X147190480Y-34551176D01*
X147190480Y-34649504D01*
X147381506Y-35609856D01*
X147925501Y-36424003D01*
X148739648Y-36967998D01*
X149700000Y-37159024D01*
X150660352Y-36967998D01*
X151474499Y-36424003D01*
X152018494Y-35609856D01*
X152209520Y-34649504D01*
X152209520Y-34551176D01*
X162190480Y-34551176D01*
X162190480Y-34649504D01*
X162381506Y-35609856D01*
X162925501Y-36424003D01*
X163739648Y-36967998D01*
X164700000Y-37159024D01*
X165660352Y-36967998D01*
X166474499Y-36424003D01*
X167018494Y-35609856D01*
X167209520Y-34649504D01*
X167209520Y-34551176D01*
X177190480Y-34551176D01*
X177190480Y-34649504D01*
X177381506Y-35609856D01*
X177925501Y-36424003D01*
X178739648Y-36967998D01*
X179700000Y-37159024D01*
X180660352Y-36967998D01*
X181474499Y-36424003D01*
X182018494Y-35609856D01*
X182209520Y-34649504D01*
X182209520Y-34551176D01*
X192190480Y-34551176D01*
X192190480Y-34649504D01*
X192381506Y-35609856D01*
X192925501Y-36424003D01*
X193739648Y-36967998D01*
X194700000Y-37159024D01*
X195660352Y-36967998D01*
X196474499Y-36424003D01*
X197018494Y-35609856D01*
X197209520Y-34649504D01*
X197209520Y-34551176D01*
X197018494Y-33590824D01*
X196474499Y-32776677D01*
X195660352Y-32232682D01*
X194700000Y-32041656D01*
X193739648Y-32232682D01*
X192925501Y-32776677D01*
X192381506Y-33590824D01*
X192190480Y-34551176D01*
X182209520Y-34551176D01*
X182018494Y-33590824D01*
X181474499Y-32776677D01*
X180660352Y-32232682D01*
X179700000Y-32041656D01*
X178739648Y-32232682D01*
X177925501Y-32776677D01*
X177381506Y-33590824D01*
X177190480Y-34551176D01*
X167209520Y-34551176D01*
X167018494Y-33590824D01*
X166474499Y-32776677D01*
X165660352Y-32232682D01*
X164700000Y-32041656D01*
X163739648Y-32232682D01*
X162925501Y-32776677D01*
X162381506Y-33590824D01*
X162190480Y-34551176D01*
X152209520Y-34551176D01*
X152018494Y-33590824D01*
X151474499Y-32776677D01*
X150660352Y-32232682D01*
X149700000Y-32041656D01*
X148739648Y-32232682D01*
X147925501Y-32776677D01*
X147381506Y-33590824D01*
X147190480Y-34551176D01*
X122910000Y-34551176D01*
X122910000Y-31810000D01*
X123009858Y-31810000D01*
X123228295Y-31955954D01*
X123228295Y-31955954D01*
G37*
X123228295Y-31955954D02*
X123500000Y-32010000D01*
X208590000Y-32010000D01*
X208590000Y-118990000D01*
X122910000Y-118990000D01*
X122910000Y-112742619D01*
X129764613Y-112742619D01*
X130104155Y-113564372D01*
X130732321Y-114193636D01*
X131553481Y-114534611D01*
X132442619Y-114535387D01*
X132667134Y-114442619D01*
X191764613Y-114442619D01*
X192104155Y-115264372D01*
X192732321Y-115893636D01*
X193553481Y-116234611D01*
X194442619Y-116235387D01*
X195264372Y-115895845D01*
X195893636Y-115267679D01*
X196234611Y-114446519D01*
X196235387Y-113557381D01*
X195895845Y-112735628D01*
X195267679Y-112106364D01*
X194446519Y-111765389D01*
X193557381Y-111764613D01*
X192735628Y-112104155D01*
X192106364Y-112732321D01*
X191765389Y-113553481D01*
X191764613Y-114442619D01*
X132667134Y-114442619D01*
X133264372Y-114195845D01*
X133893636Y-113567679D01*
X134234611Y-112746519D01*
X134235258Y-112004971D01*
X152964821Y-112004971D01*
X153122058Y-112385515D01*
X153412954Y-112676919D01*
X153793223Y-112834820D01*
X154204971Y-112835179D01*
X154585515Y-112677942D01*
X154876919Y-112387046D01*
X155034820Y-112006777D01*
X155034935Y-111875223D01*
X155150158Y-111760000D01*
X175685907Y-111760000D01*
X175798946Y-112328285D01*
X176120853Y-112810054D01*
X176602622Y-113131961D01*
X177170907Y-113245000D01*
X177229093Y-113245000D01*
X177797378Y-113131961D01*
X178279147Y-112810054D01*
X178470000Y-112524422D01*
X178660853Y-112810054D01*
X179142622Y-113131961D01*
X179710907Y-113245000D01*
X179769093Y-113245000D01*
X180337378Y-113131961D01*
X180819147Y-112810054D01*
X181141054Y-112328285D01*
X181254093Y-111760000D01*
X181141054Y-111191715D01*
X180819147Y-110709946D01*
X180478447Y-110482298D01*
X180621358Y-110415183D01*
X181011645Y-109986924D01*
X181181476Y-109576890D01*
X181060155Y-109347000D01*
X179867000Y-109347000D01*
X179867000Y-109367000D01*
X179613000Y-109367000D01*
X179613000Y-109347000D01*
X177327000Y-109347000D01*
X177327000Y-109367000D01*
X177073000Y-109367000D01*
X177073000Y-109347000D01*
X175879845Y-109347000D01*
X175758524Y-109576890D01*
X175928355Y-109986924D01*
X176318642Y-110415183D01*
X176461553Y-110482298D01*
X176120853Y-110709946D01*
X175798946Y-111191715D01*
X175685907Y-111760000D01*
X155150158Y-111760000D01*
X159655079Y-107255079D01*
X159825245Y-107000407D01*
X159885000Y-106700000D01*
X159885000Y-103700000D01*
X167652560Y-103700000D01*
X167652560Y-105500000D01*
X167701843Y-105747765D01*
X167842191Y-105957809D01*
X168052235Y-106098157D01*
X168098498Y-106107359D01*
X167962034Y-106232424D01*
X167708954Y-106775258D01*
X167829003Y-107013000D01*
X169073000Y-107013000D01*
X169073000Y-106993000D01*
X169327000Y-106993000D01*
X169327000Y-107013000D01*
X169347000Y-107013000D01*
X169347000Y-107267000D01*
X169327000Y-107267000D01*
X169327000Y-107287000D01*
X169073000Y-107287000D01*
X169073000Y-107267000D01*
X167829003Y-107267000D01*
X167708954Y-107504742D01*
X167962034Y-108047576D01*
X168352582Y-108405499D01*
X168114591Y-108564519D01*
X167781845Y-109062509D01*
X167665000Y-109649928D01*
X167665000Y-109710072D01*
X167781845Y-110297491D01*
X168114591Y-110795481D01*
X168612581Y-111128227D01*
X169200000Y-111245072D01*
X169787419Y-111128227D01*
X170285409Y-110795481D01*
X170618155Y-110297491D01*
X170735000Y-109710072D01*
X170735000Y-109649928D01*
X170618155Y-109062509D01*
X170285409Y-108564519D01*
X170047418Y-108405499D01*
X170437966Y-108047576D01*
X170623425Y-107649784D01*
X170674210Y-107725790D01*
X171672869Y-108724448D01*
X171822058Y-109085515D01*
X172112954Y-109376919D01*
X172493223Y-109534820D01*
X172904971Y-109535179D01*
X173285515Y-109377942D01*
X173576919Y-109087046D01*
X173734820Y-108706777D01*
X173735179Y-108295029D01*
X173577942Y-107914485D01*
X173287046Y-107623081D01*
X172923848Y-107472268D01*
X172488470Y-107036890D01*
X175758524Y-107036890D01*
X175928355Y-107446924D01*
X176318642Y-107875183D01*
X176477954Y-107950000D01*
X176318642Y-108024817D01*
X175928355Y-108453076D01*
X175758524Y-108863110D01*
X175879845Y-109093000D01*
X177073000Y-109093000D01*
X177073000Y-106807000D01*
X177327000Y-106807000D01*
X177327000Y-109093000D01*
X179613000Y-109093000D01*
X179613000Y-106807000D01*
X179867000Y-106807000D01*
X179867000Y-109093000D01*
X181060155Y-109093000D01*
X181181476Y-108863110D01*
X181038967Y-108519039D01*
X196678096Y-108519039D01*
X196838959Y-108907423D01*
X197214866Y-109322389D01*
X197720959Y-109561914D01*
X197943000Y-109440629D01*
X197943000Y-108297000D01*
X196800085Y-108297000D01*
X196678096Y-108519039D01*
X181038967Y-108519039D01*
X181011645Y-108453076D01*
X180621358Y-108024817D01*
X180462046Y-107950000D01*
X180621358Y-107875183D01*
X180670772Y-107820961D01*
X196678096Y-107820961D01*
X196800085Y-108043000D01*
X197943000Y-108043000D01*
X197943000Y-106899371D01*
X198197000Y-106899371D01*
X198197000Y-108043000D01*
X198217000Y-108043000D01*
X198217000Y-108297000D01*
X198197000Y-108297000D01*
X198197000Y-109440629D01*
X198419041Y-109561914D01*
X198925134Y-109322389D01*
X199177287Y-109044036D01*
X199211843Y-109217765D01*
X199352191Y-109427809D01*
X199562235Y-109568157D01*
X199810000Y-109617440D01*
X201410000Y-109617440D01*
X201657765Y-109568157D01*
X201867809Y-109427809D01*
X202008157Y-109217765D01*
X202057440Y-108970000D01*
X202057440Y-108040000D01*
X202306887Y-108040000D01*
X202416120Y-108589151D01*
X202727189Y-109054698D01*
X203192736Y-109365767D01*
X203741887Y-109475000D01*
X203798113Y-109475000D01*
X204347264Y-109365767D01*
X204812811Y-109054698D01*
X204884057Y-108948072D01*
X204911843Y-109087765D01*
X205052191Y-109297809D01*
X205262235Y-109438157D01*
X205510000Y-109487440D01*
X207110000Y-109487440D01*
X207357765Y-109438157D01*
X207567809Y-109297809D01*
X207708157Y-109087765D01*
X207757440Y-108840000D01*
X207757440Y-107240000D01*
X207708157Y-106992235D01*
X207567809Y-106782191D01*
X207357765Y-106641843D01*
X207110000Y-106592560D01*
X205934832Y-106592560D01*
X205935179Y-106195029D01*
X205777942Y-105814485D01*
X205585000Y-105621206D01*
X205585000Y-98778805D01*
X205676919Y-98687046D01*
X205834820Y-98306777D01*
X205835179Y-97895029D01*
X205677942Y-97514485D01*
X205387046Y-97223081D01*
X205006777Y-97065180D01*
X204595029Y-97064821D01*
X204214485Y-97222058D01*
X203923081Y-97512954D01*
X203765180Y-97893223D01*
X203764821Y-98304971D01*
X203922058Y-98685515D01*
X204015000Y-98778619D01*
X204015000Y-105832415D01*
X203865180Y-106193223D01*
X203864821Y-106604971D01*
X203870808Y-106619460D01*
X203798113Y-106605000D01*
X203741887Y-106605000D01*
X203192736Y-106714233D01*
X202727189Y-107025302D01*
X202416120Y-107490849D01*
X202306887Y-108040000D01*
X202057440Y-108040000D01*
X202057440Y-107370000D01*
X202008157Y-107122235D01*
X201867809Y-106912191D01*
X201657765Y-106771843D01*
X201410000Y-106722560D01*
X199810000Y-106722560D01*
X199562235Y-106771843D01*
X199352191Y-106912191D01*
X199211843Y-107122235D01*
X199177287Y-107295964D01*
X198925134Y-107017611D01*
X198419041Y-106778086D01*
X198197000Y-106899371D01*
X197943000Y-106899371D01*
X197720959Y-106778086D01*
X197214866Y-107017611D01*
X196838959Y-107432577D01*
X196678096Y-107820961D01*
X180670772Y-107820961D01*
X181011645Y-107446924D01*
X181181476Y-107036890D01*
X181060155Y-106807000D01*
X179867000Y-106807000D01*
X179613000Y-106807000D01*
X177327000Y-106807000D01*
X177073000Y-106807000D01*
X175879845Y-106807000D01*
X175758524Y-107036890D01*
X172488470Y-107036890D01*
X172185000Y-106733420D01*
X172185000Y-104496890D01*
X175758524Y-104496890D01*
X175928355Y-104906924D01*
X176318642Y-105335183D01*
X176477954Y-105410000D01*
X176318642Y-105484817D01*
X175928355Y-105913076D01*
X175758524Y-106323110D01*
X175879845Y-106553000D01*
X177073000Y-106553000D01*
X177073000Y-104267000D01*
X177327000Y-104267000D01*
X177327000Y-106553000D01*
X179613000Y-106553000D01*
X179613000Y-104267000D01*
X179867000Y-104267000D01*
X179867000Y-106553000D01*
X181060155Y-106553000D01*
X181181476Y-106323110D01*
X181011645Y-105913076D01*
X180621358Y-105484817D01*
X180462046Y-105410000D01*
X180621358Y-105335183D01*
X181011645Y-104906924D01*
X181181476Y-104496890D01*
X181060155Y-104267000D01*
X179867000Y-104267000D01*
X179613000Y-104267000D01*
X177327000Y-104267000D01*
X177073000Y-104267000D01*
X175879845Y-104267000D01*
X175758524Y-104496890D01*
X172185000Y-104496890D01*
X172185000Y-102200005D01*
X172185001Y-102200000D01*
X172117633Y-101861326D01*
X172117633Y-101861325D01*
X171925790Y-101574210D01*
X171925787Y-101574208D01*
X171101580Y-100750000D01*
X175702560Y-100750000D01*
X175702560Y-102450000D01*
X175751843Y-102697765D01*
X175892191Y-102907809D01*
X176102235Y-103048157D01*
X176205708Y-103068739D01*
X175928355Y-103373076D01*
X175758524Y-103783110D01*
X175879845Y-104013000D01*
X177073000Y-104013000D01*
X177073000Y-103993000D01*
X177327000Y-103993000D01*
X177327000Y-104013000D01*
X179613000Y-104013000D01*
X179613000Y-103993000D01*
X179867000Y-103993000D01*
X179867000Y-104013000D01*
X181060155Y-104013000D01*
X181181476Y-103783110D01*
X181011645Y-103373076D01*
X180621358Y-102944817D01*
X180478447Y-102877702D01*
X180819147Y-102650054D01*
X181141054Y-102168285D01*
X181254093Y-101600000D01*
X181141054Y-101031715D01*
X180819147Y-100549946D01*
X180337378Y-100228039D01*
X179769093Y-100115000D01*
X179710907Y-100115000D01*
X179142622Y-100228039D01*
X178660853Y-100549946D01*
X178658383Y-100553643D01*
X178648157Y-100502235D01*
X178507809Y-100292191D01*
X178297765Y-100151843D01*
X178050000Y-100102560D01*
X176350000Y-100102560D01*
X176102235Y-100151843D01*
X175892191Y-100292191D01*
X175751843Y-100502235D01*
X175702560Y-100750000D01*
X171101580Y-100750000D01*
X170885000Y-100533420D01*
X170885000Y-100004971D01*
X182664821Y-100004971D01*
X182815000Y-100368433D01*
X182815000Y-100999995D01*
X182814999Y-101000000D01*
X182857766Y-101215000D01*
X182882367Y-101338675D01*
X183007393Y-101525790D01*
X183074210Y-101625790D01*
X184072869Y-102624448D01*
X184222058Y-102985515D01*
X184512954Y-103276919D01*
X184893223Y-103434820D01*
X185304971Y-103435179D01*
X185685515Y-103277942D01*
X185976919Y-102987046D01*
X186134820Y-102606777D01*
X186135179Y-102195029D01*
X185977942Y-101814485D01*
X185687046Y-101523081D01*
X185323848Y-101372268D01*
X184646551Y-100694971D01*
X189094821Y-100694971D01*
X189252058Y-101075515D01*
X189542954Y-101366919D01*
X189923223Y-101524820D01*
X190334971Y-101525179D01*
X190715515Y-101367942D01*
X190878770Y-101204971D01*
X193264821Y-101204971D01*
X193422058Y-101585515D01*
X193712954Y-101876919D01*
X194076151Y-102027731D01*
X196274208Y-104225787D01*
X196274210Y-104225790D01*
X196561325Y-104417633D01*
X196900000Y-104485001D01*
X196900005Y-104485000D01*
X198199995Y-104485000D01*
X198200000Y-104485001D01*
X198482484Y-104428810D01*
X198538675Y-104417633D01*
X198825790Y-104225790D01*
X198825791Y-104225789D01*
X199925787Y-103125792D01*
X199925790Y-103125790D01*
X200117633Y-102838675D01*
X200149048Y-102680742D01*
X200185001Y-102500000D01*
X200185000Y-102499995D01*
X200185000Y-101000005D01*
X200185001Y-101000000D01*
X200117633Y-100661326D01*
X200117633Y-100661325D01*
X199925790Y-100374210D01*
X199925787Y-100374208D01*
X198727131Y-99175551D01*
X198577942Y-98814485D01*
X198287046Y-98523081D01*
X197906777Y-98365180D01*
X197495029Y-98364821D01*
X197114485Y-98522058D01*
X196823081Y-98812954D01*
X196665180Y-99193223D01*
X196664821Y-99604971D01*
X196812471Y-99962313D01*
X196105079Y-99254921D01*
X195850407Y-99084755D01*
X195550000Y-99025000D01*
X195278805Y-99025000D01*
X195187046Y-98933081D01*
X194806777Y-98775180D01*
X194395029Y-98774821D01*
X194014485Y-98932058D01*
X193723081Y-99222954D01*
X193565180Y-99603223D01*
X193564821Y-100014971D01*
X193639852Y-100196561D01*
X193423081Y-100412954D01*
X193265180Y-100793223D01*
X193264821Y-101204971D01*
X190878770Y-101204971D01*
X191006919Y-101077046D01*
X191164820Y-100696777D01*
X191164935Y-100565223D01*
X195425187Y-96304971D01*
X198384821Y-96304971D01*
X198542058Y-96685515D01*
X198635000Y-96778619D01*
X198635000Y-97670000D01*
X198694755Y-97970407D01*
X198864921Y-98225079D01*
X200044934Y-99405092D01*
X200044821Y-99534971D01*
X200202058Y-99915515D01*
X200492954Y-100206919D01*
X200873223Y-100364820D01*
X201284971Y-100365179D01*
X201665515Y-100207942D01*
X201956919Y-99917046D01*
X202114820Y-99536777D01*
X202115179Y-99125029D01*
X201957942Y-98744485D01*
X201667046Y-98453081D01*
X201286777Y-98295180D01*
X201155223Y-98295065D01*
X200205000Y-97344842D01*
X200205000Y-96778805D01*
X200296919Y-96687046D01*
X200454820Y-96306777D01*
X200455179Y-95895029D01*
X200297942Y-95514485D01*
X200007046Y-95223081D01*
X199626777Y-95065180D01*
X199215029Y-95064821D01*
X198834485Y-95222058D01*
X198543081Y-95512954D01*
X198385180Y-95893223D01*
X198384821Y-96304971D01*
X195425187Y-96304971D01*
X200283297Y-91446861D01*
X200512954Y-91676919D01*
X200893223Y-91834820D01*
X200924689Y-91834847D01*
X205064934Y-95975092D01*
X205064821Y-96104971D01*
X205222058Y-96485515D01*
X205512954Y-96776919D01*
X205893223Y-96934820D01*
X206304971Y-96935179D01*
X206685515Y-96777942D01*
X206976919Y-96487046D01*
X207134820Y-96106777D01*
X207135179Y-95695029D01*
X206977942Y-95314485D01*
X206687046Y-95023081D01*
X206306777Y-94865180D01*
X206175223Y-94865065D01*
X202134979Y-90824821D01*
X202135179Y-90595029D01*
X201977942Y-90214485D01*
X201747009Y-89983149D01*
X202635079Y-89095079D01*
X202805245Y-88840407D01*
X202865000Y-88540000D01*
X202865000Y-85185037D01*
X202869172Y-85183313D01*
X203261934Y-84791236D01*
X203474758Y-84278700D01*
X203475242Y-83723735D01*
X203263313Y-83210828D01*
X202871236Y-82818066D01*
X202358700Y-82605242D01*
X201803735Y-82604758D01*
X201290828Y-82816687D01*
X200898066Y-83208764D01*
X200685242Y-83721300D01*
X200684758Y-84276265D01*
X200896687Y-84789172D01*
X201288764Y-85181934D01*
X201295000Y-85184523D01*
X201295000Y-88214842D01*
X190054908Y-99454934D01*
X189925029Y-99454821D01*
X189544485Y-99612058D01*
X189253081Y-99902954D01*
X189095180Y-100283223D01*
X189094821Y-100694971D01*
X184646551Y-100694971D01*
X184585000Y-100633420D01*
X184585000Y-100367585D01*
X184734820Y-100006777D01*
X184735179Y-99595029D01*
X184577942Y-99214485D01*
X184287046Y-98923081D01*
X183906777Y-98765180D01*
X183495029Y-98764821D01*
X183114485Y-98922058D01*
X182823081Y-99212954D01*
X182665180Y-99593223D01*
X182664821Y-100004971D01*
X170885000Y-100004971D01*
X170885000Y-95967585D01*
X171034820Y-95606777D01*
X171035179Y-95195029D01*
X170877942Y-94814485D01*
X170587046Y-94523081D01*
X170206777Y-94365180D01*
X169795029Y-94364821D01*
X169414485Y-94522058D01*
X169123081Y-94812954D01*
X168965180Y-95193223D01*
X168964821Y-95604971D01*
X169115000Y-95968433D01*
X169115000Y-100899995D01*
X169114999Y-100900000D01*
X169157359Y-101112951D01*
X169182367Y-101238675D01*
X169330251Y-101460000D01*
X169374210Y-101525790D01*
X170415000Y-102566579D01*
X170415000Y-103146768D01*
X170347765Y-103101843D01*
X170100000Y-103052560D01*
X168300000Y-103052560D01*
X168052235Y-103101843D01*
X167842191Y-103242191D01*
X167701843Y-103452235D01*
X167652560Y-103700000D01*
X159885000Y-103700000D01*
X159885000Y-102678805D01*
X159976919Y-102587046D01*
X160134820Y-102206777D01*
X160135179Y-101795029D01*
X159977942Y-101414485D01*
X159687046Y-101123081D01*
X159306777Y-100965180D01*
X158895029Y-100964821D01*
X158514485Y-101122058D01*
X158223081Y-101412954D01*
X158065180Y-101793223D01*
X158064821Y-102204971D01*
X158222058Y-102585515D01*
X158315000Y-102678619D01*
X158315000Y-106374842D01*
X153924908Y-110764934D01*
X153795029Y-110764821D01*
X153414485Y-110922058D01*
X153123081Y-111212954D01*
X152965180Y-111593223D01*
X152964821Y-112004971D01*
X134235258Y-112004971D01*
X134235387Y-111857381D01*
X133895845Y-111035628D01*
X133267679Y-110406364D01*
X132446519Y-110065389D01*
X131557381Y-110064613D01*
X130735628Y-110404155D01*
X130106364Y-111032321D01*
X129765389Y-111853481D01*
X129764613Y-112742619D01*
X122910000Y-112742619D01*
X122910000Y-103240000D01*
X147592560Y-103240000D01*
X147592560Y-104760000D01*
X147641843Y-105007765D01*
X147782191Y-105217809D01*
X147992235Y-105358157D01*
X148240000Y-105407440D01*
X149760000Y-105407440D01*
X150007765Y-105358157D01*
X150217809Y-105217809D01*
X150358157Y-105007765D01*
X150407440Y-104760000D01*
X150407440Y-104276265D01*
X152684758Y-104276265D01*
X152896687Y-104789172D01*
X153288764Y-105181934D01*
X153801300Y-105394758D01*
X154356265Y-105395242D01*
X154869172Y-105183313D01*
X155261934Y-104791236D01*
X155474758Y-104278700D01*
X155475242Y-103723735D01*
X155263313Y-103210828D01*
X154871236Y-102818066D01*
X154358700Y-102605242D01*
X153803735Y-102604758D01*
X153290828Y-102816687D01*
X152898066Y-103208764D01*
X152685242Y-103721300D01*
X152684758Y-104276265D01*
X150407440Y-104276265D01*
X150407440Y-103240000D01*
X150358157Y-102992235D01*
X150217809Y-102782191D01*
X150007765Y-102641843D01*
X149760000Y-102592560D01*
X148240000Y-102592560D01*
X147992235Y-102641843D01*
X147782191Y-102782191D01*
X147641843Y-102992235D01*
X147592560Y-103240000D01*
X122910000Y-103240000D01*
X122910000Y-102438764D01*
X150740841Y-102438764D01*
X150810059Y-102680742D01*
X151332780Y-102867155D01*
X151887049Y-102839341D01*
X152269941Y-102680742D01*
X152339159Y-102438764D01*
X151540000Y-101639605D01*
X150740841Y-102438764D01*
X122910000Y-102438764D01*
X122910000Y-101252780D01*
X150132845Y-101252780D01*
X150160659Y-101807049D01*
X150319258Y-102189941D01*
X150561236Y-102259159D01*
X151360395Y-101460000D01*
X151719605Y-101460000D01*
X152518764Y-102259159D01*
X152760742Y-102189941D01*
X152947155Y-101667220D01*
X152919341Y-101112951D01*
X152760742Y-100730059D01*
X152518764Y-100660841D01*
X151719605Y-101460000D01*
X151360395Y-101460000D01*
X150561236Y-100660841D01*
X150319258Y-100730059D01*
X150132845Y-101252780D01*
X122910000Y-101252780D01*
X122910000Y-99585750D01*
X128015000Y-99585750D01*
X128015000Y-100276310D01*
X128111673Y-100509699D01*
X128290302Y-100688327D01*
X128523691Y-100785000D01*
X129214250Y-100785000D01*
X129373000Y-100626250D01*
X129373000Y-99427000D01*
X129627000Y-99427000D01*
X129627000Y-100626250D01*
X129785750Y-100785000D01*
X130476309Y-100785000D01*
X130709698Y-100688327D01*
X130888327Y-100509699D01*
X130985000Y-100276310D01*
X130985000Y-99585750D01*
X132015000Y-99585750D01*
X132015000Y-100276310D01*
X132111673Y-100509699D01*
X132290302Y-100688327D01*
X132523691Y-100785000D01*
X133214250Y-100785000D01*
X133373000Y-100626250D01*
X133373000Y-99427000D01*
X133627000Y-99427000D01*
X133627000Y-100626250D01*
X133785750Y-100785000D01*
X134476309Y-100785000D01*
X134709698Y-100688327D01*
X134888327Y-100509699D01*
X134900116Y-100481236D01*
X150740841Y-100481236D01*
X151540000Y-101280395D01*
X152339159Y-100481236D01*
X152269941Y-100239258D01*
X151747220Y-100052845D01*
X151192951Y-100080659D01*
X150810059Y-100239258D01*
X150740841Y-100481236D01*
X134900116Y-100481236D01*
X134985000Y-100276310D01*
X134985000Y-99585750D01*
X134826250Y-99427000D01*
X133627000Y-99427000D01*
X133373000Y-99427000D01*
X132173750Y-99427000D01*
X132015000Y-99585750D01*
X130985000Y-99585750D01*
X130826250Y-99427000D01*
X129627000Y-99427000D01*
X129373000Y-99427000D01*
X128173750Y-99427000D01*
X128015000Y-99585750D01*
X122910000Y-99585750D01*
X122910000Y-81520000D01*
X127985907Y-81520000D01*
X128098946Y-82088285D01*
X128420853Y-82570054D01*
X128750026Y-82790000D01*
X128420853Y-83009946D01*
X128098946Y-83491715D01*
X127985907Y-84060000D01*
X128098946Y-84628285D01*
X128420853Y-85110054D01*
X128750026Y-85330000D01*
X128420853Y-85549946D01*
X128098946Y-86031715D01*
X127985907Y-86600000D01*
X128098946Y-87168285D01*
X128420853Y-87650054D01*
X128750026Y-87870000D01*
X128420853Y-88089946D01*
X128098946Y-88571715D01*
X127985907Y-89140000D01*
X128098946Y-89708285D01*
X128420853Y-90190054D01*
X128750026Y-90410000D01*
X128420853Y-90629946D01*
X128098946Y-91111715D01*
X127985907Y-91680000D01*
X128098946Y-92248285D01*
X128420853Y-92730054D01*
X128750026Y-92950000D01*
X128420853Y-93169946D01*
X128098946Y-93651715D01*
X127985907Y-94220000D01*
X128098946Y-94788285D01*
X128420853Y-95270054D01*
X128750026Y-95490000D01*
X128420853Y-95709946D01*
X128098946Y-96191715D01*
X127985907Y-96760000D01*
X128098946Y-97328285D01*
X128420853Y-97810054D01*
X128464777Y-97839403D01*
X128290302Y-97911673D01*
X128111673Y-98090301D01*
X128015000Y-98323690D01*
X128015000Y-99014250D01*
X128173750Y-99173000D01*
X129373000Y-99173000D01*
X129373000Y-99153000D01*
X129627000Y-99153000D01*
X129627000Y-99173000D01*
X130826250Y-99173000D01*
X130985000Y-99014250D01*
X130985000Y-98323690D01*
X130888327Y-98090301D01*
X130709698Y-97911673D01*
X130535223Y-97839403D01*
X130579147Y-97810054D01*
X130901054Y-97328285D01*
X131014093Y-96760000D01*
X130901054Y-96191715D01*
X130579147Y-95709946D01*
X130249974Y-95490000D01*
X130579147Y-95270054D01*
X130901054Y-94788285D01*
X131014093Y-94220000D01*
X130901054Y-93651715D01*
X130843932Y-93566226D01*
X131855079Y-92555079D01*
X131915387Y-92464821D01*
X132025245Y-92300406D01*
X132067279Y-92089087D01*
X132098946Y-92248285D01*
X132420853Y-92730054D01*
X132750026Y-92950000D01*
X132420853Y-93169946D01*
X132098946Y-93651715D01*
X131985907Y-94220000D01*
X132098946Y-94788285D01*
X132420853Y-95270054D01*
X132750026Y-95490000D01*
X132420853Y-95709946D01*
X132098946Y-96191715D01*
X131985907Y-96760000D01*
X132098946Y-97328285D01*
X132420853Y-97810054D01*
X132464777Y-97839403D01*
X132290302Y-97911673D01*
X132111673Y-98090301D01*
X132015000Y-98323690D01*
X132015000Y-99014250D01*
X132173750Y-99173000D01*
X133373000Y-99173000D01*
X133373000Y-99153000D01*
X133627000Y-99153000D01*
X133627000Y-99173000D01*
X134826250Y-99173000D01*
X134985000Y-99014250D01*
X134985000Y-98323690D01*
X134888327Y-98090301D01*
X134709698Y-97911673D01*
X134535223Y-97839403D01*
X134579147Y-97810054D01*
X134901054Y-97328285D01*
X135014093Y-96760000D01*
X134901054Y-96191715D01*
X134579147Y-95709946D01*
X134249974Y-95490000D01*
X134579147Y-95270054D01*
X134901054Y-94788285D01*
X135014093Y-94220000D01*
X134901054Y-93651715D01*
X134579147Y-93169946D01*
X134249974Y-92950000D01*
X134579147Y-92730054D01*
X134901054Y-92248285D01*
X135014093Y-91680000D01*
X134901054Y-91111715D01*
X134579147Y-90629946D01*
X134249974Y-90410000D01*
X134579147Y-90190054D01*
X134901054Y-89708285D01*
X135014093Y-89140000D01*
X134929550Y-88714971D01*
X140074821Y-88714971D01*
X140232058Y-89095515D01*
X140522954Y-89386919D01*
X140886152Y-89537731D01*
X141834208Y-90485787D01*
X141834210Y-90485790D01*
X142121325Y-90677633D01*
X142460000Y-90745000D01*
X143483420Y-90745000D01*
X146485000Y-93746579D01*
X146485000Y-97782415D01*
X146335180Y-98143223D01*
X146334821Y-98554971D01*
X146492058Y-98935515D01*
X146782954Y-99226919D01*
X147163223Y-99384820D01*
X147574971Y-99385179D01*
X147955515Y-99227942D01*
X148246919Y-98937046D01*
X148404820Y-98556777D01*
X148405057Y-98285000D01*
X150633420Y-98285000D01*
X151672869Y-99324448D01*
X151822058Y-99685515D01*
X152112954Y-99976919D01*
X152493223Y-100134820D01*
X152904971Y-100135179D01*
X153285515Y-99977942D01*
X153576919Y-99687046D01*
X153734820Y-99306777D01*
X153735179Y-98895029D01*
X153577942Y-98514485D01*
X153287046Y-98223081D01*
X152923848Y-98072268D01*
X151830344Y-96978764D01*
X153280841Y-96978764D01*
X153350059Y-97220742D01*
X153872780Y-97407155D01*
X154427049Y-97379341D01*
X154809941Y-97220742D01*
X154879159Y-96978764D01*
X154080000Y-96179605D01*
X153280841Y-96978764D01*
X151830344Y-96978764D01*
X151625790Y-96774210D01*
X151495339Y-96687046D01*
X151338675Y-96582367D01*
X151282484Y-96571190D01*
X151000000Y-96514999D01*
X150999995Y-96515000D01*
X150407440Y-96515000D01*
X150407440Y-95792780D01*
X152672845Y-95792780D01*
X152700659Y-96347049D01*
X152859258Y-96729941D01*
X153101236Y-96799159D01*
X153900395Y-96000000D01*
X154259605Y-96000000D01*
X155058764Y-96799159D01*
X155300742Y-96729941D01*
X155487155Y-96207220D01*
X155459341Y-95652951D01*
X155300742Y-95270059D01*
X155058764Y-95200841D01*
X154259605Y-96000000D01*
X153900395Y-96000000D01*
X153101236Y-95200841D01*
X152859258Y-95270059D01*
X152672845Y-95792780D01*
X150407440Y-95792780D01*
X150407440Y-95240000D01*
X150363926Y-95021236D01*
X153280841Y-95021236D01*
X154080000Y-95820395D01*
X154879159Y-95021236D01*
X154809941Y-94779258D01*
X154287220Y-94592845D01*
X153732951Y-94620659D01*
X153350059Y-94779258D01*
X153280841Y-95021236D01*
X150363926Y-95021236D01*
X150358157Y-94992235D01*
X150217809Y-94782191D01*
X150007765Y-94641843D01*
X149760000Y-94592560D01*
X148255000Y-94592560D01*
X148255000Y-93736265D01*
X150144758Y-93736265D01*
X150356687Y-94249172D01*
X150748764Y-94641934D01*
X151261300Y-94854758D01*
X151816265Y-94855242D01*
X152329172Y-94643313D01*
X152721934Y-94251236D01*
X152934758Y-93738700D01*
X152934787Y-93704971D01*
X182464821Y-93704971D01*
X182622058Y-94085515D01*
X182912954Y-94376919D01*
X183293223Y-94534820D01*
X183704971Y-94535179D01*
X184085515Y-94377942D01*
X184376919Y-94087046D01*
X184527731Y-93723848D01*
X185416477Y-92835102D01*
X185504971Y-92835179D01*
X185885515Y-92677942D01*
X186176919Y-92387046D01*
X186334820Y-92006777D01*
X186335179Y-91595029D01*
X186177942Y-91214485D01*
X185887046Y-90923081D01*
X185506777Y-90765180D01*
X185095029Y-90764821D01*
X184714485Y-90922058D01*
X184423081Y-91212954D01*
X184343277Y-91405144D01*
X183275551Y-92472869D01*
X182914485Y-92622058D01*
X182623081Y-92912954D01*
X182465180Y-93293223D01*
X182464821Y-93704971D01*
X152934787Y-93704971D01*
X152935242Y-93183735D01*
X152723313Y-92670828D01*
X152331236Y-92278066D01*
X152299700Y-92264971D01*
X164864821Y-92264971D01*
X165022058Y-92645515D01*
X165312954Y-92936919D01*
X165693223Y-93094820D01*
X166104971Y-93095179D01*
X166485515Y-92937942D01*
X166578619Y-92845000D01*
X167240000Y-92845000D01*
X167540407Y-92785245D01*
X167795079Y-92615079D01*
X168035092Y-92375066D01*
X168164971Y-92375179D01*
X168545515Y-92217942D01*
X168836919Y-91927046D01*
X168994820Y-91546777D01*
X168995179Y-91135029D01*
X168837942Y-90754485D01*
X168547046Y-90463081D01*
X168166777Y-90305180D01*
X167755029Y-90304821D01*
X167374485Y-90462058D01*
X167083081Y-90752954D01*
X166925180Y-91133223D01*
X166925065Y-91264777D01*
X166914842Y-91275000D01*
X166578805Y-91275000D01*
X166487046Y-91183081D01*
X166106777Y-91025180D01*
X165695029Y-91024821D01*
X165314485Y-91182058D01*
X165023081Y-91472954D01*
X164865180Y-91853223D01*
X164864821Y-92264971D01*
X152299700Y-92264971D01*
X151818700Y-92065242D01*
X151263735Y-92064758D01*
X150750828Y-92276687D01*
X150358066Y-92668764D01*
X150145242Y-93181300D01*
X150144758Y-93736265D01*
X148255000Y-93736265D01*
X148255000Y-93380005D01*
X148255001Y-93380000D01*
X148194283Y-93074755D01*
X148187633Y-93041325D01*
X147995790Y-92754210D01*
X147995787Y-92754208D01*
X144475790Y-89234210D01*
X144419980Y-89196919D01*
X144282412Y-89105000D01*
X145821195Y-89105000D01*
X145912954Y-89196919D01*
X146293223Y-89354820D01*
X146704971Y-89355179D01*
X147085515Y-89197942D01*
X147376919Y-88907046D01*
X147534820Y-88526777D01*
X147535179Y-88115029D01*
X147377942Y-87734485D01*
X147087046Y-87443081D01*
X146706777Y-87285180D01*
X146295029Y-87284821D01*
X145914485Y-87442058D01*
X145821381Y-87535000D01*
X143828700Y-87535000D01*
X143677046Y-87383081D01*
X143296777Y-87225180D01*
X142885029Y-87224821D01*
X142504485Y-87382058D01*
X142213081Y-87672954D01*
X142055180Y-88053223D01*
X142055150Y-88087142D01*
X141987942Y-87924485D01*
X141697046Y-87633081D01*
X141316777Y-87475180D01*
X140905029Y-87474821D01*
X140524485Y-87632058D01*
X140233081Y-87922954D01*
X140075180Y-88303223D01*
X140074821Y-88714971D01*
X134929550Y-88714971D01*
X134903697Y-88585000D01*
X135300000Y-88585000D01*
X135600407Y-88525245D01*
X135855079Y-88355079D01*
X137210158Y-87000000D01*
X188996887Y-87000000D01*
X189106120Y-87549151D01*
X189417189Y-88014698D01*
X189882736Y-88325767D01*
X190431887Y-88435000D01*
X190488113Y-88435000D01*
X191037264Y-88325767D01*
X191502811Y-88014698D01*
X191574057Y-87908072D01*
X191601843Y-88047765D01*
X191742191Y-88257809D01*
X191952235Y-88398157D01*
X192200000Y-88447440D01*
X193800000Y-88447440D01*
X194047765Y-88398157D01*
X194257809Y-88257809D01*
X194398157Y-88047765D01*
X194447440Y-87800000D01*
X194447440Y-86200000D01*
X194398157Y-85952235D01*
X194257809Y-85742191D01*
X194047765Y-85601843D01*
X193800000Y-85552560D01*
X192200000Y-85552560D01*
X191952235Y-85601843D01*
X191742191Y-85742191D01*
X191601843Y-85952235D01*
X191574057Y-86091928D01*
X191502811Y-85985302D01*
X191037264Y-85674233D01*
X190488113Y-85565000D01*
X190431887Y-85565000D01*
X189882736Y-85674233D01*
X189417189Y-85985302D01*
X189106120Y-86450849D01*
X188996887Y-87000000D01*
X137210158Y-87000000D01*
X138425158Y-85785000D01*
X140021195Y-85785000D01*
X140112954Y-85876919D01*
X140493223Y-86034820D01*
X140904971Y-86035179D01*
X141285515Y-85877942D01*
X141576919Y-85587046D01*
X141734820Y-85206777D01*
X141735179Y-84795029D01*
X141577942Y-84414485D01*
X141527875Y-84364330D01*
X141634820Y-84106777D01*
X141635179Y-83695029D01*
X141477942Y-83314485D01*
X141427875Y-83264330D01*
X141437977Y-83240000D01*
X195592560Y-83240000D01*
X195592560Y-84760000D01*
X195641843Y-85007765D01*
X195782191Y-85217809D01*
X195992235Y-85358157D01*
X196240000Y-85407440D01*
X197760000Y-85407440D01*
X198007765Y-85358157D01*
X198217809Y-85217809D01*
X198358157Y-85007765D01*
X198407440Y-84760000D01*
X198407440Y-83240000D01*
X198358157Y-82992235D01*
X198217809Y-82782191D01*
X198007765Y-82641843D01*
X197760000Y-82592560D01*
X196240000Y-82592560D01*
X195992235Y-82641843D01*
X195782191Y-82782191D01*
X195641843Y-82992235D01*
X195592560Y-83240000D01*
X141437977Y-83240000D01*
X141534820Y-83006777D01*
X141535179Y-82595029D01*
X141377942Y-82214485D01*
X141313712Y-82150143D01*
X141376919Y-82087046D01*
X141522575Y-81736265D01*
X198144758Y-81736265D01*
X198356687Y-82249172D01*
X198748764Y-82641934D01*
X199261300Y-82854758D01*
X199816265Y-82855242D01*
X200329172Y-82643313D01*
X200721934Y-82251236D01*
X200934758Y-81738700D01*
X200935242Y-81183735D01*
X200723313Y-80670828D01*
X200331236Y-80278066D01*
X199818700Y-80065242D01*
X199263735Y-80064758D01*
X198750828Y-80276687D01*
X198358066Y-80668764D01*
X198145242Y-81181300D01*
X198144758Y-81736265D01*
X141522575Y-81736265D01*
X141534820Y-81706777D01*
X141535179Y-81295029D01*
X141377942Y-80914485D01*
X141198601Y-80734831D01*
X141334820Y-80406777D01*
X141335179Y-79995029D01*
X141177942Y-79614485D01*
X140887046Y-79323081D01*
X140506777Y-79165180D01*
X140095029Y-79164821D01*
X139714485Y-79322058D01*
X139524799Y-79511413D01*
X138775174Y-79611363D01*
X138687046Y-79523081D01*
X138306777Y-79365180D01*
X137895029Y-79364821D01*
X137514485Y-79522058D01*
X137223081Y-79812954D01*
X137065180Y-80193223D01*
X137064821Y-80604971D01*
X137222058Y-80985515D01*
X137386201Y-81149944D01*
X137323081Y-81212954D01*
X137165180Y-81593223D01*
X137164821Y-82004971D01*
X137301181Y-82334990D01*
X137223081Y-82412954D01*
X137065180Y-82793223D01*
X137064937Y-83072377D01*
X136806777Y-82965180D01*
X136395029Y-82964821D01*
X136014485Y-83122058D01*
X135723081Y-83412954D01*
X135565180Y-83793223D01*
X135564821Y-84204971D01*
X135722058Y-84585515D01*
X136012954Y-84876919D01*
X136393223Y-85034820D01*
X136804971Y-85035179D01*
X137060066Y-84929776D01*
X134974842Y-87015000D01*
X134931544Y-87015000D01*
X135014093Y-86600000D01*
X134901054Y-86031715D01*
X134579147Y-85549946D01*
X134249974Y-85330000D01*
X134579147Y-85110054D01*
X134901054Y-84628285D01*
X135014093Y-84060000D01*
X134901054Y-83491715D01*
X134579147Y-83009946D01*
X134249974Y-82790000D01*
X134579147Y-82570054D01*
X134901054Y-82088285D01*
X135014093Y-81520000D01*
X134901054Y-80951715D01*
X134579147Y-80469946D01*
X134097378Y-80148039D01*
X133529093Y-80035000D01*
X133470907Y-80035000D01*
X132902622Y-80148039D01*
X132420853Y-80469946D01*
X132098946Y-80951715D01*
X131985907Y-81520000D01*
X132098946Y-82088285D01*
X132420853Y-82570054D01*
X132750026Y-82790000D01*
X132420853Y-83009946D01*
X132098946Y-83491715D01*
X131985907Y-84060000D01*
X132098946Y-84628285D01*
X132420853Y-85110054D01*
X132750026Y-85330000D01*
X132420853Y-85549946D01*
X132098946Y-86031715D01*
X131985907Y-86600000D01*
X132082600Y-87086110D01*
X131844921Y-87244921D01*
X130747675Y-88342167D01*
X130579147Y-88089946D01*
X130249974Y-87870000D01*
X130579147Y-87650054D01*
X130901054Y-87168285D01*
X131014093Y-86600000D01*
X130901054Y-86031715D01*
X130579147Y-85549946D01*
X130249974Y-85330000D01*
X130579147Y-85110054D01*
X130901054Y-84628285D01*
X131014093Y-84060000D01*
X130901054Y-83491715D01*
X130579147Y-83009946D01*
X130249974Y-82790000D01*
X130579147Y-82570054D01*
X130901054Y-82088285D01*
X131014093Y-81520000D01*
X130901054Y-80951715D01*
X130579147Y-80469946D01*
X130097378Y-80148039D01*
X129529093Y-80035000D01*
X129470907Y-80035000D01*
X128902622Y-80148039D01*
X128420853Y-80469946D01*
X128098946Y-80951715D01*
X127985907Y-81520000D01*
X122910000Y-81520000D01*
X122910000Y-78704971D01*
X188564821Y-78704971D01*
X188722058Y-79085515D01*
X189012954Y-79376919D01*
X189393223Y-79534820D01*
X189804971Y-79535179D01*
X190172968Y-79383126D01*
X190864934Y-80075092D01*
X190864821Y-80204971D01*
X191022058Y-80585515D01*
X191312954Y-80876919D01*
X191693223Y-81034820D01*
X192104971Y-81035179D01*
X192485515Y-80877942D01*
X192776919Y-80587046D01*
X192934820Y-80206777D01*
X192935179Y-79795029D01*
X192777942Y-79414485D01*
X192487046Y-79123081D01*
X192106777Y-78965180D01*
X191975223Y-78965065D01*
X190955079Y-77944921D01*
X190700407Y-77774755D01*
X190400000Y-77715000D01*
X190278805Y-77715000D01*
X190187046Y-77623081D01*
X189806777Y-77465180D01*
X189395029Y-77464821D01*
X189014485Y-77622058D01*
X188723081Y-77912954D01*
X188565180Y-78293223D01*
X188564821Y-78704971D01*
X122910000Y-78704971D01*
X122910000Y-61740000D01*
X127985907Y-61740000D01*
X128098946Y-62308285D01*
X128420853Y-62790054D01*
X128750026Y-63010000D01*
X128420853Y-63229946D01*
X128098946Y-63711715D01*
X127985907Y-64280000D01*
X128098946Y-64848285D01*
X128420853Y-65330054D01*
X128750026Y-65550000D01*
X128420853Y-65769946D01*
X128098946Y-66251715D01*
X127985907Y-66820000D01*
X128098946Y-67388285D01*
X128420853Y-67870054D01*
X128750026Y-68090000D01*
X128420853Y-68309946D01*
X128098946Y-68791715D01*
X127985907Y-69360000D01*
X128098946Y-69928285D01*
X128420853Y-70410054D01*
X128750026Y-70630000D01*
X128420853Y-70849946D01*
X128098946Y-71331715D01*
X127985907Y-71900000D01*
X128098946Y-72468285D01*
X128420853Y-72950054D01*
X128750026Y-73170000D01*
X128420853Y-73389946D01*
X128098946Y-73871715D01*
X127985907Y-74440000D01*
X128098946Y-75008285D01*
X128420853Y-75490054D01*
X128750026Y-75710000D01*
X128420853Y-75929946D01*
X128098946Y-76411715D01*
X127985907Y-76980000D01*
X128098946Y-77548285D01*
X128420853Y-78030054D01*
X128902622Y-78351961D01*
X129470907Y-78465000D01*
X129529093Y-78465000D01*
X130097378Y-78351961D01*
X130579147Y-78030054D01*
X130901054Y-77548285D01*
X131014093Y-76980000D01*
X130901054Y-76411715D01*
X130579147Y-75929946D01*
X130249974Y-75710000D01*
X130579147Y-75490054D01*
X130901054Y-75008285D01*
X131014093Y-74440000D01*
X130901054Y-73871715D01*
X130579147Y-73389946D01*
X130249974Y-73170000D01*
X130579147Y-72950054D01*
X130901054Y-72468285D01*
X131014093Y-71900000D01*
X130901054Y-71331715D01*
X130579147Y-70849946D01*
X130249974Y-70630000D01*
X130579147Y-70410054D01*
X130901054Y-69928285D01*
X131014093Y-69360000D01*
X130901054Y-68791715D01*
X130579147Y-68309946D01*
X130249974Y-68090000D01*
X130579147Y-67870054D01*
X130901054Y-67388285D01*
X131014093Y-66820000D01*
X130901054Y-66251715D01*
X130883986Y-66226172D01*
X131955079Y-65155079D01*
X132125245Y-64900406D01*
X132127201Y-64890572D01*
X132420853Y-65330054D01*
X132750026Y-65550000D01*
X132420853Y-65769946D01*
X132098946Y-66251715D01*
X131985907Y-66820000D01*
X132098946Y-67388285D01*
X132420853Y-67870054D01*
X132750026Y-68090000D01*
X132420853Y-68309946D01*
X132098946Y-68791715D01*
X131985907Y-69360000D01*
X132098946Y-69928285D01*
X132420853Y-70410054D01*
X132750026Y-70630000D01*
X132420853Y-70849946D01*
X132098946Y-71331715D01*
X131985907Y-71900000D01*
X132098946Y-72468285D01*
X132420853Y-72950054D01*
X132750026Y-73170000D01*
X132420853Y-73389946D01*
X132098946Y-73871715D01*
X131985907Y-74440000D01*
X132098946Y-75008285D01*
X132420853Y-75490054D01*
X132750026Y-75710000D01*
X132420853Y-75929946D01*
X132098946Y-76411715D01*
X131985907Y-76980000D01*
X132098946Y-77548285D01*
X132420853Y-78030054D01*
X132902622Y-78351961D01*
X133470907Y-78465000D01*
X133529093Y-78465000D01*
X134097378Y-78351961D01*
X134579147Y-78030054D01*
X134901054Y-77548285D01*
X135014093Y-76980000D01*
X134901054Y-76411715D01*
X134579147Y-75929946D01*
X134249974Y-75710000D01*
X134579147Y-75490054D01*
X134901054Y-75008285D01*
X135014093Y-74440000D01*
X134901054Y-73871715D01*
X134579147Y-73389946D01*
X134249974Y-73170000D01*
X134579147Y-72950054D01*
X134676088Y-72804971D01*
X139664821Y-72804971D01*
X139822058Y-73185515D01*
X140112954Y-73476919D01*
X140493223Y-73634820D01*
X140904971Y-73635179D01*
X141285515Y-73477942D01*
X141378619Y-73385000D01*
X150064926Y-73385000D01*
X150064821Y-73504971D01*
X150222058Y-73885515D01*
X150512954Y-74176919D01*
X150893223Y-74334820D01*
X151304971Y-74335179D01*
X151685515Y-74177942D01*
X151758613Y-74104971D01*
X179464821Y-74104971D01*
X179622058Y-74485515D01*
X179912954Y-74776919D01*
X180293223Y-74934820D01*
X180704971Y-74935179D01*
X181085515Y-74777942D01*
X181376919Y-74487046D01*
X181534820Y-74106777D01*
X181534923Y-73988673D01*
X184418700Y-71185000D01*
X190700000Y-71185000D01*
X191000407Y-71125245D01*
X191255079Y-70955079D01*
X193475092Y-68735066D01*
X193604971Y-68735179D01*
X193985515Y-68577942D01*
X194276919Y-68287046D01*
X194434820Y-67906777D01*
X194435179Y-67495029D01*
X194277942Y-67114485D01*
X193987046Y-66823081D01*
X193606777Y-66665180D01*
X193425136Y-66665022D01*
X195615079Y-64475079D01*
X195785245Y-64220406D01*
X195845000Y-63920000D01*
X195845000Y-58480000D01*
X195785245Y-58179594D01*
X195615079Y-57924921D01*
X195525066Y-57834908D01*
X195525179Y-57705029D01*
X195367942Y-57324485D01*
X195077046Y-57033081D01*
X194696777Y-56875180D01*
X194285029Y-56874821D01*
X193904485Y-57032058D01*
X193613081Y-57322954D01*
X193455180Y-57703223D01*
X193454821Y-58114971D01*
X193612058Y-58495515D01*
X193902954Y-58786919D01*
X194275000Y-58941406D01*
X194275000Y-63594842D01*
X189914908Y-67954934D01*
X189785029Y-67954821D01*
X189404485Y-68112058D01*
X189113081Y-68402954D01*
X188955180Y-68783223D01*
X188954821Y-69194971D01*
X189112058Y-69575515D01*
X189151474Y-69615000D01*
X185915285Y-69615000D01*
X186104758Y-69158700D01*
X186105242Y-68603735D01*
X185893313Y-68090828D01*
X185501236Y-67698066D01*
X184988700Y-67485242D01*
X184433735Y-67484758D01*
X183920828Y-67696687D01*
X183528066Y-68088764D01*
X183315242Y-68601300D01*
X183314758Y-69156265D01*
X183526687Y-69669172D01*
X183638768Y-69781448D01*
X183552793Y-69837159D01*
X180438498Y-72864946D01*
X180295029Y-72864821D01*
X179914485Y-73022058D01*
X179623081Y-73312954D01*
X179465180Y-73693223D01*
X179464821Y-74104971D01*
X151758613Y-74104971D01*
X151976919Y-73887046D01*
X152134820Y-73506777D01*
X152135179Y-73095029D01*
X151977942Y-72714485D01*
X151687046Y-72423081D01*
X151306777Y-72265180D01*
X151175223Y-72265065D01*
X150955079Y-72044921D01*
X150700407Y-71874755D01*
X150400000Y-71815000D01*
X141378805Y-71815000D01*
X141287046Y-71723081D01*
X140906777Y-71565180D01*
X140495029Y-71564821D01*
X140114485Y-71722058D01*
X139823081Y-72012954D01*
X139665180Y-72393223D01*
X139664821Y-72804971D01*
X134676088Y-72804971D01*
X134901054Y-72468285D01*
X135014093Y-71900000D01*
X134901054Y-71331715D01*
X134579147Y-70849946D01*
X134249974Y-70630000D01*
X134579147Y-70410054D01*
X134901054Y-69928285D01*
X135014093Y-69360000D01*
X134901054Y-68791715D01*
X134692774Y-68480000D01*
X160622560Y-68480000D01*
X160622560Y-70000000D01*
X160671843Y-70247765D01*
X160812191Y-70457809D01*
X161022235Y-70598157D01*
X161270000Y-70647440D01*
X162790000Y-70647440D01*
X163037765Y-70598157D01*
X163247809Y-70457809D01*
X163388157Y-70247765D01*
X163437440Y-70000000D01*
X163437440Y-69516265D01*
X165714758Y-69516265D01*
X165926687Y-70029172D01*
X166318764Y-70421934D01*
X166831300Y-70634758D01*
X167386265Y-70635242D01*
X167899172Y-70423313D01*
X168291934Y-70031236D01*
X168504758Y-69518700D01*
X168505242Y-68963735D01*
X168293313Y-68450828D01*
X168082853Y-68240000D01*
X169592560Y-68240000D01*
X169592560Y-69760000D01*
X169641843Y-70007765D01*
X169782191Y-70217809D01*
X169992235Y-70358157D01*
X170240000Y-70407440D01*
X171760000Y-70407440D01*
X172007765Y-70358157D01*
X172217809Y-70217809D01*
X172358157Y-70007765D01*
X172407440Y-69760000D01*
X172407440Y-69276265D01*
X174684758Y-69276265D01*
X174896687Y-69789172D01*
X175288764Y-70181934D01*
X175801300Y-70394758D01*
X176356265Y-70395242D01*
X176869172Y-70183313D01*
X177261934Y-69791236D01*
X177474758Y-69278700D01*
X177475242Y-68723735D01*
X177263313Y-68210828D01*
X177172644Y-68120000D01*
X178222560Y-68120000D01*
X178222560Y-69640000D01*
X178271843Y-69887765D01*
X178412191Y-70097809D01*
X178622235Y-70238157D01*
X178870000Y-70287440D01*
X180390000Y-70287440D01*
X180637765Y-70238157D01*
X180847809Y-70097809D01*
X180988157Y-69887765D01*
X181037440Y-69640000D01*
X181037440Y-68120000D01*
X180988157Y-67872235D01*
X180847809Y-67662191D01*
X180637765Y-67521843D01*
X180390000Y-67472560D01*
X178870000Y-67472560D01*
X178622235Y-67521843D01*
X178412191Y-67662191D01*
X178271843Y-67872235D01*
X178222560Y-68120000D01*
X177172644Y-68120000D01*
X176871236Y-67818066D01*
X176358700Y-67605242D01*
X175803735Y-67604758D01*
X175290828Y-67816687D01*
X174898066Y-68208764D01*
X174685242Y-68721300D01*
X174684758Y-69276265D01*
X172407440Y-69276265D01*
X172407440Y-68240000D01*
X172358157Y-67992235D01*
X172217809Y-67782191D01*
X172007765Y-67641843D01*
X171760000Y-67592560D01*
X170240000Y-67592560D01*
X169992235Y-67641843D01*
X169782191Y-67782191D01*
X169641843Y-67992235D01*
X169592560Y-68240000D01*
X168082853Y-68240000D01*
X167901236Y-68058066D01*
X167388700Y-67845242D01*
X166833735Y-67844758D01*
X166320828Y-68056687D01*
X165928066Y-68448764D01*
X165715242Y-68961300D01*
X165714758Y-69516265D01*
X163437440Y-69516265D01*
X163437440Y-68480000D01*
X163388157Y-68232235D01*
X163247809Y-68022191D01*
X163037765Y-67881843D01*
X162790000Y-67832560D01*
X161270000Y-67832560D01*
X161022235Y-67881843D01*
X160812191Y-68022191D01*
X160671843Y-68232235D01*
X160622560Y-68480000D01*
X134692774Y-68480000D01*
X134579147Y-68309946D01*
X134249974Y-68090000D01*
X134579147Y-67870054D01*
X134901054Y-67388285D01*
X134983009Y-66976265D01*
X163174758Y-66976265D01*
X163386687Y-67489172D01*
X163778764Y-67881934D01*
X164291300Y-68094758D01*
X164846265Y-68095242D01*
X165359172Y-67883313D01*
X165751934Y-67491236D01*
X165754523Y-67485000D01*
X172592104Y-67485000D01*
X172748764Y-67641934D01*
X173261300Y-67854758D01*
X173816265Y-67855242D01*
X174329172Y-67643313D01*
X174721934Y-67251236D01*
X174934758Y-66738700D01*
X174935242Y-66183735D01*
X174723313Y-65670828D01*
X174331236Y-65278066D01*
X173818700Y-65065242D01*
X173263735Y-65064758D01*
X172750828Y-65276687D01*
X172358066Y-65668764D01*
X172255820Y-65915000D01*
X165755037Y-65915000D01*
X165753313Y-65910828D01*
X165361236Y-65518066D01*
X164848700Y-65305242D01*
X164293735Y-65304758D01*
X163780828Y-65516687D01*
X163388066Y-65908764D01*
X163175242Y-66421300D01*
X163174758Y-66976265D01*
X134983009Y-66976265D01*
X135014093Y-66820000D01*
X134901054Y-66251715D01*
X134579147Y-65769946D01*
X134249974Y-65550000D01*
X134579147Y-65330054D01*
X134901054Y-64848285D01*
X135014093Y-64280000D01*
X134901054Y-63711715D01*
X134628623Y-63303991D01*
X144464735Y-63303991D01*
X144697932Y-63868371D01*
X145129357Y-64300551D01*
X145693330Y-64534733D01*
X146303991Y-64535265D01*
X146868371Y-64302068D01*
X147250288Y-63920818D01*
X147629357Y-64300551D01*
X148193330Y-64534733D01*
X148803991Y-64535265D01*
X149368371Y-64302068D01*
X149750288Y-63920818D01*
X150129357Y-64300551D01*
X150693330Y-64534733D01*
X151303991Y-64535265D01*
X151849484Y-64309872D01*
X151922058Y-64485515D01*
X152212954Y-64776919D01*
X152545491Y-64915000D01*
X149567585Y-64915000D01*
X149206777Y-64765180D01*
X148795029Y-64764821D01*
X148414485Y-64922058D01*
X148123081Y-65212954D01*
X147965180Y-65593223D01*
X147964821Y-66004971D01*
X148122058Y-66385515D01*
X148412954Y-66676919D01*
X148793223Y-66834820D01*
X149204971Y-66835179D01*
X149568433Y-66685000D01*
X153499995Y-66685000D01*
X153500000Y-66685001D01*
X153782484Y-66628810D01*
X153838675Y-66617633D01*
X154125790Y-66425790D01*
X155696608Y-64854971D01*
X177104821Y-64854971D01*
X177262058Y-65235515D01*
X177552954Y-65526919D01*
X177933223Y-65684820D01*
X178344971Y-65685179D01*
X178708433Y-65535000D01*
X181001854Y-65535000D01*
X180988066Y-65548764D01*
X180775242Y-66061300D01*
X180774758Y-66616265D01*
X180986687Y-67129172D01*
X181378764Y-67521934D01*
X181891300Y-67734758D01*
X182446265Y-67735242D01*
X182959172Y-67523313D01*
X183351934Y-67131236D01*
X183564758Y-66618700D01*
X183565242Y-66063735D01*
X183380431Y-65616459D01*
X185748762Y-67308124D01*
X185822058Y-67485515D01*
X186112954Y-67776919D01*
X186493223Y-67934820D01*
X186904971Y-67935179D01*
X187285515Y-67777942D01*
X187576919Y-67487046D01*
X187734820Y-67106777D01*
X187735179Y-66695029D01*
X187577942Y-66314485D01*
X187287046Y-66023081D01*
X186906777Y-65865180D01*
X186773701Y-65865064D01*
X184064396Y-63929846D01*
X183972503Y-63888379D01*
X183888675Y-63832367D01*
X183816615Y-63818033D01*
X183749648Y-63787814D01*
X183648881Y-63784669D01*
X183550000Y-63765000D01*
X178707585Y-63765000D01*
X178346777Y-63615180D01*
X177935029Y-63614821D01*
X177554485Y-63772058D01*
X177263081Y-64062954D01*
X177105180Y-64443223D01*
X177104821Y-64854971D01*
X155696608Y-64854971D01*
X156924448Y-63627131D01*
X157285515Y-63477942D01*
X157576919Y-63187046D01*
X157734820Y-62806777D01*
X157735179Y-62395029D01*
X157577942Y-62014485D01*
X157287046Y-61723081D01*
X156906777Y-61565180D01*
X156495029Y-61564821D01*
X156114485Y-61722058D01*
X155823081Y-62012954D01*
X155672268Y-62376153D01*
X153758966Y-64289454D01*
X153834820Y-64106777D01*
X153835179Y-63695029D01*
X153677942Y-63314485D01*
X153387046Y-63023081D01*
X153285000Y-62980708D01*
X153285000Y-62600000D01*
X153225245Y-62299594D01*
X153055079Y-62044921D01*
X151455079Y-60444921D01*
X151200407Y-60274755D01*
X150900000Y-60215000D01*
X150678805Y-60215000D01*
X150587046Y-60123081D01*
X150206777Y-59965180D01*
X149795029Y-59964821D01*
X149414485Y-60122058D01*
X149123081Y-60412954D01*
X148965180Y-60793223D01*
X148964821Y-61204971D01*
X149122058Y-61585515D01*
X149140323Y-61603812D01*
X148806670Y-61465267D01*
X148196009Y-61464735D01*
X147631629Y-61697932D01*
X147249712Y-62079182D01*
X146870643Y-61699449D01*
X146306670Y-61465267D01*
X145696009Y-61464735D01*
X145131629Y-61697932D01*
X144699449Y-62129357D01*
X144465267Y-62693330D01*
X144464735Y-63303991D01*
X134628623Y-63303991D01*
X134579147Y-63229946D01*
X134249974Y-63010000D01*
X134579147Y-62790054D01*
X134901054Y-62308285D01*
X134941493Y-62104984D01*
X135212954Y-62376919D01*
X135593223Y-62534820D01*
X136004971Y-62535179D01*
X136385515Y-62377942D01*
X136676919Y-62087046D01*
X136834820Y-61706777D01*
X136834935Y-61575223D01*
X138855079Y-59555079D01*
X139025245Y-59300406D01*
X139085000Y-59000000D01*
X139085000Y-56778805D01*
X139176919Y-56687046D01*
X139245520Y-56521834D01*
X141464543Y-56521834D01*
X141864853Y-57490658D01*
X142605443Y-58232542D01*
X143573567Y-58634542D01*
X144621834Y-58635457D01*
X145590658Y-58235147D01*
X146332542Y-57494557D01*
X146734542Y-56526433D01*
X146734546Y-56521834D01*
X150264543Y-56521834D01*
X150664853Y-57490658D01*
X151405443Y-58232542D01*
X152373567Y-58634542D01*
X153421834Y-58635457D01*
X154390658Y-58235147D01*
X155132542Y-57494557D01*
X155534542Y-56526433D01*
X155535457Y-55478166D01*
X155452893Y-55278344D01*
X186274765Y-55278344D01*
X186480617Y-55776543D01*
X186861452Y-56158043D01*
X187359291Y-56364764D01*
X187898344Y-56365235D01*
X188396543Y-56159383D01*
X188778043Y-55778548D01*
X188900045Y-55484736D01*
X189020617Y-55776543D01*
X189401452Y-56158043D01*
X189899291Y-56364764D01*
X190438344Y-56365235D01*
X190936543Y-56159383D01*
X191136500Y-55959774D01*
X191939831Y-55959774D01*
X192004131Y-56197611D01*
X192512342Y-56377333D01*
X193050644Y-56348892D01*
X193415869Y-56197611D01*
X193480169Y-55959774D01*
X192710000Y-55189605D01*
X191939831Y-55959774D01*
X191136500Y-55959774D01*
X191318043Y-55778548D01*
X191433339Y-55500884D01*
X191522389Y-55715869D01*
X191760226Y-55780169D01*
X192530395Y-55010000D01*
X192889605Y-55010000D01*
X193659774Y-55780169D01*
X193897611Y-55715869D01*
X194077333Y-55207658D01*
X194048892Y-54669356D01*
X193897611Y-54304131D01*
X193659774Y-54239831D01*
X192889605Y-55010000D01*
X192530395Y-55010000D01*
X191760226Y-54239831D01*
X191522389Y-54304131D01*
X191440331Y-54536172D01*
X191319383Y-54243457D01*
X191136472Y-54060226D01*
X191939831Y-54060226D01*
X192710000Y-54830395D01*
X193480169Y-54060226D01*
X193415869Y-53822389D01*
X192907658Y-53642667D01*
X192369356Y-53671108D01*
X192004131Y-53822389D01*
X191939831Y-54060226D01*
X191136472Y-54060226D01*
X190938548Y-53861957D01*
X190440709Y-53655236D01*
X189901656Y-53654765D01*
X189403457Y-53860617D01*
X189021957Y-54241452D01*
X188899955Y-54535264D01*
X188779383Y-54243457D01*
X188398548Y-53861957D01*
X187900709Y-53655236D01*
X187361656Y-53654765D01*
X186863457Y-53860617D01*
X186481957Y-54241452D01*
X186275236Y-54739291D01*
X186274765Y-55278344D01*
X155452893Y-55278344D01*
X155135147Y-54509342D01*
X154394557Y-53767458D01*
X153426433Y-53365458D01*
X152378166Y-53364543D01*
X151409342Y-53764853D01*
X150667458Y-54505443D01*
X150265458Y-55473567D01*
X150264543Y-56521834D01*
X146734546Y-56521834D01*
X146735457Y-55478166D01*
X146335147Y-54509342D01*
X145594557Y-53767458D01*
X144626433Y-53365458D01*
X143578166Y-53364543D01*
X142609342Y-53764853D01*
X141867458Y-54505443D01*
X141465458Y-55473567D01*
X141464543Y-56521834D01*
X139245520Y-56521834D01*
X139334820Y-56306777D01*
X139335179Y-55895029D01*
X139177942Y-55514485D01*
X138887046Y-55223081D01*
X138506777Y-55065180D01*
X138095029Y-55064821D01*
X137714485Y-55222058D01*
X137423081Y-55512954D01*
X137265180Y-55893223D01*
X137264821Y-56304971D01*
X137422058Y-56685515D01*
X137515000Y-56778619D01*
X137515000Y-58674842D01*
X135724908Y-60464934D01*
X135595029Y-60464821D01*
X135214485Y-60622058D01*
X134923081Y-60912954D01*
X134848373Y-61092872D01*
X134579147Y-60689946D01*
X134535223Y-60660597D01*
X134597765Y-60648157D01*
X134807809Y-60507809D01*
X134948157Y-60297765D01*
X134997440Y-60050000D01*
X134997440Y-58350000D01*
X134948157Y-58102235D01*
X134807809Y-57892191D01*
X134597765Y-57751843D01*
X134350000Y-57702560D01*
X132650000Y-57702560D01*
X132402235Y-57751843D01*
X132192191Y-57892191D01*
X132185000Y-57902953D01*
X132185000Y-53042619D01*
X197664613Y-53042619D01*
X198004155Y-53864372D01*
X198632321Y-54493636D01*
X199453481Y-54834611D01*
X200342619Y-54835387D01*
X201164372Y-54495845D01*
X201793636Y-53867679D01*
X202134611Y-53046519D01*
X202135387Y-52157381D01*
X201795845Y-51335628D01*
X201167679Y-50706364D01*
X200346519Y-50365389D01*
X199457381Y-50364613D01*
X198635628Y-50704155D01*
X198006364Y-51332321D01*
X197665389Y-52153481D01*
X197664613Y-53042619D01*
X132185000Y-53042619D01*
X132185000Y-52625158D01*
X133075092Y-51735066D01*
X133204971Y-51735179D01*
X133585515Y-51577942D01*
X133876919Y-51287046D01*
X134034820Y-50906777D01*
X134035179Y-50495029D01*
X133877942Y-50114485D01*
X133587046Y-49823081D01*
X133206777Y-49665180D01*
X132795029Y-49664821D01*
X132414485Y-49822058D01*
X132123081Y-50112954D01*
X131965180Y-50493223D01*
X131965065Y-50624777D01*
X130844921Y-51744921D01*
X130674755Y-51999593D01*
X130674755Y-51999594D01*
X130615000Y-52300000D01*
X130615000Y-57763359D01*
X130597765Y-57751843D01*
X130350000Y-57702560D01*
X128650000Y-57702560D01*
X128402235Y-57751843D01*
X128192191Y-57892191D01*
X128051843Y-58102235D01*
X128002560Y-58350000D01*
X128002560Y-60050000D01*
X128051843Y-60297765D01*
X128192191Y-60507809D01*
X128402235Y-60648157D01*
X128464777Y-60660597D01*
X128420853Y-60689946D01*
X128098946Y-61171715D01*
X127985907Y-61740000D01*
X122910000Y-61740000D01*
X122910000Y-48650000D01*
X162202560Y-48650000D01*
X162202560Y-50350000D01*
X162251843Y-50597765D01*
X162392191Y-50807809D01*
X162602235Y-50948157D01*
X162850000Y-50997440D01*
X164550000Y-50997440D01*
X164797765Y-50948157D01*
X165007809Y-50807809D01*
X165148157Y-50597765D01*
X165160597Y-50535223D01*
X165189946Y-50579147D01*
X165671715Y-50901054D01*
X166240000Y-51014093D01*
X166808285Y-50901054D01*
X167290054Y-50579147D01*
X167510000Y-50249974D01*
X167729946Y-50579147D01*
X168211715Y-50901054D01*
X168780000Y-51014093D01*
X169348285Y-50901054D01*
X169830054Y-50579147D01*
X170050000Y-50249974D01*
X170269946Y-50579147D01*
X170751715Y-50901054D01*
X171320000Y-51014093D01*
X171888285Y-50901054D01*
X172370054Y-50579147D01*
X172590000Y-50249974D01*
X172809946Y-50579147D01*
X173291715Y-50901054D01*
X173860000Y-51014093D01*
X174428285Y-50901054D01*
X174910054Y-50579147D01*
X175130000Y-50249974D01*
X175349946Y-50579147D01*
X175831715Y-50901054D01*
X176400000Y-51014093D01*
X176968285Y-50901054D01*
X177450054Y-50579147D01*
X177670000Y-50249974D01*
X177889946Y-50579147D01*
X178371715Y-50901054D01*
X178940000Y-51014093D01*
X179508285Y-50901054D01*
X179990054Y-50579147D01*
X180210000Y-50249974D01*
X180429946Y-50579147D01*
X180911715Y-50901054D01*
X181480000Y-51014093D01*
X182048285Y-50901054D01*
X182530054Y-50579147D01*
X182851961Y-50097378D01*
X182965000Y-49529093D01*
X182965000Y-49470907D01*
X182851961Y-48902622D01*
X182530054Y-48420853D01*
X182048285Y-48098946D01*
X181480000Y-47985907D01*
X180911715Y-48098946D01*
X180429946Y-48420853D01*
X180210000Y-48750026D01*
X179990054Y-48420853D01*
X179508285Y-48098946D01*
X178940000Y-47985907D01*
X178371715Y-48098946D01*
X177889946Y-48420853D01*
X177670000Y-48750026D01*
X177450054Y-48420853D01*
X176968285Y-48098946D01*
X176400000Y-47985907D01*
X175831715Y-48098946D01*
X175349946Y-48420853D01*
X175130000Y-48750026D01*
X174910054Y-48420853D01*
X174428285Y-48098946D01*
X173860000Y-47985907D01*
X173291715Y-48098946D01*
X172809946Y-48420853D01*
X172590000Y-48750026D01*
X172370054Y-48420853D01*
X171888285Y-48098946D01*
X171320000Y-47985907D01*
X170751715Y-48098946D01*
X170269946Y-48420853D01*
X170050000Y-48750026D01*
X169830054Y-48420853D01*
X169348285Y-48098946D01*
X168780000Y-47985907D01*
X168211715Y-48098946D01*
X167729946Y-48420853D01*
X167510000Y-48750026D01*
X167290054Y-48420853D01*
X166808285Y-48098946D01*
X166240000Y-47985907D01*
X165671715Y-48098946D01*
X165189946Y-48420853D01*
X165160597Y-48464777D01*
X165148157Y-48402235D01*
X165007809Y-48192191D01*
X164797765Y-48051843D01*
X164550000Y-48002560D01*
X162850000Y-48002560D01*
X162602235Y-48051843D01*
X162392191Y-48192191D01*
X162251843Y-48402235D01*
X162202560Y-48650000D01*
X122910000Y-48650000D01*
X122910000Y-42750296D01*
X147190480Y-42750296D01*
X147190480Y-42848624D01*
X147381506Y-43808976D01*
X147925501Y-44623123D01*
X148739648Y-45167118D01*
X149700000Y-45358144D01*
X150660352Y-45167118D01*
X151474499Y-44623123D01*
X152018494Y-43808976D01*
X152209520Y-42848624D01*
X152209520Y-42750296D01*
X162190480Y-42750296D01*
X162190480Y-42848624D01*
X162381506Y-43808976D01*
X162925501Y-44623123D01*
X163739648Y-45167118D01*
X164700000Y-45358144D01*
X165660352Y-45167118D01*
X166474499Y-44623123D01*
X167018494Y-43808976D01*
X167209520Y-42848624D01*
X167209520Y-42750296D01*
X177190480Y-42750296D01*
X177190480Y-42848624D01*
X177381506Y-43808976D01*
X177925501Y-44623123D01*
X178739648Y-45167118D01*
X179700000Y-45358144D01*
X180660352Y-45167118D01*
X181474499Y-44623123D01*
X182018494Y-43808976D01*
X182209520Y-42848624D01*
X182209520Y-42750296D01*
X192190480Y-42750296D01*
X192190480Y-42848624D01*
X192381506Y-43808976D01*
X192925501Y-44623123D01*
X193739648Y-45167118D01*
X194700000Y-45358144D01*
X195660352Y-45167118D01*
X196474499Y-44623123D01*
X197018494Y-43808976D01*
X197209520Y-42848624D01*
X197209520Y-42750296D01*
X197018494Y-41789944D01*
X196474499Y-40975797D01*
X195660352Y-40431802D01*
X194700000Y-40240776D01*
X193739648Y-40431802D01*
X192925501Y-40975797D01*
X192381506Y-41789944D01*
X192190480Y-42750296D01*
X182209520Y-42750296D01*
X182018494Y-41789944D01*
X181474499Y-40975797D01*
X180660352Y-40431802D01*
X179700000Y-40240776D01*
X178739648Y-40431802D01*
X177925501Y-40975797D01*
X177381506Y-41789944D01*
X177190480Y-42750296D01*
X167209520Y-42750296D01*
X167018494Y-41789944D01*
X166474499Y-40975797D01*
X165660352Y-40431802D01*
X164700000Y-40240776D01*
X163739648Y-40431802D01*
X162925501Y-40975797D01*
X162381506Y-41789944D01*
X162190480Y-42750296D01*
X152209520Y-42750296D01*
X152018494Y-41789944D01*
X151474499Y-40975797D01*
X150660352Y-40431802D01*
X149700000Y-40240776D01*
X148739648Y-40431802D01*
X147925501Y-40975797D01*
X147381506Y-41789944D01*
X147190480Y-42750296D01*
X122910000Y-42750296D01*
X122910000Y-40017510D01*
X143045794Y-40017510D01*
X143430757Y-40917829D01*
X144130953Y-41602296D01*
X144983871Y-41955580D01*
X145374380Y-41847337D01*
X145374380Y-39627000D01*
X145628380Y-39627000D01*
X145628380Y-41847337D01*
X146018889Y-41955580D01*
X146871807Y-41602296D01*
X147572003Y-40917829D01*
X147956966Y-40017510D01*
X147924427Y-39899880D01*
X152185719Y-39899880D01*
X152469133Y-40524940D01*
X152970174Y-40993962D01*
X153498741Y-41212893D01*
X153771620Y-41095152D01*
X153771620Y-39627000D01*
X154025620Y-39627000D01*
X154025620Y-41095152D01*
X154298499Y-41212893D01*
X154827066Y-40993962D01*
X155328107Y-40524940D01*
X155558185Y-40017510D01*
X158045794Y-40017510D01*
X158430757Y-40917829D01*
X159130953Y-41602296D01*
X159983871Y-41955580D01*
X160374380Y-41847337D01*
X160374380Y-39627000D01*
X160628380Y-39627000D01*
X160628380Y-41847337D01*
X161018889Y-41955580D01*
X161871807Y-41602296D01*
X162572003Y-40917829D01*
X162956966Y-40017510D01*
X162924427Y-39899880D01*
X167185719Y-39899880D01*
X167469133Y-40524940D01*
X167970174Y-40993962D01*
X168498741Y-41212893D01*
X168771620Y-41095152D01*
X168771620Y-39627000D01*
X169025620Y-39627000D01*
X169025620Y-41095152D01*
X169298499Y-41212893D01*
X169827066Y-40993962D01*
X170328107Y-40524940D01*
X170558185Y-40017510D01*
X173045794Y-40017510D01*
X173430757Y-40917829D01*
X174130953Y-41602296D01*
X174983871Y-41955580D01*
X175374380Y-41847337D01*
X175374380Y-39627000D01*
X175628380Y-39627000D01*
X175628380Y-41847337D01*
X176018889Y-41955580D01*
X176871807Y-41602296D01*
X177572003Y-40917829D01*
X177956966Y-40017510D01*
X177924427Y-39899880D01*
X182185719Y-39899880D01*
X182469133Y-40524940D01*
X182970174Y-40993962D01*
X183498741Y-41212893D01*
X183771620Y-41095152D01*
X183771620Y-39627000D01*
X184025620Y-39627000D01*
X184025620Y-41095152D01*
X184298499Y-41212893D01*
X184827066Y-40993962D01*
X185328107Y-40524940D01*
X185558185Y-40017510D01*
X188045794Y-40017510D01*
X188430757Y-40917829D01*
X189130953Y-41602296D01*
X189983871Y-41955580D01*
X190374380Y-41847337D01*
X190374380Y-39627000D01*
X190628380Y-39627000D01*
X190628380Y-41847337D01*
X191018889Y-41955580D01*
X191871807Y-41602296D01*
X192572003Y-40917829D01*
X192956966Y-40017510D01*
X192924427Y-39899880D01*
X197185719Y-39899880D01*
X197469133Y-40524940D01*
X197970174Y-40993962D01*
X198498741Y-41212893D01*
X198771620Y-41095152D01*
X198771620Y-39627000D01*
X199025620Y-39627000D01*
X199025620Y-41095152D01*
X199298499Y-41212893D01*
X199827066Y-40993962D01*
X200328107Y-40524940D01*
X200611521Y-39899880D01*
X200494237Y-39627000D01*
X199025620Y-39627000D01*
X198771620Y-39627000D01*
X197303003Y-39627000D01*
X197185719Y-39899880D01*
X192924427Y-39899880D01*
X192848940Y-39627000D01*
X190628380Y-39627000D01*
X190374380Y-39627000D01*
X188153820Y-39627000D01*
X188045794Y-40017510D01*
X185558185Y-40017510D01*
X185611521Y-39899880D01*
X185494237Y-39627000D01*
X184025620Y-39627000D01*
X183771620Y-39627000D01*
X182303003Y-39627000D01*
X182185719Y-39899880D01*
X177924427Y-39899880D01*
X177848940Y-39627000D01*
X175628380Y-39627000D01*
X175374380Y-39627000D01*
X173153820Y-39627000D01*
X173045794Y-40017510D01*
X170558185Y-40017510D01*
X170611521Y-39899880D01*
X170494237Y-39627000D01*
X169025620Y-39627000D01*
X168771620Y-39627000D01*
X167303003Y-39627000D01*
X167185719Y-39899880D01*
X162924427Y-39899880D01*
X162848940Y-39627000D01*
X160628380Y-39627000D01*
X160374380Y-39627000D01*
X158153820Y-39627000D01*
X158045794Y-40017510D01*
X155558185Y-40017510D01*
X155611521Y-39899880D01*
X155494237Y-39627000D01*
X154025620Y-39627000D01*
X153771620Y-39627000D01*
X152303003Y-39627000D01*
X152185719Y-39899880D01*
X147924427Y-39899880D01*
X147848940Y-39627000D01*
X145628380Y-39627000D01*
X145374380Y-39627000D01*
X143153820Y-39627000D01*
X143045794Y-40017510D01*
X122910000Y-40017510D01*
X122910000Y-37442619D01*
X136764613Y-37442619D01*
X137104155Y-38264372D01*
X137732321Y-38893636D01*
X138553481Y-39234611D01*
X139442619Y-39235387D01*
X140054675Y-38982490D01*
X143045794Y-38982490D01*
X143153820Y-39373000D01*
X145374380Y-39373000D01*
X145374380Y-37152663D01*
X145628380Y-37152663D01*
X145628380Y-39373000D01*
X147848940Y-39373000D01*
X147924426Y-39100120D01*
X152185719Y-39100120D01*
X152303003Y-39373000D01*
X153771620Y-39373000D01*
X153771620Y-37904848D01*
X154025620Y-37904848D01*
X154025620Y-39373000D01*
X155494237Y-39373000D01*
X155611521Y-39100120D01*
X155558186Y-38982490D01*
X158045794Y-38982490D01*
X158153820Y-39373000D01*
X160374380Y-39373000D01*
X160374380Y-37152663D01*
X160628380Y-37152663D01*
X160628380Y-39373000D01*
X162848940Y-39373000D01*
X162924426Y-39100120D01*
X167185719Y-39100120D01*
X167303003Y-39373000D01*
X168771620Y-39373000D01*
X168771620Y-37904848D01*
X169025620Y-37904848D01*
X169025620Y-39373000D01*
X170494237Y-39373000D01*
X170611521Y-39100120D01*
X170558186Y-38982490D01*
X173045794Y-38982490D01*
X173153820Y-39373000D01*
X175374380Y-39373000D01*
X175374380Y-37152663D01*
X175628380Y-37152663D01*
X175628380Y-39373000D01*
X177848940Y-39373000D01*
X177924426Y-39100120D01*
X182185719Y-39100120D01*
X182303003Y-39373000D01*
X183771620Y-39373000D01*
X183771620Y-37904848D01*
X184025620Y-37904848D01*
X184025620Y-39373000D01*
X185494237Y-39373000D01*
X185611521Y-39100120D01*
X185558186Y-38982490D01*
X188045794Y-38982490D01*
X188153820Y-39373000D01*
X190374380Y-39373000D01*
X190374380Y-37152663D01*
X190628380Y-37152663D01*
X190628380Y-39373000D01*
X192848940Y-39373000D01*
X192924426Y-39100120D01*
X197185719Y-39100120D01*
X197303003Y-39373000D01*
X198771620Y-39373000D01*
X198771620Y-37904848D01*
X199025620Y-37904848D01*
X199025620Y-39373000D01*
X200494237Y-39373000D01*
X200611521Y-39100120D01*
X200328107Y-38475060D01*
X199827066Y-38006038D01*
X199298499Y-37787107D01*
X199025620Y-37904848D01*
X198771620Y-37904848D01*
X198498741Y-37787107D01*
X197970174Y-38006038D01*
X197469133Y-38475060D01*
X197185719Y-39100120D01*
X192924426Y-39100120D01*
X192956966Y-38982490D01*
X192572003Y-38082171D01*
X191871807Y-37397704D01*
X191018889Y-37044420D01*
X190628380Y-37152663D01*
X190374380Y-37152663D01*
X189983871Y-37044420D01*
X189130953Y-37397704D01*
X188430757Y-38082171D01*
X188045794Y-38982490D01*
X185558186Y-38982490D01*
X185328107Y-38475060D01*
X184827066Y-38006038D01*
X184298499Y-37787107D01*
X184025620Y-37904848D01*
X183771620Y-37904848D01*
X183498741Y-37787107D01*
X182970174Y-38006038D01*
X182469133Y-38475060D01*
X182185719Y-39100120D01*
X177924426Y-39100120D01*
X177956966Y-38982490D01*
X177572003Y-38082171D01*
X176871807Y-37397704D01*
X176018889Y-37044420D01*
X175628380Y-37152663D01*
X175374380Y-37152663D01*
X174983871Y-37044420D01*
X174130953Y-37397704D01*
X173430757Y-38082171D01*
X173045794Y-38982490D01*
X170558186Y-38982490D01*
X170328107Y-38475060D01*
X169827066Y-38006038D01*
X169298499Y-37787107D01*
X169025620Y-37904848D01*
X168771620Y-37904848D01*
X168498741Y-37787107D01*
X167970174Y-38006038D01*
X167469133Y-38475060D01*
X167185719Y-39100120D01*
X162924426Y-39100120D01*
X162956966Y-38982490D01*
X162572003Y-38082171D01*
X161871807Y-37397704D01*
X161018889Y-37044420D01*
X160628380Y-37152663D01*
X160374380Y-37152663D01*
X159983871Y-37044420D01*
X159130953Y-37397704D01*
X158430757Y-38082171D01*
X158045794Y-38982490D01*
X155558186Y-38982490D01*
X155328107Y-38475060D01*
X154827066Y-38006038D01*
X154298499Y-37787107D01*
X154025620Y-37904848D01*
X153771620Y-37904848D01*
X153498741Y-37787107D01*
X152970174Y-38006038D01*
X152469133Y-38475060D01*
X152185719Y-39100120D01*
X147924426Y-39100120D01*
X147956966Y-38982490D01*
X147572003Y-38082171D01*
X146871807Y-37397704D01*
X146018889Y-37044420D01*
X145628380Y-37152663D01*
X145374380Y-37152663D01*
X144983871Y-37044420D01*
X144130953Y-37397704D01*
X143430757Y-38082171D01*
X143045794Y-38982490D01*
X140054675Y-38982490D01*
X140264372Y-38895845D01*
X140893636Y-38267679D01*
X141234611Y-37446519D01*
X141235387Y-36557381D01*
X140895845Y-35735628D01*
X140267679Y-35106364D01*
X139446519Y-34765389D01*
X138557381Y-34764613D01*
X137735628Y-35104155D01*
X137106364Y-35732321D01*
X136765389Y-36553481D01*
X136764613Y-37442619D01*
X122910000Y-37442619D01*
X122910000Y-34551176D01*
X147190480Y-34551176D01*
X147190480Y-34649504D01*
X147381506Y-35609856D01*
X147925501Y-36424003D01*
X148739648Y-36967998D01*
X149700000Y-37159024D01*
X150660352Y-36967998D01*
X151474499Y-36424003D01*
X152018494Y-35609856D01*
X152209520Y-34649504D01*
X152209520Y-34551176D01*
X162190480Y-34551176D01*
X162190480Y-34649504D01*
X162381506Y-35609856D01*
X162925501Y-36424003D01*
X163739648Y-36967998D01*
X164700000Y-37159024D01*
X165660352Y-36967998D01*
X166474499Y-36424003D01*
X167018494Y-35609856D01*
X167209520Y-34649504D01*
X167209520Y-34551176D01*
X177190480Y-34551176D01*
X177190480Y-34649504D01*
X177381506Y-35609856D01*
X177925501Y-36424003D01*
X178739648Y-36967998D01*
X179700000Y-37159024D01*
X180660352Y-36967998D01*
X181474499Y-36424003D01*
X182018494Y-35609856D01*
X182209520Y-34649504D01*
X182209520Y-34551176D01*
X192190480Y-34551176D01*
X192190480Y-34649504D01*
X192381506Y-35609856D01*
X192925501Y-36424003D01*
X193739648Y-36967998D01*
X194700000Y-37159024D01*
X195660352Y-36967998D01*
X196474499Y-36424003D01*
X197018494Y-35609856D01*
X197209520Y-34649504D01*
X197209520Y-34551176D01*
X197018494Y-33590824D01*
X196474499Y-32776677D01*
X195660352Y-32232682D01*
X194700000Y-32041656D01*
X193739648Y-32232682D01*
X192925501Y-32776677D01*
X192381506Y-33590824D01*
X192190480Y-34551176D01*
X182209520Y-34551176D01*
X182018494Y-33590824D01*
X181474499Y-32776677D01*
X180660352Y-32232682D01*
X179700000Y-32041656D01*
X178739648Y-32232682D01*
X177925501Y-32776677D01*
X177381506Y-33590824D01*
X177190480Y-34551176D01*
X167209520Y-34551176D01*
X167018494Y-33590824D01*
X166474499Y-32776677D01*
X165660352Y-32232682D01*
X164700000Y-32041656D01*
X163739648Y-32232682D01*
X162925501Y-32776677D01*
X162381506Y-33590824D01*
X162190480Y-34551176D01*
X152209520Y-34551176D01*
X152018494Y-33590824D01*
X151474499Y-32776677D01*
X150660352Y-32232682D01*
X149700000Y-32041656D01*
X148739648Y-32232682D01*
X147925501Y-32776677D01*
X147381506Y-33590824D01*
X147190480Y-34551176D01*
X122910000Y-34551176D01*
X122910000Y-31810000D01*
X123009858Y-31810000D01*
X123228295Y-31955954D01*
%TD*%
M02*
