%TF.GenerationSoftware,KiCad,Pcbnew,(2017-07-14 revision 22e95aa)-master*%
%TF.CreationDate,2017-07-26T18:39:18+02:00*%
%TF.ProjectId,allcolours,616C6C636F6C6F7572732E6B69636164,rev?*%
%TF.SameCoordinates,Original%
%TF.FileFunction,Soldermask,Top*%
%TF.FilePolarity,Negative*%
%FSLAX46Y46*%
G04 Gerber Fmt 4.6, Leading zero omitted, Abs format (unit mm)*
G04 Created by KiCad (PCBNEW (2017-07-14 revision 22e95aa)-master) date Wed Jul 26 18:39:18 2017*
%MOMM*%
%LPD*%
G01*
G04 APERTURE LIST*
%ADD10C,3.600000*%
%ADD11R,1.924000X2.432000*%
%ADD12R,1.900000X1.650000*%
%ADD13R,1.650000X1.900000*%
%ADD14R,2.432000X1.924000*%
%ADD15R,2.000000X2.000000*%
%ADD16O,2.000000X2.000000*%
%ADD17O,2.647900X2.647900*%
%ADD18O,4.149040X4.149040*%
%ADD19O,2.100000X2.100000*%
%ADD20R,2.100000X2.100000*%
%ADD21C,1.920000*%
%ADD22R,1.920000X1.920000*%
%ADD23R,1.900000X1.700000*%
%ADD24C,1.840000*%
%ADD25C,2.200000*%
%ADD26C,4.400000*%
%ADD27R,1.000000X1.900000*%
%ADD28R,1.950000X1.000000*%
%ADD29R,1.000000X1.950000*%
%ADD30R,0.908000X1.543000*%
%ADD31R,2.200000X2.200000*%
%ADD32O,2.200000X2.200000*%
G04 APERTURE END LIST*
D10*
%TO.C,REF\002A\002A*%
X132000000Y-112300000D03*
%TD*%
%TO.C,REF\002A\002A*%
X194000000Y-114000000D03*
%TD*%
%TO.C,REF\002A\002A*%
X199900000Y-52600000D03*
%TD*%
D11*
%TO.C,C1*%
X150349000Y-87000000D03*
X153651000Y-87000000D03*
%TD*%
%TO.C,C2*%
X167459000Y-59960000D03*
X170761000Y-59960000D03*
%TD*%
D12*
%TO.C,C3*%
X206250000Y-105000000D03*
X203750000Y-105000000D03*
%TD*%
D11*
%TO.C,C4*%
X156749000Y-92990000D03*
X160051000Y-92990000D03*
%TD*%
%TO.C,C5*%
X144349000Y-90000000D03*
X147651000Y-90000000D03*
%TD*%
D12*
%TO.C,C6*%
X143250000Y-109000000D03*
X140750000Y-109000000D03*
%TD*%
%TO.C,C7*%
X191250000Y-103000000D03*
X188750000Y-103000000D03*
%TD*%
%TO.C,C8*%
X170190000Y-86170000D03*
X167690000Y-86170000D03*
%TD*%
%TO.C,C9*%
X169250000Y-98000000D03*
X166750000Y-98000000D03*
%TD*%
D11*
%TO.C,C10*%
X175651000Y-89000000D03*
X172349000Y-89000000D03*
%TD*%
D12*
%TO.C,C11*%
X183250000Y-87000000D03*
X180750000Y-87000000D03*
%TD*%
D13*
%TO.C,C12*%
X164200000Y-103350000D03*
X164200000Y-105850000D03*
%TD*%
D14*
%TO.C,C13*%
X161200000Y-106251000D03*
X161200000Y-102949000D03*
%TD*%
%TO.C,C14*%
X161200000Y-112251000D03*
X161200000Y-108949000D03*
%TD*%
D13*
%TO.C,C15*%
X164200000Y-109350000D03*
X164200000Y-111850000D03*
%TD*%
D15*
%TO.C,D1*%
X206310000Y-108040000D03*
D16*
X203770000Y-108040000D03*
%TD*%
%TO.C,D2*%
X198070000Y-108170000D03*
D15*
X200610000Y-108170000D03*
%TD*%
D16*
%TO.C,D3*%
X190460000Y-87000000D03*
D15*
X193000000Y-87000000D03*
%TD*%
D17*
%TO.C,M1*%
X183898620Y-39500000D03*
D18*
X179700000Y-42799460D03*
X179700000Y-34600340D03*
X175501380Y-39500000D03*
%TD*%
%TO.C,M2*%
X190501380Y-39500000D03*
X194700000Y-34600340D03*
X194700000Y-42799460D03*
D17*
X198898620Y-39500000D03*
%TD*%
%TO.C,M3*%
X153898620Y-39500000D03*
D18*
X149700000Y-42799460D03*
X149700000Y-34600340D03*
X145501380Y-39500000D03*
%TD*%
%TO.C,M4*%
X160501380Y-39500000D03*
X164700000Y-34600340D03*
X164700000Y-42799460D03*
D17*
X168898620Y-39500000D03*
%TD*%
D19*
%TO.C,P1*%
X181480000Y-49500000D03*
X178940000Y-49500000D03*
X176400000Y-49500000D03*
X173860000Y-49500000D03*
X171320000Y-49500000D03*
X168780000Y-49500000D03*
X166240000Y-49500000D03*
D20*
X163700000Y-49500000D03*
%TD*%
%TO.C,P2*%
X129500000Y-99300000D03*
D19*
X129500000Y-96760000D03*
X129500000Y-94220000D03*
X129500000Y-91680000D03*
X129500000Y-89140000D03*
X129500000Y-86600000D03*
X129500000Y-84060000D03*
X129500000Y-81520000D03*
%TD*%
D20*
%TO.C,P3*%
X133500000Y-59200000D03*
D19*
X133500000Y-61740000D03*
X133500000Y-64280000D03*
X133500000Y-66820000D03*
X133500000Y-69360000D03*
X133500000Y-71900000D03*
X133500000Y-74440000D03*
X133500000Y-76980000D03*
%TD*%
D20*
%TO.C,P4*%
X177200000Y-101600000D03*
D19*
X179740000Y-101600000D03*
X177200000Y-104140000D03*
X179740000Y-104140000D03*
X177200000Y-106680000D03*
X179740000Y-106680000D03*
X177200000Y-109220000D03*
X179740000Y-109220000D03*
X177200000Y-111760000D03*
X179740000Y-111760000D03*
%TD*%
D20*
%TO.C,P5*%
X133500000Y-99300000D03*
D19*
X133500000Y-96760000D03*
X133500000Y-94220000D03*
X133500000Y-91680000D03*
X133500000Y-89140000D03*
X133500000Y-86600000D03*
X133500000Y-84060000D03*
X133500000Y-81520000D03*
%TD*%
%TO.C,P6*%
X129500000Y-76980000D03*
X129500000Y-74440000D03*
X129500000Y-71900000D03*
X129500000Y-69360000D03*
X129500000Y-66820000D03*
X129500000Y-64280000D03*
X129500000Y-61740000D03*
D20*
X129500000Y-59200000D03*
%TD*%
D21*
%TO.C,Q1*%
X151540000Y-101460000D03*
X154080000Y-104000000D03*
D22*
X149000000Y-104000000D03*
%TD*%
D21*
%TO.C,Q2*%
X164570000Y-66700000D03*
X167110000Y-69240000D03*
D22*
X162030000Y-69240000D03*
%TD*%
%TO.C,Q3*%
X149000000Y-96000000D03*
D21*
X154080000Y-96000000D03*
X151540000Y-93460000D03*
%TD*%
D22*
%TO.C,Q4*%
X171000000Y-69000000D03*
D21*
X176080000Y-69000000D03*
X173540000Y-66460000D03*
%TD*%
%TO.C,Q5*%
X182170000Y-66340000D03*
X184710000Y-68880000D03*
D22*
X179630000Y-68880000D03*
%TD*%
%TO.C,Q6*%
X197000000Y-84000000D03*
D21*
X202080000Y-84000000D03*
X199540000Y-81460000D03*
%TD*%
D23*
%TO.C,R1*%
X159700000Y-96280000D03*
X157000000Y-96280000D03*
%TD*%
%TO.C,R2*%
X151650000Y-90000000D03*
X154350000Y-90000000D03*
%TD*%
%TO.C,R3*%
X167650000Y-63000000D03*
X170350000Y-63000000D03*
%TD*%
%TO.C,R4*%
X173210000Y-62920000D03*
X175910000Y-62920000D03*
%TD*%
%TO.C,R5*%
X139340000Y-87010000D03*
X142040000Y-87010000D03*
%TD*%
%TO.C,R6*%
X147350000Y-87000000D03*
X144650000Y-87000000D03*
%TD*%
%TO.C,R7*%
X206180000Y-99820000D03*
X203480000Y-99820000D03*
%TD*%
%TO.C,R8*%
X199350000Y-101000000D03*
X196650000Y-101000000D03*
%TD*%
%TO.C,R9*%
X199310000Y-103680000D03*
X196610000Y-103680000D03*
%TD*%
%TO.C,R10*%
X178540000Y-60080000D03*
X181240000Y-60080000D03*
%TD*%
%TO.C,R11*%
X141350000Y-90000000D03*
X138650000Y-90000000D03*
%TD*%
%TO.C,R12*%
X186760000Y-59990000D03*
X184060000Y-59990000D03*
%TD*%
%TO.C,R13*%
X178630000Y-62830000D03*
X181330000Y-62830000D03*
%TD*%
%TO.C,R14*%
X188650000Y-98000000D03*
X191350000Y-98000000D03*
%TD*%
%TO.C,R15*%
X203540000Y-102220000D03*
X206240000Y-102220000D03*
%TD*%
%TO.C,R16*%
X187820000Y-74480000D03*
X185120000Y-74480000D03*
%TD*%
%TO.C,R17*%
X190280000Y-74390000D03*
X192980000Y-74390000D03*
%TD*%
%TO.C,R18*%
X191170000Y-59900000D03*
X193870000Y-59900000D03*
%TD*%
%TO.C,R19*%
X143350000Y-106000000D03*
X140650000Y-106000000D03*
%TD*%
%TO.C,R20*%
X189650000Y-93000000D03*
X192350000Y-93000000D03*
%TD*%
%TO.C,R21*%
X141650000Y-94000000D03*
X144350000Y-94000000D03*
%TD*%
%TO.C,R22*%
X191080000Y-62480000D03*
X193780000Y-62480000D03*
%TD*%
%TO.C,R23*%
X146120000Y-78920000D03*
X143420000Y-78920000D03*
%TD*%
%TO.C,R24*%
X152650000Y-75000000D03*
X155350000Y-75000000D03*
%TD*%
%TO.C,R25*%
X203650000Y-89050000D03*
X200950000Y-89050000D03*
%TD*%
%TO.C,R26*%
X151650000Y-78870000D03*
X148950000Y-78870000D03*
%TD*%
%TO.C,R27*%
X143380000Y-70930000D03*
X140680000Y-70930000D03*
%TD*%
%TO.C,R28*%
X147070000Y-66130000D03*
X144370000Y-66130000D03*
%TD*%
%TO.C,R29*%
X152700000Y-67690000D03*
X155400000Y-67690000D03*
%TD*%
%TO.C,R30*%
X175350000Y-96000000D03*
X172650000Y-96000000D03*
%TD*%
%TO.C,R31*%
X175350000Y-93000000D03*
X172650000Y-93000000D03*
%TD*%
%TO.C,R32*%
X183350000Y-84000000D03*
X180650000Y-84000000D03*
%TD*%
D24*
%TO.C,RV1*%
X187630000Y-55010000D03*
X190170000Y-55010000D03*
X192710000Y-55010000D03*
%TD*%
D25*
%TO.C,RV2*%
X146000000Y-63000000D03*
X148500000Y-63000000D03*
X151000000Y-63000000D03*
D26*
X144100000Y-56000000D03*
X152900000Y-56000000D03*
%TD*%
D27*
%TO.C,U1*%
X195190000Y-97700000D03*
X196460000Y-97700000D03*
X197730000Y-97700000D03*
X199000000Y-97700000D03*
X200270000Y-97700000D03*
X201540000Y-97700000D03*
X202810000Y-97700000D03*
X202810000Y-92300000D03*
X201540000Y-92300000D03*
X200270000Y-92300000D03*
X199000000Y-92300000D03*
X197730000Y-92300000D03*
X196460000Y-92300000D03*
X195190000Y-92300000D03*
%TD*%
D28*
%TO.C,U2*%
X140300000Y-98095000D03*
X140300000Y-99365000D03*
X140300000Y-100635000D03*
X140300000Y-101905000D03*
X145700000Y-101905000D03*
X145700000Y-100635000D03*
X145700000Y-99365000D03*
X145700000Y-98095000D03*
%TD*%
D29*
%TO.C,U3*%
X188305000Y-65380000D03*
X189575000Y-65380000D03*
X190845000Y-65380000D03*
X192115000Y-65380000D03*
X192115000Y-70780000D03*
X190845000Y-70780000D03*
X189575000Y-70780000D03*
X188305000Y-70780000D03*
%TD*%
D30*
%TO.C,U4*%
X165095000Y-88825000D03*
X166365000Y-88825000D03*
X167635000Y-88825000D03*
X168905000Y-88825000D03*
X168905000Y-95175000D03*
X167635000Y-95175000D03*
X166365000Y-95175000D03*
X165095000Y-95175000D03*
%TD*%
D29*
%TO.C,U5*%
X146095000Y-74700000D03*
X147365000Y-74700000D03*
X148635000Y-74700000D03*
X149905000Y-74700000D03*
X149905000Y-69300000D03*
X148635000Y-69300000D03*
X147365000Y-69300000D03*
X146095000Y-69300000D03*
%TD*%
%TO.C,U6*%
X180095000Y-90300000D03*
X181365000Y-90300000D03*
X182635000Y-90300000D03*
X183905000Y-90300000D03*
X183905000Y-95700000D03*
X182635000Y-95700000D03*
X181365000Y-95700000D03*
X180095000Y-95700000D03*
%TD*%
D28*
%TO.C,U7*%
X136700000Y-48095000D03*
X136700000Y-49365000D03*
X136700000Y-50635000D03*
X136700000Y-51905000D03*
X131300000Y-51905000D03*
X131300000Y-50635000D03*
X131300000Y-49365000D03*
X131300000Y-48095000D03*
%TD*%
%TO.C,U8*%
X131300000Y-41895000D03*
X131300000Y-43165000D03*
X131300000Y-44435000D03*
X131300000Y-45705000D03*
X136700000Y-45705000D03*
X136700000Y-44435000D03*
X136700000Y-43165000D03*
X136700000Y-41895000D03*
%TD*%
D31*
%TO.C,U9*%
X169200000Y-104600000D03*
D32*
X169200000Y-107140000D03*
X169200000Y-109680000D03*
%TD*%
D10*
%TO.C,REF\002A\002A*%
X139000000Y-37000000D03*
%TD*%
M02*
