%TF.GenerationSoftware,KiCad,Pcbnew,6.0.6+dfsg-1~bpo11+1*%
%TF.CreationDate,2023-11-30T19:30:28+01:00*%
%TF.ProjectId,touch,746f7563-682e-46b6-9963-61645f706362,rev?*%
%TF.SameCoordinates,Original*%
%TF.FileFunction,Soldermask,Bot*%
%TF.FilePolarity,Negative*%
%FSLAX46Y46*%
G04 Gerber Fmt 4.6, Leading zero omitted, Abs format (unit mm)*
G04 Created by KiCad (PCBNEW 6.0.6+dfsg-1~bpo11+1) date 2023-11-30 19:30:28*
%MOMM*%
%LPD*%
G01*
G04 APERTURE LIST*
G04 Aperture macros list*
%AMRoundRect*
0 Rectangle with rounded corners*
0 $1 Rounding radius*
0 $2 $3 $4 $5 $6 $7 $8 $9 X,Y pos of 4 corners*
0 Add a 4 corners polygon primitive as box body*
4,1,4,$2,$3,$4,$5,$6,$7,$8,$9,$2,$3,0*
0 Add four circle primitives for the rounded corners*
1,1,$1+$1,$2,$3*
1,1,$1+$1,$4,$5*
1,1,$1+$1,$6,$7*
1,1,$1+$1,$8,$9*
0 Add four rect primitives between the rounded corners*
20,1,$1+$1,$2,$3,$4,$5,0*
20,1,$1+$1,$4,$5,$6,$7,0*
20,1,$1+$1,$6,$7,$8,$9,0*
20,1,$1+$1,$8,$9,$2,$3,0*%
G04 Aperture macros list end*
%ADD10RoundRect,0.301000X-0.262500X-0.450000X0.262500X-0.450000X0.262500X0.450000X-0.262500X0.450000X0*%
%ADD11RoundRect,0.201000X-0.150000X0.825000X-0.150000X-0.825000X0.150000X-0.825000X0.150000X0.825000X0*%
%ADD12RoundRect,0.301000X0.450000X-0.262500X0.450000X0.262500X-0.450000X0.262500X-0.450000X-0.262500X0*%
%ADD13RoundRect,0.301000X-0.250000X-0.475000X0.250000X-0.475000X0.250000X0.475000X-0.250000X0.475000X0*%
%ADD14RoundRect,0.051000X-0.850000X-0.850000X0.850000X-0.850000X0.850000X0.850000X-0.850000X0.850000X0*%
%ADD15O,1.802000X1.802000*%
%ADD16RoundRect,0.051000X0.850000X0.850000X-0.850000X0.850000X-0.850000X-0.850000X0.850000X-0.850000X0*%
%ADD17RoundRect,0.051000X0.965000X0.915000X-0.965000X0.915000X-0.965000X-0.915000X0.965000X-0.915000X0*%
%ADD18C,2.232000*%
%ADD19RoundRect,0.051000X-0.762000X-1.016000X0.762000X-1.016000X0.762000X1.016000X-0.762000X1.016000X0*%
%ADD20RoundRect,0.051000X0.762000X1.016000X-0.762000X1.016000X-0.762000X-1.016000X0.762000X-1.016000X0*%
%ADD21RoundRect,0.051000X-0.500000X-0.625000X0.500000X-0.625000X0.500000X0.625000X-0.500000X0.625000X0*%
%ADD22RoundRect,0.051000X0.500000X0.625000X-0.500000X0.625000X-0.500000X-0.625000X0.500000X-0.625000X0*%
%ADD23RoundRect,0.051000X-1.016000X0.762000X-1.016000X-0.762000X1.016000X-0.762000X1.016000X0.762000X0*%
%ADD24RoundRect,0.051000X0.625000X-0.500000X0.625000X0.500000X-0.625000X0.500000X-0.625000X-0.500000X0*%
%ADD25RoundRect,0.051000X0.450000X0.600000X-0.450000X0.600000X-0.450000X-0.600000X0.450000X-0.600000X0*%
%ADD26RoundRect,0.051000X-0.450000X-0.600000X0.450000X-0.600000X0.450000X0.600000X-0.450000X0.600000X0*%
%ADD27RoundRect,0.051000X0.850000X-0.850000X0.850000X0.850000X-0.850000X0.850000X-0.850000X-0.850000X0*%
%ADD28RoundRect,0.051000X-0.250000X-0.450000X0.250000X-0.450000X0.250000X0.450000X-0.250000X0.450000X0*%
%ADD29RoundRect,0.051000X-0.450000X-0.400000X0.450000X-0.400000X0.450000X0.400000X-0.450000X0.400000X0*%
%ADD30RoundRect,0.051000X0.450000X0.400000X-0.450000X0.400000X-0.450000X-0.400000X0.450000X-0.400000X0*%
%ADD31RoundRect,0.051000X-0.350000X-0.650000X0.350000X-0.650000X0.350000X0.650000X-0.350000X0.650000X0*%
%ADD32RoundRect,0.051000X0.350000X0.650000X-0.350000X0.650000X-0.350000X-0.650000X0.350000X-0.650000X0*%
%ADD33RoundRect,0.051000X1.100000X0.600000X-1.100000X0.600000X-1.100000X-0.600000X1.100000X-0.600000X0*%
%ADD34RoundRect,0.051000X3.200000X2.900000X-3.200000X2.900000X-3.200000X-2.900000X3.200000X-2.900000X0*%
%ADD35RoundRect,0.051000X-0.300000X0.750000X-0.300000X-0.750000X0.300000X-0.750000X0.300000X0.750000X0*%
%ADD36RoundRect,0.051000X0.300000X-0.750000X0.300000X0.750000X-0.300000X0.750000X-0.300000X-0.750000X0*%
%ADD37RoundRect,0.051000X-0.125000X0.500000X-0.125000X-0.500000X0.125000X-0.500000X0.125000X0.500000X0*%
%ADD38RoundRect,0.051000X0.500000X0.125000X-0.500000X0.125000X-0.500000X-0.125000X0.500000X-0.125000X0*%
%ADD39RoundRect,0.051000X1.000000X-2.250000X1.000000X2.250000X-1.000000X2.250000X-1.000000X-2.250000X0*%
%ADD40RoundRect,0.201000X0.587500X0.150000X-0.587500X0.150000X-0.587500X-0.150000X0.587500X-0.150000X0*%
%ADD41RoundRect,0.201000X-0.587500X-0.150000X0.587500X-0.150000X0.587500X0.150000X-0.587500X0.150000X0*%
G04 APERTURE END LIST*
D10*
%TO.C,R76*%
X92215000Y-139900000D03*
X94040000Y-139900000D03*
%TD*%
D11*
%TO.C,U12*%
X82430000Y-133565000D03*
X83700000Y-133565000D03*
X84970000Y-133565000D03*
X86240000Y-133565000D03*
X87510000Y-133565000D03*
X88780000Y-133565000D03*
X90050000Y-133565000D03*
X90050000Y-138515000D03*
X88780000Y-138515000D03*
X87510000Y-138515000D03*
X86240000Y-138515000D03*
X84970000Y-138515000D03*
X83700000Y-138515000D03*
X82430000Y-138515000D03*
%TD*%
D10*
%TO.C,R79*%
X81870000Y-142770000D03*
X83695000Y-142770000D03*
%TD*%
%TO.C,R78*%
X89960000Y-142510000D03*
X91785000Y-142510000D03*
%TD*%
%TO.C,R77*%
X81957500Y-145290000D03*
X83782500Y-145290000D03*
%TD*%
%TO.C,R75*%
X92460000Y-136030000D03*
X94285000Y-136030000D03*
%TD*%
%TO.C,R74*%
X78000000Y-133540000D03*
X79825000Y-133540000D03*
%TD*%
D12*
%TO.C,R73*%
X83240000Y-129352500D03*
X83240000Y-127527500D03*
%TD*%
D10*
%TO.C,R72*%
X77925000Y-131010000D03*
X79750000Y-131010000D03*
%TD*%
D13*
%TO.C,C22*%
X85930000Y-142470000D03*
X87830000Y-142470000D03*
%TD*%
%TO.C,C21*%
X86130000Y-130850000D03*
X88030000Y-130850000D03*
%TD*%
D14*
%TO.C,J1*%
X121650000Y-121800000D03*
D15*
X124190000Y-121800000D03*
X121650000Y-124340000D03*
X124190000Y-124340000D03*
X121650000Y-126880000D03*
X124190000Y-126880000D03*
X121650000Y-129420000D03*
X124190000Y-129420000D03*
X121650000Y-131960000D03*
X124190000Y-131960000D03*
%TD*%
D16*
%TO.C,J2*%
X69000000Y-91300000D03*
D15*
X69000000Y-88760000D03*
X69000000Y-86220000D03*
X69000000Y-83680000D03*
%TD*%
D17*
%TO.C,M1*%
X135300000Y-137000000D03*
D18*
X135300000Y-140100000D03*
X135300000Y-148400000D03*
%TD*%
D17*
%TO.C,M2*%
X145500000Y-137000000D03*
D18*
X145500000Y-140100000D03*
X145500000Y-148400000D03*
%TD*%
D17*
%TO.C,M3*%
X145500000Y-122200000D03*
D18*
X145500000Y-125300000D03*
X145500000Y-133600000D03*
%TD*%
D17*
%TO.C,M4*%
X135300000Y-122200000D03*
D18*
X135300000Y-125300000D03*
X135300000Y-133600000D03*
%TD*%
D17*
%TO.C,M5*%
X69700000Y-137000000D03*
D18*
X69700000Y-140100000D03*
X69700000Y-148400000D03*
%TD*%
D17*
%TO.C,M6*%
X59500000Y-137000000D03*
D18*
X59500000Y-140100000D03*
X59500000Y-148400000D03*
%TD*%
D17*
%TO.C,M7*%
X59500000Y-122200000D03*
D18*
X59500000Y-125300000D03*
X59500000Y-133600000D03*
%TD*%
D17*
%TO.C,M8*%
X69700000Y-122200000D03*
D18*
X69700000Y-125300000D03*
X69700000Y-133600000D03*
%TD*%
D17*
%TO.C,M9*%
X69700000Y-49000000D03*
D18*
X69700000Y-52100000D03*
X69700000Y-60400000D03*
%TD*%
D17*
%TO.C,M10*%
X59500000Y-49000000D03*
D18*
X59500000Y-52100000D03*
X59500000Y-60400000D03*
%TD*%
D17*
%TO.C,M11*%
X59500000Y-64000000D03*
D18*
X59500000Y-67100000D03*
X59500000Y-75400000D03*
%TD*%
D17*
%TO.C,M12*%
X69700000Y-64000000D03*
D18*
X69700000Y-67100000D03*
X69700000Y-75400000D03*
%TD*%
D17*
%TO.C,M13*%
X135300000Y-49000000D03*
D18*
X135300000Y-52100000D03*
X135300000Y-60400000D03*
%TD*%
D17*
%TO.C,M14*%
X145500000Y-49000000D03*
D18*
X145500000Y-52100000D03*
X145500000Y-60400000D03*
%TD*%
D17*
%TO.C,M15*%
X145500000Y-64000000D03*
D18*
X145500000Y-67100000D03*
X145500000Y-75400000D03*
%TD*%
D17*
%TO.C,M16*%
X135300000Y-64000000D03*
D18*
X135300000Y-67100000D03*
X135300000Y-75400000D03*
%TD*%
D19*
%TO.C,C1*%
X113519000Y-118740000D03*
X116821000Y-118740000D03*
%TD*%
D20*
%TO.C,C2*%
X116701000Y-122050000D03*
X113399000Y-122050000D03*
%TD*%
D19*
%TO.C,C3*%
X107699000Y-113900000D03*
X111001000Y-113900000D03*
%TD*%
D21*
%TO.C,C4*%
X111900000Y-110850000D03*
X113900000Y-110850000D03*
%TD*%
D19*
%TO.C,C5*%
X113799000Y-126500000D03*
X117101000Y-126500000D03*
%TD*%
D22*
%TO.C,C6*%
X128400000Y-116200000D03*
X126400000Y-116200000D03*
%TD*%
D20*
%TO.C,C7*%
X117201000Y-114050000D03*
X113899000Y-114050000D03*
%TD*%
D21*
%TO.C,C8*%
X126400000Y-112900000D03*
X128400000Y-112900000D03*
%TD*%
D22*
%TO.C,C9*%
X99530000Y-62120000D03*
X97530000Y-62120000D03*
%TD*%
%TO.C,C10*%
X91900000Y-64100000D03*
X89900000Y-64100000D03*
%TD*%
%TO.C,C11*%
X90500000Y-51300000D03*
X88500000Y-51300000D03*
%TD*%
D21*
%TO.C,C12*%
X93700000Y-62100000D03*
X95700000Y-62100000D03*
%TD*%
%TO.C,C13*%
X101900000Y-62100000D03*
X103900000Y-62100000D03*
%TD*%
D22*
%TO.C,C14*%
X98600000Y-74900000D03*
X96600000Y-74900000D03*
%TD*%
D21*
%TO.C,C15*%
X93500000Y-49900000D03*
X95500000Y-49900000D03*
%TD*%
%TO.C,C16*%
X100500000Y-77300000D03*
X102500000Y-77300000D03*
%TD*%
%TO.C,C17*%
X122100000Y-71300000D03*
X124100000Y-71300000D03*
%TD*%
D22*
%TO.C,C18*%
X116010000Y-81890000D03*
X114010000Y-81890000D03*
%TD*%
%TO.C,C19*%
X116400000Y-71300000D03*
X114400000Y-71300000D03*
%TD*%
D21*
%TO.C,C20*%
X121900000Y-82100000D03*
X123900000Y-82100000D03*
%TD*%
%TO.C,C25*%
X134500000Y-79200000D03*
X136500000Y-79200000D03*
%TD*%
D22*
%TO.C,C26*%
X128200000Y-94600000D03*
X126200000Y-94600000D03*
%TD*%
%TO.C,C27*%
X128900000Y-79000000D03*
X126900000Y-79000000D03*
%TD*%
D21*
%TO.C,C28*%
X108750000Y-77190000D03*
X110750000Y-77190000D03*
%TD*%
%TO.C,C29*%
X74100000Y-80100000D03*
X76100000Y-80100000D03*
%TD*%
%TO.C,C30*%
X75200000Y-97300000D03*
X77200000Y-97300000D03*
%TD*%
%TO.C,C31*%
X87000000Y-80200000D03*
X89000000Y-80200000D03*
%TD*%
D23*
%TO.C,C32*%
X98470000Y-92569000D03*
X98470000Y-95871000D03*
%TD*%
D21*
%TO.C,C33*%
X90630000Y-80980000D03*
X92630000Y-80980000D03*
%TD*%
%TO.C,C34*%
X82280000Y-80310000D03*
X84280000Y-80310000D03*
%TD*%
D24*
%TO.C,C35*%
X94450000Y-83390000D03*
X94450000Y-81390000D03*
%TD*%
D21*
%TO.C,C36*%
X94220000Y-94830000D03*
X96220000Y-94830000D03*
%TD*%
%TO.C,C37*%
X81825000Y-97600000D03*
X83825000Y-97600000D03*
%TD*%
D22*
%TO.C,C38*%
X80600000Y-81000000D03*
X78600000Y-81000000D03*
%TD*%
D21*
%TO.C,C49*%
X92500000Y-52000000D03*
X94500000Y-52000000D03*
%TD*%
%TO.C,C50*%
X101900000Y-64400000D03*
X103900000Y-64400000D03*
%TD*%
D22*
%TO.C,C51*%
X91900000Y-62000000D03*
X89900000Y-62000000D03*
%TD*%
D21*
%TO.C,C52*%
X100500000Y-75300000D03*
X102500000Y-75300000D03*
%TD*%
%TO.C,C53*%
X130000000Y-93100000D03*
X132000000Y-93100000D03*
%TD*%
%TO.C,C54*%
X117740000Y-81890000D03*
X119740000Y-81890000D03*
%TD*%
%TO.C,C55*%
X115300000Y-62300000D03*
X117300000Y-62300000D03*
%TD*%
%TO.C,C56*%
X108690000Y-93130000D03*
X110690000Y-93130000D03*
%TD*%
%TO.C,C57*%
X130700000Y-81800000D03*
X132700000Y-81800000D03*
%TD*%
%TO.C,C58*%
X118200000Y-71300000D03*
X120200000Y-71300000D03*
%TD*%
%TO.C,C59*%
X115700000Y-51700000D03*
X117700000Y-51700000D03*
%TD*%
%TO.C,C60*%
X108100000Y-82400000D03*
X110100000Y-82400000D03*
%TD*%
D22*
%TO.C,C63*%
X90200000Y-128300000D03*
X88200000Y-128300000D03*
%TD*%
D21*
%TO.C,C64*%
X89450000Y-117100000D03*
X91450000Y-117100000D03*
%TD*%
%TO.C,C65*%
X60100000Y-114400000D03*
X62100000Y-114400000D03*
%TD*%
%TO.C,C66*%
X133900000Y-114800000D03*
X135900000Y-114800000D03*
%TD*%
D25*
%TO.C,D1*%
X116950000Y-130700000D03*
X113650000Y-130700000D03*
%TD*%
D26*
%TO.C,D2*%
X119900000Y-116100000D03*
X123200000Y-116100000D03*
%TD*%
D27*
%TO.C,J3*%
X126100000Y-105500000D03*
D15*
X126100000Y-102960000D03*
X123560000Y-105500000D03*
X123560000Y-102960000D03*
X121020000Y-105500000D03*
X121020000Y-102960000D03*
X118480000Y-105500000D03*
X118480000Y-102960000D03*
X115940000Y-105500000D03*
X115940000Y-102960000D03*
X113400000Y-105500000D03*
X113400000Y-102960000D03*
X110860000Y-105500000D03*
X110860000Y-102960000D03*
X108320000Y-105500000D03*
X108320000Y-102960000D03*
X105780000Y-105500000D03*
X105780000Y-102960000D03*
X103240000Y-105500000D03*
X103240000Y-102960000D03*
X100700000Y-105500000D03*
X100700000Y-102960000D03*
X98160000Y-105500000D03*
X98160000Y-102960000D03*
X95620000Y-105500000D03*
X95620000Y-102960000D03*
X93080000Y-105500000D03*
X93080000Y-102960000D03*
X90540000Y-105500000D03*
X90540000Y-102960000D03*
X88000000Y-105500000D03*
X88000000Y-102960000D03*
X85460000Y-105500000D03*
X85460000Y-102960000D03*
X82920000Y-105500000D03*
X82920000Y-102960000D03*
X80380000Y-105500000D03*
X80380000Y-102960000D03*
X77840000Y-105500000D03*
X77840000Y-102960000D03*
%TD*%
D28*
%TO.C,L1*%
X122290000Y-112820000D03*
X123790000Y-112820000D03*
%TD*%
D29*
%TO.C,Q1*%
X124380000Y-75770000D03*
X124380000Y-73870000D03*
X126380000Y-74820000D03*
%TD*%
D30*
%TO.C,Q2*%
X112100000Y-71650000D03*
X112100000Y-73550000D03*
X110100000Y-72600000D03*
%TD*%
D29*
%TO.C,Q3*%
X110200000Y-69250000D03*
X110200000Y-67350000D03*
X112200000Y-68300000D03*
%TD*%
D30*
%TO.C,Q4*%
X119740000Y-84440000D03*
X119740000Y-86340000D03*
X117740000Y-85390000D03*
%TD*%
D31*
%TO.C,R1*%
X93390000Y-68680000D03*
X95290000Y-68680000D03*
%TD*%
%TO.C,R2*%
X96450000Y-64700000D03*
X98350000Y-64700000D03*
%TD*%
%TO.C,R3*%
X93190000Y-66780000D03*
X95090000Y-66780000D03*
%TD*%
%TO.C,R4*%
X97150000Y-49800000D03*
X99050000Y-49800000D03*
%TD*%
D32*
%TO.C,R5*%
X98150000Y-52000000D03*
X96250000Y-52000000D03*
%TD*%
%TO.C,R6*%
X100350000Y-54300000D03*
X98450000Y-54300000D03*
%TD*%
D31*
%TO.C,R7*%
X122250000Y-66800000D03*
X124150000Y-66800000D03*
%TD*%
D32*
%TO.C,R8*%
X115650000Y-83800000D03*
X113750000Y-83800000D03*
%TD*%
%TO.C,R9*%
X117150000Y-66500000D03*
X115250000Y-66500000D03*
%TD*%
D31*
%TO.C,R10*%
X122050000Y-84500000D03*
X123950000Y-84500000D03*
%TD*%
D32*
%TO.C,R11*%
X124150000Y-69000000D03*
X122250000Y-69000000D03*
%TD*%
D31*
%TO.C,R12*%
X113550000Y-86200000D03*
X115450000Y-86200000D03*
%TD*%
%TO.C,R13*%
X114450000Y-69000000D03*
X116350000Y-69000000D03*
%TD*%
%TO.C,R14*%
X121950000Y-86700000D03*
X123850000Y-86700000D03*
%TD*%
%TO.C,R15*%
X122240000Y-62550000D03*
X124140000Y-62550000D03*
%TD*%
D32*
%TO.C,R16*%
X115450000Y-88400000D03*
X113550000Y-88400000D03*
%TD*%
%TO.C,R17*%
X117150000Y-64500000D03*
X115250000Y-64500000D03*
%TD*%
%TO.C,R18*%
X123890000Y-89270000D03*
X121990000Y-89270000D03*
%TD*%
D31*
%TO.C,R19*%
X111350000Y-51700000D03*
X113250000Y-51700000D03*
%TD*%
%TO.C,R20*%
X111450000Y-62200000D03*
X113350000Y-62200000D03*
%TD*%
D32*
%TO.C,R21*%
X106750000Y-94000000D03*
X104850000Y-94000000D03*
%TD*%
D31*
%TO.C,R22*%
X103950000Y-82400000D03*
X105850000Y-82400000D03*
%TD*%
D32*
%TO.C,R23*%
X136250000Y-81800000D03*
X134350000Y-81800000D03*
%TD*%
D31*
%TO.C,R24*%
X126350000Y-92500000D03*
X128250000Y-92500000D03*
%TD*%
%TO.C,R25*%
X126750000Y-81800000D03*
X128650000Y-81800000D03*
%TD*%
D32*
%TO.C,R26*%
X110000000Y-79710000D03*
X108100000Y-79710000D03*
%TD*%
D31*
%TO.C,R27*%
X95850000Y-125350000D03*
X97750000Y-125350000D03*
%TD*%
D32*
%TO.C,R28*%
X93800000Y-128300000D03*
X91900000Y-128300000D03*
%TD*%
%TO.C,R29*%
X62250000Y-103900000D03*
X60350000Y-103900000D03*
%TD*%
%TO.C,R30*%
X66150000Y-103800000D03*
X64250000Y-103800000D03*
%TD*%
%TO.C,R31*%
X66150000Y-101900000D03*
X64250000Y-101900000D03*
%TD*%
D31*
%TO.C,R32*%
X63850000Y-114500000D03*
X65750000Y-114500000D03*
%TD*%
%TO.C,R33*%
X63850000Y-116500000D03*
X65750000Y-116500000D03*
%TD*%
D32*
%TO.C,R34*%
X62250000Y-116500000D03*
X60350000Y-116500000D03*
%TD*%
%TO.C,R35*%
X66250000Y-94800000D03*
X64350000Y-94800000D03*
%TD*%
%TO.C,R36*%
X66250000Y-97700000D03*
X64350000Y-97700000D03*
%TD*%
%TO.C,R37*%
X72250000Y-99700000D03*
X70350000Y-99700000D03*
%TD*%
%TO.C,R38*%
X71750000Y-111000000D03*
X69850000Y-111000000D03*
%TD*%
%TO.C,R39*%
X71850000Y-108600000D03*
X69950000Y-108600000D03*
%TD*%
%TO.C,R40*%
X69950000Y-103800000D03*
X68050000Y-103800000D03*
%TD*%
%TO.C,R41*%
X134650000Y-103200000D03*
X132750000Y-103200000D03*
%TD*%
D31*
%TO.C,R42*%
X136050000Y-103200000D03*
X137950000Y-103200000D03*
%TD*%
D32*
%TO.C,R43*%
X141550000Y-103200000D03*
X139650000Y-103200000D03*
%TD*%
D31*
%TO.C,R44*%
X138050000Y-114800000D03*
X139950000Y-114800000D03*
%TD*%
%TO.C,R45*%
X138050000Y-117000000D03*
X139950000Y-117000000D03*
%TD*%
%TO.C,R47*%
X132330000Y-101010000D03*
X134230000Y-101010000D03*
%TD*%
%TO.C,R48*%
X136150000Y-100940000D03*
X138050000Y-100940000D03*
%TD*%
%TO.C,R49*%
X130170000Y-95770000D03*
X132070000Y-95770000D03*
%TD*%
%TO.C,R50*%
X127520000Y-98960000D03*
X129420000Y-98960000D03*
%TD*%
%TO.C,R51*%
X128020000Y-108610000D03*
X129920000Y-108610000D03*
%TD*%
D32*
%TO.C,R53*%
X102320000Y-82070000D03*
X100420000Y-82070000D03*
%TD*%
D31*
%TO.C,R54*%
X103750000Y-79800000D03*
X105650000Y-79800000D03*
%TD*%
D32*
%TO.C,R55*%
X107550000Y-55700000D03*
X105650000Y-55700000D03*
%TD*%
%TO.C,R56*%
X115550000Y-49300000D03*
X113650000Y-49300000D03*
%TD*%
%TO.C,R57*%
X107550000Y-58000000D03*
X105650000Y-58000000D03*
%TD*%
%TO.C,R58*%
X103350000Y-94000000D03*
X101450000Y-94000000D03*
%TD*%
D31*
%TO.C,R59*%
X111400000Y-64960000D03*
X113300000Y-64960000D03*
%TD*%
%TO.C,R60*%
X102750000Y-96600000D03*
X104650000Y-96600000D03*
%TD*%
%TO.C,R61*%
X85050000Y-58100000D03*
X86950000Y-58100000D03*
%TD*%
D32*
%TO.C,R62*%
X86950000Y-60200000D03*
X85050000Y-60200000D03*
%TD*%
D31*
%TO.C,R63*%
X85050000Y-62300000D03*
X86950000Y-62300000D03*
%TD*%
%TO.C,R64*%
X104050000Y-77300000D03*
X105950000Y-77300000D03*
%TD*%
D32*
%TO.C,R65*%
X105950000Y-75300000D03*
X104050000Y-75300000D03*
%TD*%
%TO.C,R66*%
X108450000Y-70400000D03*
X106550000Y-70400000D03*
%TD*%
%TO.C,R85*%
X83900000Y-124250000D03*
X82000000Y-124250000D03*
%TD*%
D31*
%TO.C,R86*%
X82100000Y-121950000D03*
X84000000Y-121950000D03*
%TD*%
%TO.C,R87*%
X82150000Y-117450000D03*
X84050000Y-117450000D03*
%TD*%
%TO.C,R88*%
X93200000Y-117150000D03*
X95100000Y-117150000D03*
%TD*%
D32*
%TO.C,R89*%
X84100000Y-119500000D03*
X82200000Y-119500000D03*
%TD*%
%TO.C,R90*%
X95200000Y-115100000D03*
X93300000Y-115100000D03*
%TD*%
D33*
%TO.C,U1*%
X110350000Y-117470000D03*
D34*
X104050000Y-119750000D03*
D33*
X110350000Y-122030000D03*
%TD*%
%TO.C,U2*%
X110000000Y-127370000D03*
D34*
X103700000Y-129650000D03*
D33*
X110000000Y-131930000D03*
%TD*%
D35*
%TO.C,U3*%
X97090000Y-67000000D03*
X98360000Y-67000000D03*
X99630000Y-67000000D03*
X100900000Y-67000000D03*
X102170000Y-67000000D03*
X103440000Y-67000000D03*
X104710000Y-67000000D03*
X104710000Y-72400000D03*
X103440000Y-72400000D03*
X102170000Y-72400000D03*
X100900000Y-72400000D03*
X99630000Y-72400000D03*
X98360000Y-72400000D03*
X97090000Y-72400000D03*
%TD*%
%TO.C,U4*%
X88640000Y-54450000D03*
X89910000Y-54450000D03*
X91180000Y-54450000D03*
X92450000Y-54450000D03*
X93720000Y-54450000D03*
X94990000Y-54450000D03*
X96260000Y-54450000D03*
X96260000Y-59850000D03*
X94990000Y-59850000D03*
X93720000Y-59850000D03*
X92450000Y-59850000D03*
X91180000Y-59850000D03*
X89910000Y-59850000D03*
X88640000Y-59850000D03*
%TD*%
D36*
%TO.C,U5*%
X122560000Y-79300000D03*
X121290000Y-79300000D03*
X120020000Y-79300000D03*
X118750000Y-79300000D03*
X117480000Y-79300000D03*
X116210000Y-79300000D03*
X114940000Y-79300000D03*
X114940000Y-73900000D03*
X116210000Y-73900000D03*
X117480000Y-73900000D03*
X118750000Y-73900000D03*
X120020000Y-73900000D03*
X121290000Y-73900000D03*
X122560000Y-73900000D03*
%TD*%
D35*
%TO.C,U6*%
X81655000Y-68400000D03*
X82925000Y-68400000D03*
X84195000Y-68400000D03*
X85465000Y-68400000D03*
X86735000Y-68400000D03*
X88005000Y-68400000D03*
X89275000Y-68400000D03*
X90545000Y-68400000D03*
X90545000Y-73800000D03*
X89275000Y-73800000D03*
X88005000Y-73800000D03*
X86735000Y-73800000D03*
X85465000Y-73800000D03*
X84195000Y-73800000D03*
X82925000Y-73800000D03*
X81655000Y-73800000D03*
%TD*%
%TO.C,U7*%
X109555000Y-54400000D03*
X110825000Y-54400000D03*
X112095000Y-54400000D03*
X113365000Y-54400000D03*
X114635000Y-54400000D03*
X115905000Y-54400000D03*
X117175000Y-54400000D03*
X118445000Y-54400000D03*
X118445000Y-59800000D03*
X117175000Y-59800000D03*
X115905000Y-59800000D03*
X114635000Y-59800000D03*
X113365000Y-59800000D03*
X112095000Y-59800000D03*
X110825000Y-59800000D03*
X109555000Y-59800000D03*
%TD*%
%TO.C,U8*%
X101255000Y-85300000D03*
X102525000Y-85300000D03*
X103795000Y-85300000D03*
X105065000Y-85300000D03*
X106335000Y-85300000D03*
X107605000Y-85300000D03*
X108875000Y-85300000D03*
X110145000Y-85300000D03*
X110145000Y-90700000D03*
X108875000Y-90700000D03*
X107605000Y-90700000D03*
X106335000Y-90700000D03*
X105065000Y-90700000D03*
X103795000Y-90700000D03*
X102525000Y-90700000D03*
X101255000Y-90700000D03*
%TD*%
D36*
%TO.C,U9*%
X134410000Y-90100000D03*
X133140000Y-90100000D03*
X131870000Y-90100000D03*
X130600000Y-90100000D03*
X129330000Y-90100000D03*
X128060000Y-90100000D03*
X126790000Y-90100000D03*
X126790000Y-84700000D03*
X128060000Y-84700000D03*
X129330000Y-84700000D03*
X130600000Y-84700000D03*
X131870000Y-84700000D03*
X133140000Y-84700000D03*
X134410000Y-84700000D03*
%TD*%
%TO.C,U10*%
X93610000Y-125150000D03*
X92340000Y-125150000D03*
X91070000Y-125150000D03*
X89800000Y-125150000D03*
X88530000Y-125150000D03*
X87260000Y-125150000D03*
X85990000Y-125150000D03*
X85990000Y-119750000D03*
X87260000Y-119750000D03*
X88530000Y-119750000D03*
X89800000Y-119750000D03*
X91070000Y-119750000D03*
X92340000Y-119750000D03*
X93610000Y-119750000D03*
%TD*%
D37*
%TO.C,U11*%
X83250000Y-83000000D03*
X83750000Y-83000000D03*
X84250000Y-83000000D03*
X84750000Y-83000000D03*
X85250000Y-83000000D03*
X85750000Y-83000000D03*
X86250000Y-83000000D03*
X86750000Y-83000000D03*
X87250000Y-83000000D03*
X87750000Y-83000000D03*
X88250000Y-83000000D03*
X88750000Y-83000000D03*
X89250000Y-83000000D03*
X89750000Y-83000000D03*
X90250000Y-83000000D03*
X90750000Y-83000000D03*
D38*
X92700000Y-84950000D03*
X92700000Y-85450000D03*
X92700000Y-85950000D03*
X92700000Y-86450000D03*
X92700000Y-86950000D03*
X92700000Y-87450000D03*
X92700000Y-87950000D03*
X92700000Y-88450000D03*
X92700000Y-88950000D03*
X92700000Y-89450000D03*
X92700000Y-89950000D03*
X92700000Y-90450000D03*
X92700000Y-90950000D03*
X92700000Y-91450000D03*
X92700000Y-91950000D03*
X92700000Y-92450000D03*
D37*
X90750000Y-94400000D03*
X90250000Y-94400000D03*
X89750000Y-94400000D03*
X89250000Y-94400000D03*
X88750000Y-94400000D03*
X88250000Y-94400000D03*
X87750000Y-94400000D03*
X87250000Y-94400000D03*
X86750000Y-94400000D03*
X86250000Y-94400000D03*
X85750000Y-94400000D03*
X85250000Y-94400000D03*
X84750000Y-94400000D03*
X84250000Y-94400000D03*
X83750000Y-94400000D03*
X83250000Y-94400000D03*
D38*
X81300000Y-92450000D03*
X81300000Y-91950000D03*
X81300000Y-91450000D03*
X81300000Y-90950000D03*
X81300000Y-90450000D03*
X81300000Y-89950000D03*
X81300000Y-89450000D03*
X81300000Y-88950000D03*
X81300000Y-88450000D03*
X81300000Y-87950000D03*
X81300000Y-87450000D03*
X81300000Y-86950000D03*
X81300000Y-86450000D03*
X81300000Y-85950000D03*
X81300000Y-85450000D03*
X81300000Y-84950000D03*
%TD*%
D35*
%TO.C,U13*%
X60190000Y-106550000D03*
X61460000Y-106550000D03*
X62730000Y-106550000D03*
X64000000Y-106550000D03*
X65270000Y-106550000D03*
X66540000Y-106550000D03*
X67810000Y-106550000D03*
X67810000Y-111950000D03*
X66540000Y-111950000D03*
X65270000Y-111950000D03*
X64000000Y-111950000D03*
X62730000Y-111950000D03*
X61460000Y-111950000D03*
X60190000Y-111950000D03*
%TD*%
%TO.C,U14*%
X133990000Y-106000000D03*
X135260000Y-106000000D03*
X136530000Y-106000000D03*
X137800000Y-106000000D03*
X139070000Y-106000000D03*
X140340000Y-106000000D03*
X141610000Y-106000000D03*
X141610000Y-111400000D03*
X140340000Y-111400000D03*
X139070000Y-111400000D03*
X137800000Y-111400000D03*
X136530000Y-111400000D03*
X135260000Y-111400000D03*
X133990000Y-111400000D03*
%TD*%
D39*
%TO.C,Y1*%
X74400000Y-92600000D03*
X74400000Y-84100000D03*
%TD*%
D31*
%TO.C,R46*%
X125540000Y-57820000D03*
X127440000Y-57820000D03*
%TD*%
%TO.C,R52*%
X122230000Y-57820000D03*
X124130000Y-57820000D03*
%TD*%
%TO.C,R67*%
X122230000Y-64770000D03*
X124130000Y-64770000D03*
%TD*%
%TO.C,R68*%
X122270000Y-60100000D03*
X124170000Y-60100000D03*
%TD*%
%TO.C,R69*%
X118840000Y-67100000D03*
X120740000Y-67100000D03*
%TD*%
%TO.C,R70*%
X118930000Y-63770000D03*
X120830000Y-63770000D03*
%TD*%
D14*
%TO.C,J4*%
X140550000Y-146670000D03*
D15*
X140550000Y-144130000D03*
X140550000Y-141590000D03*
X140550000Y-139050000D03*
%TD*%
D14*
%TO.C,J5*%
X64570000Y-59570000D03*
D15*
X64570000Y-57030000D03*
X64570000Y-54490000D03*
X64570000Y-51950000D03*
%TD*%
D14*
%TO.C,J6*%
X64730000Y-143410000D03*
D15*
X64730000Y-140870000D03*
X64730000Y-138330000D03*
X64730000Y-135790000D03*
%TD*%
D14*
%TO.C,J7*%
X140570000Y-68980000D03*
D15*
X140570000Y-66440000D03*
X140570000Y-63900000D03*
X140570000Y-61360000D03*
%TD*%
D32*
%TO.C,R71*%
X93110000Y-100130000D03*
X91210000Y-100130000D03*
%TD*%
D40*
%TO.C,D8*%
X92797500Y-77330000D03*
X92797500Y-79230000D03*
X90922500Y-78280000D03*
%TD*%
%TO.C,D6*%
X91527500Y-107710000D03*
X91527500Y-109610000D03*
X89652500Y-108660000D03*
%TD*%
D41*
%TO.C,D3*%
X96385000Y-100220000D03*
X96385000Y-98320000D03*
X98260000Y-99270000D03*
%TD*%
D40*
%TO.C,D4*%
X94760000Y-70440000D03*
X94760000Y-72340000D03*
X92885000Y-71390000D03*
%TD*%
D41*
%TO.C,D5*%
X83982500Y-78570000D03*
X83982500Y-76670000D03*
X85857500Y-77620000D03*
%TD*%
%TO.C,D11*%
X122252500Y-95130000D03*
X122252500Y-93230000D03*
X124127500Y-94180000D03*
%TD*%
%TO.C,D9*%
X128952500Y-106750000D03*
X128952500Y-104850000D03*
X130827500Y-105800000D03*
%TD*%
%TO.C,D7*%
X101852500Y-100310000D03*
X101852500Y-98410000D03*
X103727500Y-99360000D03*
%TD*%
D40*
%TO.C,D10*%
X98227500Y-81640000D03*
X98227500Y-83540000D03*
X96352500Y-82590000D03*
%TD*%
G36*
X85415660Y-93867493D02*
G01*
X85429452Y-93876709D01*
X85430615Y-93874969D01*
X85432409Y-93874084D01*
X85433560Y-93874545D01*
X85450952Y-93889078D01*
X85519670Y-93897704D01*
X85567288Y-93874918D01*
X85569282Y-93875072D01*
X85569814Y-93875611D01*
X85570548Y-93876709D01*
X85584340Y-93867493D01*
X85586336Y-93867362D01*
X85587447Y-93869025D01*
X85587114Y-93870267D01*
X85579767Y-93881262D01*
X85576000Y-93900199D01*
X85576000Y-94899801D01*
X85579767Y-94918738D01*
X85587114Y-94929733D01*
X85587245Y-94931729D01*
X85585582Y-94932840D01*
X85584340Y-94932507D01*
X85570548Y-94923291D01*
X85569385Y-94925031D01*
X85567591Y-94925916D01*
X85566440Y-94925455D01*
X85549048Y-94910922D01*
X85480330Y-94902296D01*
X85432712Y-94925082D01*
X85430718Y-94924928D01*
X85430186Y-94924389D01*
X85429452Y-94923291D01*
X85415660Y-94932507D01*
X85413664Y-94932638D01*
X85412553Y-94930975D01*
X85412886Y-94929733D01*
X85420233Y-94918738D01*
X85424000Y-94899801D01*
X85424000Y-93900199D01*
X85420233Y-93881262D01*
X85412886Y-93870267D01*
X85412755Y-93868271D01*
X85414418Y-93867160D01*
X85415660Y-93867493D01*
G37*
G36*
X88915660Y-93867493D02*
G01*
X88929452Y-93876709D01*
X88930615Y-93874969D01*
X88932409Y-93874084D01*
X88933560Y-93874545D01*
X88950952Y-93889078D01*
X89019670Y-93897704D01*
X89067288Y-93874918D01*
X89069282Y-93875072D01*
X89069814Y-93875611D01*
X89070548Y-93876709D01*
X89084340Y-93867493D01*
X89086336Y-93867362D01*
X89087447Y-93869025D01*
X89087114Y-93870267D01*
X89079767Y-93881262D01*
X89076000Y-93900199D01*
X89076000Y-94899801D01*
X89079767Y-94918738D01*
X89087114Y-94929733D01*
X89087245Y-94931729D01*
X89085582Y-94932840D01*
X89084340Y-94932507D01*
X89070548Y-94923291D01*
X89069385Y-94925031D01*
X89067591Y-94925916D01*
X89066440Y-94925455D01*
X89049048Y-94910922D01*
X88980330Y-94902296D01*
X88932712Y-94925082D01*
X88930718Y-94924928D01*
X88930186Y-94924389D01*
X88929452Y-94923291D01*
X88915660Y-94932507D01*
X88913664Y-94932638D01*
X88912553Y-94930975D01*
X88912886Y-94929733D01*
X88920233Y-94918738D01*
X88924000Y-94899801D01*
X88924000Y-93900199D01*
X88920233Y-93881262D01*
X88912886Y-93870267D01*
X88912755Y-93868271D01*
X88914418Y-93867160D01*
X88915660Y-93867493D01*
G37*
G36*
X87915660Y-93867493D02*
G01*
X87929452Y-93876709D01*
X87930615Y-93874969D01*
X87932409Y-93874084D01*
X87933560Y-93874545D01*
X87950952Y-93889078D01*
X88019670Y-93897704D01*
X88067288Y-93874918D01*
X88069282Y-93875072D01*
X88069814Y-93875611D01*
X88070548Y-93876709D01*
X88084340Y-93867493D01*
X88086336Y-93867362D01*
X88087447Y-93869025D01*
X88087114Y-93870267D01*
X88079767Y-93881262D01*
X88076000Y-93900199D01*
X88076000Y-94899801D01*
X88079767Y-94918738D01*
X88087114Y-94929733D01*
X88087245Y-94931729D01*
X88085582Y-94932840D01*
X88084340Y-94932507D01*
X88070548Y-94923291D01*
X88069385Y-94925031D01*
X88067591Y-94925916D01*
X88066440Y-94925455D01*
X88049048Y-94910922D01*
X87980330Y-94902296D01*
X87932712Y-94925082D01*
X87930718Y-94924928D01*
X87930186Y-94924389D01*
X87929452Y-94923291D01*
X87915660Y-94932507D01*
X87913664Y-94932638D01*
X87912553Y-94930975D01*
X87912886Y-94929733D01*
X87920233Y-94918738D01*
X87924000Y-94899801D01*
X87924000Y-93900199D01*
X87920233Y-93881262D01*
X87912886Y-93870267D01*
X87912755Y-93868271D01*
X87914418Y-93867160D01*
X87915660Y-93867493D01*
G37*
G36*
X89415660Y-93867493D02*
G01*
X89429452Y-93876709D01*
X89430615Y-93874969D01*
X89432409Y-93874084D01*
X89433560Y-93874545D01*
X89450952Y-93889078D01*
X89519670Y-93897704D01*
X89567288Y-93874918D01*
X89569282Y-93875072D01*
X89569814Y-93875611D01*
X89570548Y-93876709D01*
X89584340Y-93867493D01*
X89586336Y-93867362D01*
X89587447Y-93869025D01*
X89587114Y-93870267D01*
X89579767Y-93881262D01*
X89576000Y-93900199D01*
X89576000Y-94899801D01*
X89579767Y-94918738D01*
X89587114Y-94929733D01*
X89587245Y-94931729D01*
X89585582Y-94932840D01*
X89584340Y-94932507D01*
X89570548Y-94923291D01*
X89569385Y-94925031D01*
X89567591Y-94925916D01*
X89566440Y-94925455D01*
X89549048Y-94910922D01*
X89480330Y-94902296D01*
X89432712Y-94925082D01*
X89430718Y-94924928D01*
X89430186Y-94924389D01*
X89429452Y-94923291D01*
X89415660Y-94932507D01*
X89413664Y-94932638D01*
X89412553Y-94930975D01*
X89412886Y-94929733D01*
X89420233Y-94918738D01*
X89424000Y-94899801D01*
X89424000Y-93900199D01*
X89420233Y-93881262D01*
X89412886Y-93870267D01*
X89412755Y-93868271D01*
X89414418Y-93867160D01*
X89415660Y-93867493D01*
G37*
G36*
X90415660Y-93867493D02*
G01*
X90429452Y-93876709D01*
X90430615Y-93874969D01*
X90432409Y-93874084D01*
X90433560Y-93874545D01*
X90450952Y-93889078D01*
X90519670Y-93897704D01*
X90567288Y-93874918D01*
X90569282Y-93875072D01*
X90569814Y-93875611D01*
X90570548Y-93876709D01*
X90584340Y-93867493D01*
X90586336Y-93867362D01*
X90587447Y-93869025D01*
X90587114Y-93870267D01*
X90579767Y-93881262D01*
X90576000Y-93900199D01*
X90576000Y-94899801D01*
X90579767Y-94918738D01*
X90587114Y-94929733D01*
X90587245Y-94931729D01*
X90585582Y-94932840D01*
X90584340Y-94932507D01*
X90570548Y-94923291D01*
X90569385Y-94925031D01*
X90567591Y-94925916D01*
X90566440Y-94925455D01*
X90549048Y-94910922D01*
X90480330Y-94902296D01*
X90432712Y-94925082D01*
X90430718Y-94924928D01*
X90430186Y-94924389D01*
X90429452Y-94923291D01*
X90415660Y-94932507D01*
X90413664Y-94932638D01*
X90412553Y-94930975D01*
X90412886Y-94929733D01*
X90420233Y-94918738D01*
X90424000Y-94899801D01*
X90424000Y-93900199D01*
X90420233Y-93881262D01*
X90412886Y-93870267D01*
X90412755Y-93868271D01*
X90414418Y-93867160D01*
X90415660Y-93867493D01*
G37*
G36*
X88415660Y-93867493D02*
G01*
X88429452Y-93876709D01*
X88430615Y-93874969D01*
X88432409Y-93874084D01*
X88433560Y-93874545D01*
X88450952Y-93889078D01*
X88519670Y-93897704D01*
X88567288Y-93874918D01*
X88569282Y-93875072D01*
X88569814Y-93875611D01*
X88570548Y-93876709D01*
X88584340Y-93867493D01*
X88586336Y-93867362D01*
X88587447Y-93869025D01*
X88587114Y-93870267D01*
X88579767Y-93881262D01*
X88576000Y-93900199D01*
X88576000Y-94899801D01*
X88579767Y-94918738D01*
X88587114Y-94929733D01*
X88587245Y-94931729D01*
X88585582Y-94932840D01*
X88584340Y-94932507D01*
X88570548Y-94923291D01*
X88569385Y-94925031D01*
X88567591Y-94925916D01*
X88566440Y-94925455D01*
X88549048Y-94910922D01*
X88480330Y-94902296D01*
X88432712Y-94925082D01*
X88430718Y-94924928D01*
X88430186Y-94924389D01*
X88429452Y-94923291D01*
X88415660Y-94932507D01*
X88413664Y-94932638D01*
X88412553Y-94930975D01*
X88412886Y-94929733D01*
X88420233Y-94918738D01*
X88424000Y-94899801D01*
X88424000Y-93900199D01*
X88420233Y-93881262D01*
X88412886Y-93870267D01*
X88412755Y-93868271D01*
X88414418Y-93867160D01*
X88415660Y-93867493D01*
G37*
G36*
X85915660Y-93867493D02*
G01*
X85929452Y-93876709D01*
X85930615Y-93874969D01*
X85932409Y-93874084D01*
X85933560Y-93874545D01*
X85950952Y-93889078D01*
X86019670Y-93897704D01*
X86067288Y-93874918D01*
X86069282Y-93875072D01*
X86069814Y-93875611D01*
X86070548Y-93876709D01*
X86084340Y-93867493D01*
X86086336Y-93867362D01*
X86087447Y-93869025D01*
X86087114Y-93870267D01*
X86079767Y-93881262D01*
X86076000Y-93900199D01*
X86076000Y-94899801D01*
X86079767Y-94918738D01*
X86087114Y-94929733D01*
X86087245Y-94931729D01*
X86085582Y-94932840D01*
X86084340Y-94932507D01*
X86070548Y-94923291D01*
X86069385Y-94925031D01*
X86067591Y-94925916D01*
X86066440Y-94925455D01*
X86049048Y-94910922D01*
X85980330Y-94902296D01*
X85932712Y-94925082D01*
X85930718Y-94924928D01*
X85930186Y-94924389D01*
X85929452Y-94923291D01*
X85915660Y-94932507D01*
X85913664Y-94932638D01*
X85912553Y-94930975D01*
X85912886Y-94929733D01*
X85920233Y-94918738D01*
X85924000Y-94899801D01*
X85924000Y-93900199D01*
X85920233Y-93881262D01*
X85912886Y-93870267D01*
X85912755Y-93868271D01*
X85914418Y-93867160D01*
X85915660Y-93867493D01*
G37*
G36*
X84415660Y-93867493D02*
G01*
X84429452Y-93876709D01*
X84430615Y-93874969D01*
X84432409Y-93874084D01*
X84433560Y-93874545D01*
X84450952Y-93889078D01*
X84519670Y-93897704D01*
X84567288Y-93874918D01*
X84569282Y-93875072D01*
X84569814Y-93875611D01*
X84570548Y-93876709D01*
X84584340Y-93867493D01*
X84586336Y-93867362D01*
X84587447Y-93869025D01*
X84587114Y-93870267D01*
X84579767Y-93881262D01*
X84576000Y-93900199D01*
X84576000Y-94899801D01*
X84579767Y-94918738D01*
X84587114Y-94929733D01*
X84587245Y-94931729D01*
X84585582Y-94932840D01*
X84584340Y-94932507D01*
X84570548Y-94923291D01*
X84569385Y-94925031D01*
X84567591Y-94925916D01*
X84566440Y-94925455D01*
X84549048Y-94910922D01*
X84480330Y-94902296D01*
X84432712Y-94925082D01*
X84430718Y-94924928D01*
X84430186Y-94924389D01*
X84429452Y-94923291D01*
X84415660Y-94932507D01*
X84413664Y-94932638D01*
X84412553Y-94930975D01*
X84412886Y-94929733D01*
X84420233Y-94918738D01*
X84424000Y-94899801D01*
X84424000Y-93900199D01*
X84420233Y-93881262D01*
X84412886Y-93870267D01*
X84412755Y-93868271D01*
X84414418Y-93867160D01*
X84415660Y-93867493D01*
G37*
G36*
X87415660Y-93867493D02*
G01*
X87429452Y-93876709D01*
X87430615Y-93874969D01*
X87432409Y-93874084D01*
X87433560Y-93874545D01*
X87450952Y-93889078D01*
X87519670Y-93897704D01*
X87567288Y-93874918D01*
X87569282Y-93875072D01*
X87569814Y-93875611D01*
X87570548Y-93876709D01*
X87584340Y-93867493D01*
X87586336Y-93867362D01*
X87587447Y-93869025D01*
X87587114Y-93870267D01*
X87579767Y-93881262D01*
X87576000Y-93900199D01*
X87576000Y-94899801D01*
X87579767Y-94918738D01*
X87587114Y-94929733D01*
X87587245Y-94931729D01*
X87585582Y-94932840D01*
X87584340Y-94932507D01*
X87570548Y-94923291D01*
X87569385Y-94925031D01*
X87567591Y-94925916D01*
X87566440Y-94925455D01*
X87549048Y-94910922D01*
X87480330Y-94902296D01*
X87432712Y-94925082D01*
X87430718Y-94924928D01*
X87430186Y-94924389D01*
X87429452Y-94923291D01*
X87415660Y-94932507D01*
X87413664Y-94932638D01*
X87412553Y-94930975D01*
X87412886Y-94929733D01*
X87420233Y-94918738D01*
X87424000Y-94899801D01*
X87424000Y-93900199D01*
X87420233Y-93881262D01*
X87412886Y-93870267D01*
X87412755Y-93868271D01*
X87414418Y-93867160D01*
X87415660Y-93867493D01*
G37*
G36*
X83415660Y-93867493D02*
G01*
X83429452Y-93876709D01*
X83430615Y-93874969D01*
X83432409Y-93874084D01*
X83433560Y-93874545D01*
X83450952Y-93889078D01*
X83519670Y-93897704D01*
X83567288Y-93874918D01*
X83569282Y-93875072D01*
X83569814Y-93875611D01*
X83570548Y-93876709D01*
X83584340Y-93867493D01*
X83586336Y-93867362D01*
X83587447Y-93869025D01*
X83587114Y-93870267D01*
X83579767Y-93881262D01*
X83576000Y-93900199D01*
X83576000Y-94899801D01*
X83579767Y-94918738D01*
X83587114Y-94929733D01*
X83587245Y-94931729D01*
X83585582Y-94932840D01*
X83584340Y-94932507D01*
X83570548Y-94923291D01*
X83569385Y-94925031D01*
X83567591Y-94925916D01*
X83566440Y-94925455D01*
X83549048Y-94910922D01*
X83480330Y-94902296D01*
X83432712Y-94925082D01*
X83430718Y-94924928D01*
X83430186Y-94924389D01*
X83429452Y-94923291D01*
X83415660Y-94932507D01*
X83413664Y-94932638D01*
X83412553Y-94930975D01*
X83412886Y-94929733D01*
X83420233Y-94918738D01*
X83424000Y-94899801D01*
X83424000Y-93900199D01*
X83420233Y-93881262D01*
X83412886Y-93870267D01*
X83412755Y-93868271D01*
X83414418Y-93867160D01*
X83415660Y-93867493D01*
G37*
G36*
X89915660Y-93867493D02*
G01*
X89929452Y-93876709D01*
X89930615Y-93874969D01*
X89932409Y-93874084D01*
X89933560Y-93874545D01*
X89950952Y-93889078D01*
X90019670Y-93897704D01*
X90067288Y-93874918D01*
X90069282Y-93875072D01*
X90069814Y-93875611D01*
X90070548Y-93876709D01*
X90084340Y-93867493D01*
X90086336Y-93867362D01*
X90087447Y-93869025D01*
X90087114Y-93870267D01*
X90079767Y-93881262D01*
X90076000Y-93900199D01*
X90076000Y-94899801D01*
X90079767Y-94918738D01*
X90087114Y-94929733D01*
X90087245Y-94931729D01*
X90085582Y-94932840D01*
X90084340Y-94932507D01*
X90070548Y-94923291D01*
X90069385Y-94925031D01*
X90067591Y-94925916D01*
X90066440Y-94925455D01*
X90049048Y-94910922D01*
X89980330Y-94902296D01*
X89932712Y-94925082D01*
X89930718Y-94924928D01*
X89930186Y-94924389D01*
X89929452Y-94923291D01*
X89915660Y-94932507D01*
X89913664Y-94932638D01*
X89912553Y-94930975D01*
X89912886Y-94929733D01*
X89920233Y-94918738D01*
X89924000Y-94899801D01*
X89924000Y-93900199D01*
X89920233Y-93881262D01*
X89912886Y-93870267D01*
X89912755Y-93868271D01*
X89914418Y-93867160D01*
X89915660Y-93867493D01*
G37*
G36*
X84915660Y-93867493D02*
G01*
X84929452Y-93876709D01*
X84930615Y-93874969D01*
X84932409Y-93874084D01*
X84933560Y-93874545D01*
X84950952Y-93889078D01*
X85019670Y-93897704D01*
X85067288Y-93874918D01*
X85069282Y-93875072D01*
X85069814Y-93875611D01*
X85070548Y-93876709D01*
X85084340Y-93867493D01*
X85086336Y-93867362D01*
X85087447Y-93869025D01*
X85087114Y-93870267D01*
X85079767Y-93881262D01*
X85076000Y-93900199D01*
X85076000Y-94899801D01*
X85079767Y-94918738D01*
X85087114Y-94929733D01*
X85087245Y-94931729D01*
X85085582Y-94932840D01*
X85084340Y-94932507D01*
X85070548Y-94923291D01*
X85069385Y-94925031D01*
X85067591Y-94925916D01*
X85066440Y-94925455D01*
X85049048Y-94910922D01*
X84980330Y-94902296D01*
X84932712Y-94925082D01*
X84930718Y-94924928D01*
X84930186Y-94924389D01*
X84929452Y-94923291D01*
X84915660Y-94932507D01*
X84913664Y-94932638D01*
X84912553Y-94930975D01*
X84912886Y-94929733D01*
X84920233Y-94918738D01*
X84924000Y-94899801D01*
X84924000Y-93900199D01*
X84920233Y-93881262D01*
X84912886Y-93870267D01*
X84912755Y-93868271D01*
X84914418Y-93867160D01*
X84915660Y-93867493D01*
G37*
G36*
X86915660Y-93867493D02*
G01*
X86929452Y-93876709D01*
X86930615Y-93874969D01*
X86932409Y-93874084D01*
X86933560Y-93874545D01*
X86950952Y-93889078D01*
X87019670Y-93897704D01*
X87067288Y-93874918D01*
X87069282Y-93875072D01*
X87069814Y-93875611D01*
X87070548Y-93876709D01*
X87084340Y-93867493D01*
X87086336Y-93867362D01*
X87087447Y-93869025D01*
X87087114Y-93870267D01*
X87079767Y-93881262D01*
X87076000Y-93900199D01*
X87076000Y-94899801D01*
X87079767Y-94918738D01*
X87087114Y-94929733D01*
X87087245Y-94931729D01*
X87085582Y-94932840D01*
X87084340Y-94932507D01*
X87070548Y-94923291D01*
X87069385Y-94925031D01*
X87067591Y-94925916D01*
X87066440Y-94925455D01*
X87049048Y-94910922D01*
X86980330Y-94902296D01*
X86932712Y-94925082D01*
X86930718Y-94924928D01*
X86930186Y-94924389D01*
X86929452Y-94923291D01*
X86915660Y-94932507D01*
X86913664Y-94932638D01*
X86912553Y-94930975D01*
X86912886Y-94929733D01*
X86920233Y-94918738D01*
X86924000Y-94899801D01*
X86924000Y-93900199D01*
X86920233Y-93881262D01*
X86912886Y-93870267D01*
X86912755Y-93868271D01*
X86914418Y-93867160D01*
X86915660Y-93867493D01*
G37*
G36*
X86415660Y-93867493D02*
G01*
X86429452Y-93876709D01*
X86430615Y-93874969D01*
X86432409Y-93874084D01*
X86433560Y-93874545D01*
X86450952Y-93889078D01*
X86519670Y-93897704D01*
X86567288Y-93874918D01*
X86569282Y-93875072D01*
X86569814Y-93875611D01*
X86570548Y-93876709D01*
X86584340Y-93867493D01*
X86586336Y-93867362D01*
X86587447Y-93869025D01*
X86587114Y-93870267D01*
X86579767Y-93881262D01*
X86576000Y-93900199D01*
X86576000Y-94899801D01*
X86579767Y-94918738D01*
X86587114Y-94929733D01*
X86587245Y-94931729D01*
X86585582Y-94932840D01*
X86584340Y-94932507D01*
X86570548Y-94923291D01*
X86569385Y-94925031D01*
X86567591Y-94925916D01*
X86566440Y-94925455D01*
X86549048Y-94910922D01*
X86480330Y-94902296D01*
X86432712Y-94925082D01*
X86430718Y-94924928D01*
X86430186Y-94924389D01*
X86429452Y-94923291D01*
X86415660Y-94932507D01*
X86413664Y-94932638D01*
X86412553Y-94930975D01*
X86412886Y-94929733D01*
X86420233Y-94918738D01*
X86424000Y-94899801D01*
X86424000Y-93900199D01*
X86420233Y-93881262D01*
X86412886Y-93870267D01*
X86412755Y-93868271D01*
X86414418Y-93867160D01*
X86415660Y-93867493D01*
G37*
G36*
X83915660Y-93867493D02*
G01*
X83929452Y-93876709D01*
X83930615Y-93874969D01*
X83932409Y-93874084D01*
X83933560Y-93874545D01*
X83950952Y-93889078D01*
X84019670Y-93897704D01*
X84067288Y-93874918D01*
X84069282Y-93875072D01*
X84069814Y-93875611D01*
X84070548Y-93876709D01*
X84084340Y-93867493D01*
X84086336Y-93867362D01*
X84087447Y-93869025D01*
X84087114Y-93870267D01*
X84079767Y-93881262D01*
X84076000Y-93900199D01*
X84076000Y-94899801D01*
X84079767Y-94918738D01*
X84087114Y-94929733D01*
X84087245Y-94931729D01*
X84085582Y-94932840D01*
X84084340Y-94932507D01*
X84070548Y-94923291D01*
X84069385Y-94925031D01*
X84067591Y-94925916D01*
X84066440Y-94925455D01*
X84049048Y-94910922D01*
X83980330Y-94902296D01*
X83932712Y-94925082D01*
X83930718Y-94924928D01*
X83930186Y-94924389D01*
X83929452Y-94923291D01*
X83915660Y-94932507D01*
X83913664Y-94932638D01*
X83912553Y-94930975D01*
X83912886Y-94929733D01*
X83920233Y-94918738D01*
X83924000Y-94899801D01*
X83924000Y-93900199D01*
X83920233Y-93881262D01*
X83912886Y-93870267D01*
X83912755Y-93868271D01*
X83914418Y-93867160D01*
X83915660Y-93867493D01*
G37*
G36*
X92170267Y-92112886D02*
G01*
X92181262Y-92120233D01*
X92200199Y-92124000D01*
X93199801Y-92124000D01*
X93218738Y-92120233D01*
X93229733Y-92112886D01*
X93231729Y-92112755D01*
X93232840Y-92114418D01*
X93232507Y-92115660D01*
X93223291Y-92129452D01*
X93225031Y-92130615D01*
X93225916Y-92132409D01*
X93225455Y-92133560D01*
X93210922Y-92150952D01*
X93202296Y-92219670D01*
X93225082Y-92267288D01*
X93224928Y-92269282D01*
X93224389Y-92269814D01*
X93223291Y-92270548D01*
X93232507Y-92284340D01*
X93232638Y-92286336D01*
X93230975Y-92287447D01*
X93229733Y-92287114D01*
X93218738Y-92279767D01*
X93199801Y-92276000D01*
X92200199Y-92276000D01*
X92181262Y-92279767D01*
X92170267Y-92287114D01*
X92168271Y-92287245D01*
X92167160Y-92285582D01*
X92167493Y-92284340D01*
X92176709Y-92270548D01*
X92174969Y-92269385D01*
X92174084Y-92267591D01*
X92174545Y-92266440D01*
X92189078Y-92249048D01*
X92197704Y-92180330D01*
X92174918Y-92132712D01*
X92175072Y-92130718D01*
X92175611Y-92130186D01*
X92176709Y-92129452D01*
X92167493Y-92115660D01*
X92167362Y-92113664D01*
X92169025Y-92112553D01*
X92170267Y-92112886D01*
G37*
G36*
X80770267Y-92112886D02*
G01*
X80781262Y-92120233D01*
X80800199Y-92124000D01*
X81799801Y-92124000D01*
X81818738Y-92120233D01*
X81829733Y-92112886D01*
X81831729Y-92112755D01*
X81832840Y-92114418D01*
X81832507Y-92115660D01*
X81823291Y-92129452D01*
X81825031Y-92130615D01*
X81825916Y-92132409D01*
X81825455Y-92133560D01*
X81810922Y-92150952D01*
X81802296Y-92219670D01*
X81825082Y-92267288D01*
X81824928Y-92269282D01*
X81824389Y-92269814D01*
X81823291Y-92270548D01*
X81832507Y-92284340D01*
X81832638Y-92286336D01*
X81830975Y-92287447D01*
X81829733Y-92287114D01*
X81818738Y-92279767D01*
X81799801Y-92276000D01*
X80800199Y-92276000D01*
X80781262Y-92279767D01*
X80770267Y-92287114D01*
X80768271Y-92287245D01*
X80767160Y-92285582D01*
X80767493Y-92284340D01*
X80776709Y-92270548D01*
X80774969Y-92269385D01*
X80774084Y-92267591D01*
X80774545Y-92266440D01*
X80789078Y-92249048D01*
X80797704Y-92180330D01*
X80774918Y-92132712D01*
X80775072Y-92130718D01*
X80775611Y-92130186D01*
X80776709Y-92129452D01*
X80767493Y-92115660D01*
X80767362Y-92113664D01*
X80769025Y-92112553D01*
X80770267Y-92112886D01*
G37*
G36*
X92170267Y-91612886D02*
G01*
X92181262Y-91620233D01*
X92200199Y-91624000D01*
X93199801Y-91624000D01*
X93218738Y-91620233D01*
X93229733Y-91612886D01*
X93231729Y-91612755D01*
X93232840Y-91614418D01*
X93232507Y-91615660D01*
X93223291Y-91629452D01*
X93225031Y-91630615D01*
X93225916Y-91632409D01*
X93225455Y-91633560D01*
X93210922Y-91650952D01*
X93202296Y-91719670D01*
X93225082Y-91767288D01*
X93224928Y-91769282D01*
X93224389Y-91769814D01*
X93223291Y-91770548D01*
X93232507Y-91784340D01*
X93232638Y-91786336D01*
X93230975Y-91787447D01*
X93229733Y-91787114D01*
X93218738Y-91779767D01*
X93199801Y-91776000D01*
X92200199Y-91776000D01*
X92181262Y-91779767D01*
X92170267Y-91787114D01*
X92168271Y-91787245D01*
X92167160Y-91785582D01*
X92167493Y-91784340D01*
X92176709Y-91770548D01*
X92174969Y-91769385D01*
X92174084Y-91767591D01*
X92174545Y-91766440D01*
X92189078Y-91749048D01*
X92197704Y-91680330D01*
X92174918Y-91632712D01*
X92175072Y-91630718D01*
X92175611Y-91630186D01*
X92176709Y-91629452D01*
X92167493Y-91615660D01*
X92167362Y-91613664D01*
X92169025Y-91612553D01*
X92170267Y-91612886D01*
G37*
G36*
X80770267Y-91612886D02*
G01*
X80781262Y-91620233D01*
X80800199Y-91624000D01*
X81799801Y-91624000D01*
X81818738Y-91620233D01*
X81829733Y-91612886D01*
X81831729Y-91612755D01*
X81832840Y-91614418D01*
X81832507Y-91615660D01*
X81823291Y-91629452D01*
X81825031Y-91630615D01*
X81825916Y-91632409D01*
X81825455Y-91633560D01*
X81810922Y-91650952D01*
X81802296Y-91719670D01*
X81825082Y-91767288D01*
X81824928Y-91769282D01*
X81824389Y-91769814D01*
X81823291Y-91770548D01*
X81832507Y-91784340D01*
X81832638Y-91786336D01*
X81830975Y-91787447D01*
X81829733Y-91787114D01*
X81818738Y-91779767D01*
X81799801Y-91776000D01*
X80800199Y-91776000D01*
X80781262Y-91779767D01*
X80770267Y-91787114D01*
X80768271Y-91787245D01*
X80767160Y-91785582D01*
X80767493Y-91784340D01*
X80776709Y-91770548D01*
X80774969Y-91769385D01*
X80774084Y-91767591D01*
X80774545Y-91766440D01*
X80789078Y-91749048D01*
X80797704Y-91680330D01*
X80774918Y-91632712D01*
X80775072Y-91630718D01*
X80775611Y-91630186D01*
X80776709Y-91629452D01*
X80767493Y-91615660D01*
X80767362Y-91613664D01*
X80769025Y-91612553D01*
X80770267Y-91612886D01*
G37*
G36*
X80770267Y-91112886D02*
G01*
X80781262Y-91120233D01*
X80800199Y-91124000D01*
X81799801Y-91124000D01*
X81818738Y-91120233D01*
X81829733Y-91112886D01*
X81831729Y-91112755D01*
X81832840Y-91114418D01*
X81832507Y-91115660D01*
X81823291Y-91129452D01*
X81825031Y-91130615D01*
X81825916Y-91132409D01*
X81825455Y-91133560D01*
X81810922Y-91150952D01*
X81802296Y-91219670D01*
X81825082Y-91267288D01*
X81824928Y-91269282D01*
X81824389Y-91269814D01*
X81823291Y-91270548D01*
X81832507Y-91284340D01*
X81832638Y-91286336D01*
X81830975Y-91287447D01*
X81829733Y-91287114D01*
X81818738Y-91279767D01*
X81799801Y-91276000D01*
X80800199Y-91276000D01*
X80781262Y-91279767D01*
X80770267Y-91287114D01*
X80768271Y-91287245D01*
X80767160Y-91285582D01*
X80767493Y-91284340D01*
X80776709Y-91270548D01*
X80774969Y-91269385D01*
X80774084Y-91267591D01*
X80774545Y-91266440D01*
X80789078Y-91249048D01*
X80797704Y-91180330D01*
X80774918Y-91132712D01*
X80775072Y-91130718D01*
X80775611Y-91130186D01*
X80776709Y-91129452D01*
X80767493Y-91115660D01*
X80767362Y-91113664D01*
X80769025Y-91112553D01*
X80770267Y-91112886D01*
G37*
G36*
X92170267Y-91112886D02*
G01*
X92181262Y-91120233D01*
X92200199Y-91124000D01*
X93199801Y-91124000D01*
X93218738Y-91120233D01*
X93229733Y-91112886D01*
X93231729Y-91112755D01*
X93232840Y-91114418D01*
X93232507Y-91115660D01*
X93223291Y-91129452D01*
X93225031Y-91130615D01*
X93225916Y-91132409D01*
X93225455Y-91133560D01*
X93210922Y-91150952D01*
X93202296Y-91219670D01*
X93225082Y-91267288D01*
X93224928Y-91269282D01*
X93224389Y-91269814D01*
X93223291Y-91270548D01*
X93232507Y-91284340D01*
X93232638Y-91286336D01*
X93230975Y-91287447D01*
X93229733Y-91287114D01*
X93218738Y-91279767D01*
X93199801Y-91276000D01*
X92200199Y-91276000D01*
X92181262Y-91279767D01*
X92170267Y-91287114D01*
X92168271Y-91287245D01*
X92167160Y-91285582D01*
X92167493Y-91284340D01*
X92176709Y-91270548D01*
X92174969Y-91269385D01*
X92174084Y-91267591D01*
X92174545Y-91266440D01*
X92189078Y-91249048D01*
X92197704Y-91180330D01*
X92174918Y-91132712D01*
X92175072Y-91130718D01*
X92175611Y-91130186D01*
X92176709Y-91129452D01*
X92167493Y-91115660D01*
X92167362Y-91113664D01*
X92169025Y-91112553D01*
X92170267Y-91112886D01*
G37*
G36*
X92170267Y-90612886D02*
G01*
X92181262Y-90620233D01*
X92200199Y-90624000D01*
X93199801Y-90624000D01*
X93218738Y-90620233D01*
X93229733Y-90612886D01*
X93231729Y-90612755D01*
X93232840Y-90614418D01*
X93232507Y-90615660D01*
X93223291Y-90629452D01*
X93225031Y-90630615D01*
X93225916Y-90632409D01*
X93225455Y-90633560D01*
X93210922Y-90650952D01*
X93202296Y-90719670D01*
X93225082Y-90767288D01*
X93224928Y-90769282D01*
X93224389Y-90769814D01*
X93223291Y-90770548D01*
X93232507Y-90784340D01*
X93232638Y-90786336D01*
X93230975Y-90787447D01*
X93229733Y-90787114D01*
X93218738Y-90779767D01*
X93199801Y-90776000D01*
X92200199Y-90776000D01*
X92181262Y-90779767D01*
X92170267Y-90787114D01*
X92168271Y-90787245D01*
X92167160Y-90785582D01*
X92167493Y-90784340D01*
X92176709Y-90770548D01*
X92174969Y-90769385D01*
X92174084Y-90767591D01*
X92174545Y-90766440D01*
X92189078Y-90749048D01*
X92197704Y-90680330D01*
X92174918Y-90632712D01*
X92175072Y-90630718D01*
X92175611Y-90630186D01*
X92176709Y-90629452D01*
X92167493Y-90615660D01*
X92167362Y-90613664D01*
X92169025Y-90612553D01*
X92170267Y-90612886D01*
G37*
G36*
X80770267Y-90612886D02*
G01*
X80781262Y-90620233D01*
X80800199Y-90624000D01*
X81799801Y-90624000D01*
X81818738Y-90620233D01*
X81829733Y-90612886D01*
X81831729Y-90612755D01*
X81832840Y-90614418D01*
X81832507Y-90615660D01*
X81823291Y-90629452D01*
X81825031Y-90630615D01*
X81825916Y-90632409D01*
X81825455Y-90633560D01*
X81810922Y-90650952D01*
X81802296Y-90719670D01*
X81825082Y-90767288D01*
X81824928Y-90769282D01*
X81824389Y-90769814D01*
X81823291Y-90770548D01*
X81832507Y-90784340D01*
X81832638Y-90786336D01*
X81830975Y-90787447D01*
X81829733Y-90787114D01*
X81818738Y-90779767D01*
X81799801Y-90776000D01*
X80800199Y-90776000D01*
X80781262Y-90779767D01*
X80770267Y-90787114D01*
X80768271Y-90787245D01*
X80767160Y-90785582D01*
X80767493Y-90784340D01*
X80776709Y-90770548D01*
X80774969Y-90769385D01*
X80774084Y-90767591D01*
X80774545Y-90766440D01*
X80789078Y-90749048D01*
X80797704Y-90680330D01*
X80774918Y-90632712D01*
X80775072Y-90630718D01*
X80775611Y-90630186D01*
X80776709Y-90629452D01*
X80767493Y-90615660D01*
X80767362Y-90613664D01*
X80769025Y-90612553D01*
X80770267Y-90612886D01*
G37*
G36*
X92170267Y-90112886D02*
G01*
X92181262Y-90120233D01*
X92200199Y-90124000D01*
X93199801Y-90124000D01*
X93218738Y-90120233D01*
X93229733Y-90112886D01*
X93231729Y-90112755D01*
X93232840Y-90114418D01*
X93232507Y-90115660D01*
X93223291Y-90129452D01*
X93225031Y-90130615D01*
X93225916Y-90132409D01*
X93225455Y-90133560D01*
X93210922Y-90150952D01*
X93202296Y-90219670D01*
X93225082Y-90267288D01*
X93224928Y-90269282D01*
X93224389Y-90269814D01*
X93223291Y-90270548D01*
X93232507Y-90284340D01*
X93232638Y-90286336D01*
X93230975Y-90287447D01*
X93229733Y-90287114D01*
X93218738Y-90279767D01*
X93199801Y-90276000D01*
X92200199Y-90276000D01*
X92181262Y-90279767D01*
X92170267Y-90287114D01*
X92168271Y-90287245D01*
X92167160Y-90285582D01*
X92167493Y-90284340D01*
X92176709Y-90270548D01*
X92174969Y-90269385D01*
X92174084Y-90267591D01*
X92174545Y-90266440D01*
X92189078Y-90249048D01*
X92197704Y-90180330D01*
X92174918Y-90132712D01*
X92175072Y-90130718D01*
X92175611Y-90130186D01*
X92176709Y-90129452D01*
X92167493Y-90115660D01*
X92167362Y-90113664D01*
X92169025Y-90112553D01*
X92170267Y-90112886D01*
G37*
G36*
X80770267Y-90112886D02*
G01*
X80781262Y-90120233D01*
X80800199Y-90124000D01*
X81799801Y-90124000D01*
X81818738Y-90120233D01*
X81829733Y-90112886D01*
X81831729Y-90112755D01*
X81832840Y-90114418D01*
X81832507Y-90115660D01*
X81823291Y-90129452D01*
X81825031Y-90130615D01*
X81825916Y-90132409D01*
X81825455Y-90133560D01*
X81810922Y-90150952D01*
X81802296Y-90219670D01*
X81825082Y-90267288D01*
X81824928Y-90269282D01*
X81824389Y-90269814D01*
X81823291Y-90270548D01*
X81832507Y-90284340D01*
X81832638Y-90286336D01*
X81830975Y-90287447D01*
X81829733Y-90287114D01*
X81818738Y-90279767D01*
X81799801Y-90276000D01*
X80800199Y-90276000D01*
X80781262Y-90279767D01*
X80770267Y-90287114D01*
X80768271Y-90287245D01*
X80767160Y-90285582D01*
X80767493Y-90284340D01*
X80776709Y-90270548D01*
X80774969Y-90269385D01*
X80774084Y-90267591D01*
X80774545Y-90266440D01*
X80789078Y-90249048D01*
X80797704Y-90180330D01*
X80774918Y-90132712D01*
X80775072Y-90130718D01*
X80775611Y-90130186D01*
X80776709Y-90129452D01*
X80767493Y-90115660D01*
X80767362Y-90113664D01*
X80769025Y-90112553D01*
X80770267Y-90112886D01*
G37*
G36*
X80770267Y-89612886D02*
G01*
X80781262Y-89620233D01*
X80800199Y-89624000D01*
X81799801Y-89624000D01*
X81818738Y-89620233D01*
X81829733Y-89612886D01*
X81831729Y-89612755D01*
X81832840Y-89614418D01*
X81832507Y-89615660D01*
X81823291Y-89629452D01*
X81825031Y-89630615D01*
X81825916Y-89632409D01*
X81825455Y-89633560D01*
X81810922Y-89650952D01*
X81802296Y-89719670D01*
X81825082Y-89767288D01*
X81824928Y-89769282D01*
X81824389Y-89769814D01*
X81823291Y-89770548D01*
X81832507Y-89784340D01*
X81832638Y-89786336D01*
X81830975Y-89787447D01*
X81829733Y-89787114D01*
X81818738Y-89779767D01*
X81799801Y-89776000D01*
X80800199Y-89776000D01*
X80781262Y-89779767D01*
X80770267Y-89787114D01*
X80768271Y-89787245D01*
X80767160Y-89785582D01*
X80767493Y-89784340D01*
X80776709Y-89770548D01*
X80774969Y-89769385D01*
X80774084Y-89767591D01*
X80774545Y-89766440D01*
X80789078Y-89749048D01*
X80797704Y-89680330D01*
X80774918Y-89632712D01*
X80775072Y-89630718D01*
X80775611Y-89630186D01*
X80776709Y-89629452D01*
X80767493Y-89615660D01*
X80767362Y-89613664D01*
X80769025Y-89612553D01*
X80770267Y-89612886D01*
G37*
G36*
X92170267Y-89612886D02*
G01*
X92181262Y-89620233D01*
X92200199Y-89624000D01*
X93199801Y-89624000D01*
X93218738Y-89620233D01*
X93229733Y-89612886D01*
X93231729Y-89612755D01*
X93232840Y-89614418D01*
X93232507Y-89615660D01*
X93223291Y-89629452D01*
X93225031Y-89630615D01*
X93225916Y-89632409D01*
X93225455Y-89633560D01*
X93210922Y-89650952D01*
X93202296Y-89719670D01*
X93225082Y-89767288D01*
X93224928Y-89769282D01*
X93224389Y-89769814D01*
X93223291Y-89770548D01*
X93232507Y-89784340D01*
X93232638Y-89786336D01*
X93230975Y-89787447D01*
X93229733Y-89787114D01*
X93218738Y-89779767D01*
X93199801Y-89776000D01*
X92200199Y-89776000D01*
X92181262Y-89779767D01*
X92170267Y-89787114D01*
X92168271Y-89787245D01*
X92167160Y-89785582D01*
X92167493Y-89784340D01*
X92176709Y-89770548D01*
X92174969Y-89769385D01*
X92174084Y-89767591D01*
X92174545Y-89766440D01*
X92189078Y-89749048D01*
X92197704Y-89680330D01*
X92174918Y-89632712D01*
X92175072Y-89630718D01*
X92175611Y-89630186D01*
X92176709Y-89629452D01*
X92167493Y-89615660D01*
X92167362Y-89613664D01*
X92169025Y-89612553D01*
X92170267Y-89612886D01*
G37*
G36*
X92170267Y-89112886D02*
G01*
X92181262Y-89120233D01*
X92200199Y-89124000D01*
X93199801Y-89124000D01*
X93218738Y-89120233D01*
X93229733Y-89112886D01*
X93231729Y-89112755D01*
X93232840Y-89114418D01*
X93232507Y-89115660D01*
X93223291Y-89129452D01*
X93225031Y-89130615D01*
X93225916Y-89132409D01*
X93225455Y-89133560D01*
X93210922Y-89150952D01*
X93202296Y-89219670D01*
X93225082Y-89267288D01*
X93224928Y-89269282D01*
X93224389Y-89269814D01*
X93223291Y-89270548D01*
X93232507Y-89284340D01*
X93232638Y-89286336D01*
X93230975Y-89287447D01*
X93229733Y-89287114D01*
X93218738Y-89279767D01*
X93199801Y-89276000D01*
X92200199Y-89276000D01*
X92181262Y-89279767D01*
X92170267Y-89287114D01*
X92168271Y-89287245D01*
X92167160Y-89285582D01*
X92167493Y-89284340D01*
X92176709Y-89270548D01*
X92174969Y-89269385D01*
X92174084Y-89267591D01*
X92174545Y-89266440D01*
X92189078Y-89249048D01*
X92197704Y-89180330D01*
X92174918Y-89132712D01*
X92175072Y-89130718D01*
X92175611Y-89130186D01*
X92176709Y-89129452D01*
X92167493Y-89115660D01*
X92167362Y-89113664D01*
X92169025Y-89112553D01*
X92170267Y-89112886D01*
G37*
G36*
X80770267Y-89112886D02*
G01*
X80781262Y-89120233D01*
X80800199Y-89124000D01*
X81799801Y-89124000D01*
X81818738Y-89120233D01*
X81829733Y-89112886D01*
X81831729Y-89112755D01*
X81832840Y-89114418D01*
X81832507Y-89115660D01*
X81823291Y-89129452D01*
X81825031Y-89130615D01*
X81825916Y-89132409D01*
X81825455Y-89133560D01*
X81810922Y-89150952D01*
X81802296Y-89219670D01*
X81825082Y-89267288D01*
X81824928Y-89269282D01*
X81824389Y-89269814D01*
X81823291Y-89270548D01*
X81832507Y-89284340D01*
X81832638Y-89286336D01*
X81830975Y-89287447D01*
X81829733Y-89287114D01*
X81818738Y-89279767D01*
X81799801Y-89276000D01*
X80800199Y-89276000D01*
X80781262Y-89279767D01*
X80770267Y-89287114D01*
X80768271Y-89287245D01*
X80767160Y-89285582D01*
X80767493Y-89284340D01*
X80776709Y-89270548D01*
X80774969Y-89269385D01*
X80774084Y-89267591D01*
X80774545Y-89266440D01*
X80789078Y-89249048D01*
X80797704Y-89180330D01*
X80774918Y-89132712D01*
X80775072Y-89130718D01*
X80775611Y-89130186D01*
X80776709Y-89129452D01*
X80767493Y-89115660D01*
X80767362Y-89113664D01*
X80769025Y-89112553D01*
X80770267Y-89112886D01*
G37*
G36*
X92170267Y-88612886D02*
G01*
X92181262Y-88620233D01*
X92200199Y-88624000D01*
X93199801Y-88624000D01*
X93218738Y-88620233D01*
X93229733Y-88612886D01*
X93231729Y-88612755D01*
X93232840Y-88614418D01*
X93232507Y-88615660D01*
X93223291Y-88629452D01*
X93225031Y-88630615D01*
X93225916Y-88632409D01*
X93225455Y-88633560D01*
X93210922Y-88650952D01*
X93202296Y-88719670D01*
X93225082Y-88767288D01*
X93224928Y-88769282D01*
X93224389Y-88769814D01*
X93223291Y-88770548D01*
X93232507Y-88784340D01*
X93232638Y-88786336D01*
X93230975Y-88787447D01*
X93229733Y-88787114D01*
X93218738Y-88779767D01*
X93199801Y-88776000D01*
X92200199Y-88776000D01*
X92181262Y-88779767D01*
X92170267Y-88787114D01*
X92168271Y-88787245D01*
X92167160Y-88785582D01*
X92167493Y-88784340D01*
X92176709Y-88770548D01*
X92174969Y-88769385D01*
X92174084Y-88767591D01*
X92174545Y-88766440D01*
X92189078Y-88749048D01*
X92197704Y-88680330D01*
X92174918Y-88632712D01*
X92175072Y-88630718D01*
X92175611Y-88630186D01*
X92176709Y-88629452D01*
X92167493Y-88615660D01*
X92167362Y-88613664D01*
X92169025Y-88612553D01*
X92170267Y-88612886D01*
G37*
G36*
X80770267Y-88612886D02*
G01*
X80781262Y-88620233D01*
X80800199Y-88624000D01*
X81799801Y-88624000D01*
X81818738Y-88620233D01*
X81829733Y-88612886D01*
X81831729Y-88612755D01*
X81832840Y-88614418D01*
X81832507Y-88615660D01*
X81823291Y-88629452D01*
X81825031Y-88630615D01*
X81825916Y-88632409D01*
X81825455Y-88633560D01*
X81810922Y-88650952D01*
X81802296Y-88719670D01*
X81825082Y-88767288D01*
X81824928Y-88769282D01*
X81824389Y-88769814D01*
X81823291Y-88770548D01*
X81832507Y-88784340D01*
X81832638Y-88786336D01*
X81830975Y-88787447D01*
X81829733Y-88787114D01*
X81818738Y-88779767D01*
X81799801Y-88776000D01*
X80800199Y-88776000D01*
X80781262Y-88779767D01*
X80770267Y-88787114D01*
X80768271Y-88787245D01*
X80767160Y-88785582D01*
X80767493Y-88784340D01*
X80776709Y-88770548D01*
X80774969Y-88769385D01*
X80774084Y-88767591D01*
X80774545Y-88766440D01*
X80789078Y-88749048D01*
X80797704Y-88680330D01*
X80774918Y-88632712D01*
X80775072Y-88630718D01*
X80775611Y-88630186D01*
X80776709Y-88629452D01*
X80767493Y-88615660D01*
X80767362Y-88613664D01*
X80769025Y-88612553D01*
X80770267Y-88612886D01*
G37*
G36*
X92170267Y-88112886D02*
G01*
X92181262Y-88120233D01*
X92200199Y-88124000D01*
X93199801Y-88124000D01*
X93218738Y-88120233D01*
X93229733Y-88112886D01*
X93231729Y-88112755D01*
X93232840Y-88114418D01*
X93232507Y-88115660D01*
X93223291Y-88129452D01*
X93225031Y-88130615D01*
X93225916Y-88132409D01*
X93225455Y-88133560D01*
X93210922Y-88150952D01*
X93202296Y-88219670D01*
X93225082Y-88267288D01*
X93224928Y-88269282D01*
X93224389Y-88269814D01*
X93223291Y-88270548D01*
X93232507Y-88284340D01*
X93232638Y-88286336D01*
X93230975Y-88287447D01*
X93229733Y-88287114D01*
X93218738Y-88279767D01*
X93199801Y-88276000D01*
X92200199Y-88276000D01*
X92181262Y-88279767D01*
X92170267Y-88287114D01*
X92168271Y-88287245D01*
X92167160Y-88285582D01*
X92167493Y-88284340D01*
X92176709Y-88270548D01*
X92174969Y-88269385D01*
X92174084Y-88267591D01*
X92174545Y-88266440D01*
X92189078Y-88249048D01*
X92197704Y-88180330D01*
X92174918Y-88132712D01*
X92175072Y-88130718D01*
X92175611Y-88130186D01*
X92176709Y-88129452D01*
X92167493Y-88115660D01*
X92167362Y-88113664D01*
X92169025Y-88112553D01*
X92170267Y-88112886D01*
G37*
G36*
X80770267Y-88112886D02*
G01*
X80781262Y-88120233D01*
X80800199Y-88124000D01*
X81799801Y-88124000D01*
X81818738Y-88120233D01*
X81829733Y-88112886D01*
X81831729Y-88112755D01*
X81832840Y-88114418D01*
X81832507Y-88115660D01*
X81823291Y-88129452D01*
X81825031Y-88130615D01*
X81825916Y-88132409D01*
X81825455Y-88133560D01*
X81810922Y-88150952D01*
X81802296Y-88219670D01*
X81825082Y-88267288D01*
X81824928Y-88269282D01*
X81824389Y-88269814D01*
X81823291Y-88270548D01*
X81832507Y-88284340D01*
X81832638Y-88286336D01*
X81830975Y-88287447D01*
X81829733Y-88287114D01*
X81818738Y-88279767D01*
X81799801Y-88276000D01*
X80800199Y-88276000D01*
X80781262Y-88279767D01*
X80770267Y-88287114D01*
X80768271Y-88287245D01*
X80767160Y-88285582D01*
X80767493Y-88284340D01*
X80776709Y-88270548D01*
X80774969Y-88269385D01*
X80774084Y-88267591D01*
X80774545Y-88266440D01*
X80789078Y-88249048D01*
X80797704Y-88180330D01*
X80774918Y-88132712D01*
X80775072Y-88130718D01*
X80775611Y-88130186D01*
X80776709Y-88129452D01*
X80767493Y-88115660D01*
X80767362Y-88113664D01*
X80769025Y-88112553D01*
X80770267Y-88112886D01*
G37*
G36*
X92170267Y-87612886D02*
G01*
X92181262Y-87620233D01*
X92200199Y-87624000D01*
X93199801Y-87624000D01*
X93218738Y-87620233D01*
X93229733Y-87612886D01*
X93231729Y-87612755D01*
X93232840Y-87614418D01*
X93232507Y-87615660D01*
X93223291Y-87629452D01*
X93225031Y-87630615D01*
X93225916Y-87632409D01*
X93225455Y-87633560D01*
X93210922Y-87650952D01*
X93202296Y-87719670D01*
X93225082Y-87767288D01*
X93224928Y-87769282D01*
X93224389Y-87769814D01*
X93223291Y-87770548D01*
X93232507Y-87784340D01*
X93232638Y-87786336D01*
X93230975Y-87787447D01*
X93229733Y-87787114D01*
X93218738Y-87779767D01*
X93199801Y-87776000D01*
X92200199Y-87776000D01*
X92181262Y-87779767D01*
X92170267Y-87787114D01*
X92168271Y-87787245D01*
X92167160Y-87785582D01*
X92167493Y-87784340D01*
X92176709Y-87770548D01*
X92174969Y-87769385D01*
X92174084Y-87767591D01*
X92174545Y-87766440D01*
X92189078Y-87749048D01*
X92197704Y-87680330D01*
X92174918Y-87632712D01*
X92175072Y-87630718D01*
X92175611Y-87630186D01*
X92176709Y-87629452D01*
X92167493Y-87615660D01*
X92167362Y-87613664D01*
X92169025Y-87612553D01*
X92170267Y-87612886D01*
G37*
G36*
X80770267Y-87612886D02*
G01*
X80781262Y-87620233D01*
X80800199Y-87624000D01*
X81799801Y-87624000D01*
X81818738Y-87620233D01*
X81829733Y-87612886D01*
X81831729Y-87612755D01*
X81832840Y-87614418D01*
X81832507Y-87615660D01*
X81823291Y-87629452D01*
X81825031Y-87630615D01*
X81825916Y-87632409D01*
X81825455Y-87633560D01*
X81810922Y-87650952D01*
X81802296Y-87719670D01*
X81825082Y-87767288D01*
X81824928Y-87769282D01*
X81824389Y-87769814D01*
X81823291Y-87770548D01*
X81832507Y-87784340D01*
X81832638Y-87786336D01*
X81830975Y-87787447D01*
X81829733Y-87787114D01*
X81818738Y-87779767D01*
X81799801Y-87776000D01*
X80800199Y-87776000D01*
X80781262Y-87779767D01*
X80770267Y-87787114D01*
X80768271Y-87787245D01*
X80767160Y-87785582D01*
X80767493Y-87784340D01*
X80776709Y-87770548D01*
X80774969Y-87769385D01*
X80774084Y-87767591D01*
X80774545Y-87766440D01*
X80789078Y-87749048D01*
X80797704Y-87680330D01*
X80774918Y-87632712D01*
X80775072Y-87630718D01*
X80775611Y-87630186D01*
X80776709Y-87629452D01*
X80767493Y-87615660D01*
X80767362Y-87613664D01*
X80769025Y-87612553D01*
X80770267Y-87612886D01*
G37*
G36*
X92170267Y-87112886D02*
G01*
X92181262Y-87120233D01*
X92200199Y-87124000D01*
X93199801Y-87124000D01*
X93218738Y-87120233D01*
X93229733Y-87112886D01*
X93231729Y-87112755D01*
X93232840Y-87114418D01*
X93232507Y-87115660D01*
X93223291Y-87129452D01*
X93225031Y-87130615D01*
X93225916Y-87132409D01*
X93225455Y-87133560D01*
X93210922Y-87150952D01*
X93202296Y-87219670D01*
X93225082Y-87267288D01*
X93224928Y-87269282D01*
X93224389Y-87269814D01*
X93223291Y-87270548D01*
X93232507Y-87284340D01*
X93232638Y-87286336D01*
X93230975Y-87287447D01*
X93229733Y-87287114D01*
X93218738Y-87279767D01*
X93199801Y-87276000D01*
X92200199Y-87276000D01*
X92181262Y-87279767D01*
X92170267Y-87287114D01*
X92168271Y-87287245D01*
X92167160Y-87285582D01*
X92167493Y-87284340D01*
X92176709Y-87270548D01*
X92174969Y-87269385D01*
X92174084Y-87267591D01*
X92174545Y-87266440D01*
X92189078Y-87249048D01*
X92197704Y-87180330D01*
X92174918Y-87132712D01*
X92175072Y-87130718D01*
X92175611Y-87130186D01*
X92176709Y-87129452D01*
X92167493Y-87115660D01*
X92167362Y-87113664D01*
X92169025Y-87112553D01*
X92170267Y-87112886D01*
G37*
G36*
X80770267Y-87112886D02*
G01*
X80781262Y-87120233D01*
X80800199Y-87124000D01*
X81799801Y-87124000D01*
X81818738Y-87120233D01*
X81829733Y-87112886D01*
X81831729Y-87112755D01*
X81832840Y-87114418D01*
X81832507Y-87115660D01*
X81823291Y-87129452D01*
X81825031Y-87130615D01*
X81825916Y-87132409D01*
X81825455Y-87133560D01*
X81810922Y-87150952D01*
X81802296Y-87219670D01*
X81825082Y-87267288D01*
X81824928Y-87269282D01*
X81824389Y-87269814D01*
X81823291Y-87270548D01*
X81832507Y-87284340D01*
X81832638Y-87286336D01*
X81830975Y-87287447D01*
X81829733Y-87287114D01*
X81818738Y-87279767D01*
X81799801Y-87276000D01*
X80800199Y-87276000D01*
X80781262Y-87279767D01*
X80770267Y-87287114D01*
X80768271Y-87287245D01*
X80767160Y-87285582D01*
X80767493Y-87284340D01*
X80776709Y-87270548D01*
X80774969Y-87269385D01*
X80774084Y-87267591D01*
X80774545Y-87266440D01*
X80789078Y-87249048D01*
X80797704Y-87180330D01*
X80774918Y-87132712D01*
X80775072Y-87130718D01*
X80775611Y-87130186D01*
X80776709Y-87129452D01*
X80767493Y-87115660D01*
X80767362Y-87113664D01*
X80769025Y-87112553D01*
X80770267Y-87112886D01*
G37*
G36*
X92170267Y-86612886D02*
G01*
X92181262Y-86620233D01*
X92200199Y-86624000D01*
X93199801Y-86624000D01*
X93218738Y-86620233D01*
X93229733Y-86612886D01*
X93231729Y-86612755D01*
X93232840Y-86614418D01*
X93232507Y-86615660D01*
X93223291Y-86629452D01*
X93225031Y-86630615D01*
X93225916Y-86632409D01*
X93225455Y-86633560D01*
X93210922Y-86650952D01*
X93202296Y-86719670D01*
X93225082Y-86767288D01*
X93224928Y-86769282D01*
X93224389Y-86769814D01*
X93223291Y-86770548D01*
X93232507Y-86784340D01*
X93232638Y-86786336D01*
X93230975Y-86787447D01*
X93229733Y-86787114D01*
X93218738Y-86779767D01*
X93199801Y-86776000D01*
X92200199Y-86776000D01*
X92181262Y-86779767D01*
X92170267Y-86787114D01*
X92168271Y-86787245D01*
X92167160Y-86785582D01*
X92167493Y-86784340D01*
X92176709Y-86770548D01*
X92174969Y-86769385D01*
X92174084Y-86767591D01*
X92174545Y-86766440D01*
X92189078Y-86749048D01*
X92197704Y-86680330D01*
X92174918Y-86632712D01*
X92175072Y-86630718D01*
X92175611Y-86630186D01*
X92176709Y-86629452D01*
X92167493Y-86615660D01*
X92167362Y-86613664D01*
X92169025Y-86612553D01*
X92170267Y-86612886D01*
G37*
G36*
X80770267Y-86612886D02*
G01*
X80781262Y-86620233D01*
X80800199Y-86624000D01*
X81799801Y-86624000D01*
X81818738Y-86620233D01*
X81829733Y-86612886D01*
X81831729Y-86612755D01*
X81832840Y-86614418D01*
X81832507Y-86615660D01*
X81823291Y-86629452D01*
X81825031Y-86630615D01*
X81825916Y-86632409D01*
X81825455Y-86633560D01*
X81810922Y-86650952D01*
X81802296Y-86719670D01*
X81825082Y-86767288D01*
X81824928Y-86769282D01*
X81824389Y-86769814D01*
X81823291Y-86770548D01*
X81832507Y-86784340D01*
X81832638Y-86786336D01*
X81830975Y-86787447D01*
X81829733Y-86787114D01*
X81818738Y-86779767D01*
X81799801Y-86776000D01*
X80800199Y-86776000D01*
X80781262Y-86779767D01*
X80770267Y-86787114D01*
X80768271Y-86787245D01*
X80767160Y-86785582D01*
X80767493Y-86784340D01*
X80776709Y-86770548D01*
X80774969Y-86769385D01*
X80774084Y-86767591D01*
X80774545Y-86766440D01*
X80789078Y-86749048D01*
X80797704Y-86680330D01*
X80774918Y-86632712D01*
X80775072Y-86630718D01*
X80775611Y-86630186D01*
X80776709Y-86629452D01*
X80767493Y-86615660D01*
X80767362Y-86613664D01*
X80769025Y-86612553D01*
X80770267Y-86612886D01*
G37*
G36*
X92170267Y-86112886D02*
G01*
X92181262Y-86120233D01*
X92200199Y-86124000D01*
X93199801Y-86124000D01*
X93218738Y-86120233D01*
X93229733Y-86112886D01*
X93231729Y-86112755D01*
X93232840Y-86114418D01*
X93232507Y-86115660D01*
X93223291Y-86129452D01*
X93225031Y-86130615D01*
X93225916Y-86132409D01*
X93225455Y-86133560D01*
X93210922Y-86150952D01*
X93202296Y-86219670D01*
X93225082Y-86267288D01*
X93224928Y-86269282D01*
X93224389Y-86269814D01*
X93223291Y-86270548D01*
X93232507Y-86284340D01*
X93232638Y-86286336D01*
X93230975Y-86287447D01*
X93229733Y-86287114D01*
X93218738Y-86279767D01*
X93199801Y-86276000D01*
X92200199Y-86276000D01*
X92181262Y-86279767D01*
X92170267Y-86287114D01*
X92168271Y-86287245D01*
X92167160Y-86285582D01*
X92167493Y-86284340D01*
X92176709Y-86270548D01*
X92174969Y-86269385D01*
X92174084Y-86267591D01*
X92174545Y-86266440D01*
X92189078Y-86249048D01*
X92197704Y-86180330D01*
X92174918Y-86132712D01*
X92175072Y-86130718D01*
X92175611Y-86130186D01*
X92176709Y-86129452D01*
X92167493Y-86115660D01*
X92167362Y-86113664D01*
X92169025Y-86112553D01*
X92170267Y-86112886D01*
G37*
G36*
X80770267Y-86112886D02*
G01*
X80781262Y-86120233D01*
X80800199Y-86124000D01*
X81799801Y-86124000D01*
X81818738Y-86120233D01*
X81829733Y-86112886D01*
X81831729Y-86112755D01*
X81832840Y-86114418D01*
X81832507Y-86115660D01*
X81823291Y-86129452D01*
X81825031Y-86130615D01*
X81825916Y-86132409D01*
X81825455Y-86133560D01*
X81810922Y-86150952D01*
X81802296Y-86219670D01*
X81825082Y-86267288D01*
X81824928Y-86269282D01*
X81824389Y-86269814D01*
X81823291Y-86270548D01*
X81832507Y-86284340D01*
X81832638Y-86286336D01*
X81830975Y-86287447D01*
X81829733Y-86287114D01*
X81818738Y-86279767D01*
X81799801Y-86276000D01*
X80800199Y-86276000D01*
X80781262Y-86279767D01*
X80770267Y-86287114D01*
X80768271Y-86287245D01*
X80767160Y-86285582D01*
X80767493Y-86284340D01*
X80776709Y-86270548D01*
X80774969Y-86269385D01*
X80774084Y-86267591D01*
X80774545Y-86266440D01*
X80789078Y-86249048D01*
X80797704Y-86180330D01*
X80774918Y-86132712D01*
X80775072Y-86130718D01*
X80775611Y-86130186D01*
X80776709Y-86129452D01*
X80767493Y-86115660D01*
X80767362Y-86113664D01*
X80769025Y-86112553D01*
X80770267Y-86112886D01*
G37*
G36*
X92170267Y-85612886D02*
G01*
X92181262Y-85620233D01*
X92200199Y-85624000D01*
X93199801Y-85624000D01*
X93218738Y-85620233D01*
X93229733Y-85612886D01*
X93231729Y-85612755D01*
X93232840Y-85614418D01*
X93232507Y-85615660D01*
X93223291Y-85629452D01*
X93225031Y-85630615D01*
X93225916Y-85632409D01*
X93225455Y-85633560D01*
X93210922Y-85650952D01*
X93202296Y-85719670D01*
X93225082Y-85767288D01*
X93224928Y-85769282D01*
X93224389Y-85769814D01*
X93223291Y-85770548D01*
X93232507Y-85784340D01*
X93232638Y-85786336D01*
X93230975Y-85787447D01*
X93229733Y-85787114D01*
X93218738Y-85779767D01*
X93199801Y-85776000D01*
X92200199Y-85776000D01*
X92181262Y-85779767D01*
X92170267Y-85787114D01*
X92168271Y-85787245D01*
X92167160Y-85785582D01*
X92167493Y-85784340D01*
X92176709Y-85770548D01*
X92174969Y-85769385D01*
X92174084Y-85767591D01*
X92174545Y-85766440D01*
X92189078Y-85749048D01*
X92197704Y-85680330D01*
X92174918Y-85632712D01*
X92175072Y-85630718D01*
X92175611Y-85630186D01*
X92176709Y-85629452D01*
X92167493Y-85615660D01*
X92167362Y-85613664D01*
X92169025Y-85612553D01*
X92170267Y-85612886D01*
G37*
G36*
X80770267Y-85612886D02*
G01*
X80781262Y-85620233D01*
X80800199Y-85624000D01*
X81799801Y-85624000D01*
X81818738Y-85620233D01*
X81829733Y-85612886D01*
X81831729Y-85612755D01*
X81832840Y-85614418D01*
X81832507Y-85615660D01*
X81823291Y-85629452D01*
X81825031Y-85630615D01*
X81825916Y-85632409D01*
X81825455Y-85633560D01*
X81810922Y-85650952D01*
X81802296Y-85719670D01*
X81825082Y-85767288D01*
X81824928Y-85769282D01*
X81824389Y-85769814D01*
X81823291Y-85770548D01*
X81832507Y-85784340D01*
X81832638Y-85786336D01*
X81830975Y-85787447D01*
X81829733Y-85787114D01*
X81818738Y-85779767D01*
X81799801Y-85776000D01*
X80800199Y-85776000D01*
X80781262Y-85779767D01*
X80770267Y-85787114D01*
X80768271Y-85787245D01*
X80767160Y-85785582D01*
X80767493Y-85784340D01*
X80776709Y-85770548D01*
X80774969Y-85769385D01*
X80774084Y-85767591D01*
X80774545Y-85766440D01*
X80789078Y-85749048D01*
X80797704Y-85680330D01*
X80774918Y-85632712D01*
X80775072Y-85630718D01*
X80775611Y-85630186D01*
X80776709Y-85629452D01*
X80767493Y-85615660D01*
X80767362Y-85613664D01*
X80769025Y-85612553D01*
X80770267Y-85612886D01*
G37*
G36*
X92170267Y-85112886D02*
G01*
X92181262Y-85120233D01*
X92200199Y-85124000D01*
X93199801Y-85124000D01*
X93218738Y-85120233D01*
X93229733Y-85112886D01*
X93231729Y-85112755D01*
X93232840Y-85114418D01*
X93232507Y-85115660D01*
X93223291Y-85129452D01*
X93225031Y-85130615D01*
X93225916Y-85132409D01*
X93225455Y-85133560D01*
X93210922Y-85150952D01*
X93202296Y-85219670D01*
X93225082Y-85267288D01*
X93224928Y-85269282D01*
X93224389Y-85269814D01*
X93223291Y-85270548D01*
X93232507Y-85284340D01*
X93232638Y-85286336D01*
X93230975Y-85287447D01*
X93229733Y-85287114D01*
X93218738Y-85279767D01*
X93199801Y-85276000D01*
X92200199Y-85276000D01*
X92181262Y-85279767D01*
X92170267Y-85287114D01*
X92168271Y-85287245D01*
X92167160Y-85285582D01*
X92167493Y-85284340D01*
X92176709Y-85270548D01*
X92174969Y-85269385D01*
X92174084Y-85267591D01*
X92174545Y-85266440D01*
X92189078Y-85249048D01*
X92197704Y-85180330D01*
X92174918Y-85132712D01*
X92175072Y-85130718D01*
X92175611Y-85130186D01*
X92176709Y-85129452D01*
X92167493Y-85115660D01*
X92167362Y-85113664D01*
X92169025Y-85112553D01*
X92170267Y-85112886D01*
G37*
G36*
X80770267Y-85112886D02*
G01*
X80781262Y-85120233D01*
X80800199Y-85124000D01*
X81799801Y-85124000D01*
X81818738Y-85120233D01*
X81829733Y-85112886D01*
X81831729Y-85112755D01*
X81832840Y-85114418D01*
X81832507Y-85115660D01*
X81823291Y-85129452D01*
X81825031Y-85130615D01*
X81825916Y-85132409D01*
X81825455Y-85133560D01*
X81810922Y-85150952D01*
X81802296Y-85219670D01*
X81825082Y-85267288D01*
X81824928Y-85269282D01*
X81824389Y-85269814D01*
X81823291Y-85270548D01*
X81832507Y-85284340D01*
X81832638Y-85286336D01*
X81830975Y-85287447D01*
X81829733Y-85287114D01*
X81818738Y-85279767D01*
X81799801Y-85276000D01*
X80800199Y-85276000D01*
X80781262Y-85279767D01*
X80770267Y-85287114D01*
X80768271Y-85287245D01*
X80767160Y-85285582D01*
X80767493Y-85284340D01*
X80776709Y-85270548D01*
X80774969Y-85269385D01*
X80774084Y-85267591D01*
X80774545Y-85266440D01*
X80789078Y-85249048D01*
X80797704Y-85180330D01*
X80774918Y-85132712D01*
X80775072Y-85130718D01*
X80775611Y-85130186D01*
X80776709Y-85129452D01*
X80767493Y-85115660D01*
X80767362Y-85113664D01*
X80769025Y-85112553D01*
X80770267Y-85112886D01*
G37*
G36*
X83915660Y-82467493D02*
G01*
X83929452Y-82476709D01*
X83930615Y-82474969D01*
X83932409Y-82474084D01*
X83933560Y-82474545D01*
X83950952Y-82489078D01*
X84019670Y-82497704D01*
X84067288Y-82474918D01*
X84069282Y-82475072D01*
X84069814Y-82475611D01*
X84070548Y-82476709D01*
X84084340Y-82467493D01*
X84086336Y-82467362D01*
X84087447Y-82469025D01*
X84087114Y-82470267D01*
X84079767Y-82481262D01*
X84076000Y-82500199D01*
X84076000Y-83499801D01*
X84079767Y-83518738D01*
X84087114Y-83529733D01*
X84087245Y-83531729D01*
X84085582Y-83532840D01*
X84084340Y-83532507D01*
X84070548Y-83523291D01*
X84069385Y-83525031D01*
X84067591Y-83525916D01*
X84066440Y-83525455D01*
X84049048Y-83510922D01*
X83980330Y-83502296D01*
X83932712Y-83525082D01*
X83930718Y-83524928D01*
X83930186Y-83524389D01*
X83929452Y-83523291D01*
X83915660Y-83532507D01*
X83913664Y-83532638D01*
X83912553Y-83530975D01*
X83912886Y-83529733D01*
X83920233Y-83518738D01*
X83924000Y-83499801D01*
X83924000Y-82500199D01*
X83920233Y-82481262D01*
X83912886Y-82470267D01*
X83912755Y-82468271D01*
X83914418Y-82467160D01*
X83915660Y-82467493D01*
G37*
G36*
X89415660Y-82467493D02*
G01*
X89429452Y-82476709D01*
X89430615Y-82474969D01*
X89432409Y-82474084D01*
X89433560Y-82474545D01*
X89450952Y-82489078D01*
X89519670Y-82497704D01*
X89567288Y-82474918D01*
X89569282Y-82475072D01*
X89569814Y-82475611D01*
X89570548Y-82476709D01*
X89584340Y-82467493D01*
X89586336Y-82467362D01*
X89587447Y-82469025D01*
X89587114Y-82470267D01*
X89579767Y-82481262D01*
X89576000Y-82500199D01*
X89576000Y-83499801D01*
X89579767Y-83518738D01*
X89587114Y-83529733D01*
X89587245Y-83531729D01*
X89585582Y-83532840D01*
X89584340Y-83532507D01*
X89570548Y-83523291D01*
X89569385Y-83525031D01*
X89567591Y-83525916D01*
X89566440Y-83525455D01*
X89549048Y-83510922D01*
X89480330Y-83502296D01*
X89432712Y-83525082D01*
X89430718Y-83524928D01*
X89430186Y-83524389D01*
X89429452Y-83523291D01*
X89415660Y-83532507D01*
X89413664Y-83532638D01*
X89412553Y-83530975D01*
X89412886Y-83529733D01*
X89420233Y-83518738D01*
X89424000Y-83499801D01*
X89424000Y-82500199D01*
X89420233Y-82481262D01*
X89412886Y-82470267D01*
X89412755Y-82468271D01*
X89414418Y-82467160D01*
X89415660Y-82467493D01*
G37*
G36*
X89915660Y-82467493D02*
G01*
X89929452Y-82476709D01*
X89930615Y-82474969D01*
X89932409Y-82474084D01*
X89933560Y-82474545D01*
X89950952Y-82489078D01*
X90019670Y-82497704D01*
X90067288Y-82474918D01*
X90069282Y-82475072D01*
X90069814Y-82475611D01*
X90070548Y-82476709D01*
X90084340Y-82467493D01*
X90086336Y-82467362D01*
X90087447Y-82469025D01*
X90087114Y-82470267D01*
X90079767Y-82481262D01*
X90076000Y-82500199D01*
X90076000Y-83499801D01*
X90079767Y-83518738D01*
X90087114Y-83529733D01*
X90087245Y-83531729D01*
X90085582Y-83532840D01*
X90084340Y-83532507D01*
X90070548Y-83523291D01*
X90069385Y-83525031D01*
X90067591Y-83525916D01*
X90066440Y-83525455D01*
X90049048Y-83510922D01*
X89980330Y-83502296D01*
X89932712Y-83525082D01*
X89930718Y-83524928D01*
X89930186Y-83524389D01*
X89929452Y-83523291D01*
X89915660Y-83532507D01*
X89913664Y-83532638D01*
X89912553Y-83530975D01*
X89912886Y-83529733D01*
X89920233Y-83518738D01*
X89924000Y-83499801D01*
X89924000Y-82500199D01*
X89920233Y-82481262D01*
X89912886Y-82470267D01*
X89912755Y-82468271D01*
X89914418Y-82467160D01*
X89915660Y-82467493D01*
G37*
G36*
X88915660Y-82467493D02*
G01*
X88929452Y-82476709D01*
X88930615Y-82474969D01*
X88932409Y-82474084D01*
X88933560Y-82474545D01*
X88950952Y-82489078D01*
X89019670Y-82497704D01*
X89067288Y-82474918D01*
X89069282Y-82475072D01*
X89069814Y-82475611D01*
X89070548Y-82476709D01*
X89084340Y-82467493D01*
X89086336Y-82467362D01*
X89087447Y-82469025D01*
X89087114Y-82470267D01*
X89079767Y-82481262D01*
X89076000Y-82500199D01*
X89076000Y-83499801D01*
X89079767Y-83518738D01*
X89087114Y-83529733D01*
X89087245Y-83531729D01*
X89085582Y-83532840D01*
X89084340Y-83532507D01*
X89070548Y-83523291D01*
X89069385Y-83525031D01*
X89067591Y-83525916D01*
X89066440Y-83525455D01*
X89049048Y-83510922D01*
X88980330Y-83502296D01*
X88932712Y-83525082D01*
X88930718Y-83524928D01*
X88930186Y-83524389D01*
X88929452Y-83523291D01*
X88915660Y-83532507D01*
X88913664Y-83532638D01*
X88912553Y-83530975D01*
X88912886Y-83529733D01*
X88920233Y-83518738D01*
X88924000Y-83499801D01*
X88924000Y-82500199D01*
X88920233Y-82481262D01*
X88912886Y-82470267D01*
X88912755Y-82468271D01*
X88914418Y-82467160D01*
X88915660Y-82467493D01*
G37*
G36*
X84415660Y-82467493D02*
G01*
X84429452Y-82476709D01*
X84430615Y-82474969D01*
X84432409Y-82474084D01*
X84433560Y-82474545D01*
X84450952Y-82489078D01*
X84519670Y-82497704D01*
X84567288Y-82474918D01*
X84569282Y-82475072D01*
X84569814Y-82475611D01*
X84570548Y-82476709D01*
X84584340Y-82467493D01*
X84586336Y-82467362D01*
X84587447Y-82469025D01*
X84587114Y-82470267D01*
X84579767Y-82481262D01*
X84576000Y-82500199D01*
X84576000Y-83499801D01*
X84579767Y-83518738D01*
X84587114Y-83529733D01*
X84587245Y-83531729D01*
X84585582Y-83532840D01*
X84584340Y-83532507D01*
X84570548Y-83523291D01*
X84569385Y-83525031D01*
X84567591Y-83525916D01*
X84566440Y-83525455D01*
X84549048Y-83510922D01*
X84480330Y-83502296D01*
X84432712Y-83525082D01*
X84430718Y-83524928D01*
X84430186Y-83524389D01*
X84429452Y-83523291D01*
X84415660Y-83532507D01*
X84413664Y-83532638D01*
X84412553Y-83530975D01*
X84412886Y-83529733D01*
X84420233Y-83518738D01*
X84424000Y-83499801D01*
X84424000Y-82500199D01*
X84420233Y-82481262D01*
X84412886Y-82470267D01*
X84412755Y-82468271D01*
X84414418Y-82467160D01*
X84415660Y-82467493D01*
G37*
G36*
X87415660Y-82467493D02*
G01*
X87429452Y-82476709D01*
X87430615Y-82474969D01*
X87432409Y-82474084D01*
X87433560Y-82474545D01*
X87450952Y-82489078D01*
X87519670Y-82497704D01*
X87567288Y-82474918D01*
X87569282Y-82475072D01*
X87569814Y-82475611D01*
X87570548Y-82476709D01*
X87584340Y-82467493D01*
X87586336Y-82467362D01*
X87587447Y-82469025D01*
X87587114Y-82470267D01*
X87579767Y-82481262D01*
X87576000Y-82500199D01*
X87576000Y-83499801D01*
X87579767Y-83518738D01*
X87587114Y-83529733D01*
X87587245Y-83531729D01*
X87585582Y-83532840D01*
X87584340Y-83532507D01*
X87570548Y-83523291D01*
X87569385Y-83525031D01*
X87567591Y-83525916D01*
X87566440Y-83525455D01*
X87549048Y-83510922D01*
X87480330Y-83502296D01*
X87432712Y-83525082D01*
X87430718Y-83524928D01*
X87430186Y-83524389D01*
X87429452Y-83523291D01*
X87415660Y-83532507D01*
X87413664Y-83532638D01*
X87412553Y-83530975D01*
X87412886Y-83529733D01*
X87420233Y-83518738D01*
X87424000Y-83499801D01*
X87424000Y-82500199D01*
X87420233Y-82481262D01*
X87412886Y-82470267D01*
X87412755Y-82468271D01*
X87414418Y-82467160D01*
X87415660Y-82467493D01*
G37*
G36*
X85415660Y-82467493D02*
G01*
X85429452Y-82476709D01*
X85430615Y-82474969D01*
X85432409Y-82474084D01*
X85433560Y-82474545D01*
X85450952Y-82489078D01*
X85519670Y-82497704D01*
X85567288Y-82474918D01*
X85569282Y-82475072D01*
X85569814Y-82475611D01*
X85570548Y-82476709D01*
X85584340Y-82467493D01*
X85586336Y-82467362D01*
X85587447Y-82469025D01*
X85587114Y-82470267D01*
X85579767Y-82481262D01*
X85576000Y-82500199D01*
X85576000Y-83499801D01*
X85579767Y-83518738D01*
X85587114Y-83529733D01*
X85587245Y-83531729D01*
X85585582Y-83532840D01*
X85584340Y-83532507D01*
X85570548Y-83523291D01*
X85569385Y-83525031D01*
X85567591Y-83525916D01*
X85566440Y-83525455D01*
X85549048Y-83510922D01*
X85480330Y-83502296D01*
X85432712Y-83525082D01*
X85430718Y-83524928D01*
X85430186Y-83524389D01*
X85429452Y-83523291D01*
X85415660Y-83532507D01*
X85413664Y-83532638D01*
X85412553Y-83530975D01*
X85412886Y-83529733D01*
X85420233Y-83518738D01*
X85424000Y-83499801D01*
X85424000Y-82500199D01*
X85420233Y-82481262D01*
X85412886Y-82470267D01*
X85412755Y-82468271D01*
X85414418Y-82467160D01*
X85415660Y-82467493D01*
G37*
G36*
X86915660Y-82467493D02*
G01*
X86929452Y-82476709D01*
X86930615Y-82474969D01*
X86932409Y-82474084D01*
X86933560Y-82474545D01*
X86950952Y-82489078D01*
X87019670Y-82497704D01*
X87067288Y-82474918D01*
X87069282Y-82475072D01*
X87069814Y-82475611D01*
X87070548Y-82476709D01*
X87084340Y-82467493D01*
X87086336Y-82467362D01*
X87087447Y-82469025D01*
X87087114Y-82470267D01*
X87079767Y-82481262D01*
X87076000Y-82500199D01*
X87076000Y-83499801D01*
X87079767Y-83518738D01*
X87087114Y-83529733D01*
X87087245Y-83531729D01*
X87085582Y-83532840D01*
X87084340Y-83532507D01*
X87070548Y-83523291D01*
X87069385Y-83525031D01*
X87067591Y-83525916D01*
X87066440Y-83525455D01*
X87049048Y-83510922D01*
X86980330Y-83502296D01*
X86932712Y-83525082D01*
X86930718Y-83524928D01*
X86930186Y-83524389D01*
X86929452Y-83523291D01*
X86915660Y-83532507D01*
X86913664Y-83532638D01*
X86912553Y-83530975D01*
X86912886Y-83529733D01*
X86920233Y-83518738D01*
X86924000Y-83499801D01*
X86924000Y-82500199D01*
X86920233Y-82481262D01*
X86912886Y-82470267D01*
X86912755Y-82468271D01*
X86914418Y-82467160D01*
X86915660Y-82467493D01*
G37*
G36*
X83415660Y-82467493D02*
G01*
X83429452Y-82476709D01*
X83430615Y-82474969D01*
X83432409Y-82474084D01*
X83433560Y-82474545D01*
X83450952Y-82489078D01*
X83519670Y-82497704D01*
X83567288Y-82474918D01*
X83569282Y-82475072D01*
X83569814Y-82475611D01*
X83570548Y-82476709D01*
X83584340Y-82467493D01*
X83586336Y-82467362D01*
X83587447Y-82469025D01*
X83587114Y-82470267D01*
X83579767Y-82481262D01*
X83576000Y-82500199D01*
X83576000Y-83499801D01*
X83579767Y-83518738D01*
X83587114Y-83529733D01*
X83587245Y-83531729D01*
X83585582Y-83532840D01*
X83584340Y-83532507D01*
X83570548Y-83523291D01*
X83569385Y-83525031D01*
X83567591Y-83525916D01*
X83566440Y-83525455D01*
X83549048Y-83510922D01*
X83480330Y-83502296D01*
X83432712Y-83525082D01*
X83430718Y-83524928D01*
X83430186Y-83524389D01*
X83429452Y-83523291D01*
X83415660Y-83532507D01*
X83413664Y-83532638D01*
X83412553Y-83530975D01*
X83412886Y-83529733D01*
X83420233Y-83518738D01*
X83424000Y-83499801D01*
X83424000Y-82500199D01*
X83420233Y-82481262D01*
X83412886Y-82470267D01*
X83412755Y-82468271D01*
X83414418Y-82467160D01*
X83415660Y-82467493D01*
G37*
G36*
X85915660Y-82467493D02*
G01*
X85929452Y-82476709D01*
X85930615Y-82474969D01*
X85932409Y-82474084D01*
X85933560Y-82474545D01*
X85950952Y-82489078D01*
X86019670Y-82497704D01*
X86067288Y-82474918D01*
X86069282Y-82475072D01*
X86069814Y-82475611D01*
X86070548Y-82476709D01*
X86084340Y-82467493D01*
X86086336Y-82467362D01*
X86087447Y-82469025D01*
X86087114Y-82470267D01*
X86079767Y-82481262D01*
X86076000Y-82500199D01*
X86076000Y-83499801D01*
X86079767Y-83518738D01*
X86087114Y-83529733D01*
X86087245Y-83531729D01*
X86085582Y-83532840D01*
X86084340Y-83532507D01*
X86070548Y-83523291D01*
X86069385Y-83525031D01*
X86067591Y-83525916D01*
X86066440Y-83525455D01*
X86049048Y-83510922D01*
X85980330Y-83502296D01*
X85932712Y-83525082D01*
X85930718Y-83524928D01*
X85930186Y-83524389D01*
X85929452Y-83523291D01*
X85915660Y-83532507D01*
X85913664Y-83532638D01*
X85912553Y-83530975D01*
X85912886Y-83529733D01*
X85920233Y-83518738D01*
X85924000Y-83499801D01*
X85924000Y-82500199D01*
X85920233Y-82481262D01*
X85912886Y-82470267D01*
X85912755Y-82468271D01*
X85914418Y-82467160D01*
X85915660Y-82467493D01*
G37*
G36*
X86415660Y-82467493D02*
G01*
X86429452Y-82476709D01*
X86430615Y-82474969D01*
X86432409Y-82474084D01*
X86433560Y-82474545D01*
X86450952Y-82489078D01*
X86519670Y-82497704D01*
X86567288Y-82474918D01*
X86569282Y-82475072D01*
X86569814Y-82475611D01*
X86570548Y-82476709D01*
X86584340Y-82467493D01*
X86586336Y-82467362D01*
X86587447Y-82469025D01*
X86587114Y-82470267D01*
X86579767Y-82481262D01*
X86576000Y-82500199D01*
X86576000Y-83499801D01*
X86579767Y-83518738D01*
X86587114Y-83529733D01*
X86587245Y-83531729D01*
X86585582Y-83532840D01*
X86584340Y-83532507D01*
X86570548Y-83523291D01*
X86569385Y-83525031D01*
X86567591Y-83525916D01*
X86566440Y-83525455D01*
X86549048Y-83510922D01*
X86480330Y-83502296D01*
X86432712Y-83525082D01*
X86430718Y-83524928D01*
X86430186Y-83524389D01*
X86429452Y-83523291D01*
X86415660Y-83532507D01*
X86413664Y-83532638D01*
X86412553Y-83530975D01*
X86412886Y-83529733D01*
X86420233Y-83518738D01*
X86424000Y-83499801D01*
X86424000Y-82500199D01*
X86420233Y-82481262D01*
X86412886Y-82470267D01*
X86412755Y-82468271D01*
X86414418Y-82467160D01*
X86415660Y-82467493D01*
G37*
G36*
X90415660Y-82467493D02*
G01*
X90429452Y-82476709D01*
X90430615Y-82474969D01*
X90432409Y-82474084D01*
X90433560Y-82474545D01*
X90450952Y-82489078D01*
X90519670Y-82497704D01*
X90567288Y-82474918D01*
X90569282Y-82475072D01*
X90569814Y-82475611D01*
X90570548Y-82476709D01*
X90584340Y-82467493D01*
X90586336Y-82467362D01*
X90587447Y-82469025D01*
X90587114Y-82470267D01*
X90579767Y-82481262D01*
X90576000Y-82500199D01*
X90576000Y-83499801D01*
X90579767Y-83518738D01*
X90587114Y-83529733D01*
X90587245Y-83531729D01*
X90585582Y-83532840D01*
X90584340Y-83532507D01*
X90570548Y-83523291D01*
X90569385Y-83525031D01*
X90567591Y-83525916D01*
X90566440Y-83525455D01*
X90549048Y-83510922D01*
X90480330Y-83502296D01*
X90432712Y-83525082D01*
X90430718Y-83524928D01*
X90430186Y-83524389D01*
X90429452Y-83523291D01*
X90415660Y-83532507D01*
X90413664Y-83532638D01*
X90412553Y-83530975D01*
X90412886Y-83529733D01*
X90420233Y-83518738D01*
X90424000Y-83499801D01*
X90424000Y-82500199D01*
X90420233Y-82481262D01*
X90412886Y-82470267D01*
X90412755Y-82468271D01*
X90414418Y-82467160D01*
X90415660Y-82467493D01*
G37*
G36*
X87915660Y-82467493D02*
G01*
X87929452Y-82476709D01*
X87930615Y-82474969D01*
X87932409Y-82474084D01*
X87933560Y-82474545D01*
X87950952Y-82489078D01*
X88019670Y-82497704D01*
X88067288Y-82474918D01*
X88069282Y-82475072D01*
X88069814Y-82475611D01*
X88070548Y-82476709D01*
X88084340Y-82467493D01*
X88086336Y-82467362D01*
X88087447Y-82469025D01*
X88087114Y-82470267D01*
X88079767Y-82481262D01*
X88076000Y-82500199D01*
X88076000Y-83499801D01*
X88079767Y-83518738D01*
X88087114Y-83529733D01*
X88087245Y-83531729D01*
X88085582Y-83532840D01*
X88084340Y-83532507D01*
X88070548Y-83523291D01*
X88069385Y-83525031D01*
X88067591Y-83525916D01*
X88066440Y-83525455D01*
X88049048Y-83510922D01*
X87980330Y-83502296D01*
X87932712Y-83525082D01*
X87930718Y-83524928D01*
X87930186Y-83524389D01*
X87929452Y-83523291D01*
X87915660Y-83532507D01*
X87913664Y-83532638D01*
X87912553Y-83530975D01*
X87912886Y-83529733D01*
X87920233Y-83518738D01*
X87924000Y-83499801D01*
X87924000Y-82500199D01*
X87920233Y-82481262D01*
X87912886Y-82470267D01*
X87912755Y-82468271D01*
X87914418Y-82467160D01*
X87915660Y-82467493D01*
G37*
G36*
X88415660Y-82467493D02*
G01*
X88429452Y-82476709D01*
X88430615Y-82474969D01*
X88432409Y-82474084D01*
X88433560Y-82474545D01*
X88450952Y-82489078D01*
X88519670Y-82497704D01*
X88567288Y-82474918D01*
X88569282Y-82475072D01*
X88569814Y-82475611D01*
X88570548Y-82476709D01*
X88584340Y-82467493D01*
X88586336Y-82467362D01*
X88587447Y-82469025D01*
X88587114Y-82470267D01*
X88579767Y-82481262D01*
X88576000Y-82500199D01*
X88576000Y-83499801D01*
X88579767Y-83518738D01*
X88587114Y-83529733D01*
X88587245Y-83531729D01*
X88585582Y-83532840D01*
X88584340Y-83532507D01*
X88570548Y-83523291D01*
X88569385Y-83525031D01*
X88567591Y-83525916D01*
X88566440Y-83525455D01*
X88549048Y-83510922D01*
X88480330Y-83502296D01*
X88432712Y-83525082D01*
X88430718Y-83524928D01*
X88430186Y-83524389D01*
X88429452Y-83523291D01*
X88415660Y-83532507D01*
X88413664Y-83532638D01*
X88412553Y-83530975D01*
X88412886Y-83529733D01*
X88420233Y-83518738D01*
X88424000Y-83499801D01*
X88424000Y-82500199D01*
X88420233Y-82481262D01*
X88412886Y-82470267D01*
X88412755Y-82468271D01*
X88414418Y-82467160D01*
X88415660Y-82467493D01*
G37*
G36*
X84915660Y-82467493D02*
G01*
X84929452Y-82476709D01*
X84930615Y-82474969D01*
X84932409Y-82474084D01*
X84933560Y-82474545D01*
X84950952Y-82489078D01*
X85019670Y-82497704D01*
X85067288Y-82474918D01*
X85069282Y-82475072D01*
X85069814Y-82475611D01*
X85070548Y-82476709D01*
X85084340Y-82467493D01*
X85086336Y-82467362D01*
X85087447Y-82469025D01*
X85087114Y-82470267D01*
X85079767Y-82481262D01*
X85076000Y-82500199D01*
X85076000Y-83499801D01*
X85079767Y-83518738D01*
X85087114Y-83529733D01*
X85087245Y-83531729D01*
X85085582Y-83532840D01*
X85084340Y-83532507D01*
X85070548Y-83523291D01*
X85069385Y-83525031D01*
X85067591Y-83525916D01*
X85066440Y-83525455D01*
X85049048Y-83510922D01*
X84980330Y-83502296D01*
X84932712Y-83525082D01*
X84930718Y-83524928D01*
X84930186Y-83524389D01*
X84929452Y-83523291D01*
X84915660Y-83532507D01*
X84913664Y-83532638D01*
X84912553Y-83530975D01*
X84912886Y-83529733D01*
X84920233Y-83518738D01*
X84924000Y-83499801D01*
X84924000Y-82500199D01*
X84920233Y-82481262D01*
X84912886Y-82470267D01*
X84912755Y-82468271D01*
X84914418Y-82467160D01*
X84915660Y-82467493D01*
G37*
M02*
