%TF.GenerationSoftware,KiCad,Pcbnew,6.0.6+dfsg-1~bpo11+1*%
%TF.CreationDate,2023-11-30T19:30:28+01:00*%
%TF.ProjectId,touch,746f7563-682e-46b6-9963-61645f706362,rev?*%
%TF.SameCoordinates,Original*%
%TF.FileFunction,Other,Comment*%
%FSLAX46Y46*%
G04 Gerber Fmt 4.6, Leading zero omitted, Abs format (unit mm)*
G04 Created by KiCad (PCBNEW 6.0.6+dfsg-1~bpo11+1) date 2023-11-30 19:30:28*
%MOMM*%
%LPD*%
G01*
G04 APERTURE LIST*
%ADD10C,0.051000*%
G04 APERTURE END LIST*
D10*
%TO.C,M1*%
X134061904Y-143660952D02*
X134061904Y-143260952D01*
X134290476Y-143660952D02*
X134119047Y-143432380D01*
X134290476Y-143260952D02*
X134061904Y-143489523D01*
X134461904Y-143451428D02*
X134595238Y-143451428D01*
X134652380Y-143660952D02*
X134461904Y-143660952D01*
X134461904Y-143260952D01*
X134652380Y-143260952D01*
X134823809Y-143451428D02*
X134957142Y-143451428D01*
X135014285Y-143660952D02*
X134823809Y-143660952D01*
X134823809Y-143260952D01*
X135014285Y-143260952D01*
X135185714Y-143660952D02*
X135185714Y-143260952D01*
X135338095Y-143260952D01*
X135376190Y-143280000D01*
X135395238Y-143299047D01*
X135414285Y-143337142D01*
X135414285Y-143394285D01*
X135395238Y-143432380D01*
X135376190Y-143451428D01*
X135338095Y-143470476D01*
X135185714Y-143470476D01*
X135661904Y-143260952D02*
X135738095Y-143260952D01*
X135776190Y-143280000D01*
X135814285Y-143318095D01*
X135833333Y-143394285D01*
X135833333Y-143527619D01*
X135814285Y-143603809D01*
X135776190Y-143641904D01*
X135738095Y-143660952D01*
X135661904Y-143660952D01*
X135623809Y-143641904D01*
X135585714Y-143603809D01*
X135566666Y-143527619D01*
X135566666Y-143394285D01*
X135585714Y-143318095D01*
X135623809Y-143280000D01*
X135661904Y-143260952D01*
X136004761Y-143260952D02*
X136004761Y-143584761D01*
X136023809Y-143622857D01*
X136042857Y-143641904D01*
X136080952Y-143660952D01*
X136157142Y-143660952D01*
X136195238Y-143641904D01*
X136214285Y-143622857D01*
X136233333Y-143584761D01*
X136233333Y-143260952D01*
X136366666Y-143260952D02*
X136595238Y-143260952D01*
X136480952Y-143660952D02*
X136480952Y-143260952D01*
%TO.C,M2*%
X144261904Y-143660952D02*
X144261904Y-143260952D01*
X144490476Y-143660952D02*
X144319047Y-143432380D01*
X144490476Y-143260952D02*
X144261904Y-143489523D01*
X144661904Y-143451428D02*
X144795238Y-143451428D01*
X144852380Y-143660952D02*
X144661904Y-143660952D01*
X144661904Y-143260952D01*
X144852380Y-143260952D01*
X145023809Y-143451428D02*
X145157142Y-143451428D01*
X145214285Y-143660952D02*
X145023809Y-143660952D01*
X145023809Y-143260952D01*
X145214285Y-143260952D01*
X145385714Y-143660952D02*
X145385714Y-143260952D01*
X145538095Y-143260952D01*
X145576190Y-143280000D01*
X145595238Y-143299047D01*
X145614285Y-143337142D01*
X145614285Y-143394285D01*
X145595238Y-143432380D01*
X145576190Y-143451428D01*
X145538095Y-143470476D01*
X145385714Y-143470476D01*
X145861904Y-143260952D02*
X145938095Y-143260952D01*
X145976190Y-143280000D01*
X146014285Y-143318095D01*
X146033333Y-143394285D01*
X146033333Y-143527619D01*
X146014285Y-143603809D01*
X145976190Y-143641904D01*
X145938095Y-143660952D01*
X145861904Y-143660952D01*
X145823809Y-143641904D01*
X145785714Y-143603809D01*
X145766666Y-143527619D01*
X145766666Y-143394285D01*
X145785714Y-143318095D01*
X145823809Y-143280000D01*
X145861904Y-143260952D01*
X146204761Y-143260952D02*
X146204761Y-143584761D01*
X146223809Y-143622857D01*
X146242857Y-143641904D01*
X146280952Y-143660952D01*
X146357142Y-143660952D01*
X146395238Y-143641904D01*
X146414285Y-143622857D01*
X146433333Y-143584761D01*
X146433333Y-143260952D01*
X146566666Y-143260952D02*
X146795238Y-143260952D01*
X146680952Y-143660952D02*
X146680952Y-143260952D01*
%TO.C,M3*%
X144261904Y-128860952D02*
X144261904Y-128460952D01*
X144490476Y-128860952D02*
X144319047Y-128632380D01*
X144490476Y-128460952D02*
X144261904Y-128689523D01*
X144661904Y-128651428D02*
X144795238Y-128651428D01*
X144852380Y-128860952D02*
X144661904Y-128860952D01*
X144661904Y-128460952D01*
X144852380Y-128460952D01*
X145023809Y-128651428D02*
X145157142Y-128651428D01*
X145214285Y-128860952D02*
X145023809Y-128860952D01*
X145023809Y-128460952D01*
X145214285Y-128460952D01*
X145385714Y-128860952D02*
X145385714Y-128460952D01*
X145538095Y-128460952D01*
X145576190Y-128480000D01*
X145595238Y-128499047D01*
X145614285Y-128537142D01*
X145614285Y-128594285D01*
X145595238Y-128632380D01*
X145576190Y-128651428D01*
X145538095Y-128670476D01*
X145385714Y-128670476D01*
X145861904Y-128460952D02*
X145938095Y-128460952D01*
X145976190Y-128480000D01*
X146014285Y-128518095D01*
X146033333Y-128594285D01*
X146033333Y-128727619D01*
X146014285Y-128803809D01*
X145976190Y-128841904D01*
X145938095Y-128860952D01*
X145861904Y-128860952D01*
X145823809Y-128841904D01*
X145785714Y-128803809D01*
X145766666Y-128727619D01*
X145766666Y-128594285D01*
X145785714Y-128518095D01*
X145823809Y-128480000D01*
X145861904Y-128460952D01*
X146204761Y-128460952D02*
X146204761Y-128784761D01*
X146223809Y-128822857D01*
X146242857Y-128841904D01*
X146280952Y-128860952D01*
X146357142Y-128860952D01*
X146395238Y-128841904D01*
X146414285Y-128822857D01*
X146433333Y-128784761D01*
X146433333Y-128460952D01*
X146566666Y-128460952D02*
X146795238Y-128460952D01*
X146680952Y-128860952D02*
X146680952Y-128460952D01*
%TO.C,M4*%
X134061904Y-128860952D02*
X134061904Y-128460952D01*
X134290476Y-128860952D02*
X134119047Y-128632380D01*
X134290476Y-128460952D02*
X134061904Y-128689523D01*
X134461904Y-128651428D02*
X134595238Y-128651428D01*
X134652380Y-128860952D02*
X134461904Y-128860952D01*
X134461904Y-128460952D01*
X134652380Y-128460952D01*
X134823809Y-128651428D02*
X134957142Y-128651428D01*
X135014285Y-128860952D02*
X134823809Y-128860952D01*
X134823809Y-128460952D01*
X135014285Y-128460952D01*
X135185714Y-128860952D02*
X135185714Y-128460952D01*
X135338095Y-128460952D01*
X135376190Y-128480000D01*
X135395238Y-128499047D01*
X135414285Y-128537142D01*
X135414285Y-128594285D01*
X135395238Y-128632380D01*
X135376190Y-128651428D01*
X135338095Y-128670476D01*
X135185714Y-128670476D01*
X135661904Y-128460952D02*
X135738095Y-128460952D01*
X135776190Y-128480000D01*
X135814285Y-128518095D01*
X135833333Y-128594285D01*
X135833333Y-128727619D01*
X135814285Y-128803809D01*
X135776190Y-128841904D01*
X135738095Y-128860952D01*
X135661904Y-128860952D01*
X135623809Y-128841904D01*
X135585714Y-128803809D01*
X135566666Y-128727619D01*
X135566666Y-128594285D01*
X135585714Y-128518095D01*
X135623809Y-128480000D01*
X135661904Y-128460952D01*
X136004761Y-128460952D02*
X136004761Y-128784761D01*
X136023809Y-128822857D01*
X136042857Y-128841904D01*
X136080952Y-128860952D01*
X136157142Y-128860952D01*
X136195238Y-128841904D01*
X136214285Y-128822857D01*
X136233333Y-128784761D01*
X136233333Y-128460952D01*
X136366666Y-128460952D02*
X136595238Y-128460952D01*
X136480952Y-128860952D02*
X136480952Y-128460952D01*
%TO.C,M5*%
X68461904Y-143660952D02*
X68461904Y-143260952D01*
X68690476Y-143660952D02*
X68519047Y-143432380D01*
X68690476Y-143260952D02*
X68461904Y-143489523D01*
X68861904Y-143451428D02*
X68995238Y-143451428D01*
X69052380Y-143660952D02*
X68861904Y-143660952D01*
X68861904Y-143260952D01*
X69052380Y-143260952D01*
X69223809Y-143451428D02*
X69357142Y-143451428D01*
X69414285Y-143660952D02*
X69223809Y-143660952D01*
X69223809Y-143260952D01*
X69414285Y-143260952D01*
X69585714Y-143660952D02*
X69585714Y-143260952D01*
X69738095Y-143260952D01*
X69776190Y-143280000D01*
X69795238Y-143299047D01*
X69814285Y-143337142D01*
X69814285Y-143394285D01*
X69795238Y-143432380D01*
X69776190Y-143451428D01*
X69738095Y-143470476D01*
X69585714Y-143470476D01*
X70061904Y-143260952D02*
X70138095Y-143260952D01*
X70176190Y-143280000D01*
X70214285Y-143318095D01*
X70233333Y-143394285D01*
X70233333Y-143527619D01*
X70214285Y-143603809D01*
X70176190Y-143641904D01*
X70138095Y-143660952D01*
X70061904Y-143660952D01*
X70023809Y-143641904D01*
X69985714Y-143603809D01*
X69966666Y-143527619D01*
X69966666Y-143394285D01*
X69985714Y-143318095D01*
X70023809Y-143280000D01*
X70061904Y-143260952D01*
X70404761Y-143260952D02*
X70404761Y-143584761D01*
X70423809Y-143622857D01*
X70442857Y-143641904D01*
X70480952Y-143660952D01*
X70557142Y-143660952D01*
X70595238Y-143641904D01*
X70614285Y-143622857D01*
X70633333Y-143584761D01*
X70633333Y-143260952D01*
X70766666Y-143260952D02*
X70995238Y-143260952D01*
X70880952Y-143660952D02*
X70880952Y-143260952D01*
%TO.C,M6*%
X58261904Y-143660952D02*
X58261904Y-143260952D01*
X58490476Y-143660952D02*
X58319047Y-143432380D01*
X58490476Y-143260952D02*
X58261904Y-143489523D01*
X58661904Y-143451428D02*
X58795238Y-143451428D01*
X58852380Y-143660952D02*
X58661904Y-143660952D01*
X58661904Y-143260952D01*
X58852380Y-143260952D01*
X59023809Y-143451428D02*
X59157142Y-143451428D01*
X59214285Y-143660952D02*
X59023809Y-143660952D01*
X59023809Y-143260952D01*
X59214285Y-143260952D01*
X59385714Y-143660952D02*
X59385714Y-143260952D01*
X59538095Y-143260952D01*
X59576190Y-143280000D01*
X59595238Y-143299047D01*
X59614285Y-143337142D01*
X59614285Y-143394285D01*
X59595238Y-143432380D01*
X59576190Y-143451428D01*
X59538095Y-143470476D01*
X59385714Y-143470476D01*
X59861904Y-143260952D02*
X59938095Y-143260952D01*
X59976190Y-143280000D01*
X60014285Y-143318095D01*
X60033333Y-143394285D01*
X60033333Y-143527619D01*
X60014285Y-143603809D01*
X59976190Y-143641904D01*
X59938095Y-143660952D01*
X59861904Y-143660952D01*
X59823809Y-143641904D01*
X59785714Y-143603809D01*
X59766666Y-143527619D01*
X59766666Y-143394285D01*
X59785714Y-143318095D01*
X59823809Y-143280000D01*
X59861904Y-143260952D01*
X60204761Y-143260952D02*
X60204761Y-143584761D01*
X60223809Y-143622857D01*
X60242857Y-143641904D01*
X60280952Y-143660952D01*
X60357142Y-143660952D01*
X60395238Y-143641904D01*
X60414285Y-143622857D01*
X60433333Y-143584761D01*
X60433333Y-143260952D01*
X60566666Y-143260952D02*
X60795238Y-143260952D01*
X60680952Y-143660952D02*
X60680952Y-143260952D01*
%TO.C,M7*%
X58261904Y-128860952D02*
X58261904Y-128460952D01*
X58490476Y-128860952D02*
X58319047Y-128632380D01*
X58490476Y-128460952D02*
X58261904Y-128689523D01*
X58661904Y-128651428D02*
X58795238Y-128651428D01*
X58852380Y-128860952D02*
X58661904Y-128860952D01*
X58661904Y-128460952D01*
X58852380Y-128460952D01*
X59023809Y-128651428D02*
X59157142Y-128651428D01*
X59214285Y-128860952D02*
X59023809Y-128860952D01*
X59023809Y-128460952D01*
X59214285Y-128460952D01*
X59385714Y-128860952D02*
X59385714Y-128460952D01*
X59538095Y-128460952D01*
X59576190Y-128480000D01*
X59595238Y-128499047D01*
X59614285Y-128537142D01*
X59614285Y-128594285D01*
X59595238Y-128632380D01*
X59576190Y-128651428D01*
X59538095Y-128670476D01*
X59385714Y-128670476D01*
X59861904Y-128460952D02*
X59938095Y-128460952D01*
X59976190Y-128480000D01*
X60014285Y-128518095D01*
X60033333Y-128594285D01*
X60033333Y-128727619D01*
X60014285Y-128803809D01*
X59976190Y-128841904D01*
X59938095Y-128860952D01*
X59861904Y-128860952D01*
X59823809Y-128841904D01*
X59785714Y-128803809D01*
X59766666Y-128727619D01*
X59766666Y-128594285D01*
X59785714Y-128518095D01*
X59823809Y-128480000D01*
X59861904Y-128460952D01*
X60204761Y-128460952D02*
X60204761Y-128784761D01*
X60223809Y-128822857D01*
X60242857Y-128841904D01*
X60280952Y-128860952D01*
X60357142Y-128860952D01*
X60395238Y-128841904D01*
X60414285Y-128822857D01*
X60433333Y-128784761D01*
X60433333Y-128460952D01*
X60566666Y-128460952D02*
X60795238Y-128460952D01*
X60680952Y-128860952D02*
X60680952Y-128460952D01*
%TO.C,M8*%
X68461904Y-128860952D02*
X68461904Y-128460952D01*
X68690476Y-128860952D02*
X68519047Y-128632380D01*
X68690476Y-128460952D02*
X68461904Y-128689523D01*
X68861904Y-128651428D02*
X68995238Y-128651428D01*
X69052380Y-128860952D02*
X68861904Y-128860952D01*
X68861904Y-128460952D01*
X69052380Y-128460952D01*
X69223809Y-128651428D02*
X69357142Y-128651428D01*
X69414285Y-128860952D02*
X69223809Y-128860952D01*
X69223809Y-128460952D01*
X69414285Y-128460952D01*
X69585714Y-128860952D02*
X69585714Y-128460952D01*
X69738095Y-128460952D01*
X69776190Y-128480000D01*
X69795238Y-128499047D01*
X69814285Y-128537142D01*
X69814285Y-128594285D01*
X69795238Y-128632380D01*
X69776190Y-128651428D01*
X69738095Y-128670476D01*
X69585714Y-128670476D01*
X70061904Y-128460952D02*
X70138095Y-128460952D01*
X70176190Y-128480000D01*
X70214285Y-128518095D01*
X70233333Y-128594285D01*
X70233333Y-128727619D01*
X70214285Y-128803809D01*
X70176190Y-128841904D01*
X70138095Y-128860952D01*
X70061904Y-128860952D01*
X70023809Y-128841904D01*
X69985714Y-128803809D01*
X69966666Y-128727619D01*
X69966666Y-128594285D01*
X69985714Y-128518095D01*
X70023809Y-128480000D01*
X70061904Y-128460952D01*
X70404761Y-128460952D02*
X70404761Y-128784761D01*
X70423809Y-128822857D01*
X70442857Y-128841904D01*
X70480952Y-128860952D01*
X70557142Y-128860952D01*
X70595238Y-128841904D01*
X70614285Y-128822857D01*
X70633333Y-128784761D01*
X70633333Y-128460952D01*
X70766666Y-128460952D02*
X70995238Y-128460952D01*
X70880952Y-128860952D02*
X70880952Y-128460952D01*
%TO.C,M9*%
X68461904Y-55660952D02*
X68461904Y-55260952D01*
X68690476Y-55660952D02*
X68519047Y-55432380D01*
X68690476Y-55260952D02*
X68461904Y-55489523D01*
X68861904Y-55451428D02*
X68995238Y-55451428D01*
X69052380Y-55660952D02*
X68861904Y-55660952D01*
X68861904Y-55260952D01*
X69052380Y-55260952D01*
X69223809Y-55451428D02*
X69357142Y-55451428D01*
X69414285Y-55660952D02*
X69223809Y-55660952D01*
X69223809Y-55260952D01*
X69414285Y-55260952D01*
X69585714Y-55660952D02*
X69585714Y-55260952D01*
X69738095Y-55260952D01*
X69776190Y-55280000D01*
X69795238Y-55299047D01*
X69814285Y-55337142D01*
X69814285Y-55394285D01*
X69795238Y-55432380D01*
X69776190Y-55451428D01*
X69738095Y-55470476D01*
X69585714Y-55470476D01*
X70061904Y-55260952D02*
X70138095Y-55260952D01*
X70176190Y-55280000D01*
X70214285Y-55318095D01*
X70233333Y-55394285D01*
X70233333Y-55527619D01*
X70214285Y-55603809D01*
X70176190Y-55641904D01*
X70138095Y-55660952D01*
X70061904Y-55660952D01*
X70023809Y-55641904D01*
X69985714Y-55603809D01*
X69966666Y-55527619D01*
X69966666Y-55394285D01*
X69985714Y-55318095D01*
X70023809Y-55280000D01*
X70061904Y-55260952D01*
X70404761Y-55260952D02*
X70404761Y-55584761D01*
X70423809Y-55622857D01*
X70442857Y-55641904D01*
X70480952Y-55660952D01*
X70557142Y-55660952D01*
X70595238Y-55641904D01*
X70614285Y-55622857D01*
X70633333Y-55584761D01*
X70633333Y-55260952D01*
X70766666Y-55260952D02*
X70995238Y-55260952D01*
X70880952Y-55660952D02*
X70880952Y-55260952D01*
%TO.C,M10*%
X58261904Y-55660952D02*
X58261904Y-55260952D01*
X58490476Y-55660952D02*
X58319047Y-55432380D01*
X58490476Y-55260952D02*
X58261904Y-55489523D01*
X58661904Y-55451428D02*
X58795238Y-55451428D01*
X58852380Y-55660952D02*
X58661904Y-55660952D01*
X58661904Y-55260952D01*
X58852380Y-55260952D01*
X59023809Y-55451428D02*
X59157142Y-55451428D01*
X59214285Y-55660952D02*
X59023809Y-55660952D01*
X59023809Y-55260952D01*
X59214285Y-55260952D01*
X59385714Y-55660952D02*
X59385714Y-55260952D01*
X59538095Y-55260952D01*
X59576190Y-55280000D01*
X59595238Y-55299047D01*
X59614285Y-55337142D01*
X59614285Y-55394285D01*
X59595238Y-55432380D01*
X59576190Y-55451428D01*
X59538095Y-55470476D01*
X59385714Y-55470476D01*
X59861904Y-55260952D02*
X59938095Y-55260952D01*
X59976190Y-55280000D01*
X60014285Y-55318095D01*
X60033333Y-55394285D01*
X60033333Y-55527619D01*
X60014285Y-55603809D01*
X59976190Y-55641904D01*
X59938095Y-55660952D01*
X59861904Y-55660952D01*
X59823809Y-55641904D01*
X59785714Y-55603809D01*
X59766666Y-55527619D01*
X59766666Y-55394285D01*
X59785714Y-55318095D01*
X59823809Y-55280000D01*
X59861904Y-55260952D01*
X60204761Y-55260952D02*
X60204761Y-55584761D01*
X60223809Y-55622857D01*
X60242857Y-55641904D01*
X60280952Y-55660952D01*
X60357142Y-55660952D01*
X60395238Y-55641904D01*
X60414285Y-55622857D01*
X60433333Y-55584761D01*
X60433333Y-55260952D01*
X60566666Y-55260952D02*
X60795238Y-55260952D01*
X60680952Y-55660952D02*
X60680952Y-55260952D01*
%TO.C,M11*%
X58261904Y-70660952D02*
X58261904Y-70260952D01*
X58490476Y-70660952D02*
X58319047Y-70432380D01*
X58490476Y-70260952D02*
X58261904Y-70489523D01*
X58661904Y-70451428D02*
X58795238Y-70451428D01*
X58852380Y-70660952D02*
X58661904Y-70660952D01*
X58661904Y-70260952D01*
X58852380Y-70260952D01*
X59023809Y-70451428D02*
X59157142Y-70451428D01*
X59214285Y-70660952D02*
X59023809Y-70660952D01*
X59023809Y-70260952D01*
X59214285Y-70260952D01*
X59385714Y-70660952D02*
X59385714Y-70260952D01*
X59538095Y-70260952D01*
X59576190Y-70280000D01*
X59595238Y-70299047D01*
X59614285Y-70337142D01*
X59614285Y-70394285D01*
X59595238Y-70432380D01*
X59576190Y-70451428D01*
X59538095Y-70470476D01*
X59385714Y-70470476D01*
X59861904Y-70260952D02*
X59938095Y-70260952D01*
X59976190Y-70280000D01*
X60014285Y-70318095D01*
X60033333Y-70394285D01*
X60033333Y-70527619D01*
X60014285Y-70603809D01*
X59976190Y-70641904D01*
X59938095Y-70660952D01*
X59861904Y-70660952D01*
X59823809Y-70641904D01*
X59785714Y-70603809D01*
X59766666Y-70527619D01*
X59766666Y-70394285D01*
X59785714Y-70318095D01*
X59823809Y-70280000D01*
X59861904Y-70260952D01*
X60204761Y-70260952D02*
X60204761Y-70584761D01*
X60223809Y-70622857D01*
X60242857Y-70641904D01*
X60280952Y-70660952D01*
X60357142Y-70660952D01*
X60395238Y-70641904D01*
X60414285Y-70622857D01*
X60433333Y-70584761D01*
X60433333Y-70260952D01*
X60566666Y-70260952D02*
X60795238Y-70260952D01*
X60680952Y-70660952D02*
X60680952Y-70260952D01*
%TO.C,M12*%
X68461904Y-70660952D02*
X68461904Y-70260952D01*
X68690476Y-70660952D02*
X68519047Y-70432380D01*
X68690476Y-70260952D02*
X68461904Y-70489523D01*
X68861904Y-70451428D02*
X68995238Y-70451428D01*
X69052380Y-70660952D02*
X68861904Y-70660952D01*
X68861904Y-70260952D01*
X69052380Y-70260952D01*
X69223809Y-70451428D02*
X69357142Y-70451428D01*
X69414285Y-70660952D02*
X69223809Y-70660952D01*
X69223809Y-70260952D01*
X69414285Y-70260952D01*
X69585714Y-70660952D02*
X69585714Y-70260952D01*
X69738095Y-70260952D01*
X69776190Y-70280000D01*
X69795238Y-70299047D01*
X69814285Y-70337142D01*
X69814285Y-70394285D01*
X69795238Y-70432380D01*
X69776190Y-70451428D01*
X69738095Y-70470476D01*
X69585714Y-70470476D01*
X70061904Y-70260952D02*
X70138095Y-70260952D01*
X70176190Y-70280000D01*
X70214285Y-70318095D01*
X70233333Y-70394285D01*
X70233333Y-70527619D01*
X70214285Y-70603809D01*
X70176190Y-70641904D01*
X70138095Y-70660952D01*
X70061904Y-70660952D01*
X70023809Y-70641904D01*
X69985714Y-70603809D01*
X69966666Y-70527619D01*
X69966666Y-70394285D01*
X69985714Y-70318095D01*
X70023809Y-70280000D01*
X70061904Y-70260952D01*
X70404761Y-70260952D02*
X70404761Y-70584761D01*
X70423809Y-70622857D01*
X70442857Y-70641904D01*
X70480952Y-70660952D01*
X70557142Y-70660952D01*
X70595238Y-70641904D01*
X70614285Y-70622857D01*
X70633333Y-70584761D01*
X70633333Y-70260952D01*
X70766666Y-70260952D02*
X70995238Y-70260952D01*
X70880952Y-70660952D02*
X70880952Y-70260952D01*
%TO.C,M13*%
X134061904Y-55660952D02*
X134061904Y-55260952D01*
X134290476Y-55660952D02*
X134119047Y-55432380D01*
X134290476Y-55260952D02*
X134061904Y-55489523D01*
X134461904Y-55451428D02*
X134595238Y-55451428D01*
X134652380Y-55660952D02*
X134461904Y-55660952D01*
X134461904Y-55260952D01*
X134652380Y-55260952D01*
X134823809Y-55451428D02*
X134957142Y-55451428D01*
X135014285Y-55660952D02*
X134823809Y-55660952D01*
X134823809Y-55260952D01*
X135014285Y-55260952D01*
X135185714Y-55660952D02*
X135185714Y-55260952D01*
X135338095Y-55260952D01*
X135376190Y-55280000D01*
X135395238Y-55299047D01*
X135414285Y-55337142D01*
X135414285Y-55394285D01*
X135395238Y-55432380D01*
X135376190Y-55451428D01*
X135338095Y-55470476D01*
X135185714Y-55470476D01*
X135661904Y-55260952D02*
X135738095Y-55260952D01*
X135776190Y-55280000D01*
X135814285Y-55318095D01*
X135833333Y-55394285D01*
X135833333Y-55527619D01*
X135814285Y-55603809D01*
X135776190Y-55641904D01*
X135738095Y-55660952D01*
X135661904Y-55660952D01*
X135623809Y-55641904D01*
X135585714Y-55603809D01*
X135566666Y-55527619D01*
X135566666Y-55394285D01*
X135585714Y-55318095D01*
X135623809Y-55280000D01*
X135661904Y-55260952D01*
X136004761Y-55260952D02*
X136004761Y-55584761D01*
X136023809Y-55622857D01*
X136042857Y-55641904D01*
X136080952Y-55660952D01*
X136157142Y-55660952D01*
X136195238Y-55641904D01*
X136214285Y-55622857D01*
X136233333Y-55584761D01*
X136233333Y-55260952D01*
X136366666Y-55260952D02*
X136595238Y-55260952D01*
X136480952Y-55660952D02*
X136480952Y-55260952D01*
%TO.C,M14*%
X144261904Y-55660952D02*
X144261904Y-55260952D01*
X144490476Y-55660952D02*
X144319047Y-55432380D01*
X144490476Y-55260952D02*
X144261904Y-55489523D01*
X144661904Y-55451428D02*
X144795238Y-55451428D01*
X144852380Y-55660952D02*
X144661904Y-55660952D01*
X144661904Y-55260952D01*
X144852380Y-55260952D01*
X145023809Y-55451428D02*
X145157142Y-55451428D01*
X145214285Y-55660952D02*
X145023809Y-55660952D01*
X145023809Y-55260952D01*
X145214285Y-55260952D01*
X145385714Y-55660952D02*
X145385714Y-55260952D01*
X145538095Y-55260952D01*
X145576190Y-55280000D01*
X145595238Y-55299047D01*
X145614285Y-55337142D01*
X145614285Y-55394285D01*
X145595238Y-55432380D01*
X145576190Y-55451428D01*
X145538095Y-55470476D01*
X145385714Y-55470476D01*
X145861904Y-55260952D02*
X145938095Y-55260952D01*
X145976190Y-55280000D01*
X146014285Y-55318095D01*
X146033333Y-55394285D01*
X146033333Y-55527619D01*
X146014285Y-55603809D01*
X145976190Y-55641904D01*
X145938095Y-55660952D01*
X145861904Y-55660952D01*
X145823809Y-55641904D01*
X145785714Y-55603809D01*
X145766666Y-55527619D01*
X145766666Y-55394285D01*
X145785714Y-55318095D01*
X145823809Y-55280000D01*
X145861904Y-55260952D01*
X146204761Y-55260952D02*
X146204761Y-55584761D01*
X146223809Y-55622857D01*
X146242857Y-55641904D01*
X146280952Y-55660952D01*
X146357142Y-55660952D01*
X146395238Y-55641904D01*
X146414285Y-55622857D01*
X146433333Y-55584761D01*
X146433333Y-55260952D01*
X146566666Y-55260952D02*
X146795238Y-55260952D01*
X146680952Y-55660952D02*
X146680952Y-55260952D01*
%TO.C,M15*%
X144261904Y-70660952D02*
X144261904Y-70260952D01*
X144490476Y-70660952D02*
X144319047Y-70432380D01*
X144490476Y-70260952D02*
X144261904Y-70489523D01*
X144661904Y-70451428D02*
X144795238Y-70451428D01*
X144852380Y-70660952D02*
X144661904Y-70660952D01*
X144661904Y-70260952D01*
X144852380Y-70260952D01*
X145023809Y-70451428D02*
X145157142Y-70451428D01*
X145214285Y-70660952D02*
X145023809Y-70660952D01*
X145023809Y-70260952D01*
X145214285Y-70260952D01*
X145385714Y-70660952D02*
X145385714Y-70260952D01*
X145538095Y-70260952D01*
X145576190Y-70280000D01*
X145595238Y-70299047D01*
X145614285Y-70337142D01*
X145614285Y-70394285D01*
X145595238Y-70432380D01*
X145576190Y-70451428D01*
X145538095Y-70470476D01*
X145385714Y-70470476D01*
X145861904Y-70260952D02*
X145938095Y-70260952D01*
X145976190Y-70280000D01*
X146014285Y-70318095D01*
X146033333Y-70394285D01*
X146033333Y-70527619D01*
X146014285Y-70603809D01*
X145976190Y-70641904D01*
X145938095Y-70660952D01*
X145861904Y-70660952D01*
X145823809Y-70641904D01*
X145785714Y-70603809D01*
X145766666Y-70527619D01*
X145766666Y-70394285D01*
X145785714Y-70318095D01*
X145823809Y-70280000D01*
X145861904Y-70260952D01*
X146204761Y-70260952D02*
X146204761Y-70584761D01*
X146223809Y-70622857D01*
X146242857Y-70641904D01*
X146280952Y-70660952D01*
X146357142Y-70660952D01*
X146395238Y-70641904D01*
X146414285Y-70622857D01*
X146433333Y-70584761D01*
X146433333Y-70260952D01*
X146566666Y-70260952D02*
X146795238Y-70260952D01*
X146680952Y-70660952D02*
X146680952Y-70260952D01*
%TO.C,M16*%
X134061904Y-70660952D02*
X134061904Y-70260952D01*
X134290476Y-70660952D02*
X134119047Y-70432380D01*
X134290476Y-70260952D02*
X134061904Y-70489523D01*
X134461904Y-70451428D02*
X134595238Y-70451428D01*
X134652380Y-70660952D02*
X134461904Y-70660952D01*
X134461904Y-70260952D01*
X134652380Y-70260952D01*
X134823809Y-70451428D02*
X134957142Y-70451428D01*
X135014285Y-70660952D02*
X134823809Y-70660952D01*
X134823809Y-70260952D01*
X135014285Y-70260952D01*
X135185714Y-70660952D02*
X135185714Y-70260952D01*
X135338095Y-70260952D01*
X135376190Y-70280000D01*
X135395238Y-70299047D01*
X135414285Y-70337142D01*
X135414285Y-70394285D01*
X135395238Y-70432380D01*
X135376190Y-70451428D01*
X135338095Y-70470476D01*
X135185714Y-70470476D01*
X135661904Y-70260952D02*
X135738095Y-70260952D01*
X135776190Y-70280000D01*
X135814285Y-70318095D01*
X135833333Y-70394285D01*
X135833333Y-70527619D01*
X135814285Y-70603809D01*
X135776190Y-70641904D01*
X135738095Y-70660952D01*
X135661904Y-70660952D01*
X135623809Y-70641904D01*
X135585714Y-70603809D01*
X135566666Y-70527619D01*
X135566666Y-70394285D01*
X135585714Y-70318095D01*
X135623809Y-70280000D01*
X135661904Y-70260952D01*
X136004761Y-70260952D02*
X136004761Y-70584761D01*
X136023809Y-70622857D01*
X136042857Y-70641904D01*
X136080952Y-70660952D01*
X136157142Y-70660952D01*
X136195238Y-70641904D01*
X136214285Y-70622857D01*
X136233333Y-70584761D01*
X136233333Y-70260952D01*
X136366666Y-70260952D02*
X136595238Y-70260952D01*
X136480952Y-70660952D02*
X136480952Y-70260952D01*
%TD*%
M02*
