M48
; DRILL file {KiCad 6.0.6+dfsg-1~bpo11+1} date Thu Nov 30 19:30:28 2023
; FORMAT={-:-/ absolute / inch / decimal}
; #@! TF.CreationDate,2023-11-30T19:30:28+01:00
; #@! TF.GenerationSoftware,Kicad,Pcbnew,6.0.6+dfsg-1~bpo11+1
; #@! TF.FileFunction,Plated,1,2,PTH
FMAT,2
INCH
; #@! TA.AperFunction,Plated,PTH,ViaDrill
T1C0.0157
; #@! TA.AperFunction,Plated,PTH,ComponentDrill
T2C0.0394
; #@! TA.AperFunction,Plated,PTH,ComponentDrill
T3C0.0480
; #@! TA.AperFunction,Plated,PTH,ComponentDrill
T4C0.0559
; #@! TA.AperFunction,Plated,PTH,ComponentDrill
T5C0.0563
%
G90
G05
T1
X2.1961Y-2.2591
X2.1984Y-4.9217
X2.1996Y-3.5283
X2.2012Y-2.9839
X2.2122Y-5.2661
X2.2176Y-3.2276
X2.222Y-5.7701
X2.2268Y-3.9492
X2.2378Y-4.2154
X2.2496Y-4.752
X2.2555Y-3.7378
X2.288Y-4.602
X2.2937Y-4.7193
X2.2946Y-4.3575
X2.3035Y-3.5866
X2.352Y-3.9839
X2.354Y-4.2613
X2.3803Y-3.4571
X2.4177Y-4.6366
X2.426Y-3.3276
X2.4327Y-4.2772
X2.4327Y-5.2043
X2.4504Y-3.8114
X2.4508Y-5.2882
X2.472Y-3.8685
X2.4724Y-4.3396
X2.4906Y-5.1614
X2.4913Y-2.9287
X2.4929Y-4.0496
X2.4933Y-3.1882
X2.5087Y-4.248
X2.5161Y-4.6953
X2.5201Y-1.9291
X2.5291Y-3.085
X2.572Y-3.7862
X2.5799Y-3.9591
X2.5866Y-5.2591
X2.6087Y-2.5031
X2.6327Y-4.5031
X2.6409Y-2.4028
X2.6433Y-5.5031
X2.6683Y-3.7441
X2.6744Y-3.2512
X2.6821Y-3.8632
X2.6957Y-3.1173
X2.7077Y-4.1969
X2.7079Y-4.5071
X2.7299Y-3.0563
X2.7547Y-3.7787
X2.826Y-4.7059
X2.8276Y-3.0512
X2.8429Y-4.4409
X2.8465Y-2.785
X2.864Y-4.5913
X2.8661Y-5.2421
X2.8681Y-3.1929
X2.8744Y-4.3217
X2.8917Y-3.7687
X2.8921Y-2.448
X2.9043Y-5.4925
X2.9085Y-3.8337
X2.9091Y-1.9232
X2.914Y-4.6013
X2.9276Y-3.474
X2.9315Y-4.2862
X2.9413Y-5.5823
X2.9461Y-4.4461
X2.9472Y-2.7248
X2.9563Y-4.8685
X2.9709Y-4.7366
X2.978Y-5.3909
X2.9902Y-4.3059
X2.9941Y-4.0626
X2.9949Y-2.4118
X2.9976Y-2.5496
X3.0134Y-4.5969
X3.0232Y-1.9283
X3.0311Y-3.0358
X3.0524Y-2.1264
X3.0524Y-3.1354
X3.0547Y-3.2677
X3.0547Y-3.4043
X3.0551Y-3.085
X3.0626Y-2.3098
X3.0717Y-3.4669
X3.0748Y-3.626
X3.0886Y-3.3327
X3.1075Y-4.7244
X3.1098Y-3.3874
X3.1191Y-3.6358
X3.1211Y-3.747
X3.1213Y-2.4465
X3.1272Y-4.3429
X3.1433Y-3.065
X3.1535Y-3.9705
X3.1585Y-3.6407
X3.1827Y-2.1705
X3.1839Y-4.5748
X3.1866Y-4.7724
X3.189Y-3.7756
X3.189Y-4.7126
X3.1939Y-4.6134
X3.1988Y-4.2669
X3.199Y-5.1257
X3.2008Y-3.2953
X3.2083Y-1.9248
X3.2083Y-3.0559
X3.2087Y-3.1181
X3.2144Y-5.0624
X3.2283Y-2.6098
X3.2567Y-3.0657
X3.2661Y-3.3827
X3.2667Y-3.4596
X3.2707Y-2.4441
X3.2799Y-2.7461
X3.2882Y-4.374
X3.2972Y-3.2165
X3.2976Y-2.3697
X3.2996Y-5.3508
X3.3004Y-2.1295
X3.311Y-2.1799
X3.313Y-3.315
X3.315Y-2.5154
X3.3177Y-4.9417
X3.3228Y-2.2283
X3.3303Y-3.7913
X3.3307Y-3.374
X3.3323Y-2.9673
X3.3394Y-3.6543
X3.3433Y-2.576
X3.348Y-4.6598
X3.3504Y-3.2126
X3.3543Y-3.5622
X3.3548Y-4.3236
X3.3571Y-3.1236
X3.3591Y-4.5748
X3.3602Y-2.0508
X3.3744Y-1.9331
X3.3744Y-4.3988
X3.3807Y-3.6567
X3.385Y-2.6299
X3.3875Y-4.2561
X3.4083Y-2.5389
X3.4154Y-4.1035
X3.4189Y-2.2205
X3.4292Y-5.0488
X3.4299Y-2.0146
X3.4306Y-3.8233
X3.4311Y-4.348
X3.4382Y-3.6079
X3.4429Y-4.9803
X3.4465Y-2.5846
X3.4579Y-4.8228
X3.465Y-2.9583
X3.4706Y-3.5781
X3.4803Y-2.4441
X3.4809Y-3.829
X3.4988Y-4.3675
X3.5004Y-5.3398
X3.5016Y-1.9295
X3.5089Y-3.5886
X3.5101Y-4.9936
X3.5102Y-2.7941
X3.5126Y-2.9559
X3.5169Y-5.526
X3.5193Y-4.5291
X3.5201Y-2.6055
X3.5397Y-4.8532
X3.5445Y-5.1106
X3.5467Y-3.448
X3.5469Y-4.3665
X3.5502Y-3.6526
X3.5519Y-2.9567
X3.5532Y-3.7638
X3.5532Y-3.8807
X3.5534Y-3.6113
X3.5555Y-2.5744
X3.5618Y-2.761
X3.5778Y-3.4772
X3.5789Y-4.8492
X3.5799Y-3.1228
X3.5989Y-3.8346
X3.5992Y-5.7118
X3.6016Y-2.6315
X3.6059Y-4.4961
X3.6108Y-3.2384
X3.624Y-1.9311
X3.6256Y-4.8102
X3.6272Y-2.2354
X3.6319Y-3.7933
X3.639Y-2.1961
X3.6425Y-4.2872
X3.6506Y-4.3738
X3.6571Y-5.2573
X3.6654Y-2.3043
X3.672Y-4.2161
X3.6781Y-2.8515
X3.6846Y-5.6374
X3.6862Y-3.339
X3.6882Y-2.5102
X3.6913Y-2.915
X3.6929Y-3.5272
X3.6931Y-3.8652
X3.7169Y-2.576
X3.7276Y-2.278
X3.7335Y-3.5248
X3.7335Y-4.676
X3.7362Y-4.9425
X3.739Y-4.8435
X3.7413Y-4.2677
X3.7425Y-3.0303
X3.752Y-4.724
X3.7606Y-2.8122
X3.7642Y-2.1953
X3.7724Y-3.1161
X3.7774Y-3.7817
X3.778Y-4.8488
X3.7803Y-2.2736
X3.7847Y-3.3957
X3.7875Y-3.8238
X3.7876Y-5.2928
X3.813Y-5.0335
X3.8181Y-3.0252
X3.8248Y-3.0815
X3.8258Y-3.1695
X3.8283Y-4.4433
X3.835Y-3.3957
X3.8567Y-2.3524
X3.8583Y-5.1965
X3.8622Y-4.6331
X3.872Y-3.565
X3.8839Y-3.8705
X3.887Y-2.2276
X3.9005Y-2.6886
X3.9075Y-2.3791
X3.9142Y-4.9465
X3.9161Y-3.5358
X3.924Y-2.0264
X3.924Y-2.7973
X3.9417Y-3.9992
X3.95Y-3.7337
X3.9539Y-3.6728
X3.9551Y-4.2728
X3.9599Y-3.8878
X3.9606Y-2.0783
X3.9772Y-3.7768
X3.9787Y-3.1085
X3.9811Y-3.1476
X3.9961Y-2.1224
X4.002Y-4.25
X4.0067Y-4.5043
X4.0125Y-2.7973
X4.0169Y-3.2992
X4.028Y-3.1445
X4.0442Y-5.3106
X4.0591Y-3.413
X4.0657Y-2.0217
X4.0691Y-3.2585
X4.0846Y-4.3004
X4.1024Y-2.2913
X4.1063Y-3.1913
X4.114Y-2.7313
X4.1193Y-5.3025
X4.1429Y-2.4425
X4.1543Y-2.5402
X4.1614Y-2.6063
X4.1744Y-3.822
X4.1752Y-3.8673
X4.1929Y-2.5776
X4.196Y-4.3091
X4.1976Y-3.4441
X4.2024Y-3.135
X4.2098Y-2.0098
X4.2161Y-2.6799
X4.2177Y-3.9094
X4.2213Y-5.2701
X4.224Y-2.8513
X4.2327Y-2.4567
X4.234Y-2.9113
X4.234Y-2.9713
X4.2366Y-2.1177
X4.2445Y-3.4374
X4.2673Y-2.3409
X4.2757Y-4.3276
X4.2913Y-3.4331
X4.2984Y-2.8933
X4.304Y-2.9713
X4.3161Y-2.4169
X4.3224Y-3.8969
X4.3315Y-2.0697
X4.3319Y-3.7512
X4.3362Y-4.7028
X4.3417Y-3.8583
X4.3638Y-2.2622
X4.3642Y-4.9142
X4.3665Y-4.2705
X4.3768Y-3.1768
X4.3799Y-3.2535
X4.3807Y-3.1138
X4.389Y-4.7343
X4.3969Y-1.9209
X4.3988Y-3.628
X4.4043Y-4.9961
X4.4059Y-3.4213
X4.4134Y-4.5681
X4.4142Y-4.1941
X4.4161Y-2.5079
X4.4228Y-3.4618
X4.4252Y-3.6732
X4.4252Y-4.6142
X4.4346Y-2.2961
X4.4394Y-4.2992
X4.4465Y-2.9457
X4.4697Y-2.6681
X4.4764Y-3.7413
X4.483Y-4.2315
X4.4976Y-3.8055
X4.4984Y-2.5016
X4.5083Y-2.0787
X4.5087Y-3.5378
X4.5449Y-5.139
X4.5461Y-4.4122
X4.552Y-2.2886
X4.554Y-2.9813
X4.5583Y-2.2118
X4.5717Y-2.5799
X4.5902Y-3.5803
X4.5921Y-3.4705
X4.5949Y-3.0224
X4.6071Y-3.2984
X4.6098Y-4.5949
X4.6102Y-2.2707
X4.6146Y-3.8272
X4.6173Y-3.7148
X4.622Y-5.0748
X4.6272Y-1.9161
X4.6276Y-2.6803
X4.6358Y-3.5008
X4.6476Y-4.4264
X4.6618Y-3.6749
X4.663Y-2.2256
X4.6665Y-2.9913
X4.6669Y-4.5992
X4.678Y-2.4311
X4.6854Y-3.8504
X4.6866Y-4.9867
X4.687Y-2.2776
X4.6884Y-2.7549
X4.6925Y-5.1012
X4.6988Y-4.8803
X4.711Y-2.0823
X4.715Y-4.1925
X4.7154Y-4.0079
X4.724Y-2.5717
X4.7287Y-2.1937
X4.7435Y-3.7409
X4.7555Y-3.2992
X4.7591Y-2.3287
X4.7795Y-3.0177
X4.7803Y-2.9717
X4.7953Y-3.8642
X4.8181Y-4.0059
X4.8236Y-2.9795
X4.8287Y-1.928
X4.8386Y-5.2961
X4.8437Y-4.4083
X4.8465Y-3.8217
X4.8483Y-3.6768
X4.877Y-4.2142
X4.8945Y-3.124
X4.8996Y-3.6102
X4.9047Y-4.6217
X4.9154Y-5.6083
X4.9232Y-4.3732
X4.9295Y-3.2748
X4.9346Y-3.1591
X4.9346Y-3.328
X4.9362Y-2.6311
X4.9484Y-5.5462
X4.965Y-4.8949
X4.9768Y-4.7102
X4.9839Y-4.8138
X4.9894Y-1.9882
X4.9961Y-4.6335
X5.0232Y-3.4559
X5.0386Y-5.6217
X5.0531Y-4.0028
X5.0701Y-2.987
X5.0827Y-4.511
X5.0827Y-5.5157
X5.0831Y-2.0504
X5.0886Y-3.4808
X5.0929Y-3.2736
X5.0949Y-4.6213
X5.1024Y-2.8346
X5.1319Y-3.7209
X5.1386Y-2.1692
X5.1413Y-4.074
X5.1457Y-3.4394
X5.1602Y-2.3402
X5.1642Y-5.3917
X5.1646Y-3.9319
X5.1673Y-4.5106
X5.1693Y-5.1059
X5.1717Y-5.2406
X5.174Y-4.4772
X5.1768Y-2.4417
X5.1811Y-4.5878
X5.1882Y-4.95
X5.1957Y-2.9244
X5.198Y-3.126
X5.2001Y-4.3867
X5.2004Y-5.6189
X5.2051Y-2.6362
X5.2051Y-4.2366
X5.2128Y-4.3237
X5.2189Y-5.3713
X5.2425Y-3.4969
X5.2657Y-3.8575
X5.2701Y-4.5902
X5.2839Y-3.4819
X5.2909Y-3.5996
X5.3366Y-3.6913
X5.3421Y-4.4555
X5.3535Y-3.8988
X5.3626Y-3.6012
X5.3638Y-4.1185
X5.3976Y-3.6386
X5.4083Y-3.7317
X5.4094Y-3.4579
X5.413Y-4.2299
X5.4154Y-4.6748
X5.4378Y-4.9213
X5.4406Y-3.8284
X5.4457Y-3.2622
X5.448Y-2.8354
X5.4524Y-5.3937
X5.4642Y-3.3024
X5.4646Y-2.3791
X5.4673Y-1.9291
X5.4858Y-4.2842
X5.4921Y-3.672
X5.5349Y-3.9654
X5.5358Y-4.2433
X5.5417Y-2.9555
X5.6016Y-1.9291
X5.6087Y-2.3697
X5.6087Y-4.7091
X5.6118Y-3.574
X5.6252Y-2.6559
X5.6295Y-5.2291
X5.6315Y-2.8776
X5.6417Y-4.5705
X5.6831Y-4.3402
X5.7051Y-3.1709
X5.7358Y-4.4496
X5.737Y-4.0079
X5.7461Y-3.9272
X5.8031Y-4.6787
X5.8559Y-5.8154
X5.8846Y-5.2512
T2
X2.5421Y-2.0453
X2.5421Y-2.1453
X2.5421Y-2.2453
X2.5421Y-2.3453
X2.5484Y-5.3461
X2.5484Y-5.4461
X2.5484Y-5.5461
X2.5484Y-5.6461
X2.7165Y-3.2945
X2.7165Y-3.3945
X2.7165Y-3.4945
X2.7165Y-3.5945
X3.0646Y-4.0535
X3.0646Y-4.1535
X3.1646Y-4.0535
X3.1646Y-4.1535
X3.2646Y-4.0535
X3.2646Y-4.1535
X3.3646Y-4.0535
X3.3646Y-4.1535
X3.4646Y-4.0535
X3.4646Y-4.1535
X3.5646Y-4.0535
X3.5646Y-4.1535
X3.6646Y-4.0535
X3.6646Y-4.1535
X3.7646Y-4.0535
X3.7646Y-4.1535
X3.8646Y-4.0535
X3.8646Y-4.1535
X3.9646Y-4.0535
X3.9646Y-4.1535
X4.0646Y-4.0535
X4.0646Y-4.1535
X4.1646Y-4.0535
X4.1646Y-4.1535
X4.2646Y-4.0535
X4.2646Y-4.1535
X4.3646Y-4.0535
X4.3646Y-4.1535
X4.4646Y-4.0535
X4.4646Y-4.1535
X4.5646Y-4.0535
X4.5646Y-4.1535
X4.6646Y-4.0535
X4.6646Y-4.1535
X4.7646Y-4.0535
X4.7646Y-4.1535
X4.7894Y-4.7953
X4.7894Y-4.8953
X4.7894Y-4.9953
X4.7894Y-5.0953
X4.7894Y-5.1953
X4.8646Y-4.0535
X4.8646Y-4.1535
X4.8894Y-4.7953
X4.8894Y-4.8953
X4.8894Y-4.9953
X4.8894Y-5.0953
X4.8894Y-5.1953
X4.9646Y-4.0535
X4.9646Y-4.1535
X5.5335Y-5.4744
X5.5335Y-5.5744
X5.5335Y-5.6744
X5.5335Y-5.7744
X5.5343Y-2.4157
X5.5343Y-2.5157
X5.5343Y-2.6157
X5.5343Y-2.7157
T3
X2.3425Y-1.9291
X2.3425Y-2.5197
X2.3425Y-4.811
X2.3425Y-5.3937
X2.7441Y-1.9291
X2.7441Y-2.5197
X2.7441Y-4.811
X2.7441Y-5.3937
X5.3268Y-1.9291
X5.3268Y-2.5197
X5.3268Y-4.811
X5.3268Y-5.3937
X5.7283Y-1.9291
X5.7283Y-2.5197
X5.7283Y-4.811
X5.7283Y-5.3937
T4
X2.3425Y-2.0512
X2.3425Y-2.6417
X2.3425Y-4.9331
X2.3425Y-5.5157
X2.7441Y-2.0512
X2.7441Y-2.6417
X2.7441Y-4.9331
X2.7441Y-5.5157
X5.3268Y-2.0512
X5.3268Y-2.6417
X5.3268Y-4.9331
X5.3268Y-5.5157
X5.7283Y-2.0512
X5.7283Y-2.6417
X5.7283Y-4.9331
X5.7283Y-5.5157
T5
X2.3425Y-2.378
X2.3425Y-2.9685
X2.3425Y-5.2598
X2.3425Y-5.8425
X2.7441Y-2.378
X2.7441Y-2.9685
X2.7441Y-5.2598
X2.7441Y-5.8425
X5.3268Y-2.378
X5.3268Y-2.9685
X5.3268Y-5.2598
X5.3268Y-5.8425
X5.7283Y-2.378
X5.7283Y-2.9685
X5.7283Y-5.2598
X5.7283Y-5.8425
T0
M30
