%TF.GenerationSoftware,KiCad,Pcbnew,6.0.6+dfsg-1~bpo11+1*%
%TF.CreationDate,2023-11-30T19:30:28+01:00*%
%TF.ProjectId,touch,746f7563-682e-46b6-9963-61645f706362,rev?*%
%TF.SameCoordinates,Original*%
%TF.FileFunction,Legend,Bot*%
%TF.FilePolarity,Positive*%
%FSLAX46Y46*%
G04 Gerber Fmt 4.6, Leading zero omitted, Abs format (unit mm)*
G04 Created by KiCad (PCBNEW 6.0.6+dfsg-1~bpo11+1) date 2023-11-30 19:30:28*
%MOMM*%
%LPD*%
G01*
G04 APERTURE LIST*
G04 Aperture macros list*
%AMRoundRect*
0 Rectangle with rounded corners*
0 $1 Rounding radius*
0 $2 $3 $4 $5 $6 $7 $8 $9 X,Y pos of 4 corners*
0 Add a 4 corners polygon primitive as box body*
4,1,4,$2,$3,$4,$5,$6,$7,$8,$9,$2,$3,0*
0 Add four circle primitives for the rounded corners*
1,1,$1+$1,$2,$3*
1,1,$1+$1,$4,$5*
1,1,$1+$1,$6,$7*
1,1,$1+$1,$8,$9*
0 Add four rect primitives between the rounded corners*
20,1,$1+$1,$2,$3,$4,$5,0*
20,1,$1+$1,$4,$5,$6,$7,0*
20,1,$1+$1,$6,$7,$8,$9,0*
20,1,$1+$1,$8,$9,$2,$3,0*%
G04 Aperture macros list end*
%ADD10C,0.120000*%
%ADD11C,0.150000*%
%ADD12RoundRect,0.301000X-0.262500X-0.450000X0.262500X-0.450000X0.262500X0.450000X-0.262500X0.450000X0*%
%ADD13RoundRect,0.201000X-0.150000X0.825000X-0.150000X-0.825000X0.150000X-0.825000X0.150000X0.825000X0*%
%ADD14RoundRect,0.301000X0.450000X-0.262500X0.450000X0.262500X-0.450000X0.262500X-0.450000X-0.262500X0*%
%ADD15RoundRect,0.301000X-0.250000X-0.475000X0.250000X-0.475000X0.250000X0.475000X-0.250000X0.475000X0*%
%ADD16RoundRect,0.051000X-0.850000X-0.850000X0.850000X-0.850000X0.850000X0.850000X-0.850000X0.850000X0*%
%ADD17O,1.802000X1.802000*%
%ADD18RoundRect,0.051000X0.850000X0.850000X-0.850000X0.850000X-0.850000X-0.850000X0.850000X-0.850000X0*%
%ADD19RoundRect,0.051000X0.965000X0.915000X-0.965000X0.915000X-0.965000X-0.915000X0.965000X-0.915000X0*%
%ADD20C,2.232000*%
%ADD21RoundRect,0.051000X-0.762000X-1.016000X0.762000X-1.016000X0.762000X1.016000X-0.762000X1.016000X0*%
%ADD22RoundRect,0.051000X0.762000X1.016000X-0.762000X1.016000X-0.762000X-1.016000X0.762000X-1.016000X0*%
%ADD23RoundRect,0.051000X-0.500000X-0.625000X0.500000X-0.625000X0.500000X0.625000X-0.500000X0.625000X0*%
%ADD24RoundRect,0.051000X0.500000X0.625000X-0.500000X0.625000X-0.500000X-0.625000X0.500000X-0.625000X0*%
%ADD25RoundRect,0.051000X-1.016000X0.762000X-1.016000X-0.762000X1.016000X-0.762000X1.016000X0.762000X0*%
%ADD26RoundRect,0.051000X0.625000X-0.500000X0.625000X0.500000X-0.625000X0.500000X-0.625000X-0.500000X0*%
%ADD27RoundRect,0.051000X0.450000X0.600000X-0.450000X0.600000X-0.450000X-0.600000X0.450000X-0.600000X0*%
%ADD28RoundRect,0.051000X-0.450000X-0.600000X0.450000X-0.600000X0.450000X0.600000X-0.450000X0.600000X0*%
%ADD29RoundRect,0.051000X0.850000X-0.850000X0.850000X0.850000X-0.850000X0.850000X-0.850000X-0.850000X0*%
%ADD30RoundRect,0.051000X-0.250000X-0.450000X0.250000X-0.450000X0.250000X0.450000X-0.250000X0.450000X0*%
%ADD31RoundRect,0.051000X-0.450000X-0.400000X0.450000X-0.400000X0.450000X0.400000X-0.450000X0.400000X0*%
%ADD32RoundRect,0.051000X0.450000X0.400000X-0.450000X0.400000X-0.450000X-0.400000X0.450000X-0.400000X0*%
%ADD33RoundRect,0.051000X-0.350000X-0.650000X0.350000X-0.650000X0.350000X0.650000X-0.350000X0.650000X0*%
%ADD34RoundRect,0.051000X0.350000X0.650000X-0.350000X0.650000X-0.350000X-0.650000X0.350000X-0.650000X0*%
%ADD35RoundRect,0.051000X1.100000X0.600000X-1.100000X0.600000X-1.100000X-0.600000X1.100000X-0.600000X0*%
%ADD36RoundRect,0.051000X3.200000X2.900000X-3.200000X2.900000X-3.200000X-2.900000X3.200000X-2.900000X0*%
%ADD37RoundRect,0.051000X-0.300000X0.750000X-0.300000X-0.750000X0.300000X-0.750000X0.300000X0.750000X0*%
%ADD38RoundRect,0.051000X0.300000X-0.750000X0.300000X0.750000X-0.300000X0.750000X-0.300000X-0.750000X0*%
%ADD39RoundRect,0.051000X-0.125000X0.500000X-0.125000X-0.500000X0.125000X-0.500000X0.125000X0.500000X0*%
%ADD40RoundRect,0.051000X0.500000X0.125000X-0.500000X0.125000X-0.500000X-0.125000X0.500000X-0.125000X0*%
%ADD41RoundRect,0.051000X1.000000X-2.250000X1.000000X2.250000X-1.000000X2.250000X-1.000000X-2.250000X0*%
%ADD42RoundRect,0.201000X0.587500X0.150000X-0.587500X0.150000X-0.587500X-0.150000X0.587500X-0.150000X0*%
%ADD43RoundRect,0.201000X-0.587500X-0.150000X0.587500X-0.150000X0.587500X0.150000X-0.587500X0.150000X0*%
G04 APERTURE END LIST*
D10*
%TO.C,R76*%
X92900436Y-140635000D02*
X93354564Y-140635000D01*
X92900436Y-139165000D02*
X93354564Y-139165000D01*
%TO.C,U12*%
X81805000Y-136040000D02*
X81805000Y-137990000D01*
X90675000Y-136040000D02*
X90675000Y-137990000D01*
X81805000Y-136040000D02*
X81805000Y-132590000D01*
X90675000Y-136040000D02*
X90675000Y-134090000D01*
%TO.C,R79*%
X82555436Y-143505000D02*
X83009564Y-143505000D01*
X82555436Y-142035000D02*
X83009564Y-142035000D01*
%TO.C,R78*%
X90645436Y-143245000D02*
X91099564Y-143245000D01*
X90645436Y-141775000D02*
X91099564Y-141775000D01*
%TO.C,R77*%
X82642936Y-146025000D02*
X83097064Y-146025000D01*
X82642936Y-144555000D02*
X83097064Y-144555000D01*
%TO.C,R75*%
X93145436Y-136765000D02*
X93599564Y-136765000D01*
X93145436Y-135295000D02*
X93599564Y-135295000D01*
%TO.C,R74*%
X78685436Y-134275000D02*
X79139564Y-134275000D01*
X78685436Y-132805000D02*
X79139564Y-132805000D01*
%TO.C,R73*%
X83975000Y-128667064D02*
X83975000Y-128212936D01*
X82505000Y-128667064D02*
X82505000Y-128212936D01*
%TO.C,R72*%
X78610436Y-131745000D02*
X79064564Y-131745000D01*
X78610436Y-130275000D02*
X79064564Y-130275000D01*
%TO.C,C22*%
X86618748Y-141735000D02*
X87141252Y-141735000D01*
X86618748Y-143205000D02*
X87141252Y-143205000D01*
%TO.C,C21*%
X86818748Y-130115000D02*
X87341252Y-130115000D01*
X86818748Y-131585000D02*
X87341252Y-131585000D01*
D11*
%TO.C,C1*%
X112376000Y-117597000D02*
X112630000Y-117597000D01*
X112630000Y-119883000D02*
X112630000Y-117597000D01*
X112630000Y-119883000D02*
X112376000Y-119883000D01*
X112376000Y-119883000D02*
X112376000Y-117597000D01*
X116059000Y-119883000D02*
X117710000Y-119883000D01*
X114281000Y-119883000D02*
X112630000Y-119883000D01*
X112630000Y-117597000D02*
X114281000Y-117597000D01*
X117710000Y-117597000D02*
X116059000Y-117597000D01*
X117710000Y-119883000D02*
X117710000Y-117597000D01*
%TO.C,C2*%
X117844000Y-120907000D02*
X117844000Y-123193000D01*
X112510000Y-120907000D02*
X112510000Y-123193000D01*
X117590000Y-120907000D02*
X117590000Y-123193000D01*
X117590000Y-120907000D02*
X117844000Y-120907000D01*
X112510000Y-123193000D02*
X114161000Y-123193000D01*
X115939000Y-120907000D02*
X117590000Y-120907000D01*
X117590000Y-123193000D02*
X115939000Y-123193000D01*
X114161000Y-120907000D02*
X112510000Y-120907000D01*
X117844000Y-123193000D02*
X117590000Y-123193000D01*
%TO.C,C3*%
X106556000Y-115043000D02*
X106556000Y-112757000D01*
X106810000Y-112757000D02*
X108461000Y-112757000D01*
X111890000Y-115043000D02*
X111890000Y-112757000D01*
X111890000Y-112757000D02*
X110239000Y-112757000D01*
X106556000Y-112757000D02*
X106810000Y-112757000D01*
X108461000Y-115043000D02*
X106810000Y-115043000D01*
X110239000Y-115043000D02*
X111890000Y-115043000D01*
X106810000Y-115043000D02*
X106810000Y-112757000D01*
X106810000Y-115043000D02*
X106556000Y-115043000D01*
D10*
%TO.C,C4*%
X112400000Y-110000000D02*
X113400000Y-110000000D01*
X113400000Y-111700000D02*
X112400000Y-111700000D01*
D11*
%TO.C,C5*%
X112910000Y-127643000D02*
X112656000Y-127643000D01*
X117990000Y-127643000D02*
X117990000Y-125357000D01*
X112910000Y-127643000D02*
X112910000Y-125357000D01*
X114561000Y-127643000D02*
X112910000Y-127643000D01*
X116339000Y-127643000D02*
X117990000Y-127643000D01*
X112910000Y-125357000D02*
X114561000Y-125357000D01*
X112656000Y-127643000D02*
X112656000Y-125357000D01*
X117990000Y-125357000D02*
X116339000Y-125357000D01*
X112656000Y-125357000D02*
X112910000Y-125357000D01*
D10*
%TO.C,C6*%
X127900000Y-117050000D02*
X126900000Y-117050000D01*
X126900000Y-115350000D02*
X127900000Y-115350000D01*
D11*
%TO.C,C7*%
X113010000Y-115193000D02*
X114661000Y-115193000D01*
X118090000Y-115193000D02*
X116439000Y-115193000D01*
X118090000Y-112907000D02*
X118090000Y-115193000D01*
X116439000Y-112907000D02*
X118090000Y-112907000D01*
X113010000Y-112907000D02*
X113010000Y-115193000D01*
X118344000Y-112907000D02*
X118344000Y-115193000D01*
X114661000Y-112907000D02*
X113010000Y-112907000D01*
X118090000Y-112907000D02*
X118344000Y-112907000D01*
X118344000Y-115193000D02*
X118090000Y-115193000D01*
D10*
%TO.C,C8*%
X127900000Y-113750000D02*
X126900000Y-113750000D01*
X126900000Y-112050000D02*
X127900000Y-112050000D01*
%TO.C,C9*%
X99030000Y-62970000D02*
X98030000Y-62970000D01*
X98030000Y-61270000D02*
X99030000Y-61270000D01*
%TO.C,C10*%
X90400000Y-63250000D02*
X91400000Y-63250000D01*
X91400000Y-64950000D02*
X90400000Y-64950000D01*
%TO.C,C11*%
X90000000Y-52150000D02*
X89000000Y-52150000D01*
X89000000Y-50450000D02*
X90000000Y-50450000D01*
%TO.C,C12*%
X95200000Y-62950000D02*
X94200000Y-62950000D01*
X94200000Y-61250000D02*
X95200000Y-61250000D01*
%TO.C,C13*%
X102400000Y-61250000D02*
X103400000Y-61250000D01*
X103400000Y-62950000D02*
X102400000Y-62950000D01*
%TO.C,C14*%
X97100000Y-74050000D02*
X98100000Y-74050000D01*
X98100000Y-75750000D02*
X97100000Y-75750000D01*
%TO.C,C15*%
X95000000Y-50750000D02*
X94000000Y-50750000D01*
X94000000Y-49050000D02*
X95000000Y-49050000D01*
%TO.C,C16*%
X101000000Y-76450000D02*
X102000000Y-76450000D01*
X102000000Y-78150000D02*
X101000000Y-78150000D01*
%TO.C,C17*%
X122600000Y-70450000D02*
X123600000Y-70450000D01*
X123600000Y-72150000D02*
X122600000Y-72150000D01*
%TO.C,C18*%
X115510000Y-82740000D02*
X114510000Y-82740000D01*
X114510000Y-81040000D02*
X115510000Y-81040000D01*
%TO.C,C19*%
X114900000Y-70450000D02*
X115900000Y-70450000D01*
X115900000Y-72150000D02*
X114900000Y-72150000D01*
%TO.C,C20*%
X122400000Y-81250000D02*
X123400000Y-81250000D01*
X123400000Y-82950000D02*
X122400000Y-82950000D01*
%TO.C,C25*%
X136000000Y-80050000D02*
X135000000Y-80050000D01*
X135000000Y-78350000D02*
X136000000Y-78350000D01*
%TO.C,C26*%
X126700000Y-93750000D02*
X127700000Y-93750000D01*
X127700000Y-95450000D02*
X126700000Y-95450000D01*
%TO.C,C27*%
X128400000Y-79850000D02*
X127400000Y-79850000D01*
X127400000Y-78150000D02*
X128400000Y-78150000D01*
%TO.C,C28*%
X109250000Y-76340000D02*
X110250000Y-76340000D01*
X110250000Y-78040000D02*
X109250000Y-78040000D01*
%TO.C,C29*%
X74600000Y-79250000D02*
X75600000Y-79250000D01*
X75600000Y-80950000D02*
X74600000Y-80950000D01*
%TO.C,C30*%
X75700000Y-96450000D02*
X76700000Y-96450000D01*
X76700000Y-98150000D02*
X75700000Y-98150000D01*
%TO.C,C31*%
X88500000Y-81050000D02*
X87500000Y-81050000D01*
X87500000Y-79350000D02*
X88500000Y-79350000D01*
D11*
%TO.C,C32*%
X99613000Y-91426000D02*
X99613000Y-91680000D01*
X97327000Y-95109000D02*
X97327000Y-96760000D01*
X97327000Y-91680000D02*
X97327000Y-91426000D01*
X97327000Y-93331000D02*
X97327000Y-91680000D01*
X97327000Y-91426000D02*
X99613000Y-91426000D01*
X97327000Y-91680000D02*
X99613000Y-91680000D01*
X97327000Y-96760000D02*
X99613000Y-96760000D01*
X99613000Y-91680000D02*
X99613000Y-93331000D01*
X99613000Y-96760000D02*
X99613000Y-95109000D01*
D10*
%TO.C,C33*%
X92130000Y-81830000D02*
X91130000Y-81830000D01*
X91130000Y-80130000D02*
X92130000Y-80130000D01*
%TO.C,C34*%
X83780000Y-81160000D02*
X82780000Y-81160000D01*
X82780000Y-79460000D02*
X83780000Y-79460000D01*
%TO.C,C35*%
X93600000Y-82890000D02*
X93600000Y-81890000D01*
X95300000Y-81890000D02*
X95300000Y-82890000D01*
%TO.C,C36*%
X94720000Y-93980000D02*
X95720000Y-93980000D01*
X95720000Y-95680000D02*
X94720000Y-95680000D01*
%TO.C,C37*%
X82325000Y-96750000D02*
X83325000Y-96750000D01*
X83325000Y-98450000D02*
X82325000Y-98450000D01*
%TO.C,C38*%
X79100000Y-80150000D02*
X80100000Y-80150000D01*
X80100000Y-81850000D02*
X79100000Y-81850000D01*
%TO.C,C49*%
X93000000Y-51150000D02*
X94000000Y-51150000D01*
X94000000Y-52850000D02*
X93000000Y-52850000D01*
%TO.C,C50*%
X103400000Y-65250000D02*
X102400000Y-65250000D01*
X102400000Y-63550000D02*
X103400000Y-63550000D01*
%TO.C,C51*%
X91400000Y-62850000D02*
X90400000Y-62850000D01*
X90400000Y-61150000D02*
X91400000Y-61150000D01*
%TO.C,C52*%
X102000000Y-76150000D02*
X101000000Y-76150000D01*
X101000000Y-74450000D02*
X102000000Y-74450000D01*
%TO.C,C53*%
X131500000Y-93950000D02*
X130500000Y-93950000D01*
X130500000Y-92250000D02*
X131500000Y-92250000D01*
%TO.C,C54*%
X119240000Y-82740000D02*
X118240000Y-82740000D01*
X118240000Y-81040000D02*
X119240000Y-81040000D01*
%TO.C,C55*%
X115800000Y-61450000D02*
X116800000Y-61450000D01*
X116800000Y-63150000D02*
X115800000Y-63150000D01*
%TO.C,C56*%
X110190000Y-93980000D02*
X109190000Y-93980000D01*
X109190000Y-92280000D02*
X110190000Y-92280000D01*
%TO.C,C57*%
X132200000Y-82650000D02*
X131200000Y-82650000D01*
X131200000Y-80950000D02*
X132200000Y-80950000D01*
%TO.C,C58*%
X119700000Y-72150000D02*
X118700000Y-72150000D01*
X118700000Y-70450000D02*
X119700000Y-70450000D01*
%TO.C,C59*%
X116200000Y-50850000D02*
X117200000Y-50850000D01*
X117200000Y-52550000D02*
X116200000Y-52550000D01*
%TO.C,C60*%
X109600000Y-83250000D02*
X108600000Y-83250000D01*
X108600000Y-81550000D02*
X109600000Y-81550000D01*
%TO.C,C63*%
X89700000Y-129150000D02*
X88700000Y-129150000D01*
X88700000Y-127450000D02*
X89700000Y-127450000D01*
%TO.C,C64*%
X89950000Y-116250000D02*
X90950000Y-116250000D01*
X90950000Y-117950000D02*
X89950000Y-117950000D01*
%TO.C,C65*%
X61600000Y-115250000D02*
X60600000Y-115250000D01*
X60600000Y-113550000D02*
X61600000Y-113550000D01*
%TO.C,C66*%
X135400000Y-115650000D02*
X134400000Y-115650000D01*
X134400000Y-113950000D02*
X135400000Y-113950000D01*
%TO.C,D1*%
X117550000Y-129700000D02*
X113650000Y-129700000D01*
X117550000Y-129700000D02*
X117550000Y-131700000D01*
X117550000Y-131700000D02*
X113650000Y-131700000D01*
%TO.C,D2*%
X119300000Y-117100000D02*
X119300000Y-115100000D01*
X119300000Y-115100000D02*
X123200000Y-115100000D01*
X119300000Y-117100000D02*
X123200000Y-117100000D01*
%TO.C,J3*%
X126100000Y-106830000D02*
X127430000Y-106830000D01*
X127430000Y-101630000D02*
X76510000Y-101630000D01*
X127430000Y-104230000D02*
X127430000Y-101630000D01*
X124830000Y-104230000D02*
X127430000Y-104230000D01*
X76510000Y-106830000D02*
X76510000Y-101630000D01*
X124830000Y-106830000D02*
X124830000Y-104230000D01*
X127430000Y-106830000D02*
X127430000Y-105500000D01*
X124830000Y-106830000D02*
X76510000Y-106830000D01*
%TO.C,L1*%
X122540000Y-113500000D02*
X123540000Y-113500000D01*
X123540000Y-112140000D02*
X122540000Y-112140000D01*
%TO.C,Q1*%
X126140000Y-73240000D02*
X124680000Y-73240000D01*
X126140000Y-76400000D02*
X123980000Y-76400000D01*
X126140000Y-76400000D02*
X126140000Y-75470000D01*
X126140000Y-73240000D02*
X126140000Y-74170000D01*
%TO.C,Q2*%
X110340000Y-74180000D02*
X110340000Y-73250000D01*
X110340000Y-74180000D02*
X111800000Y-74180000D01*
X110340000Y-71020000D02*
X112500000Y-71020000D01*
X110340000Y-71020000D02*
X110340000Y-71950000D01*
%TO.C,Q3*%
X111960000Y-69880000D02*
X109800000Y-69880000D01*
X111960000Y-69880000D02*
X111960000Y-68950000D01*
X111960000Y-66720000D02*
X110500000Y-66720000D01*
X111960000Y-66720000D02*
X111960000Y-67650000D01*
%TO.C,Q4*%
X117980000Y-83810000D02*
X117980000Y-84740000D01*
X117980000Y-86970000D02*
X117980000Y-86040000D01*
X117980000Y-86970000D02*
X119440000Y-86970000D01*
X117980000Y-83810000D02*
X120140000Y-83810000D01*
%TO.C,R1*%
X93740000Y-69560000D02*
X94940000Y-69560000D01*
X94940000Y-67800000D02*
X93740000Y-67800000D01*
%TO.C,R2*%
X96800000Y-65580000D02*
X98000000Y-65580000D01*
X98000000Y-63820000D02*
X96800000Y-63820000D01*
%TO.C,R3*%
X94740000Y-65900000D02*
X93540000Y-65900000D01*
X93540000Y-67660000D02*
X94740000Y-67660000D01*
%TO.C,R4*%
X97500000Y-50680000D02*
X98700000Y-50680000D01*
X98700000Y-48920000D02*
X97500000Y-48920000D01*
%TO.C,R5*%
X97800000Y-51120000D02*
X96600000Y-51120000D01*
X96600000Y-52880000D02*
X97800000Y-52880000D01*
%TO.C,R6*%
X100000000Y-53420000D02*
X98800000Y-53420000D01*
X98800000Y-55180000D02*
X100000000Y-55180000D01*
%TO.C,R7*%
X122600000Y-67680000D02*
X123800000Y-67680000D01*
X123800000Y-65920000D02*
X122600000Y-65920000D01*
%TO.C,R8*%
X115300000Y-82920000D02*
X114100000Y-82920000D01*
X114100000Y-84680000D02*
X115300000Y-84680000D01*
%TO.C,R9*%
X116800000Y-65620000D02*
X115600000Y-65620000D01*
X115600000Y-67380000D02*
X116800000Y-67380000D01*
%TO.C,R10*%
X123600000Y-83620000D02*
X122400000Y-83620000D01*
X122400000Y-85380000D02*
X123600000Y-85380000D01*
%TO.C,R11*%
X123800000Y-68120000D02*
X122600000Y-68120000D01*
X122600000Y-69880000D02*
X123800000Y-69880000D01*
%TO.C,R12*%
X115100000Y-85320000D02*
X113900000Y-85320000D01*
X113900000Y-87080000D02*
X115100000Y-87080000D01*
%TO.C,R13*%
X114800000Y-69880000D02*
X116000000Y-69880000D01*
X116000000Y-68120000D02*
X114800000Y-68120000D01*
%TO.C,R14*%
X122300000Y-87580000D02*
X123500000Y-87580000D01*
X123500000Y-85820000D02*
X122300000Y-85820000D01*
%TO.C,R15*%
X122590000Y-63430000D02*
X123790000Y-63430000D01*
X123790000Y-61670000D02*
X122590000Y-61670000D01*
%TO.C,R16*%
X115100000Y-87520000D02*
X113900000Y-87520000D01*
X113900000Y-89280000D02*
X115100000Y-89280000D01*
%TO.C,R17*%
X115600000Y-65380000D02*
X116800000Y-65380000D01*
X116800000Y-63620000D02*
X115600000Y-63620000D01*
%TO.C,R18*%
X122340000Y-90150000D02*
X123540000Y-90150000D01*
X123540000Y-88390000D02*
X122340000Y-88390000D01*
%TO.C,R19*%
X112900000Y-50820000D02*
X111700000Y-50820000D01*
X111700000Y-52580000D02*
X112900000Y-52580000D01*
%TO.C,R20*%
X113000000Y-61320000D02*
X111800000Y-61320000D01*
X111800000Y-63080000D02*
X113000000Y-63080000D01*
%TO.C,R21*%
X106400000Y-93120000D02*
X105200000Y-93120000D01*
X105200000Y-94880000D02*
X106400000Y-94880000D01*
%TO.C,R22*%
X104300000Y-83280000D02*
X105500000Y-83280000D01*
X105500000Y-81520000D02*
X104300000Y-81520000D01*
%TO.C,R23*%
X135900000Y-80920000D02*
X134700000Y-80920000D01*
X134700000Y-82680000D02*
X135900000Y-82680000D01*
%TO.C,R24*%
X126700000Y-93380000D02*
X127900000Y-93380000D01*
X127900000Y-91620000D02*
X126700000Y-91620000D01*
%TO.C,R25*%
X127100000Y-82680000D02*
X128300000Y-82680000D01*
X128300000Y-80920000D02*
X127100000Y-80920000D01*
%TO.C,R26*%
X108450000Y-80590000D02*
X109650000Y-80590000D01*
X109650000Y-78830000D02*
X108450000Y-78830000D01*
%TO.C,R27*%
X97400000Y-124470000D02*
X96200000Y-124470000D01*
X96200000Y-126230000D02*
X97400000Y-126230000D01*
%TO.C,R28*%
X93450000Y-127420000D02*
X92250000Y-127420000D01*
X92250000Y-129180000D02*
X93450000Y-129180000D01*
%TO.C,R29*%
X61900000Y-103020000D02*
X60700000Y-103020000D01*
X60700000Y-104780000D02*
X61900000Y-104780000D01*
%TO.C,R30*%
X65800000Y-102920000D02*
X64600000Y-102920000D01*
X64600000Y-104680000D02*
X65800000Y-104680000D01*
%TO.C,R31*%
X64600000Y-102780000D02*
X65800000Y-102780000D01*
X65800000Y-101020000D02*
X64600000Y-101020000D01*
%TO.C,R32*%
X65400000Y-113620000D02*
X64200000Y-113620000D01*
X64200000Y-115380000D02*
X65400000Y-115380000D01*
%TO.C,R33*%
X65400000Y-115620000D02*
X64200000Y-115620000D01*
X64200000Y-117380000D02*
X65400000Y-117380000D01*
%TO.C,R34*%
X61900000Y-115620000D02*
X60700000Y-115620000D01*
X60700000Y-117380000D02*
X61900000Y-117380000D01*
%TO.C,R35*%
X65900000Y-93920000D02*
X64700000Y-93920000D01*
X64700000Y-95680000D02*
X65900000Y-95680000D01*
%TO.C,R36*%
X65900000Y-96820000D02*
X64700000Y-96820000D01*
X64700000Y-98580000D02*
X65900000Y-98580000D01*
%TO.C,R37*%
X70700000Y-100580000D02*
X71900000Y-100580000D01*
X71900000Y-98820000D02*
X70700000Y-98820000D01*
%TO.C,R38*%
X70200000Y-111880000D02*
X71400000Y-111880000D01*
X71400000Y-110120000D02*
X70200000Y-110120000D01*
%TO.C,R39*%
X70300000Y-109480000D02*
X71500000Y-109480000D01*
X71500000Y-107720000D02*
X70300000Y-107720000D01*
%TO.C,R40*%
X68400000Y-104680000D02*
X69600000Y-104680000D01*
X69600000Y-102920000D02*
X68400000Y-102920000D01*
%TO.C,R41*%
X133100000Y-104080000D02*
X134300000Y-104080000D01*
X134300000Y-102320000D02*
X133100000Y-102320000D01*
%TO.C,R42*%
X137600000Y-102320000D02*
X136400000Y-102320000D01*
X136400000Y-104080000D02*
X137600000Y-104080000D01*
%TO.C,R43*%
X141200000Y-102320000D02*
X140000000Y-102320000D01*
X140000000Y-104080000D02*
X141200000Y-104080000D01*
%TO.C,R44*%
X138400000Y-115680000D02*
X139600000Y-115680000D01*
X139600000Y-113920000D02*
X138400000Y-113920000D01*
%TO.C,R45*%
X139600000Y-116120000D02*
X138400000Y-116120000D01*
X138400000Y-117880000D02*
X139600000Y-117880000D01*
%TO.C,R47*%
X133880000Y-100130000D02*
X132680000Y-100130000D01*
X132680000Y-101890000D02*
X133880000Y-101890000D01*
%TO.C,R48*%
X137700000Y-100060000D02*
X136500000Y-100060000D01*
X136500000Y-101820000D02*
X137700000Y-101820000D01*
%TO.C,R49*%
X130520000Y-96650000D02*
X131720000Y-96650000D01*
X131720000Y-94890000D02*
X130520000Y-94890000D01*
%TO.C,R50*%
X127870000Y-99840000D02*
X129070000Y-99840000D01*
X129070000Y-98080000D02*
X127870000Y-98080000D01*
%TO.C,R51*%
X128370000Y-109490000D02*
X129570000Y-109490000D01*
X129570000Y-107730000D02*
X128370000Y-107730000D01*
%TO.C,R53*%
X101970000Y-81190000D02*
X100770000Y-81190000D01*
X100770000Y-82950000D02*
X101970000Y-82950000D01*
%TO.C,R54*%
X105300000Y-78920000D02*
X104100000Y-78920000D01*
X104100000Y-80680000D02*
X105300000Y-80680000D01*
%TO.C,R55*%
X107200000Y-54820000D02*
X106000000Y-54820000D01*
X106000000Y-56580000D02*
X107200000Y-56580000D01*
%TO.C,R56*%
X114000000Y-50180000D02*
X115200000Y-50180000D01*
X115200000Y-48420000D02*
X114000000Y-48420000D01*
%TO.C,R57*%
X106000000Y-58880000D02*
X107200000Y-58880000D01*
X107200000Y-57120000D02*
X106000000Y-57120000D01*
%TO.C,R58*%
X103000000Y-93120000D02*
X101800000Y-93120000D01*
X101800000Y-94880000D02*
X103000000Y-94880000D01*
%TO.C,R59*%
X112950000Y-64080000D02*
X111750000Y-64080000D01*
X111750000Y-65840000D02*
X112950000Y-65840000D01*
%TO.C,R60*%
X104300000Y-95720000D02*
X103100000Y-95720000D01*
X103100000Y-97480000D02*
X104300000Y-97480000D01*
%TO.C,R61*%
X86600000Y-57220000D02*
X85400000Y-57220000D01*
X85400000Y-58980000D02*
X86600000Y-58980000D01*
%TO.C,R62*%
X85400000Y-61080000D02*
X86600000Y-61080000D01*
X86600000Y-59320000D02*
X85400000Y-59320000D01*
%TO.C,R63*%
X85400000Y-63180000D02*
X86600000Y-63180000D01*
X86600000Y-61420000D02*
X85400000Y-61420000D01*
%TO.C,R64*%
X105600000Y-76420000D02*
X104400000Y-76420000D01*
X104400000Y-78180000D02*
X105600000Y-78180000D01*
%TO.C,R65*%
X104400000Y-76180000D02*
X105600000Y-76180000D01*
X105600000Y-74420000D02*
X104400000Y-74420000D01*
%TO.C,R66*%
X106900000Y-71280000D02*
X108100000Y-71280000D01*
X108100000Y-69520000D02*
X106900000Y-69520000D01*
%TO.C,R85*%
X82350000Y-125130000D02*
X83550000Y-125130000D01*
X83550000Y-123370000D02*
X82350000Y-123370000D01*
%TO.C,R86*%
X83650000Y-121070000D02*
X82450000Y-121070000D01*
X82450000Y-122830000D02*
X83650000Y-122830000D01*
%TO.C,R87*%
X82500000Y-118330000D02*
X83700000Y-118330000D01*
X83700000Y-116570000D02*
X82500000Y-116570000D01*
%TO.C,R88*%
X94750000Y-116270000D02*
X93550000Y-116270000D01*
X93550000Y-118030000D02*
X94750000Y-118030000D01*
%TO.C,R89*%
X82550000Y-120380000D02*
X83750000Y-120380000D01*
X83750000Y-118620000D02*
X82550000Y-118620000D01*
%TO.C,R90*%
X94850000Y-114220000D02*
X93650000Y-114220000D01*
X93650000Y-115980000D02*
X94850000Y-115980000D01*
%TO.C,U1*%
X108620000Y-123200000D02*
X108620000Y-122930000D01*
X108620000Y-116570000D02*
X111450000Y-116570000D01*
X108620000Y-122930000D02*
X109720000Y-122930000D01*
X107120000Y-123200000D02*
X108620000Y-123200000D01*
X107120000Y-116300000D02*
X108620000Y-116300000D01*
X108620000Y-116300000D02*
X108620000Y-116570000D01*
%TO.C,U2*%
X106770000Y-126200000D02*
X108270000Y-126200000D01*
X108270000Y-126200000D02*
X108270000Y-126470000D01*
X108270000Y-133100000D02*
X108270000Y-132830000D01*
X108270000Y-126470000D02*
X111100000Y-126470000D01*
X106770000Y-133100000D02*
X108270000Y-133100000D01*
X108270000Y-132830000D02*
X109370000Y-132830000D01*
D11*
%TO.C,U3*%
X105350000Y-71775000D02*
X105235000Y-71775000D01*
X96450000Y-67625000D02*
X96475000Y-67625000D01*
X105350000Y-67625000D02*
X105235000Y-67625000D01*
X96450000Y-71775000D02*
X96565000Y-71775000D01*
X105350000Y-67625000D02*
X105350000Y-71775000D01*
X96475000Y-67625000D02*
X96475000Y-66250000D01*
X96450000Y-67625000D02*
X96450000Y-71775000D01*
%TO.C,U4*%
X88025000Y-55075000D02*
X88025000Y-53700000D01*
X96900000Y-55075000D02*
X96785000Y-55075000D01*
X96900000Y-59225000D02*
X96785000Y-59225000D01*
X88000000Y-55075000D02*
X88025000Y-55075000D01*
X96900000Y-55075000D02*
X96900000Y-59225000D01*
X88000000Y-59225000D02*
X88115000Y-59225000D01*
X88000000Y-55075000D02*
X88000000Y-59225000D01*
%TO.C,U5*%
X114300000Y-74525000D02*
X114415000Y-74525000D01*
X114300000Y-78675000D02*
X114300000Y-74525000D01*
X123200000Y-78675000D02*
X123200000Y-74525000D01*
X123200000Y-74525000D02*
X123085000Y-74525000D01*
X123200000Y-78675000D02*
X123175000Y-78675000D01*
X123175000Y-78675000D02*
X123175000Y-80050000D01*
X114300000Y-78675000D02*
X114415000Y-78675000D01*
%TO.C,U6*%
X91175000Y-73175000D02*
X91070000Y-73175000D01*
X81025000Y-69025000D02*
X81050000Y-69025000D01*
X91175000Y-69025000D02*
X91175000Y-73175000D01*
X81025000Y-73175000D02*
X81130000Y-73175000D01*
X91175000Y-69025000D02*
X91070000Y-69025000D01*
X81025000Y-69025000D02*
X81025000Y-73175000D01*
X81050000Y-69025000D02*
X81050000Y-67650000D01*
%TO.C,U7*%
X119075000Y-55025000D02*
X119075000Y-59175000D01*
X108925000Y-59175000D02*
X109030000Y-59175000D01*
X119075000Y-55025000D02*
X118970000Y-55025000D01*
X108950000Y-55025000D02*
X108950000Y-53650000D01*
X108925000Y-55025000D02*
X108950000Y-55025000D01*
X108925000Y-55025000D02*
X108925000Y-59175000D01*
X119075000Y-59175000D02*
X118970000Y-59175000D01*
%TO.C,U8*%
X110775000Y-85925000D02*
X110670000Y-85925000D01*
X100625000Y-85925000D02*
X100650000Y-85925000D01*
X100650000Y-85925000D02*
X100650000Y-84550000D01*
X100625000Y-90075000D02*
X100730000Y-90075000D01*
X100625000Y-85925000D02*
X100625000Y-90075000D01*
X110775000Y-90075000D02*
X110670000Y-90075000D01*
X110775000Y-85925000D02*
X110775000Y-90075000D01*
%TO.C,U9*%
X126150000Y-89475000D02*
X126150000Y-85325000D01*
X135025000Y-89475000D02*
X135025000Y-90850000D01*
X135050000Y-85325000D02*
X134935000Y-85325000D01*
X126150000Y-85325000D02*
X126265000Y-85325000D01*
X135050000Y-89475000D02*
X135050000Y-85325000D01*
X135050000Y-89475000D02*
X135025000Y-89475000D01*
X126150000Y-89475000D02*
X126265000Y-89475000D01*
%TO.C,U10*%
X94250000Y-124525000D02*
X94225000Y-124525000D01*
X94225000Y-124525000D02*
X94225000Y-125900000D01*
X85350000Y-124525000D02*
X85350000Y-120375000D01*
X85350000Y-120375000D02*
X85465000Y-120375000D01*
X94250000Y-120375000D02*
X94135000Y-120375000D01*
X94250000Y-124525000D02*
X94250000Y-120375000D01*
X85350000Y-124525000D02*
X85465000Y-124525000D01*
%TO.C,U11*%
X81825000Y-83525000D02*
X81825000Y-84600000D01*
X82825000Y-83525000D02*
X82825000Y-82500000D01*
X81825000Y-93875000D02*
X81825000Y-92800000D01*
X92175000Y-83525000D02*
X92175000Y-84600000D01*
X92175000Y-93875000D02*
X92175000Y-92800000D01*
X81825000Y-83525000D02*
X82825000Y-83525000D01*
X92175000Y-83525000D02*
X91100000Y-83525000D01*
X81825000Y-93875000D02*
X82900000Y-93875000D01*
X92175000Y-93875000D02*
X91100000Y-93875000D01*
%TO.C,U13*%
X68450000Y-107175000D02*
X68450000Y-111325000D01*
X59550000Y-107175000D02*
X59550000Y-111325000D01*
X68450000Y-111325000D02*
X68335000Y-111325000D01*
X59550000Y-107175000D02*
X59575000Y-107175000D01*
X59575000Y-107175000D02*
X59575000Y-105800000D01*
X59550000Y-111325000D02*
X59665000Y-111325000D01*
X68450000Y-107175000D02*
X68335000Y-107175000D01*
%TO.C,U14*%
X133350000Y-106625000D02*
X133375000Y-106625000D01*
X133350000Y-106625000D02*
X133350000Y-110775000D01*
X142250000Y-106625000D02*
X142135000Y-106625000D01*
X133375000Y-106625000D02*
X133375000Y-105250000D01*
X142250000Y-106625000D02*
X142250000Y-110775000D01*
X142250000Y-110775000D02*
X142135000Y-110775000D01*
X133350000Y-110775000D02*
X133465000Y-110775000D01*
D10*
%TO.C,Y1*%
X71850000Y-95050000D02*
X71850000Y-82450000D01*
X76950000Y-95050000D02*
X71850000Y-95050000D01*
X76950000Y-82450000D02*
X76950000Y-95050000D01*
%TO.C,R46*%
X127090000Y-56940000D02*
X125890000Y-56940000D01*
X125890000Y-58700000D02*
X127090000Y-58700000D01*
%TO.C,R52*%
X122580000Y-58700000D02*
X123780000Y-58700000D01*
X123780000Y-56940000D02*
X122580000Y-56940000D01*
%TO.C,R67*%
X123780000Y-63890000D02*
X122580000Y-63890000D01*
X122580000Y-65650000D02*
X123780000Y-65650000D01*
%TO.C,R68*%
X122620000Y-60980000D02*
X123820000Y-60980000D01*
X123820000Y-59220000D02*
X122620000Y-59220000D01*
%TO.C,R69*%
X120390000Y-66220000D02*
X119190000Y-66220000D01*
X119190000Y-67980000D02*
X120390000Y-67980000D01*
%TO.C,R70*%
X120480000Y-62890000D02*
X119280000Y-62890000D01*
X119280000Y-64650000D02*
X120480000Y-64650000D01*
%TO.C,J4*%
X139220000Y-146670000D02*
X139220000Y-148000000D01*
X139220000Y-137720000D02*
X141880000Y-137720000D01*
X139220000Y-145400000D02*
X139220000Y-137720000D01*
X139220000Y-145400000D02*
X141880000Y-145400000D01*
X141880000Y-145400000D02*
X141880000Y-137720000D01*
X139220000Y-148000000D02*
X140550000Y-148000000D01*
%TO.C,J5*%
X63240000Y-58300000D02*
X63240000Y-50620000D01*
X63240000Y-60900000D02*
X64570000Y-60900000D01*
X63240000Y-50620000D02*
X65900000Y-50620000D01*
X63240000Y-59570000D02*
X63240000Y-60900000D01*
X63240000Y-58300000D02*
X65900000Y-58300000D01*
X65900000Y-58300000D02*
X65900000Y-50620000D01*
%TO.C,J6*%
X63400000Y-142140000D02*
X66060000Y-142140000D01*
X66060000Y-142140000D02*
X66060000Y-134460000D01*
X63400000Y-144740000D02*
X64730000Y-144740000D01*
X63400000Y-143410000D02*
X63400000Y-144740000D01*
X63400000Y-134460000D02*
X66060000Y-134460000D01*
X63400000Y-142140000D02*
X63400000Y-134460000D01*
%TO.C,J7*%
X139240000Y-67710000D02*
X141900000Y-67710000D01*
X141900000Y-67710000D02*
X141900000Y-60030000D01*
X139240000Y-60030000D02*
X141900000Y-60030000D01*
X139240000Y-67710000D02*
X139240000Y-60030000D01*
X139240000Y-70310000D02*
X140570000Y-70310000D01*
X139240000Y-68980000D02*
X139240000Y-70310000D01*
%TO.C,R71*%
X91560000Y-101010000D02*
X92760000Y-101010000D01*
X92760000Y-99250000D02*
X91560000Y-99250000D01*
%TO.C,D8*%
X91860000Y-76720000D02*
X93535000Y-76720000D01*
X91860000Y-76720000D02*
X91210000Y-76720000D01*
X91860000Y-79840000D02*
X92510000Y-79840000D01*
X91860000Y-79840000D02*
X91210000Y-79840000D01*
%TO.C,D6*%
X90590000Y-107100000D02*
X89940000Y-107100000D01*
X90590000Y-110220000D02*
X91240000Y-110220000D01*
X90590000Y-107100000D02*
X92265000Y-107100000D01*
X90590000Y-110220000D02*
X89940000Y-110220000D01*
%TO.C,D3*%
X97322500Y-100830000D02*
X95647500Y-100830000D01*
X97322500Y-97710000D02*
X96672500Y-97710000D01*
X97322500Y-100830000D02*
X97972500Y-100830000D01*
X97322500Y-97710000D02*
X97972500Y-97710000D01*
%TO.C,D4*%
X93822500Y-72950000D02*
X94472500Y-72950000D01*
X93822500Y-72950000D02*
X93172500Y-72950000D01*
X93822500Y-69830000D02*
X95497500Y-69830000D01*
X93822500Y-69830000D02*
X93172500Y-69830000D01*
%TO.C,D5*%
X84920000Y-76060000D02*
X85570000Y-76060000D01*
X84920000Y-79180000D02*
X85570000Y-79180000D01*
X84920000Y-79180000D02*
X83245000Y-79180000D01*
X84920000Y-76060000D02*
X84270000Y-76060000D01*
%TO.C,D11*%
X123190000Y-95740000D02*
X121515000Y-95740000D01*
X123190000Y-95740000D02*
X123840000Y-95740000D01*
X123190000Y-92620000D02*
X122540000Y-92620000D01*
X123190000Y-92620000D02*
X123840000Y-92620000D01*
%TO.C,D9*%
X129890000Y-104240000D02*
X129240000Y-104240000D01*
X129890000Y-107360000D02*
X130540000Y-107360000D01*
X129890000Y-104240000D02*
X130540000Y-104240000D01*
X129890000Y-107360000D02*
X128215000Y-107360000D01*
%TO.C,D7*%
X102790000Y-97800000D02*
X103440000Y-97800000D01*
X102790000Y-100920000D02*
X101115000Y-100920000D01*
X102790000Y-100920000D02*
X103440000Y-100920000D01*
X102790000Y-97800000D02*
X102140000Y-97800000D01*
%TO.C,D10*%
X97290000Y-81030000D02*
X98965000Y-81030000D01*
X97290000Y-84150000D02*
X96640000Y-84150000D01*
X97290000Y-84150000D02*
X97940000Y-84150000D01*
X97290000Y-81030000D02*
X96640000Y-81030000D01*
%TD*%
%LPC*%
D12*
%TO.C,R76*%
X92215000Y-139900000D03*
X94040000Y-139900000D03*
%TD*%
D13*
%TO.C,U12*%
X82430000Y-133565000D03*
X83700000Y-133565000D03*
X84970000Y-133565000D03*
X86240000Y-133565000D03*
X87510000Y-133565000D03*
X88780000Y-133565000D03*
X90050000Y-133565000D03*
X90050000Y-138515000D03*
X88780000Y-138515000D03*
X87510000Y-138515000D03*
X86240000Y-138515000D03*
X84970000Y-138515000D03*
X83700000Y-138515000D03*
X82430000Y-138515000D03*
%TD*%
D12*
%TO.C,R79*%
X81870000Y-142770000D03*
X83695000Y-142770000D03*
%TD*%
%TO.C,R78*%
X89960000Y-142510000D03*
X91785000Y-142510000D03*
%TD*%
%TO.C,R77*%
X81957500Y-145290000D03*
X83782500Y-145290000D03*
%TD*%
%TO.C,R75*%
X92460000Y-136030000D03*
X94285000Y-136030000D03*
%TD*%
%TO.C,R74*%
X78000000Y-133540000D03*
X79825000Y-133540000D03*
%TD*%
D14*
%TO.C,R73*%
X83240000Y-129352500D03*
X83240000Y-127527500D03*
%TD*%
D12*
%TO.C,R72*%
X77925000Y-131010000D03*
X79750000Y-131010000D03*
%TD*%
D15*
%TO.C,C22*%
X85930000Y-142470000D03*
X87830000Y-142470000D03*
%TD*%
%TO.C,C21*%
X86130000Y-130850000D03*
X88030000Y-130850000D03*
%TD*%
D16*
%TO.C,J1*%
X121650000Y-121800000D03*
D17*
X124190000Y-121800000D03*
X121650000Y-124340000D03*
X124190000Y-124340000D03*
X121650000Y-126880000D03*
X124190000Y-126880000D03*
X121650000Y-129420000D03*
X124190000Y-129420000D03*
X121650000Y-131960000D03*
X124190000Y-131960000D03*
%TD*%
D18*
%TO.C,J2*%
X69000000Y-91300000D03*
D17*
X69000000Y-88760000D03*
X69000000Y-86220000D03*
X69000000Y-83680000D03*
%TD*%
D19*
%TO.C,M1*%
X135300000Y-137000000D03*
D20*
X135300000Y-140100000D03*
X135300000Y-148400000D03*
%TD*%
D19*
%TO.C,M2*%
X145500000Y-137000000D03*
D20*
X145500000Y-140100000D03*
X145500000Y-148400000D03*
%TD*%
D19*
%TO.C,M3*%
X145500000Y-122200000D03*
D20*
X145500000Y-125300000D03*
X145500000Y-133600000D03*
%TD*%
D19*
%TO.C,M4*%
X135300000Y-122200000D03*
D20*
X135300000Y-125300000D03*
X135300000Y-133600000D03*
%TD*%
D19*
%TO.C,M5*%
X69700000Y-137000000D03*
D20*
X69700000Y-140100000D03*
X69700000Y-148400000D03*
%TD*%
D19*
%TO.C,M6*%
X59500000Y-137000000D03*
D20*
X59500000Y-140100000D03*
X59500000Y-148400000D03*
%TD*%
D19*
%TO.C,M7*%
X59500000Y-122200000D03*
D20*
X59500000Y-125300000D03*
X59500000Y-133600000D03*
%TD*%
D19*
%TO.C,M8*%
X69700000Y-122200000D03*
D20*
X69700000Y-125300000D03*
X69700000Y-133600000D03*
%TD*%
D19*
%TO.C,M9*%
X69700000Y-49000000D03*
D20*
X69700000Y-52100000D03*
X69700000Y-60400000D03*
%TD*%
D19*
%TO.C,M10*%
X59500000Y-49000000D03*
D20*
X59500000Y-52100000D03*
X59500000Y-60400000D03*
%TD*%
D19*
%TO.C,M11*%
X59500000Y-64000000D03*
D20*
X59500000Y-67100000D03*
X59500000Y-75400000D03*
%TD*%
D19*
%TO.C,M12*%
X69700000Y-64000000D03*
D20*
X69700000Y-67100000D03*
X69700000Y-75400000D03*
%TD*%
D19*
%TO.C,M13*%
X135300000Y-49000000D03*
D20*
X135300000Y-52100000D03*
X135300000Y-60400000D03*
%TD*%
D19*
%TO.C,M14*%
X145500000Y-49000000D03*
D20*
X145500000Y-52100000D03*
X145500000Y-60400000D03*
%TD*%
D19*
%TO.C,M15*%
X145500000Y-64000000D03*
D20*
X145500000Y-67100000D03*
X145500000Y-75400000D03*
%TD*%
D19*
%TO.C,M16*%
X135300000Y-64000000D03*
D20*
X135300000Y-67100000D03*
X135300000Y-75400000D03*
%TD*%
D21*
%TO.C,C1*%
X113519000Y-118740000D03*
X116821000Y-118740000D03*
%TD*%
D22*
%TO.C,C2*%
X116701000Y-122050000D03*
X113399000Y-122050000D03*
%TD*%
D21*
%TO.C,C3*%
X107699000Y-113900000D03*
X111001000Y-113900000D03*
%TD*%
D23*
%TO.C,C4*%
X111900000Y-110850000D03*
X113900000Y-110850000D03*
%TD*%
D21*
%TO.C,C5*%
X113799000Y-126500000D03*
X117101000Y-126500000D03*
%TD*%
D24*
%TO.C,C6*%
X128400000Y-116200000D03*
X126400000Y-116200000D03*
%TD*%
D22*
%TO.C,C7*%
X117201000Y-114050000D03*
X113899000Y-114050000D03*
%TD*%
D23*
%TO.C,C8*%
X126400000Y-112900000D03*
X128400000Y-112900000D03*
%TD*%
D24*
%TO.C,C9*%
X99530000Y-62120000D03*
X97530000Y-62120000D03*
%TD*%
%TO.C,C10*%
X91900000Y-64100000D03*
X89900000Y-64100000D03*
%TD*%
%TO.C,C11*%
X90500000Y-51300000D03*
X88500000Y-51300000D03*
%TD*%
D23*
%TO.C,C12*%
X93700000Y-62100000D03*
X95700000Y-62100000D03*
%TD*%
%TO.C,C13*%
X101900000Y-62100000D03*
X103900000Y-62100000D03*
%TD*%
D24*
%TO.C,C14*%
X98600000Y-74900000D03*
X96600000Y-74900000D03*
%TD*%
D23*
%TO.C,C15*%
X93500000Y-49900000D03*
X95500000Y-49900000D03*
%TD*%
%TO.C,C16*%
X100500000Y-77300000D03*
X102500000Y-77300000D03*
%TD*%
%TO.C,C17*%
X122100000Y-71300000D03*
X124100000Y-71300000D03*
%TD*%
D24*
%TO.C,C18*%
X116010000Y-81890000D03*
X114010000Y-81890000D03*
%TD*%
%TO.C,C19*%
X116400000Y-71300000D03*
X114400000Y-71300000D03*
%TD*%
D23*
%TO.C,C20*%
X121900000Y-82100000D03*
X123900000Y-82100000D03*
%TD*%
%TO.C,C25*%
X134500000Y-79200000D03*
X136500000Y-79200000D03*
%TD*%
D24*
%TO.C,C26*%
X128200000Y-94600000D03*
X126200000Y-94600000D03*
%TD*%
%TO.C,C27*%
X128900000Y-79000000D03*
X126900000Y-79000000D03*
%TD*%
D23*
%TO.C,C28*%
X108750000Y-77190000D03*
X110750000Y-77190000D03*
%TD*%
%TO.C,C29*%
X74100000Y-80100000D03*
X76100000Y-80100000D03*
%TD*%
%TO.C,C30*%
X75200000Y-97300000D03*
X77200000Y-97300000D03*
%TD*%
%TO.C,C31*%
X87000000Y-80200000D03*
X89000000Y-80200000D03*
%TD*%
D25*
%TO.C,C32*%
X98470000Y-92569000D03*
X98470000Y-95871000D03*
%TD*%
D23*
%TO.C,C33*%
X90630000Y-80980000D03*
X92630000Y-80980000D03*
%TD*%
%TO.C,C34*%
X82280000Y-80310000D03*
X84280000Y-80310000D03*
%TD*%
D26*
%TO.C,C35*%
X94450000Y-83390000D03*
X94450000Y-81390000D03*
%TD*%
D23*
%TO.C,C36*%
X94220000Y-94830000D03*
X96220000Y-94830000D03*
%TD*%
%TO.C,C37*%
X81825000Y-97600000D03*
X83825000Y-97600000D03*
%TD*%
D24*
%TO.C,C38*%
X80600000Y-81000000D03*
X78600000Y-81000000D03*
%TD*%
D23*
%TO.C,C49*%
X92500000Y-52000000D03*
X94500000Y-52000000D03*
%TD*%
%TO.C,C50*%
X101900000Y-64400000D03*
X103900000Y-64400000D03*
%TD*%
D24*
%TO.C,C51*%
X91900000Y-62000000D03*
X89900000Y-62000000D03*
%TD*%
D23*
%TO.C,C52*%
X100500000Y-75300000D03*
X102500000Y-75300000D03*
%TD*%
%TO.C,C53*%
X130000000Y-93100000D03*
X132000000Y-93100000D03*
%TD*%
%TO.C,C54*%
X117740000Y-81890000D03*
X119740000Y-81890000D03*
%TD*%
%TO.C,C55*%
X115300000Y-62300000D03*
X117300000Y-62300000D03*
%TD*%
%TO.C,C56*%
X108690000Y-93130000D03*
X110690000Y-93130000D03*
%TD*%
%TO.C,C57*%
X130700000Y-81800000D03*
X132700000Y-81800000D03*
%TD*%
%TO.C,C58*%
X118200000Y-71300000D03*
X120200000Y-71300000D03*
%TD*%
%TO.C,C59*%
X115700000Y-51700000D03*
X117700000Y-51700000D03*
%TD*%
%TO.C,C60*%
X108100000Y-82400000D03*
X110100000Y-82400000D03*
%TD*%
D24*
%TO.C,C63*%
X90200000Y-128300000D03*
X88200000Y-128300000D03*
%TD*%
D23*
%TO.C,C64*%
X89450000Y-117100000D03*
X91450000Y-117100000D03*
%TD*%
%TO.C,C65*%
X60100000Y-114400000D03*
X62100000Y-114400000D03*
%TD*%
%TO.C,C66*%
X133900000Y-114800000D03*
X135900000Y-114800000D03*
%TD*%
D27*
%TO.C,D1*%
X116950000Y-130700000D03*
X113650000Y-130700000D03*
%TD*%
D28*
%TO.C,D2*%
X119900000Y-116100000D03*
X123200000Y-116100000D03*
%TD*%
D29*
%TO.C,J3*%
X126100000Y-105500000D03*
D17*
X126100000Y-102960000D03*
X123560000Y-105500000D03*
X123560000Y-102960000D03*
X121020000Y-105500000D03*
X121020000Y-102960000D03*
X118480000Y-105500000D03*
X118480000Y-102960000D03*
X115940000Y-105500000D03*
X115940000Y-102960000D03*
X113400000Y-105500000D03*
X113400000Y-102960000D03*
X110860000Y-105500000D03*
X110860000Y-102960000D03*
X108320000Y-105500000D03*
X108320000Y-102960000D03*
X105780000Y-105500000D03*
X105780000Y-102960000D03*
X103240000Y-105500000D03*
X103240000Y-102960000D03*
X100700000Y-105500000D03*
X100700000Y-102960000D03*
X98160000Y-105500000D03*
X98160000Y-102960000D03*
X95620000Y-105500000D03*
X95620000Y-102960000D03*
X93080000Y-105500000D03*
X93080000Y-102960000D03*
X90540000Y-105500000D03*
X90540000Y-102960000D03*
X88000000Y-105500000D03*
X88000000Y-102960000D03*
X85460000Y-105500000D03*
X85460000Y-102960000D03*
X82920000Y-105500000D03*
X82920000Y-102960000D03*
X80380000Y-105500000D03*
X80380000Y-102960000D03*
X77840000Y-105500000D03*
X77840000Y-102960000D03*
%TD*%
D30*
%TO.C,L1*%
X122290000Y-112820000D03*
X123790000Y-112820000D03*
%TD*%
D31*
%TO.C,Q1*%
X124380000Y-75770000D03*
X124380000Y-73870000D03*
X126380000Y-74820000D03*
%TD*%
D32*
%TO.C,Q2*%
X112100000Y-71650000D03*
X112100000Y-73550000D03*
X110100000Y-72600000D03*
%TD*%
D31*
%TO.C,Q3*%
X110200000Y-69250000D03*
X110200000Y-67350000D03*
X112200000Y-68300000D03*
%TD*%
D32*
%TO.C,Q4*%
X119740000Y-84440000D03*
X119740000Y-86340000D03*
X117740000Y-85390000D03*
%TD*%
D33*
%TO.C,R1*%
X93390000Y-68680000D03*
X95290000Y-68680000D03*
%TD*%
%TO.C,R2*%
X96450000Y-64700000D03*
X98350000Y-64700000D03*
%TD*%
%TO.C,R3*%
X93190000Y-66780000D03*
X95090000Y-66780000D03*
%TD*%
%TO.C,R4*%
X97150000Y-49800000D03*
X99050000Y-49800000D03*
%TD*%
D34*
%TO.C,R5*%
X98150000Y-52000000D03*
X96250000Y-52000000D03*
%TD*%
%TO.C,R6*%
X100350000Y-54300000D03*
X98450000Y-54300000D03*
%TD*%
D33*
%TO.C,R7*%
X122250000Y-66800000D03*
X124150000Y-66800000D03*
%TD*%
D34*
%TO.C,R8*%
X115650000Y-83800000D03*
X113750000Y-83800000D03*
%TD*%
%TO.C,R9*%
X117150000Y-66500000D03*
X115250000Y-66500000D03*
%TD*%
D33*
%TO.C,R10*%
X122050000Y-84500000D03*
X123950000Y-84500000D03*
%TD*%
D34*
%TO.C,R11*%
X124150000Y-69000000D03*
X122250000Y-69000000D03*
%TD*%
D33*
%TO.C,R12*%
X113550000Y-86200000D03*
X115450000Y-86200000D03*
%TD*%
%TO.C,R13*%
X114450000Y-69000000D03*
X116350000Y-69000000D03*
%TD*%
%TO.C,R14*%
X121950000Y-86700000D03*
X123850000Y-86700000D03*
%TD*%
%TO.C,R15*%
X122240000Y-62550000D03*
X124140000Y-62550000D03*
%TD*%
D34*
%TO.C,R16*%
X115450000Y-88400000D03*
X113550000Y-88400000D03*
%TD*%
%TO.C,R17*%
X117150000Y-64500000D03*
X115250000Y-64500000D03*
%TD*%
%TO.C,R18*%
X123890000Y-89270000D03*
X121990000Y-89270000D03*
%TD*%
D33*
%TO.C,R19*%
X111350000Y-51700000D03*
X113250000Y-51700000D03*
%TD*%
%TO.C,R20*%
X111450000Y-62200000D03*
X113350000Y-62200000D03*
%TD*%
D34*
%TO.C,R21*%
X106750000Y-94000000D03*
X104850000Y-94000000D03*
%TD*%
D33*
%TO.C,R22*%
X103950000Y-82400000D03*
X105850000Y-82400000D03*
%TD*%
D34*
%TO.C,R23*%
X136250000Y-81800000D03*
X134350000Y-81800000D03*
%TD*%
D33*
%TO.C,R24*%
X126350000Y-92500000D03*
X128250000Y-92500000D03*
%TD*%
%TO.C,R25*%
X126750000Y-81800000D03*
X128650000Y-81800000D03*
%TD*%
D34*
%TO.C,R26*%
X110000000Y-79710000D03*
X108100000Y-79710000D03*
%TD*%
D33*
%TO.C,R27*%
X95850000Y-125350000D03*
X97750000Y-125350000D03*
%TD*%
D34*
%TO.C,R28*%
X93800000Y-128300000D03*
X91900000Y-128300000D03*
%TD*%
%TO.C,R29*%
X62250000Y-103900000D03*
X60350000Y-103900000D03*
%TD*%
%TO.C,R30*%
X66150000Y-103800000D03*
X64250000Y-103800000D03*
%TD*%
%TO.C,R31*%
X66150000Y-101900000D03*
X64250000Y-101900000D03*
%TD*%
D33*
%TO.C,R32*%
X63850000Y-114500000D03*
X65750000Y-114500000D03*
%TD*%
%TO.C,R33*%
X63850000Y-116500000D03*
X65750000Y-116500000D03*
%TD*%
D34*
%TO.C,R34*%
X62250000Y-116500000D03*
X60350000Y-116500000D03*
%TD*%
%TO.C,R35*%
X66250000Y-94800000D03*
X64350000Y-94800000D03*
%TD*%
%TO.C,R36*%
X66250000Y-97700000D03*
X64350000Y-97700000D03*
%TD*%
%TO.C,R37*%
X72250000Y-99700000D03*
X70350000Y-99700000D03*
%TD*%
%TO.C,R38*%
X71750000Y-111000000D03*
X69850000Y-111000000D03*
%TD*%
%TO.C,R39*%
X71850000Y-108600000D03*
X69950000Y-108600000D03*
%TD*%
%TO.C,R40*%
X69950000Y-103800000D03*
X68050000Y-103800000D03*
%TD*%
%TO.C,R41*%
X134650000Y-103200000D03*
X132750000Y-103200000D03*
%TD*%
D33*
%TO.C,R42*%
X136050000Y-103200000D03*
X137950000Y-103200000D03*
%TD*%
D34*
%TO.C,R43*%
X141550000Y-103200000D03*
X139650000Y-103200000D03*
%TD*%
D33*
%TO.C,R44*%
X138050000Y-114800000D03*
X139950000Y-114800000D03*
%TD*%
%TO.C,R45*%
X138050000Y-117000000D03*
X139950000Y-117000000D03*
%TD*%
%TO.C,R47*%
X132330000Y-101010000D03*
X134230000Y-101010000D03*
%TD*%
%TO.C,R48*%
X136150000Y-100940000D03*
X138050000Y-100940000D03*
%TD*%
%TO.C,R49*%
X130170000Y-95770000D03*
X132070000Y-95770000D03*
%TD*%
%TO.C,R50*%
X127520000Y-98960000D03*
X129420000Y-98960000D03*
%TD*%
%TO.C,R51*%
X128020000Y-108610000D03*
X129920000Y-108610000D03*
%TD*%
D34*
%TO.C,R53*%
X102320000Y-82070000D03*
X100420000Y-82070000D03*
%TD*%
D33*
%TO.C,R54*%
X103750000Y-79800000D03*
X105650000Y-79800000D03*
%TD*%
D34*
%TO.C,R55*%
X107550000Y-55700000D03*
X105650000Y-55700000D03*
%TD*%
%TO.C,R56*%
X115550000Y-49300000D03*
X113650000Y-49300000D03*
%TD*%
%TO.C,R57*%
X107550000Y-58000000D03*
X105650000Y-58000000D03*
%TD*%
%TO.C,R58*%
X103350000Y-94000000D03*
X101450000Y-94000000D03*
%TD*%
D33*
%TO.C,R59*%
X111400000Y-64960000D03*
X113300000Y-64960000D03*
%TD*%
%TO.C,R60*%
X102750000Y-96600000D03*
X104650000Y-96600000D03*
%TD*%
%TO.C,R61*%
X85050000Y-58100000D03*
X86950000Y-58100000D03*
%TD*%
D34*
%TO.C,R62*%
X86950000Y-60200000D03*
X85050000Y-60200000D03*
%TD*%
D33*
%TO.C,R63*%
X85050000Y-62300000D03*
X86950000Y-62300000D03*
%TD*%
%TO.C,R64*%
X104050000Y-77300000D03*
X105950000Y-77300000D03*
%TD*%
D34*
%TO.C,R65*%
X105950000Y-75300000D03*
X104050000Y-75300000D03*
%TD*%
%TO.C,R66*%
X108450000Y-70400000D03*
X106550000Y-70400000D03*
%TD*%
%TO.C,R85*%
X83900000Y-124250000D03*
X82000000Y-124250000D03*
%TD*%
D33*
%TO.C,R86*%
X82100000Y-121950000D03*
X84000000Y-121950000D03*
%TD*%
%TO.C,R87*%
X82150000Y-117450000D03*
X84050000Y-117450000D03*
%TD*%
%TO.C,R88*%
X93200000Y-117150000D03*
X95100000Y-117150000D03*
%TD*%
D34*
%TO.C,R89*%
X84100000Y-119500000D03*
X82200000Y-119500000D03*
%TD*%
%TO.C,R90*%
X95200000Y-115100000D03*
X93300000Y-115100000D03*
%TD*%
D35*
%TO.C,U1*%
X110350000Y-117470000D03*
D36*
X104050000Y-119750000D03*
D35*
X110350000Y-122030000D03*
%TD*%
%TO.C,U2*%
X110000000Y-127370000D03*
D36*
X103700000Y-129650000D03*
D35*
X110000000Y-131930000D03*
%TD*%
D37*
%TO.C,U3*%
X97090000Y-67000000D03*
X98360000Y-67000000D03*
X99630000Y-67000000D03*
X100900000Y-67000000D03*
X102170000Y-67000000D03*
X103440000Y-67000000D03*
X104710000Y-67000000D03*
X104710000Y-72400000D03*
X103440000Y-72400000D03*
X102170000Y-72400000D03*
X100900000Y-72400000D03*
X99630000Y-72400000D03*
X98360000Y-72400000D03*
X97090000Y-72400000D03*
%TD*%
%TO.C,U4*%
X88640000Y-54450000D03*
X89910000Y-54450000D03*
X91180000Y-54450000D03*
X92450000Y-54450000D03*
X93720000Y-54450000D03*
X94990000Y-54450000D03*
X96260000Y-54450000D03*
X96260000Y-59850000D03*
X94990000Y-59850000D03*
X93720000Y-59850000D03*
X92450000Y-59850000D03*
X91180000Y-59850000D03*
X89910000Y-59850000D03*
X88640000Y-59850000D03*
%TD*%
D38*
%TO.C,U5*%
X122560000Y-79300000D03*
X121290000Y-79300000D03*
X120020000Y-79300000D03*
X118750000Y-79300000D03*
X117480000Y-79300000D03*
X116210000Y-79300000D03*
X114940000Y-79300000D03*
X114940000Y-73900000D03*
X116210000Y-73900000D03*
X117480000Y-73900000D03*
X118750000Y-73900000D03*
X120020000Y-73900000D03*
X121290000Y-73900000D03*
X122560000Y-73900000D03*
%TD*%
D37*
%TO.C,U6*%
X81655000Y-68400000D03*
X82925000Y-68400000D03*
X84195000Y-68400000D03*
X85465000Y-68400000D03*
X86735000Y-68400000D03*
X88005000Y-68400000D03*
X89275000Y-68400000D03*
X90545000Y-68400000D03*
X90545000Y-73800000D03*
X89275000Y-73800000D03*
X88005000Y-73800000D03*
X86735000Y-73800000D03*
X85465000Y-73800000D03*
X84195000Y-73800000D03*
X82925000Y-73800000D03*
X81655000Y-73800000D03*
%TD*%
%TO.C,U7*%
X109555000Y-54400000D03*
X110825000Y-54400000D03*
X112095000Y-54400000D03*
X113365000Y-54400000D03*
X114635000Y-54400000D03*
X115905000Y-54400000D03*
X117175000Y-54400000D03*
X118445000Y-54400000D03*
X118445000Y-59800000D03*
X117175000Y-59800000D03*
X115905000Y-59800000D03*
X114635000Y-59800000D03*
X113365000Y-59800000D03*
X112095000Y-59800000D03*
X110825000Y-59800000D03*
X109555000Y-59800000D03*
%TD*%
%TO.C,U8*%
X101255000Y-85300000D03*
X102525000Y-85300000D03*
X103795000Y-85300000D03*
X105065000Y-85300000D03*
X106335000Y-85300000D03*
X107605000Y-85300000D03*
X108875000Y-85300000D03*
X110145000Y-85300000D03*
X110145000Y-90700000D03*
X108875000Y-90700000D03*
X107605000Y-90700000D03*
X106335000Y-90700000D03*
X105065000Y-90700000D03*
X103795000Y-90700000D03*
X102525000Y-90700000D03*
X101255000Y-90700000D03*
%TD*%
D38*
%TO.C,U9*%
X134410000Y-90100000D03*
X133140000Y-90100000D03*
X131870000Y-90100000D03*
X130600000Y-90100000D03*
X129330000Y-90100000D03*
X128060000Y-90100000D03*
X126790000Y-90100000D03*
X126790000Y-84700000D03*
X128060000Y-84700000D03*
X129330000Y-84700000D03*
X130600000Y-84700000D03*
X131870000Y-84700000D03*
X133140000Y-84700000D03*
X134410000Y-84700000D03*
%TD*%
%TO.C,U10*%
X93610000Y-125150000D03*
X92340000Y-125150000D03*
X91070000Y-125150000D03*
X89800000Y-125150000D03*
X88530000Y-125150000D03*
X87260000Y-125150000D03*
X85990000Y-125150000D03*
X85990000Y-119750000D03*
X87260000Y-119750000D03*
X88530000Y-119750000D03*
X89800000Y-119750000D03*
X91070000Y-119750000D03*
X92340000Y-119750000D03*
X93610000Y-119750000D03*
%TD*%
D39*
%TO.C,U11*%
X83250000Y-83000000D03*
X83750000Y-83000000D03*
X84250000Y-83000000D03*
X84750000Y-83000000D03*
X85250000Y-83000000D03*
X85750000Y-83000000D03*
X86250000Y-83000000D03*
X86750000Y-83000000D03*
X87250000Y-83000000D03*
X87750000Y-83000000D03*
X88250000Y-83000000D03*
X88750000Y-83000000D03*
X89250000Y-83000000D03*
X89750000Y-83000000D03*
X90250000Y-83000000D03*
X90750000Y-83000000D03*
D40*
X92700000Y-84950000D03*
X92700000Y-85450000D03*
X92700000Y-85950000D03*
X92700000Y-86450000D03*
X92700000Y-86950000D03*
X92700000Y-87450000D03*
X92700000Y-87950000D03*
X92700000Y-88450000D03*
X92700000Y-88950000D03*
X92700000Y-89450000D03*
X92700000Y-89950000D03*
X92700000Y-90450000D03*
X92700000Y-90950000D03*
X92700000Y-91450000D03*
X92700000Y-91950000D03*
X92700000Y-92450000D03*
D39*
X90750000Y-94400000D03*
X90250000Y-94400000D03*
X89750000Y-94400000D03*
X89250000Y-94400000D03*
X88750000Y-94400000D03*
X88250000Y-94400000D03*
X87750000Y-94400000D03*
X87250000Y-94400000D03*
X86750000Y-94400000D03*
X86250000Y-94400000D03*
X85750000Y-94400000D03*
X85250000Y-94400000D03*
X84750000Y-94400000D03*
X84250000Y-94400000D03*
X83750000Y-94400000D03*
X83250000Y-94400000D03*
D40*
X81300000Y-92450000D03*
X81300000Y-91950000D03*
X81300000Y-91450000D03*
X81300000Y-90950000D03*
X81300000Y-90450000D03*
X81300000Y-89950000D03*
X81300000Y-89450000D03*
X81300000Y-88950000D03*
X81300000Y-88450000D03*
X81300000Y-87950000D03*
X81300000Y-87450000D03*
X81300000Y-86950000D03*
X81300000Y-86450000D03*
X81300000Y-85950000D03*
X81300000Y-85450000D03*
X81300000Y-84950000D03*
%TD*%
D37*
%TO.C,U13*%
X60190000Y-106550000D03*
X61460000Y-106550000D03*
X62730000Y-106550000D03*
X64000000Y-106550000D03*
X65270000Y-106550000D03*
X66540000Y-106550000D03*
X67810000Y-106550000D03*
X67810000Y-111950000D03*
X66540000Y-111950000D03*
X65270000Y-111950000D03*
X64000000Y-111950000D03*
X62730000Y-111950000D03*
X61460000Y-111950000D03*
X60190000Y-111950000D03*
%TD*%
%TO.C,U14*%
X133990000Y-106000000D03*
X135260000Y-106000000D03*
X136530000Y-106000000D03*
X137800000Y-106000000D03*
X139070000Y-106000000D03*
X140340000Y-106000000D03*
X141610000Y-106000000D03*
X141610000Y-111400000D03*
X140340000Y-111400000D03*
X139070000Y-111400000D03*
X137800000Y-111400000D03*
X136530000Y-111400000D03*
X135260000Y-111400000D03*
X133990000Y-111400000D03*
%TD*%
D41*
%TO.C,Y1*%
X74400000Y-92600000D03*
X74400000Y-84100000D03*
%TD*%
D33*
%TO.C,R46*%
X125540000Y-57820000D03*
X127440000Y-57820000D03*
%TD*%
%TO.C,R52*%
X122230000Y-57820000D03*
X124130000Y-57820000D03*
%TD*%
%TO.C,R67*%
X122230000Y-64770000D03*
X124130000Y-64770000D03*
%TD*%
%TO.C,R68*%
X122270000Y-60100000D03*
X124170000Y-60100000D03*
%TD*%
%TO.C,R69*%
X118840000Y-67100000D03*
X120740000Y-67100000D03*
%TD*%
%TO.C,R70*%
X118930000Y-63770000D03*
X120830000Y-63770000D03*
%TD*%
D16*
%TO.C,J4*%
X140550000Y-146670000D03*
D17*
X140550000Y-144130000D03*
X140550000Y-141590000D03*
X140550000Y-139050000D03*
%TD*%
D16*
%TO.C,J5*%
X64570000Y-59570000D03*
D17*
X64570000Y-57030000D03*
X64570000Y-54490000D03*
X64570000Y-51950000D03*
%TD*%
D16*
%TO.C,J6*%
X64730000Y-143410000D03*
D17*
X64730000Y-140870000D03*
X64730000Y-138330000D03*
X64730000Y-135790000D03*
%TD*%
D16*
%TO.C,J7*%
X140570000Y-68980000D03*
D17*
X140570000Y-66440000D03*
X140570000Y-63900000D03*
X140570000Y-61360000D03*
%TD*%
D34*
%TO.C,R71*%
X93110000Y-100130000D03*
X91210000Y-100130000D03*
%TD*%
D42*
%TO.C,D8*%
X92797500Y-77330000D03*
X92797500Y-79230000D03*
X90922500Y-78280000D03*
%TD*%
%TO.C,D6*%
X91527500Y-107710000D03*
X91527500Y-109610000D03*
X89652500Y-108660000D03*
%TD*%
D43*
%TO.C,D3*%
X96385000Y-100220000D03*
X96385000Y-98320000D03*
X98260000Y-99270000D03*
%TD*%
D42*
%TO.C,D4*%
X94760000Y-70440000D03*
X94760000Y-72340000D03*
X92885000Y-71390000D03*
%TD*%
D43*
%TO.C,D5*%
X83982500Y-78570000D03*
X83982500Y-76670000D03*
X85857500Y-77620000D03*
%TD*%
%TO.C,D11*%
X122252500Y-95130000D03*
X122252500Y-93230000D03*
X124127500Y-94180000D03*
%TD*%
%TO.C,D9*%
X128952500Y-106750000D03*
X128952500Y-104850000D03*
X130827500Y-105800000D03*
%TD*%
%TO.C,D7*%
X101852500Y-100310000D03*
X101852500Y-98410000D03*
X103727500Y-99360000D03*
%TD*%
D42*
%TO.C,D10*%
X98227500Y-81640000D03*
X98227500Y-83540000D03*
X96352500Y-82590000D03*
%TD*%
M02*
