%TF.GenerationSoftware,KiCad,Pcbnew,6.0.6+dfsg-1~bpo11+1*%
%TF.CreationDate,2023-11-30T19:30:28+01:00*%
%TF.ProjectId,touch,746f7563-682e-46b6-9963-61645f706362,rev?*%
%TF.SameCoordinates,Original*%
%TF.FileFunction,Legend,Top*%
%TF.FilePolarity,Positive*%
%FSLAX46Y46*%
G04 Gerber Fmt 4.6, Leading zero omitted, Abs format (unit mm)*
G04 Created by KiCad (PCBNEW 6.0.6+dfsg-1~bpo11+1) date 2023-11-30 19:30:28*
%MOMM*%
%LPD*%
G01*
G04 APERTURE LIST*
G04 Aperture macros list*
%AMRoundRect*
0 Rectangle with rounded corners*
0 $1 Rounding radius*
0 $2 $3 $4 $5 $6 $7 $8 $9 X,Y pos of 4 corners*
0 Add a 4 corners polygon primitive as box body*
4,1,4,$2,$3,$4,$5,$6,$7,$8,$9,$2,$3,0*
0 Add four circle primitives for the rounded corners*
1,1,$1+$1,$2,$3*
1,1,$1+$1,$4,$5*
1,1,$1+$1,$6,$7*
1,1,$1+$1,$8,$9*
0 Add four rect primitives between the rounded corners*
20,1,$1+$1,$2,$3,$4,$5,0*
20,1,$1+$1,$4,$5,$6,$7,0*
20,1,$1+$1,$6,$7,$8,$9,0*
20,1,$1+$1,$8,$9,$2,$3,0*%
G04 Aperture macros list end*
%ADD10C,0.120000*%
%ADD11RoundRect,0.051000X-0.850000X-0.850000X0.850000X-0.850000X0.850000X0.850000X-0.850000X0.850000X0*%
%ADD12O,1.802000X1.802000*%
%ADD13RoundRect,0.051000X0.850000X0.850000X-0.850000X0.850000X-0.850000X-0.850000X0.850000X-0.850000X0*%
%ADD14RoundRect,0.051000X0.965000X0.915000X-0.965000X0.915000X-0.965000X-0.915000X0.965000X-0.915000X0*%
%ADD15C,2.232000*%
%ADD16RoundRect,0.051000X0.850000X-0.850000X0.850000X0.850000X-0.850000X0.850000X-0.850000X-0.850000X0*%
G04 APERTURE END LIST*
D10*
%TO.C,J1*%
X120320000Y-123070000D02*
X122920000Y-123070000D01*
X125520000Y-120470000D02*
X125520000Y-133290000D01*
X122920000Y-123070000D02*
X122920000Y-120470000D01*
X120320000Y-133290000D02*
X125520000Y-133290000D01*
X120320000Y-123070000D02*
X120320000Y-133290000D01*
X120320000Y-121800000D02*
X120320000Y-120470000D01*
X122920000Y-120470000D02*
X125520000Y-120470000D01*
X120320000Y-120470000D02*
X121650000Y-120470000D01*
%TO.C,J2*%
X70330000Y-90030000D02*
X70330000Y-82350000D01*
X70330000Y-82350000D02*
X67670000Y-82350000D01*
X70330000Y-91300000D02*
X70330000Y-92630000D01*
X70330000Y-92630000D02*
X69000000Y-92630000D01*
X70330000Y-90030000D02*
X67670000Y-90030000D01*
X67670000Y-90030000D02*
X67670000Y-82350000D01*
%TO.C,M1*%
X139800000Y-138980000D02*
X139800000Y-149480000D01*
X139800000Y-138980000D02*
X135650000Y-138980000D01*
X139800000Y-149480000D02*
X135800000Y-149480000D01*
X134240000Y-136000000D02*
X135100000Y-136000000D01*
X134240000Y-136000000D02*
X134240000Y-136800000D01*
X130800000Y-138980000D02*
X130800000Y-149480000D01*
X134800000Y-149480000D02*
X130800000Y-149480000D01*
X134950000Y-138980000D02*
X130800000Y-138980000D01*
X137100000Y-143480000D02*
G75*
G03*
X137100000Y-143480000I-1800000J0D01*
G01*
%TO.C,M2*%
X150000000Y-138980000D02*
X150000000Y-149480000D01*
X150000000Y-149480000D02*
X146000000Y-149480000D01*
X150000000Y-138980000D02*
X145850000Y-138980000D01*
X141000000Y-138980000D02*
X141000000Y-149480000D01*
X144440000Y-136000000D02*
X144440000Y-136800000D01*
X144440000Y-136000000D02*
X145300000Y-136000000D01*
X145000000Y-149480000D02*
X141000000Y-149480000D01*
X145150000Y-138980000D02*
X141000000Y-138980000D01*
X147300000Y-143480000D02*
G75*
G03*
X147300000Y-143480000I-1800000J0D01*
G01*
%TO.C,M3*%
X141000000Y-124180000D02*
X141000000Y-134680000D01*
X145150000Y-124180000D02*
X141000000Y-124180000D01*
X150000000Y-124180000D02*
X150000000Y-134680000D01*
X150000000Y-134680000D02*
X146000000Y-134680000D01*
X150000000Y-124180000D02*
X145850000Y-124180000D01*
X145000000Y-134680000D02*
X141000000Y-134680000D01*
X144440000Y-121200000D02*
X144440000Y-122000000D01*
X144440000Y-121200000D02*
X145300000Y-121200000D01*
X147300000Y-128680000D02*
G75*
G03*
X147300000Y-128680000I-1800000J0D01*
G01*
%TO.C,M4*%
X139800000Y-124180000D02*
X135650000Y-124180000D01*
X139800000Y-124180000D02*
X139800000Y-134680000D01*
X134240000Y-121200000D02*
X135100000Y-121200000D01*
X134950000Y-124180000D02*
X130800000Y-124180000D01*
X134800000Y-134680000D02*
X130800000Y-134680000D01*
X134240000Y-121200000D02*
X134240000Y-122000000D01*
X139800000Y-134680000D02*
X135800000Y-134680000D01*
X130800000Y-124180000D02*
X130800000Y-134680000D01*
X137100000Y-128680000D02*
G75*
G03*
X137100000Y-128680000I-1800000J0D01*
G01*
%TO.C,M5*%
X65200000Y-138980000D02*
X65200000Y-149480000D01*
X74200000Y-149480000D02*
X70200000Y-149480000D01*
X68640000Y-136000000D02*
X69500000Y-136000000D01*
X69200000Y-149480000D02*
X65200000Y-149480000D01*
X69350000Y-138980000D02*
X65200000Y-138980000D01*
X68640000Y-136000000D02*
X68640000Y-136800000D01*
X74200000Y-138980000D02*
X74200000Y-149480000D01*
X74200000Y-138980000D02*
X70050000Y-138980000D01*
X71500000Y-143480000D02*
G75*
G03*
X71500000Y-143480000I-1800000J0D01*
G01*
%TO.C,M6*%
X64000000Y-138980000D02*
X59850000Y-138980000D01*
X64000000Y-149480000D02*
X60000000Y-149480000D01*
X55000000Y-138980000D02*
X55000000Y-149480000D01*
X58440000Y-136000000D02*
X58440000Y-136800000D01*
X64000000Y-138980000D02*
X64000000Y-149480000D01*
X59150000Y-138980000D02*
X55000000Y-138980000D01*
X59000000Y-149480000D02*
X55000000Y-149480000D01*
X58440000Y-136000000D02*
X59300000Y-136000000D01*
X61300000Y-143480000D02*
G75*
G03*
X61300000Y-143480000I-1800000J0D01*
G01*
%TO.C,M7*%
X59150000Y-124180000D02*
X55000000Y-124180000D01*
X59000000Y-134680000D02*
X55000000Y-134680000D01*
X58440000Y-121200000D02*
X58440000Y-122000000D01*
X64000000Y-124180000D02*
X64000000Y-134680000D01*
X55000000Y-124180000D02*
X55000000Y-134680000D01*
X58440000Y-121200000D02*
X59300000Y-121200000D01*
X64000000Y-124180000D02*
X59850000Y-124180000D01*
X64000000Y-134680000D02*
X60000000Y-134680000D01*
X61300000Y-128680000D02*
G75*
G03*
X61300000Y-128680000I-1800000J0D01*
G01*
%TO.C,M8*%
X65200000Y-124180000D02*
X65200000Y-134680000D01*
X74200000Y-124180000D02*
X74200000Y-134680000D01*
X69200000Y-134680000D02*
X65200000Y-134680000D01*
X69350000Y-124180000D02*
X65200000Y-124180000D01*
X68640000Y-121200000D02*
X69500000Y-121200000D01*
X74200000Y-134680000D02*
X70200000Y-134680000D01*
X74200000Y-124180000D02*
X70050000Y-124180000D01*
X68640000Y-121200000D02*
X68640000Y-122000000D01*
X71500000Y-128680000D02*
G75*
G03*
X71500000Y-128680000I-1800000J0D01*
G01*
%TO.C,M9*%
X74200000Y-61480000D02*
X70200000Y-61480000D01*
X68640000Y-48000000D02*
X69500000Y-48000000D01*
X65200000Y-50980000D02*
X65200000Y-61480000D01*
X74200000Y-50980000D02*
X70050000Y-50980000D01*
X74200000Y-50980000D02*
X74200000Y-61480000D01*
X69200000Y-61480000D02*
X65200000Y-61480000D01*
X68640000Y-48000000D02*
X68640000Y-48800000D01*
X69350000Y-50980000D02*
X65200000Y-50980000D01*
X71500000Y-55480000D02*
G75*
G03*
X71500000Y-55480000I-1800000J0D01*
G01*
%TO.C,M10*%
X59150000Y-50980000D02*
X55000000Y-50980000D01*
X59000000Y-61480000D02*
X55000000Y-61480000D01*
X58440000Y-48000000D02*
X59300000Y-48000000D01*
X58440000Y-48000000D02*
X58440000Y-48800000D01*
X55000000Y-50980000D02*
X55000000Y-61480000D01*
X64000000Y-50980000D02*
X59850000Y-50980000D01*
X64000000Y-61480000D02*
X60000000Y-61480000D01*
X64000000Y-50980000D02*
X64000000Y-61480000D01*
X61300000Y-55480000D02*
G75*
G03*
X61300000Y-55480000I-1800000J0D01*
G01*
%TO.C,M11*%
X64000000Y-65980000D02*
X59850000Y-65980000D01*
X59150000Y-65980000D02*
X55000000Y-65980000D01*
X64000000Y-65980000D02*
X64000000Y-76480000D01*
X55000000Y-65980000D02*
X55000000Y-76480000D01*
X64000000Y-76480000D02*
X60000000Y-76480000D01*
X58440000Y-63000000D02*
X58440000Y-63800000D01*
X58440000Y-63000000D02*
X59300000Y-63000000D01*
X59000000Y-76480000D02*
X55000000Y-76480000D01*
X61300000Y-70480000D02*
G75*
G03*
X61300000Y-70480000I-1800000J0D01*
G01*
%TO.C,M12*%
X74200000Y-76480000D02*
X70200000Y-76480000D01*
X69350000Y-65980000D02*
X65200000Y-65980000D01*
X68640000Y-63000000D02*
X69500000Y-63000000D01*
X74200000Y-65980000D02*
X74200000Y-76480000D01*
X69200000Y-76480000D02*
X65200000Y-76480000D01*
X68640000Y-63000000D02*
X68640000Y-63800000D01*
X74200000Y-65980000D02*
X70050000Y-65980000D01*
X65200000Y-65980000D02*
X65200000Y-76480000D01*
X71500000Y-70480000D02*
G75*
G03*
X71500000Y-70480000I-1800000J0D01*
G01*
%TO.C,M13*%
X139800000Y-50980000D02*
X135650000Y-50980000D01*
X139800000Y-61480000D02*
X135800000Y-61480000D01*
X139800000Y-50980000D02*
X139800000Y-61480000D01*
X134240000Y-48000000D02*
X135100000Y-48000000D01*
X134240000Y-48000000D02*
X134240000Y-48800000D01*
X134800000Y-61480000D02*
X130800000Y-61480000D01*
X134950000Y-50980000D02*
X130800000Y-50980000D01*
X130800000Y-50980000D02*
X130800000Y-61480000D01*
X137100000Y-55480000D02*
G75*
G03*
X137100000Y-55480000I-1800000J0D01*
G01*
%TO.C,M14*%
X150000000Y-50980000D02*
X150000000Y-61480000D01*
X144440000Y-48000000D02*
X144440000Y-48800000D01*
X145150000Y-50980000D02*
X141000000Y-50980000D01*
X150000000Y-61480000D02*
X146000000Y-61480000D01*
X144440000Y-48000000D02*
X145300000Y-48000000D01*
X141000000Y-50980000D02*
X141000000Y-61480000D01*
X145000000Y-61480000D02*
X141000000Y-61480000D01*
X150000000Y-50980000D02*
X145850000Y-50980000D01*
X147300000Y-55480000D02*
G75*
G03*
X147300000Y-55480000I-1800000J0D01*
G01*
%TO.C,M15*%
X145150000Y-65980000D02*
X141000000Y-65980000D01*
X150000000Y-65980000D02*
X145850000Y-65980000D01*
X144440000Y-63000000D02*
X144440000Y-63800000D01*
X144440000Y-63000000D02*
X145300000Y-63000000D01*
X150000000Y-76480000D02*
X146000000Y-76480000D01*
X145000000Y-76480000D02*
X141000000Y-76480000D01*
X150000000Y-65980000D02*
X150000000Y-76480000D01*
X141000000Y-65980000D02*
X141000000Y-76480000D01*
X147300000Y-70480000D02*
G75*
G03*
X147300000Y-70480000I-1800000J0D01*
G01*
%TO.C,M16*%
X130800000Y-65980000D02*
X130800000Y-76480000D01*
X134240000Y-63000000D02*
X134240000Y-63800000D01*
X134950000Y-65980000D02*
X130800000Y-65980000D01*
X134240000Y-63000000D02*
X135100000Y-63000000D01*
X139800000Y-76480000D02*
X135800000Y-76480000D01*
X139800000Y-65980000D02*
X139800000Y-76480000D01*
X139800000Y-65980000D02*
X135650000Y-65980000D01*
X134800000Y-76480000D02*
X130800000Y-76480000D01*
X137100000Y-70480000D02*
G75*
G03*
X137100000Y-70480000I-1800000J0D01*
G01*
%TD*%
%LPC*%
D11*
%TO.C,J1*%
X121650000Y-121800000D03*
D12*
X124190000Y-121800000D03*
X121650000Y-124340000D03*
X124190000Y-124340000D03*
X121650000Y-126880000D03*
X124190000Y-126880000D03*
X121650000Y-129420000D03*
X124190000Y-129420000D03*
X121650000Y-131960000D03*
X124190000Y-131960000D03*
%TD*%
D13*
%TO.C,J2*%
X69000000Y-91300000D03*
D12*
X69000000Y-88760000D03*
X69000000Y-86220000D03*
X69000000Y-83680000D03*
%TD*%
D14*
%TO.C,M1*%
X135300000Y-137000000D03*
D15*
X135300000Y-140100000D03*
X135300000Y-148400000D03*
%TD*%
D14*
%TO.C,M2*%
X145500000Y-137000000D03*
D15*
X145500000Y-140100000D03*
X145500000Y-148400000D03*
%TD*%
D14*
%TO.C,M3*%
X145500000Y-122200000D03*
D15*
X145500000Y-125300000D03*
X145500000Y-133600000D03*
%TD*%
D14*
%TO.C,M4*%
X135300000Y-122200000D03*
D15*
X135300000Y-125300000D03*
X135300000Y-133600000D03*
%TD*%
D14*
%TO.C,M5*%
X69700000Y-137000000D03*
D15*
X69700000Y-140100000D03*
X69700000Y-148400000D03*
%TD*%
D14*
%TO.C,M6*%
X59500000Y-137000000D03*
D15*
X59500000Y-140100000D03*
X59500000Y-148400000D03*
%TD*%
D14*
%TO.C,M7*%
X59500000Y-122200000D03*
D15*
X59500000Y-125300000D03*
X59500000Y-133600000D03*
%TD*%
D14*
%TO.C,M8*%
X69700000Y-122200000D03*
D15*
X69700000Y-125300000D03*
X69700000Y-133600000D03*
%TD*%
D14*
%TO.C,M9*%
X69700000Y-49000000D03*
D15*
X69700000Y-52100000D03*
X69700000Y-60400000D03*
%TD*%
D14*
%TO.C,M10*%
X59500000Y-49000000D03*
D15*
X59500000Y-52100000D03*
X59500000Y-60400000D03*
%TD*%
D14*
%TO.C,M11*%
X59500000Y-64000000D03*
D15*
X59500000Y-67100000D03*
X59500000Y-75400000D03*
%TD*%
D14*
%TO.C,M12*%
X69700000Y-64000000D03*
D15*
X69700000Y-67100000D03*
X69700000Y-75400000D03*
%TD*%
D14*
%TO.C,M13*%
X135300000Y-49000000D03*
D15*
X135300000Y-52100000D03*
X135300000Y-60400000D03*
%TD*%
D14*
%TO.C,M14*%
X145500000Y-49000000D03*
D15*
X145500000Y-52100000D03*
X145500000Y-60400000D03*
%TD*%
D14*
%TO.C,M15*%
X145500000Y-64000000D03*
D15*
X145500000Y-67100000D03*
X145500000Y-75400000D03*
%TD*%
D14*
%TO.C,M16*%
X135300000Y-64000000D03*
D15*
X135300000Y-67100000D03*
X135300000Y-75400000D03*
%TD*%
D16*
%TO.C,J3*%
X126100000Y-105500000D03*
D12*
X126100000Y-102960000D03*
X123560000Y-105500000D03*
X123560000Y-102960000D03*
X121020000Y-105500000D03*
X121020000Y-102960000D03*
X118480000Y-105500000D03*
X118480000Y-102960000D03*
X115940000Y-105500000D03*
X115940000Y-102960000D03*
X113400000Y-105500000D03*
X113400000Y-102960000D03*
X110860000Y-105500000D03*
X110860000Y-102960000D03*
X108320000Y-105500000D03*
X108320000Y-102960000D03*
X105780000Y-105500000D03*
X105780000Y-102960000D03*
X103240000Y-105500000D03*
X103240000Y-102960000D03*
X100700000Y-105500000D03*
X100700000Y-102960000D03*
X98160000Y-105500000D03*
X98160000Y-102960000D03*
X95620000Y-105500000D03*
X95620000Y-102960000D03*
X93080000Y-105500000D03*
X93080000Y-102960000D03*
X90540000Y-105500000D03*
X90540000Y-102960000D03*
X88000000Y-105500000D03*
X88000000Y-102960000D03*
X85460000Y-105500000D03*
X85460000Y-102960000D03*
X82920000Y-105500000D03*
X82920000Y-102960000D03*
X80380000Y-105500000D03*
X80380000Y-102960000D03*
X77840000Y-105500000D03*
X77840000Y-102960000D03*
%TD*%
D11*
%TO.C,J4*%
X140550000Y-146670000D03*
D12*
X140550000Y-144130000D03*
X140550000Y-141590000D03*
X140550000Y-139050000D03*
%TD*%
D11*
%TO.C,J5*%
X64570000Y-59570000D03*
D12*
X64570000Y-57030000D03*
X64570000Y-54490000D03*
X64570000Y-51950000D03*
%TD*%
D11*
%TO.C,J6*%
X64730000Y-143410000D03*
D12*
X64730000Y-140870000D03*
X64730000Y-138330000D03*
X64730000Y-135790000D03*
%TD*%
D11*
%TO.C,J7*%
X140570000Y-68980000D03*
D12*
X140570000Y-66440000D03*
X140570000Y-63900000D03*
X140570000Y-61360000D03*
%TD*%
M02*
